<svg width="24" height="25" viewBox="0 0 24 25" fill="none" xmlns="http://www.w3.org/2000/svg">
<g id="video-octagon">
<path id="Vector" d="M21.08 9.08003V15.92C21.08 17.04 20.48 18.08 19.51 18.65L13.57 22.08C12.6 22.64 11.4 22.64 10.42 22.08L4.48004 18.65C3.51004 18.09 2.91003 17.05 2.91003 15.92V9.08003C2.91003 7.96003 3.51004 6.91999 4.48004 6.34999L10.42 2.92C11.39 2.36 12.59 2.36 13.57 2.92L19.51 6.34999C20.48 6.91999 21.08 7.95003 21.08 9.08003Z" fill="#171717"/>
<path id="Vector_2" d="M9.75 12.4989V11.2989C9.75 9.75891 10.84 9.12895 12.17 9.89895L13.21 10.4989L14.25 11.0989C15.58 11.8689 15.58 13.129 14.25 13.899L13.21 14.4989L12.17 15.0989C10.84 15.8689 9.75 15.2389 9.75 13.6989V12.4989Z" fill="white"/>
</g>
</svg>
