<svg width="24" height="24" viewBox="0 0 24 24" fill="none" xmlns="http://www.w3.org/2000/svg">
<path d="M12.02 20.5299C9.69001 20.5299 7.36001 20.1599 5.15001 19.4199C4.31001 19.1299 3.67001 18.5399 3.39001 17.7699C3.10001 16.9999 3.20001 16.1499 3.66001 15.3899L4.81001 13.4799C5.05001 13.0799 5.27001 12.2799 5.27001 11.8099V8.91992C5.27001 5.19992 8.30001 2.16992 12.02 2.16992C15.74 2.16992 18.77 5.19992 18.77 8.91992V11.8099C18.77 12.2699 18.99 13.0799 19.23 13.4899L20.37 15.3899C20.8 16.1099 20.88 16.9799 20.59 17.7699C20.3 18.5599 19.67 19.1599 18.88 19.4199C16.68 20.1599 14.35 20.5299 12.02 20.5299ZM12.02 3.66992C9.13001 3.66992 6.77001 6.01992 6.77001 8.91992V11.8099C6.77001 12.5399 6.47001 13.6199 6.10001 14.2499L4.95001 16.1599C4.73001 16.5299 4.67001 16.9199 4.80001 17.2499C4.92001 17.5899 5.22001 17.8499 5.63001 17.9899C9.81001 19.3899 14.24 19.3899 18.42 17.9899C18.78 17.8699 19.06 17.5999 19.19 17.2399C19.32 16.8799 19.29 16.4899 19.09 16.1599L17.94 14.2499C17.56 13.5999 17.27 12.5299 17.27 11.7999V8.91992C17.27 6.01992 14.92 3.66992 12.02 3.66992Z" fill="#86898F"/>
<path d="M13.8806 3.93969C13.8106 3.93969 13.7406 3.92969 13.6706 3.90969C13.3806 3.82969 13.1006 3.76969 12.8306 3.72969C11.9806 3.61969 11.1606 3.67969 10.3906 3.90969C10.1106 3.99969 9.8106 3.90969 9.6206 3.69969C9.4306 3.48969 9.3706 3.18969 9.4806 2.91969C9.8906 1.86969 10.8906 1.17969 12.0306 1.17969C13.1706 1.17969 14.1706 1.85969 14.5806 2.91969C14.6806 3.18969 14.6306 3.48969 14.4406 3.69969C14.2906 3.85969 14.0806 3.93969 13.8806 3.93969Z" fill="#86898F"/>
<path d="M12.0195 22.8096C11.0295 22.8096 10.0695 22.4096 9.36953 21.7096C8.66953 21.0096 8.26953 20.0496 8.26953 19.0596H9.76953C9.76953 19.6496 10.0095 20.2296 10.4295 20.6496C10.8495 21.0696 11.4295 21.3096 12.0195 21.3096C13.2595 21.3096 14.2695 20.2996 14.2695 19.0596H15.7695C15.7695 21.1296 14.0895 22.8096 12.0195 22.8096Z" fill="#86898F"/>
</svg>
