<svg width="24" height="24" viewBox="0 0 24 24" fill="none" xmlns="http://www.w3.org/2000/svg">
<g id="vuesax/outline/notification">
<g id="notification">
<path id="Vector" d="M11.5954 19.7141C9.43141 19.7141 7.26742 19.3687 5.21487 18.6777C4.43471 18.407 3.84031 17.8561 3.58026 17.1371C3.31092 16.4182 3.4038 15.6245 3.83102 14.9149L4.89909 13.1315C5.12199 12.758 5.32632 12.0111 5.32632 11.5722V8.87381C5.32632 5.40042 8.14045 2.57129 11.5954 2.57129C15.0504 2.57129 17.8645 5.40042 17.8645 8.87381V11.5722C17.8645 12.0017 18.0688 12.758 18.2917 13.1408L19.3505 14.9149C19.7499 15.5872 19.8242 16.3995 19.5548 17.1371C19.2855 17.8747 18.7004 18.435 17.9667 18.6777C15.9234 19.3687 13.7594 19.7141 11.5954 19.7141ZM11.5954 3.97185C8.91131 3.97185 6.71945 6.16606 6.71945 8.87381V11.5722C6.71945 12.2538 6.44082 13.2622 6.09719 13.8505L5.02912 15.6338C4.82479 15.9793 4.76907 16.3435 4.8898 16.6516C5.00126 16.969 5.27988 17.2118 5.66067 17.3425C9.54286 18.6497 13.6572 18.6497 17.5394 17.3425C17.8738 17.2305 18.1338 16.9784 18.2546 16.6423C18.3753 16.3061 18.3475 15.942 18.1617 15.6338L17.0936 13.8505C16.7407 13.2436 16.4714 12.2445 16.4714 11.5629V8.87381C16.4714 6.16606 14.2888 3.97185 11.5954 3.97185Z" fill="#5E6167"/>
<path id="Vector_2" d="M13.7065 4.28088C13.6258 4.28088 13.5451 4.27158 13.4644 4.25297C13.1301 4.17857 12.8074 4.12276 12.4961 4.08556C11.5163 3.98325 10.5711 4.03906 9.68356 4.25297C9.3608 4.33668 9.01499 4.25297 8.79598 4.05766C8.57697 3.86234 8.50781 3.58332 8.6346 3.3322C9.10721 2.35562 10.2599 1.71387 11.574 1.71387C12.888 1.71387 14.0407 2.34632 14.5133 3.3322C14.6286 3.58332 14.571 3.86234 14.352 4.05766C14.1791 4.20647 13.937 4.28088 13.7065 4.28088Z" fill="#5E6167"/>
<path id="Vector_3" d="M11.5714 22.286C10.5531 22.286 9.56566 21.9203 8.84566 21.2803C8.12566 20.6403 7.71423 19.7626 7.71423 18.8574H9.25709C9.25709 19.3969 9.50395 19.9271 9.93595 20.3111C10.3679 20.6951 10.9645 20.9146 11.5714 20.9146C12.8468 20.9146 13.8857 19.9911 13.8857 18.8574H15.4285C15.4285 20.75 13.7005 22.286 11.5714 22.286Z" fill="#5E6167"/>
</g>
</g>
</svg>
