<svg width="24" height="25" viewBox="0 0 24 25" fill="none" xmlns="http://www.w3.org/2000/svg">
<g id="vuesax/bulk/message-text">
<g id="message-text">
<path id="Vector" d="M16 2.5H8C4 2.5 2 4.5 2 8.5V21.5C2 22.05 2.45 22.5 3 22.5H16C20 22.5 22 20.5 22 16.5V8.5C22 4.5 20 2.5 16 2.5Z" fill="#171717"/>
<g id="Group">
<path id="Vector_2" d="M17 9.25H7C6.59 9.25 6.25 9.59 6.25 10C6.25 10.41 6.59 10.75 7 10.75H17C17.41 10.75 17.75 10.41 17.75 10C17.75 9.59 17.41 9.25 17 9.25Z" fill="white"/>
<path id="Vector_3" d="M14 14.25H7C6.59 14.25 6.25 14.59 6.25 15C6.25 15.41 6.59 15.75 7 15.75H14C14.41 15.75 14.75 15.41 14.75 15C14.75 14.59 14.41 14.25 14 14.25Z" fill="white"/>
</g>
</g>
</g>
</svg>
