<svg width="24" height="24" viewBox="0 0 24 24" fill="none" xmlns="http://www.w3.org/2000/svg">
<path d="M6.40995 21.7501C5.28995 21.7501 4.57995 21.3701 4.12995 20.9201C3.24995 20.0401 2.62995 18.1701 4.60995 14.2001L5.47995 12.4701C5.58995 12.2401 5.58995 11.7601 5.47995 11.5301L4.60995 9.80014C2.61995 5.83014 3.24995 3.95014 4.12995 3.08014C4.99995 2.20014 6.87995 1.57014 10.8399 3.56014L19.3999 7.84014C21.5299 8.90014 22.6999 10.3801 22.6999 12.0001C22.6999 13.6201 21.5299 15.1001 19.4099 16.1601L10.8499 20.4401C8.90995 21.4101 7.46995 21.7501 6.40995 21.7501ZM6.40995 3.75014C5.86995 3.75014 5.44995 3.88014 5.18995 4.14014C4.45995 4.86014 4.74995 6.73014 5.94995 9.12014L6.81995 10.8601C7.13995 11.5101 7.13995 12.4901 6.81995 13.1401L5.94995 14.8701C4.74995 17.2701 4.45995 19.1301 5.18995 19.8501C5.90995 20.5801 7.77995 20.2901 10.1799 19.0901L18.7399 14.8101C20.3099 14.0301 21.1999 13.0001 21.1999 11.9901C21.1999 10.9801 20.2999 9.95014 18.7299 9.17014L10.1699 4.90014C8.64995 4.14014 7.33995 3.75014 6.40995 3.75014Z" fill="#171717"/>
<path d="M11.8395 12.75H6.43945C6.02945 12.75 5.68945 12.41 5.68945 12C5.68945 11.59 6.02945 11.25 6.43945 11.25H11.8395C12.2495 11.25 12.5895 11.59 12.5895 12C12.5895 12.41 12.2495 12.75 11.8395 12.75Z" fill="#171717"/>
</svg>
