<svg xmlns="http://www.w3.org/2000/svg" width="18" height="18" viewBox="0 0 18 18" fill="none">
<path opacity="0.4" d="M14.4075 4.77013C13.6275 3.19513 12.12 2.03263 10.3725 1.65013C8.54254 1.24513 6.66754 1.68013 5.23504 2.83513C3.79504 3.98263 2.97754 5.70013 2.97754 7.53763C2.97754 9.48013 4.14004 11.5126 5.89504 12.6901V13.3126C5.88754 13.5226 5.88004 13.8451 6.13504 14.1076C6.39754 14.3776 6.78754 14.4076 7.09504 14.4076H10.9425C11.3475 14.4076 11.655 14.2951 11.865 14.0851C12.15 13.7926 12.1425 13.4176 12.135 13.2151V12.6901C14.46 11.1226 15.9225 7.81513 14.4075 4.77013Z" fill="#5E6167"/>
<path d="M11.4451 16.4998C11.4001 16.4998 11.3476 16.4923 11.3026 16.4773C9.79512 16.0498 8.21262 16.0498 6.70512 16.4773C6.42762 16.5523 6.13512 16.3948 6.06012 16.1173C5.97762 15.8398 6.14262 15.5473 6.42012 15.4723C8.11512 14.9923 9.90012 14.9923 11.5951 15.4723C11.8726 15.5548 12.0376 15.8398 11.9551 16.1173C11.8801 16.3498 11.6701 16.4998 11.4451 16.4998Z" fill="#5E6167"/>
</svg>