<svg width="24" height="25" viewBox="0 0 24 25" fill="none" xmlns="http://www.w3.org/2000/svg">
<path d="M12 16.25C9.93 16.25 8.25 14.57 8.25 12.5C8.25 10.43 9.93 8.75 12 8.75C14.07 8.75 15.75 10.43 15.75 12.5C15.75 14.57 14.07 16.25 12 16.25ZM12 10.25C10.76 10.25 9.75 11.26 9.75 12.5C9.75 13.74 10.76 14.75 12 14.75C13.24 14.75 14.25 13.74 14.25 12.5C14.25 11.26 13.24 10.25 12 10.25Z" fill="#86898F"/>
<path d="M15.21 22.6903C15 22.6903 14.79 22.6603 14.58 22.6103C13.96 22.4403 13.44 22.0503 13.11 21.5003L12.99 21.3003C12.4 20.2803 11.59 20.2803 11 21.3003L10.89 21.4903C10.56 22.0503 10.04 22.4503 9.42 22.6103C8.79 22.7803 8.14 22.6903 7.59 22.3603L5.87 21.3703C5.26 21.0203 4.82 20.4503 4.63 19.7603C4.45 19.0703 4.54 18.3603 4.89 17.7503C5.18 17.2403 5.26 16.7803 5.09 16.4903C4.92 16.2003 4.49 16.0303 3.9 16.0303C2.44 16.0303 1.25 14.8403 1.25 13.3803V11.6203C1.25 10.1603 2.44 8.97029 3.9 8.97029C4.49 8.97029 4.92 8.80029 5.09 8.51029C5.26 8.22029 5.19 7.76029 4.89 7.25029C4.54 6.64029 4.45 5.92029 4.63 5.24029C4.81 4.55029 5.25 3.98029 5.87 3.63029L7.6 2.64029C8.73 1.97029 10.22 2.36029 10.9 3.51029L11.02 3.71029C11.61 4.73029 12.42 4.73029 13.01 3.71029L13.12 3.52029C13.8 2.36029 15.29 1.97029 16.43 2.65029L18.15 3.64029C18.76 3.99029 19.2 4.56029 19.39 5.25029C19.57 5.94029 19.48 6.65029 19.13 7.26029C18.84 7.77029 18.76 8.23029 18.93 8.52029C19.1 8.81029 19.53 8.98029 20.12 8.98029C21.58 8.98029 22.77 10.1703 22.77 11.6303V13.3903C22.77 14.8503 21.58 16.0403 20.12 16.0403C19.53 16.0403 19.1 16.2103 18.93 16.5003C18.76 16.7903 18.83 17.2503 19.13 17.7603C19.48 18.3703 19.58 19.0903 19.39 19.7703C19.21 20.4603 18.77 21.0303 18.15 21.3803L16.42 22.3703C16.04 22.5803 15.63 22.6903 15.21 22.6903ZM12 18.9903C12.89 18.9903 13.72 19.5503 14.29 20.5403L14.4 20.7303C14.52 20.9403 14.72 21.0903 14.96 21.1503C15.2 21.2103 15.44 21.1803 15.64 21.0603L17.37 20.0603C17.63 19.9103 17.83 19.6603 17.91 19.3603C17.99 19.0603 17.95 18.7503 17.8 18.4903C17.23 17.5103 17.16 16.5003 17.6 15.7303C18.04 14.9603 18.95 14.5203 20.09 14.5203C20.73 14.5203 21.24 14.0103 21.24 13.3703V11.6103C21.24 10.9803 20.73 10.4603 20.09 10.4603C18.95 10.4603 18.04 10.0203 17.6 9.25029C17.16 8.48029 17.23 7.47029 17.8 6.49029C17.95 6.23029 17.99 5.92029 17.91 5.62029C17.83 5.32029 17.64 5.08029 17.38 4.92029L15.65 3.93029C15.22 3.67029 14.65 3.82029 14.39 4.26029L14.28 4.45029C13.71 5.44029 12.88 6.00029 11.99 6.00029C11.1 6.00029 10.27 5.44029 9.7 4.45029L9.59 4.25029C9.34 3.83029 8.78 3.68029 8.35 3.93029L6.62 4.93029C6.36 5.08029 6.16 5.33029 6.08 5.63029C6 5.93029 6.04 6.24029 6.19 6.50029C6.76 7.48029 6.83 8.49029 6.39 9.26029C5.95 10.0303 5.04 10.4703 3.9 10.4703C3.26 10.4703 2.75 10.9803 2.75 11.6203V13.3803C2.75 14.0103 3.26 14.5303 3.9 14.5303C5.04 14.5303 5.95 14.9703 6.39 15.7403C6.83 16.5103 6.76 17.5203 6.19 18.5003C6.04 18.7603 6 19.0703 6.08 19.3703C6.16 19.6703 6.35 19.9103 6.61 20.0703L8.34 21.0603C8.55 21.1903 8.8 21.2203 9.03 21.1603C9.27 21.1003 9.47 20.9403 9.6 20.7303L9.71 20.5403C10.28 19.5603 11.11 18.9903 12 18.9903Z" fill="#86898F"/>
</svg>
