<svg xmlns="http://www.w3.org/2000/svg" width="19" height="18" viewBox="0 0 19 18" fill="none">
  <path d="M16.2488 5.05078C16.2338 5.05078 16.2113 5.05078 16.1888 5.05078C12.2213 4.65328 8.26128 4.50328 4.33878 4.90078L2.80878 5.05078C2.49378 5.08078 2.21628 4.85578 2.18628 4.54078C2.15628 4.22578 2.38128 3.95578 2.68878 3.92578L4.21878 3.77578C8.20878 3.37078 12.2513 3.52828 16.3013 3.92578C16.6088 3.95578 16.8338 4.23328 16.8038 4.54078C16.7813 4.83328 16.5338 5.05078 16.2488 5.05078Z" fill="#86898F"/>
  <path d="M6.87556 4.29C6.84556 4.29 6.81556 4.29 6.77806 4.2825C6.47806 4.23 6.26806 3.9375 6.32056 3.6375L6.48556 2.655C6.60556 1.935 6.77056 0.9375 8.51806 0.9375H10.4831C12.2381 0.9375 12.4031 1.9725 12.5156 2.6625L12.6806 3.6375C12.7331 3.945 12.5231 4.2375 12.2231 4.2825C11.9156 4.335 11.6231 4.125 11.5781 3.825L11.4131 2.85C11.3081 2.1975 11.2856 2.07 10.4906 2.07H8.52556C7.73056 2.07 7.71556 2.175 7.60306 2.8425L7.43056 3.8175C7.38556 4.095 7.14556 4.29 6.87556 4.29Z" fill="#86898F"/>
  <path d="M11.9058 17.0597H7.09084C4.47334 17.0597 4.36834 15.6122 4.28584 14.4422L3.79834 6.88975C3.77584 6.58225 4.01584 6.31225 4.32334 6.28975C4.63834 6.27475 4.90084 6.50725 4.92334 6.81475L5.41084 14.3672C5.49334 15.5072 5.52334 15.9347 7.09084 15.9347H11.9058C13.4808 15.9347 13.5108 15.5072 13.5858 14.3672L14.0733 6.81475C14.0958 6.50725 14.3658 6.27475 14.6733 6.28975C14.9808 6.31225 15.2208 6.57475 15.1983 6.88975L14.7108 14.4422C14.6283 15.6122 14.5233 17.0597 11.9058 17.0597Z" fill="#86898F"/>
  <path d="M10.7436 12.9375H8.24609C7.93859 12.9375 7.68359 12.6825 7.68359 12.375C7.68359 12.0675 7.93859 11.8125 8.24609 11.8125H10.7436C11.0511 11.8125 11.3061 12.0675 11.3061 12.375C11.3061 12.6825 11.0511 12.9375 10.7436 12.9375Z" fill="#86898F"/>
  <path d="M11.375 9.9375H7.625C7.3175 9.9375 7.0625 9.6825 7.0625 9.375C7.0625 9.0675 7.3175 8.8125 7.625 8.8125H11.375C11.6825 8.8125 11.9375 9.0675 11.9375 9.375C11.9375 9.6825 11.6825 9.9375 11.375 9.9375Z" fill="#86898F"/>
</svg>