<svg width="18" height="19" viewBox="0 0 18 19" fill="none" xmlns="http://www.w3.org/2000/svg">
<g id="vuesax/outline/arrow-right">
<g id="arrow-right">
<path id="Vector" d="M10.8223 14.692C10.6798 14.692 10.5373 14.6395 10.4248 14.527C10.2073 14.3095 10.2073 13.9495 10.4248 13.732L14.5798 9.57699L10.4248 5.42199C10.2073 5.20449 10.2073 4.84449 10.4248 4.62699C10.6423 4.40949 11.0023 4.40949 11.2198 4.62699L15.7723 9.17949C15.9898 9.39699 15.9898 9.75699 15.7723 9.97449L11.2198 14.527C11.1073 14.6395 10.9648 14.692 10.8223 14.692Z" fill="#5E6167"/>
<path id="Vector_2" d="M15.2475 10.1357H2.625C2.3175 10.1357 2.0625 9.88074 2.0625 9.57324C2.0625 9.26574 2.3175 9.01074 2.625 9.01074H15.2475C15.555 9.01074 15.81 9.26574 15.81 9.57324C15.81 9.88074 15.555 10.1357 15.2475 10.1357Z" fill="#5E6167"/>
</g>
</g>
</svg>
