<svg xmlns="http://www.w3.org/2000/svg" width="18" height="18" viewBox="0 0 18 18" fill="none">
  <path opacity="0.4" d="M16.5 5.8575V10.425L15.2775 9.375C14.6925 8.8725 13.7475 8.8725 13.1625 9.375L10.0425 12.0525C9.4575 12.555 8.5125 12.555 7.9275 12.0525L7.6725 11.8425C7.14 11.3775 6.2925 11.3325 5.6925 11.7375L2.0025 14.2125L1.92 14.2725C1.6425 13.6725 1.5 12.96 1.5 12.1425V5.8575C1.5 3.1275 3.1275 1.5 5.8575 1.5H12.1425C14.8725 1.5 16.5 3.1275 16.5 5.8575Z" fill="#5E6167"/>
  <path d="M6.74984 7.78875C7.73567 7.78875 8.53484 6.98958 8.53484 6.00375C8.53484 5.01792 7.73567 4.21875 6.74984 4.21875C5.76402 4.21875 4.96484 5.01792 4.96484 6.00375C4.96484 6.98958 5.76402 7.78875 6.74984 7.78875Z" fill="#5E6167"/>
  <path d="M16.5019 10.4269V12.1444C16.5019 14.8744 14.8744 16.5019 12.1444 16.5019H5.85938C3.94688 16.5019 2.56687 15.6994 1.92188 14.2744L2.00438 14.2144L5.69438 11.7394C6.29437 11.3344 7.14187 11.3794 7.67437 11.8444L7.92938 12.0544C8.51438 12.5569 9.45937 12.5569 10.0444 12.0544L13.1644 9.37687C13.7494 8.87437 14.6944 8.87437 15.2794 9.37687L16.5019 10.4269Z" fill="#5E6167"/>
</svg>