<svg width="24" height="24" viewBox="0 0 24 24" fill="none" xmlns="http://www.w3.org/2000/svg">
<path d="M20.0422 6.81774L14.2822 2.78774C12.7122 1.68774 10.3022 1.74774 8.79219 2.91774L3.78219 6.82774C2.78219 7.60774 1.99219 9.20774 1.99219 10.4677V17.3677C1.99219 19.9177 4.06219 21.9977 6.61219 21.9977H17.3922C19.9422 21.9977 22.0122 19.9277 22.0122 17.3777V10.5977C22.0122 9.24774 21.1422 7.58774 20.0422 6.81774Z" fill="#171717"/>
<path d="M12 18.75C11.59 18.75 11.25 18.41 11.25 18V15C11.25 14.59 11.59 14.25 12 14.25C12.41 14.25 12.75 14.59 12.75 15V18C12.75 18.41 12.41 18.75 12 18.75Z" fill="#BBBDC3"/>
</svg>
