<svg width="390" height="560" viewBox="0 0 390 560" fill="none" xmlns="http://www.w3.org/2000/svg">
<path d="M319.349 0.0606178L335.234 10.4808C322.738 24.823 300.917 36.6738 283.831 43.0205C314.983 47.2273 346.069 54.3802 374.559 67.8192C414.164 86.4956 445.643 117.108 452.713 161.801C454.265 171.597 454.386 181.562 453.222 191.425L450.421 206.313C445.589 224.698 436.925 241.901 425.981 257.329C385.527 314.37 314.759 350.68 246.239 359.439C234.307 441.48 175.677 504.043 104.471 540.674C21.1521 583.531 -76.1792 593.612 -168.812 594L-170 593.776L-169.618 575.348C-145.802 575.79 -121.938 575.081 -98.2005 573.335C9.4381 565.431 135.024 532.285 197.31 436.515C212.304 413.462 223.006 387.463 227.559 360.197C176.265 357.451 128.469 337.047 88.2041 306.096C65.4977 288.638 26.7544 251.509 40.2145 219.515C52.0376 191.413 97.8324 195.48 121.236 203.07C174.925 220.473 239.115 272.295 246.961 331.234C247.27 333.549 247.119 338.344 247.64 340.108C247.713 340.363 247.404 340.618 248.04 340.63C308.635 331.998 371.607 299.694 408.555 250.042C453.756 189.297 441.623 124.151 374.717 88.4717C349.895 75.2328 310.751 63.4184 282.739 61.3513C282.612 61.3392 281.072 61.1937 281.399 61.6786C294.344 74.4266 305.355 89.1445 313.613 105.336L297.455 114.022C285.941 92.0906 268.825 71.7412 248.016 58.0294C239.618 52.495 230.233 48.4943 221.453 43.6145C221.453 42.9174 221.581 43.1478 221.957 43.0265C224.63 42.1536 227.892 41.6202 230.687 40.9958C255.795 35.4008 266.302 31.4728 284.746 22.9438C293.75 18.7794 309.648 9.42607 319.064 0L319.361 0.054556L319.349 0.0606178ZM229.481 341.751C228.826 314.237 213.062 289.468 194.424 270.343C167.237 242.441 118.38 211.999 78.0787 216.078C60.2531 217.879 51.2554 226.038 58.3493 244.49C69.5479 273.592 113.79 304.041 140.868 317.843C168.371 331.864 198.559 340.151 229.475 341.751H229.481Z" fill="#00ECC9"/>
</svg>
