<svg width="24" height="24" viewBox="0 0 24 24" fill="none" xmlns="http://www.w3.org/2000/svg">
<g id="video-octagon">
<path id="Vector" d="M12.0002 22.7472C11.3302 22.7472 10.6501 22.5771 10.0501 22.2271L4.11014 18.7972C2.91014 18.0972 2.16016 16.8072 2.16016 15.4172V8.57719C2.16016 7.18719 2.91014 5.89718 4.11014 5.19718L10.0501 1.76719C11.2501 1.06719 12.7402 1.06719 13.9502 1.76719L19.8902 5.19718C21.0902 5.89718 21.8401 7.18719 21.8401 8.57719V15.4172C21.8401 16.8072 21.0902 18.0972 19.8902 18.7972L13.9502 22.2271C13.3502 22.5771 12.6702 22.7472 12.0002 22.7472ZM12.0002 2.74717C11.5902 2.74717 11.1701 2.85718 10.8001 3.06718L4.86014 6.49717C4.12014 6.92717 3.66016 7.71719 3.66016 8.57719V15.4172C3.66016 16.2672 4.12014 17.0672 4.86014 17.4972L10.8001 20.9272C11.5401 21.3572 12.4602 21.3572 13.2002 20.9272L19.1402 17.4972C19.8802 17.0672 20.3401 16.2772 20.3401 15.4172V8.57719C20.3401 7.72719 19.8802 6.92717 19.1402 6.49717L13.2002 3.06718C12.8302 2.85718 12.4102 2.74717 12.0002 2.74717Z" fill="#BBBDC3"/>
<path id="Vector_2" d="M11.0922 15.6664C10.7322 15.6664 10.3922 15.5764 10.0822 15.4064C9.39218 15.0064 8.99219 14.1964 8.99219 13.1864V10.7864C8.99219 9.77636 9.39218 8.96639 10.0822 8.56639C10.7722 8.16639 11.6722 8.22637 12.5422 8.73637L14.6222 9.93639C15.4922 10.4364 16.0022 11.1864 16.0022 11.9864C16.0022 12.7864 15.5022 13.5264 14.6222 14.0364L12.5422 15.2364C12.0622 15.5264 11.5622 15.6664 11.0922 15.6664ZM11.1022 9.81639C11.0022 9.81639 10.9122 9.83639 10.8422 9.87639C10.6322 9.99639 10.5022 10.3364 10.5022 10.7964V13.1964C10.5022 13.6464 10.6322 13.9864 10.8422 14.1164C11.0522 14.2364 11.4122 14.1764 11.8022 13.9464L13.8822 12.7464C14.2722 12.5164 14.5022 12.2364 14.5022 11.9964C14.5022 11.7564 14.2722 11.4764 13.8822 11.2464L11.8022 10.0464C11.5422 9.89637 11.2922 9.81639 11.1022 9.81639Z" fill="#BBBDC3"/>
</g>
</svg>
