<svg xmlns="http://www.w3.org/2000/svg" width="19" height="18" viewBox="0 0 19 18" fill="none">
  <path d="M4.625 8.0625C2.87 8.0625 1.4375 6.63 1.4375 4.875C1.4375 3.12 2.87 1.6875 4.625 1.6875C6.38 1.6875 7.8125 3.12 7.8125 4.875C7.8125 6.63 6.38 8.0625 4.625 8.0625ZM4.625 2.8125C3.485 2.8125 2.5625 3.735 2.5625 4.875C2.5625 6.015 3.485 6.9375 4.625 6.9375C5.765 6.9375 6.6875 6.015 6.6875 4.875C6.6875 3.735 5.765 2.8125 4.625 2.8125Z" fill="#86898F"/>
  <path d="M4.625 16.3125C2.87 16.3125 1.4375 14.88 1.4375 13.125C1.4375 11.37 2.87 9.9375 4.625 9.9375C6.38 9.9375 7.8125 11.37 7.8125 13.125C7.8125 14.88 6.38 16.3125 4.625 16.3125ZM4.625 11.0625C3.485 11.0625 2.5625 11.985 2.5625 13.125C2.5625 14.265 3.485 15.1875 4.625 15.1875C5.765 15.1875 6.6875 14.265 6.6875 13.125C6.6875 11.985 5.765 11.0625 4.625 11.0625Z" fill="#86898F"/>
  <path d="M6.98848 12.5477C6.81598 12.5477 6.65098 12.4727 6.53848 12.3227C6.35098 12.0752 6.4035 11.7227 6.651 11.5352L16.6635 4.0502C16.911 3.8627 17.2635 3.91521 17.451 4.16271C17.6385 4.41021 17.586 4.7627 17.3385 4.9502L7.32599 12.4352C7.22849 12.5102 7.10848 12.5477 6.98848 12.5477Z" fill="#86898F"/>
  <path d="M17.001 14.0399C16.881 14.0399 16.7685 14.0024 16.6635 13.9274L6.651 6.44239C6.4035 6.25489 6.35098 5.90239 6.53848 5.65489C6.72598 5.40739 7.07849 5.35489 7.32599 5.54239L17.3385 13.0274C17.586 13.2149 17.6385 13.5674 17.451 13.8149C17.3385 13.9574 17.1735 14.0399 17.001 14.0399Z" fill="#86898F"/>
</svg>