<svg width="24" height="24" viewBox="0 0 24 24" fill="none" xmlns="http://www.w3.org/2000/svg">
<path d="M16.0349 22H4.54651C3.69814 22 3 21.3019 3 20.4535V8.96512C3 5.05907 5.05907 3 8.96512 3H16.0349C19.9409 3 22 5.05907 22 8.96512V16.0349C22 19.9409 19.9409 22 16.0349 22ZM8.96512 4.32558C5.8014 4.32558 4.32558 5.8014 4.32558 8.96512V20.4535C4.32558 20.5772 4.42279 20.6744 4.54651 20.6744H16.0349C19.1986 20.6744 20.6744 19.1986 20.6744 16.0349V8.96512C20.6744 5.8014 19.1986 4.32558 16.0349 4.32558H8.96512Z" fill="#BBBDC3"/>
<path d="M17.3478 11H8.65217C8.29565 11 8 10.7733 8 10.5C8 10.2267 8.29565 10 8.65217 10H17.3478C17.7043 10 18 10.2267 18 10.5C18 10.7733 17.7043 11 17.3478 11Z" fill="#BBBDC3"/>
<path d="M14.3824 15H8.61765C8.28 15 8 14.7733 8 14.5C8 14.2267 8.28 14 8.61765 14H14.3824C14.72 14 15 14.2267 15 14.5C15 14.7733 14.72 15 14.3824 15Z" fill="#BBBDC3"/>
</svg>
