<svg width="14" height="12" viewBox="0 0 14 12" fill="none" xmlns="http://www.w3.org/2000/svg">
<path id="Vector" d="M12.4138 8.24991L12.352 8.39869C12.2917 8.54163 12.2206 8.69333 12.1463 8.83627L12.1031 8.92087C11.9531 9.21113 11.6408 9.81354 11.429 9.96378C11.3223 10.0396 11.1507 10.063 11.0394 10.0192C10.9745 9.99295 10.9405 9.94919 10.9312 9.88064C10.8894 9.54661 11.1337 9.03027 11.2512 8.78084C11.5125 8.22803 11.8371 7.67813 12.151 7.1472C12.4092 6.70961 12.6766 6.25745 12.9101 5.8009C13.4836 4.68069 14.4437 2.80637 13.0987 1.6774C11.7877 0.576152 10.084 1.47466 8.88583 2.28419C8.79462 2.05373 8.65703 1.79263 8.52252 1.60156C7.88403 0.694299 6.80956 0.319436 5.64697 0.595114C3.92472 1.00498 2.54415 3.20895 1.8067 5.14452C1.87009 2.379 2.65391 0.964143 2.66164 0.949556L2.73585 0.822657L1.16975 0L1.094 0.126899C0.9966 0.290264 -1.2652 4.23143 1.01361 11.86L1.05535 12L2.78378 11.5405L2.74203 11.4005C2.61526 10.9775 2.49931 10.5501 2.39728 10.1286C2.1762 8.29221 2.8719 6.10721 4.46582 3.63486C4.90334 2.95661 5.58822 2.06248 6.50036 2.13687C6.91314 2.17041 7.14813 2.37754 7.31046 2.85013C7.41713 3.15935 7.46197 3.33876 7.48052 3.42336C7.39394 3.51817 7.21306 3.71363 7.15122 3.77926C5.82939 5.1737 4.8817 6.55063 4.33596 7.87067C4.05613 8.54747 3.65263 9.815 4.09633 10.7004C4.3004 11.1059 4.65598 11.3888 5.15534 11.542C6.52973 11.9635 7.66604 11.1409 8.5318 9.09882C9.13474 7.67667 9.38983 6.19472 9.33263 4.43564L9.32799 4.30436C9.3249 4.22706 9.32181 4.15267 9.32026 4.03306C9.70212 3.66403 10.2046 3.30521 10.6776 3.06454C11.0425 2.8793 11.5681 2.71739 11.8495 2.86909C11.9871 2.94348 12.0582 3.09226 12.066 3.32272C12.0922 4.04327 11.2837 5.36186 10.6931 6.326C10.4968 6.64689 10.3267 6.92403 10.203 7.15157C9.80879 7.87505 8.88429 9.56849 9.31871 10.6785C9.47177 11.0709 9.77788 11.3582 10.2293 11.5318C10.7209 11.7214 11.2249 11.7112 11.7243 11.4997C12.7029 11.0869 13.4945 9.96378 13.8454 9.03318C13.867 8.97484 13.9443 8.76917 13.9443 8.76917L14 8.61748L12.4153 8.25137L12.4138 8.24991ZM7.61502 5.7586C7.61193 5.80528 7.60884 5.85049 7.6042 5.89133C7.5068 6.88611 7.25326 7.8415 6.84975 8.72688C6.52509 9.44014 6.14942 9.95794 5.91442 10.0134C5.7892 10.0425 5.62532 10.044 5.56812 9.87626C5.45217 9.54224 5.67325 8.81731 6.17724 7.88671C6.59621 7.11365 7.12339 6.38872 7.61502 5.75714V5.7586Z" fill="white"/>
</svg>
