<svg width="25" height="25" viewBox="0 0 25 25" fill="none" xmlns="http://www.w3.org/2000/svg">
<path d="M12.5 23.25C6.57 23.25 1.75 18.43 1.75 12.5C1.75 6.57 6.57 1.75 12.5 1.75C18.43 1.75 23.25 6.57 23.25 12.5C23.25 18.43 18.43 23.25 12.5 23.25ZM12.5 3.25C7.4 3.25 3.25 7.4 3.25 12.5C3.25 17.6 7.4 21.75 12.5 21.75C17.6 21.75 21.75 17.6 21.75 12.5C21.75 7.4 17.6 3.25 12.5 3.25Z" fill="#86898F"/>
<path d="M16.5 13.25H8.5C8.09 13.25 7.75 12.91 7.75 12.5C7.75 12.09 8.09 11.75 8.5 11.75H16.5C16.91 11.75 17.25 12.09 17.25 12.5C17.25 12.91 16.91 13.25 16.5 13.25Z" fill="#86898F"/>
<path d="M12.5 17.25C12.09 17.25 11.75 16.91 11.75 16.5V8.5C11.75 8.09 12.09 7.75 12.5 7.75C12.91 7.75 13.25 8.09 13.25 8.5V16.5C13.25 16.91 12.91 17.25 12.5 17.25Z" fill="#86898F"/>
</svg>
