<svg xmlns="http://www.w3.org/2000/svg" width="25" height="24" viewBox="0 0 25 24" fill="none">
  <path d="M6.90995 21.7501C5.78995 21.7501 5.07995 21.3701 4.62995 20.9201C3.74995 20.0401 3.12995 18.1701 5.10995 14.2001L5.97995 12.4701C6.08995 12.2401 6.08995 11.7601 5.97995 11.5301L5.10995 9.80014C3.11995 5.83014 3.74995 3.95014 4.62995 3.08014C5.49995 2.20014 7.37995 1.57014 11.3399 3.56014L19.8999 7.84014C22.0299 8.90014 23.1999 10.3801 23.1999 12.0001C23.1999 13.6201 22.0299 15.1001 19.9099 16.1601L11.3499 20.4401C9.40995 21.4101 7.96995 21.7501 6.90995 21.7501ZM6.90995 3.75014C6.36995 3.75014 5.94995 3.88014 5.68995 4.14014C4.95995 4.86014 5.24995 6.73014 6.44995 9.12014L7.31995 10.8601C7.63995 11.5101 7.63995 12.4901 7.31995 13.1401L6.44995 14.8701C5.24995 17.2701 4.95995 19.1301 5.68995 19.8501C6.40995 20.5801 8.27995 20.2901 10.6799 19.0901L19.2399 14.8101C20.8099 14.0301 21.6999 13.0001 21.6999 11.9901C21.6999 10.9801 20.7999 9.95014 19.2299 9.17014L10.6699 4.90014C9.14995 4.14014 7.83995 3.75014 6.90995 3.75014Z" fill="white"/>
  <path d="M12.3395 12.75H6.93945C6.52945 12.75 6.18945 12.41 6.18945 12C6.18945 11.59 6.52945 11.25 6.93945 11.25H12.3395C12.7495 11.25 13.0895 11.59 13.0895 12C13.0895 12.41 12.7495 12.75 12.3395 12.75Z" fill="white"/>
</svg>