<svg width="24" height="25" viewBox="0 0 24 25" fill="none" xmlns="http://www.w3.org/2000/svg">
<g id="vuesax/bulk/profile-circle">
<g id="profile-circle">
<path id="Vector" d="M21.25 12.5078C21.25 17.6164 17.1086 21.7578 12 21.7578C6.89137 21.7578 2.75 17.6164 2.75 12.5078C2.75 7.39918 6.89137 3.25781 12 3.25781C17.1086 3.25781 21.25 7.39918 21.25 12.5078Z" fill="#F9FAFC" stroke="#171717" stroke-width="1.5"/>
<path id="Vector_2" d="M12 7.4375C9.93 7.4375 8.25 9.1175 8.25 11.1875C8.25 13.2175 9.84 14.8675 11.95 14.9275C11.98 14.9275 12.02 14.9275 12.04 14.9275C12.06 14.9275 12.09 14.9275 12.11 14.9275C12.12 14.9275 12.13 14.9275 12.13 14.9275C14.15 14.8575 15.74 13.2175 15.75 11.1875C15.75 9.1175 14.07 7.4375 12 7.4375Z" fill="#171717"/>
<path id="Vector_3" d="M18.7788 19.8622C16.9988 21.5022 14.6187 22.5122 11.9988 22.5122C9.37875 22.5122 6.99875 21.5022 5.21875 19.8622C5.45875 18.9522 6.10875 18.1222 7.05875 17.4822C9.78875 15.6622 14.2288 15.6622 16.9388 17.4822C17.8988 18.1222 18.5388 18.9522 18.7788 19.8622Z" fill="#171717"/>
</g>
</g>
</svg>
