<svg xmlns="http://www.w3.org/2000/svg" width="19" height="18" viewBox="0 0 19 18" fill="none">
<mask id="mask0_2225_5982" style="mask-type:alpha" maskUnits="userSpaceOnUse" x="0" y="0" width="19" height="18">
<rect x="0.5" width="18" height="18" fill="#171717"/>
</mask>
<g mask="url(#mask0_2225_5982)">
<path d="M9.62155 14.4508C9.31312 14.4508 9.04912 14.3406 8.82955 14.1202C8.60985 13.8999 8.5 13.6351 8.5 13.3258C8.5 13.0164 8.60985 12.7515 8.82955 12.5311C9.04912 12.3109 9.31312 12.2008 9.62155 12.2008C9.92997 12.2008 10.194 12.3109 10.4135 12.5311C10.6332 12.7515 10.7431 13.0164 10.7431 13.3258C10.7431 13.6351 10.6332 13.8999 10.4135 14.1202C10.194 14.3406 9.92997 14.4508 9.62155 14.4508ZM9.62155 10.1238C9.31312 10.1238 9.04912 10.0136 8.82955 9.79325C8.60985 9.573 8.5 9.30819 8.5 8.99881C8.5 8.68944 8.60985 8.42463 8.82955 8.20438C9.04912 7.984 9.31312 7.87381 9.62155 7.87381C9.92997 7.87381 10.194 7.984 10.4135 8.20438C10.6332 8.42463 10.7431 8.68944 10.7431 8.99881C10.7431 9.30819 10.6332 9.573 10.4135 9.79325C10.194 10.0136 9.92997 10.1238 9.62155 10.1238ZM9.62155 5.79688C9.31312 5.79688 9.04912 5.68675 8.82955 5.4665C8.60985 5.24613 8.5 4.98125 8.5 4.67188C8.5 4.3625 8.60985 4.09769 8.82955 3.87744C9.04912 3.65706 9.31312 3.54688 9.62155 3.54688C9.92997 3.54688 10.194 3.65706 10.4135 3.87744C10.6332 4.09769 10.7431 4.3625 10.7431 4.67188C10.7431 4.98125 10.6332 5.24613 10.4135 5.4665C10.194 5.68675 9.92997 5.79688 9.62155 5.79688Z" fill="#BBBDC3"/>
</g>
</svg>