<svg width="24" height="24" viewBox="0 0 24 24" fill="none" xmlns="http://www.w3.org/2000/svg">
<path d="M4.82752 17.91L18.0429 4.69459C18.4944 4.24307 19.1253 4.12507 19.4346 4.43431C19.7438 4.74356 19.6258 5.37444 19.1743 5.82596L5.95889 19.0414C5.50736 19.4929 4.87648 19.6109 4.56724 19.3016C4.258 18.9924 4.37599 18.3615 4.82752 17.91Z" fill="#86898F"/>
<path d="M19.1725 17.91L5.95709 4.69459C5.50556 4.24307 4.87468 4.12507 4.56544 4.43431C4.2562 4.74356 4.37419 5.37444 4.82572 5.82596L18.0411 19.0414C18.4926 19.4929 19.1235 19.6109 19.4328 19.3016C19.742 18.9924 19.624 18.3615 19.1725 17.91Z" fill="#86898F"/>
</svg>

