<svg width="24" height="25" viewBox="0 0 24 25" fill="none" xmlns="http://www.w3.org/2000/svg">
<g id="vuesax/outline/profile-circle">
<g id="profile-circle">
<path id="Vector" d="M12.1205 14.0266C12.1005 14.0266 12.0705 14.0266 12.0505 14.0266C12.0205 14.0266 11.9805 14.0266 11.9505 14.0266C9.68047 13.9566 7.98047 12.1866 7.98047 10.0066C7.98047 7.78656 9.79047 5.97656 12.0105 5.97656C14.2305 5.97656 16.0405 7.78656 16.0405 10.0066C16.0305 12.1966 14.3205 13.9566 12.1505 14.0266C12.1305 14.0266 12.1305 14.0266 12.1205 14.0266ZM12.0005 7.46656C10.6005 7.46656 9.47047 8.60656 9.47047 9.99656C9.47047 11.3666 10.5405 12.4766 11.9005 12.5266C11.9305 12.5166 12.0305 12.5166 12.1305 12.5266C13.4705 12.4566 14.5205 11.3566 14.5305 9.99656C14.5305 8.60656 13.4005 7.46656 12.0005 7.46656Z" fill="#BBBDC3"/>
<path id="Vector_2" d="M12.0008 23.2503C9.31081 23.2503 6.74081 22.2503 4.75081 20.4303C4.57081 20.2703 4.49081 20.0303 4.51081 19.8003C4.64081 18.6103 5.38081 17.5003 6.61081 16.6803C9.59081 14.7003 14.4208 14.7003 17.3908 16.6803C18.6208 17.5103 19.3608 18.6103 19.4908 19.8003C19.5208 20.0403 19.4308 20.2703 19.2508 20.4303C17.2608 22.2503 14.6908 23.2503 12.0008 23.2503ZM6.08081 19.6003C7.74081 20.9903 9.83081 21.7503 12.0008 21.7503C14.1708 21.7503 16.2608 20.9903 17.9208 19.6003C17.7408 18.9903 17.2608 18.4003 16.5508 17.9203C14.0908 16.2803 9.92081 16.2803 7.44081 17.9203C6.73081 18.4003 6.26081 18.9903 6.08081 19.6003Z" fill="#BBBDC3"/>
<path id="Vector_3" d="M12 23.25C6.07 23.25 1.25 18.43 1.25 12.5C1.25 6.57 6.07 1.75 12 1.75C17.93 1.75 22.75 6.57 22.75 12.5C22.75 18.43 17.93 23.25 12 23.25ZM12 3.25C6.9 3.25 2.75 7.4 2.75 12.5C2.75 17.6 6.9 21.75 12 21.75C17.1 21.75 21.25 17.6 21.25 12.5C21.25 7.4 17.1 3.25 12 3.25Z" fill="#BBBDC3"/>
</g>
</g>
</svg>
