<svg width="48" height="48" viewBox="0 0 48 48" fill="none" xmlns="http://www.w3.org/2000/svg">
<mask id="mask0_3272_92622" style="mask-type:alpha" maskUnits="userSpaceOnUse" x="0" y="0" width="48" height="48">
<circle cx="24" cy="24" r="24" fill="#FA2A2A"/>
</mask>
<g mask="url(#mask0_3272_92622)">
<circle cx="23.5859" cy="23.8771" r="27.1115" fill="#FC8D8D"/>
<path fill-rule="evenodd" clip-rule="evenodd" d="M34.4102 39.499C33.9755 39.3438 33.5565 39.1644 33.1748 38.9007C32.0744 38.08 31.3569 36.8451 30.6789 35.6751C29.724 33.9733 29.0436 32.16 28.5734 30.2684C28.3713 29.4556 28.3027 28.5133 27.8435 27.7928C26.8028 26.284 23.7509 26.4795 22.1303 26.7443C21.0451 26.9367 20.8208 28.1534 20.5743 29.0538C20.369 29.8019 20.2347 30.5584 20.1219 31.3251C19.8536 31.5018 19.5507 31.6454 19.262 31.7704C16.1155 32.737 15.5625 34.5291 14.3607 37.2973C12.3308 41.3207 6.82285 42.8961 5.99086 47.6578C5.45481 50.8014 6.97918 53.7589 8.5508 56.3723C10.0145 59.2269 12.0578 60.597 15.3119 59.9226C18.3641 59.2366 21.2974 58.0891 24.2959 57.2024C25.7482 56.8447 27.1982 55.9142 28.7259 56.2387C31.8737 56.9469 35.1079 57.2799 38.3338 57.188C42.8631 57.3715 42.8624 53.0162 42.3976 49.6435C42.0719 44.3948 39.4295 41.0245 34.4102 39.499Z" fill="white"/>
<path fill-rule="evenodd" clip-rule="evenodd" d="M34.7129 47.0936C35.0914 47.3443 35.4097 47.7245 35.6652 48.1246C34.5984 48.0134 33.5335 47.8852 32.4709 47.7393C32.61 47.6502 32.7504 47.5631 32.894 47.4809C33.418 47.1851 34.1279 46.706 34.7129 47.0936ZM16.9887 50.2529C16.7932 50.1762 16.7175 49.8776 16.6414 49.7065C16.4025 49.1697 16.1845 48.6238 15.9577 48.0819C16.8189 47.8359 17.6563 47.5631 18.5484 47.432C19.5076 47.2911 20.481 47.257 21.4491 47.2887C23.4101 47.3528 25.3527 47.6738 27.2806 48.0181C29.2062 48.362 31.1318 48.6924 33.0709 48.9517C34.9707 49.2057 36.8765 49.3916 38.7858 49.5548C39.1568 49.5865 39.7753 49.7202 40.0737 49.4277C40.3099 49.196 40.3175 48.7688 40.022 48.5805C39.8379 48.4631 39.5711 48.4614 39.3608 48.4343C39.0959 48.4002 38.8299 48.3774 38.5634 48.3597C38.4548 48.3526 38.3463 48.3459 38.2376 48.3393C39.1095 48.01 40.0201 47.8304 40.9652 47.8805C41.0187 48.2058 41.2595 48.5405 41.3913 48.8088C41.6215 49.2772 41.8009 49.7512 41.9187 50.2606C42.1648 51.3252 42.1755 52.4301 42.106 53.5158C42.0421 54.4212 41.9049 55.4225 41.1961 56.0637C40.6595 56.5492 39.9023 56.7289 39.1999 56.7854C38.3835 56.8511 37.5544 56.781 36.7449 56.6713C35.6094 56.5175 34.4686 56.3141 33.3554 56.0415C31.1994 55.5135 29.1329 54.6734 27.2263 53.5344C26.2965 52.979 25.4093 52.3541 24.4667 51.8198C23.5063 51.2753 22.4844 50.8529 21.4112 50.5906C20.2103 50.2971 18.9549 50.1718 17.7206 50.2442C17.5064 50.2568 17.197 50.3346 16.9887 50.2529ZM15.597 49.7079C15.7232 50.1181 15.8197 50.5866 16.0891 50.9313C16.3559 51.2729 16.7584 51.3935 17.1754 51.4239C17.6781 51.4605 18.1868 51.437 18.6907 51.4558C19.7241 51.4943 20.7433 51.6624 21.7313 51.9709C22.6519 52.2584 23.5065 52.7068 24.3297 53.2043C25.091 53.6644 25.8299 54.1583 26.5914 54.617C26.3888 54.7101 26.1884 54.8108 25.9869 54.8984C25.5643 55.0823 25.1392 55.2597 24.7121 55.4326C23.8699 55.7736 23.0241 56.1064 22.1697 56.4155C20.4469 57.0388 18.6957 57.5834 16.9234 58.0473C16.0782 58.2686 15.2209 58.527 14.3428 58.5638C13.5641 58.5964 12.8428 58.3759 12.2148 57.912C10.9122 56.95 9.87592 55.5613 9.03818 54.1916C8.54046 53.3778 8.10612 52.5227 7.74687 51.6386C7.56516 51.1916 7.40038 50.7376 7.25206 50.2783C7.18248 50.0627 7.11651 49.8458 7.05404 49.628C7.02655 49.5322 7.00023 49.4361 6.97415 49.3399C8.3061 48.9327 9.65387 48.5651 11.0333 48.361C11.7698 48.2521 12.5161 48.1969 13.2606 48.2049C13.6302 48.2089 13.9995 48.2289 14.3671 48.2671C14.565 48.2877 14.7621 48.3142 14.9583 48.347C15.0394 48.3604 15.1227 48.3804 15.2063 48.3951C15.334 48.8335 15.4628 49.2715 15.597 49.7079ZM43.1302 47.965C43.2019 47.8195 43.2322 47.6763 43.258 47.518C43.2776 47.3972 43.3296 47.2271 43.284 47.0702C43.233 46.8946 43.0939 46.7374 42.994 46.5876C42.8837 46.422 42.7736 46.2563 42.6635 46.0905C42.4434 45.759 42.2238 45.4271 42.0046 45.095C41.1092 43.7389 40.22 42.3789 39.3293 41.0198C38.5389 39.8136 37.7619 38.5966 36.9474 37.4067C36.2509 36.3891 35.4918 35.3884 34.5386 34.597C33.3333 33.5964 31.898 33.1251 30.3989 32.7573C30.2352 32.587 30.0165 32.494 29.7827 32.5129C29.4524 32.1376 29.1899 31.8755 29.0709 31.3982C29.0139 31.1697 29.0318 30.5274 28.8096 30.3921C28.5457 30.2315 28.4078 30.4441 28.335 30.6838C28.0915 31.4857 28.371 32.5638 29.0142 33.3671C28.7432 34.3054 28.3839 35.639 27.7429 36.3908C27.0566 37.1957 26.1073 37.4463 25.0832 37.4628C23.1301 37.4943 21.179 36.767 19.6893 35.5067C19.2365 35.1236 18.816 34.6958 18.4355 34.2408C18.1501 33.8994 17.8125 33.3726 17.5893 32.9744C17.5893 32.8192 17.4064 32.657 19.2682 32.5316C21.1299 32.4062 21.2711 29.8522 21.3125 29.5046C21.3462 29.2224 21.4892 28.7843 21.2907 28.5542C21.2065 28.4564 21.0336 28.4407 20.9267 28.5071C20.7253 28.6324 20.6591 28.9528 20.5958 29.1704C20.5071 29.4753 20.2171 31.3673 19.6677 31.5864C19.4104 31.6889 19.1154 31.6908 18.8433 31.7098C18.5073 31.7333 18.1705 31.7505 17.8359 31.7897C17.7124 31.8041 17.5778 31.8441 17.456 31.8453C17.3767 31.846 17.295 31.8075 17.2184 31.7804C16.9599 31.6889 16.7016 31.7575 16.4353 31.7934C14.0809 32.1104 11.6566 32.8339 9.64831 34.1357C7.87822 35.2832 6.63116 36.9333 5.80828 38.8627C4.96868 40.8317 4.48744 42.9609 4.08413 45.057C3.94903 45.7593 3.83105 46.4648 3.72968 47.1728C3.63172 47.8569 3.50918 48.5563 3.47985 49.2473C3.46824 49.5207 3.53346 49.7747 3.63382 50.0245C3.74685 50.3056 4.014 50.4164 4.27024 50.5476C4.83273 50.8359 5.4261 51.0595 6.03744 51.2178C6.41091 51.8985 6.72521 52.6057 6.9778 53.3398C6.88409 53.5258 6.88214 53.8036 6.86412 53.9843C6.81942 54.4345 6.8003 54.8871 6.79629 55.3393C6.78824 56.2458 6.84265 57.1514 6.8853 58.0564C6.92854 58.9744 7.07231 62.5961 7.09573 63.0384C7.11395 63.382 7.08943 63.8626 7.27008 64.1676C7.54769 64.6364 8.23287 64.6206 8.55023 64.2405C16.4353 65.9388 31.2571 65.4272 37.2266 64.5728C38.0032 64.4616 37.7594 64.5849 37.9569 64.3883C38.1051 64.2407 38.2312 63.9879 38.2722 63.7847C38.327 63.5135 38.2386 63.2681 38.0836 63.0486C37.9207 62.8179 37.891 62.4443 37.8305 62.17C37.6874 61.5215 37.6162 58.6735 37.5494 58.3579C37.5285 58.2596 37.5084 58.1556 37.484 58.0516C38.579 58.1555 39.72 58.1555 40.7617 57.7886C41.3524 57.5805 41.9033 57.2537 42.3274 56.7871C42.8409 56.222 43.1266 55.5107 43.2735 54.7682C43.463 53.8108 43.5033 52.8191 43.466 51.8459C43.4143 50.6956 43.2239 49.5292 42.7512 48.4731C42.9068 48.3284 43.0371 48.1538 43.1302 47.965Z" fill="black"/>
<path fill-rule="evenodd" clip-rule="evenodd" d="M24.5153 9.75305C27.6805 9.49033 32.4723 11.0212 32.9736 12.8351C33.5645 14.9727 35.1542 23.0632 34.8796 25.7767C34.6049 28.4902 32.8329 30.6254 28.5518 30.9808C24.2708 31.3361 20.8999 29.4856 20.1059 28.8201C19.3119 28.1545 18.2353 25.9678 18.2353 25.9678C18.2353 25.9678 15.8615 25.8022 15.7101 24.1099C15.5587 22.4175 16.7036 21.7956 16.7036 21.7956C16.7036 21.7956 15.4792 14.8246 16.6828 12.9729C17.8864 11.1213 21.3501 10.0158 24.5153 9.75305Z" fill="white"/>
<path fill-rule="evenodd" clip-rule="evenodd" d="M34.814 17.9052C35.1289 19.5977 35.3371 21.3139 35.5128 23.0247C35.6799 24.6456 35.6627 26.352 34.7572 27.8249C33.9656 29.1134 32.6797 30.1077 31.2057 30.7092C30.367 31.052 29.4216 31.2317 28.5139 31.3319C28.0451 31.3836 27.5725 31.4045 27.1017 31.3993C27.0424 31.3986 26.983 31.3987 26.9236 31.3989C26.5253 31.3997 26.1302 31.4006 25.8195 31.1537C25.7216 31.0759 25.7082 30.9005 25.8379 30.8338C26.085 30.707 26.2574 30.6815 26.5408 30.6931C26.7755 30.7025 27.0105 30.706 27.2458 30.7012C27.7501 30.6914 28.2553 30.6505 28.7541 30.574C29.6708 30.4333 30.5944 30.119 31.4019 29.6919C32.6681 29.0212 33.7194 28.0071 34.2279 26.7488C34.8109 25.308 34.6431 23.7117 34.4869 22.2252L34.4805 22.1643C34.3071 20.5154 34.103 18.8741 33.808 17.2409C33.6963 16.6231 33.5594 16.0107 33.4224 15.3982C33.3839 15.2257 33.3453 15.0533 33.3073 14.8807C33.2159 14.463 33.107 14.0488 32.9814 13.6392C32.9436 13.5154 32.9012 13.3931 32.8588 13.2709C32.8269 13.179 32.795 13.0871 32.7652 12.9948C32.7283 13.0035 32.6906 13.0097 32.6518 13.0144C32.4193 13.0408 32.1603 13.0105 31.975 12.8748C31.9121 12.9212 31.83 12.954 31.729 12.9669C31.1116 13.0461 30.4847 13.0857 29.8591 13.1252C29.5173 13.1468 29.1759 13.1683 28.8367 13.1963C27.8734 13.2757 26.9096 13.3563 25.946 13.4388C25.7991 13.4514 25.6522 13.4641 25.5052 13.4768C24.6891 13.5474 23.8716 13.6181 23.0547 13.666C22.8815 13.6762 22.7074 13.6879 22.5327 13.6997C21.8015 13.7488 21.0597 13.7987 20.3362 13.7381C20.1185 14.7195 20.2163 15.7699 20.9066 16.5732C21.1016 16.7997 20.983 17.0954 20.7676 17.2648C20.5473 17.4378 20.1479 17.7081 19.7915 17.7621C19.7799 17.7915 19.7682 17.8209 19.7565 17.8503C19.739 17.8943 19.7215 17.9381 19.7047 17.9818C19.563 18.3493 19.4383 18.7176 19.3615 19.1006C19.3219 19.2979 19.2904 19.4979 19.2665 19.6984C19.2726 19.7326 19.2789 19.7668 19.2858 19.8008C19.286 19.803 19.2864 19.805 19.2868 19.8072C19.2871 19.8087 19.2875 19.8102 19.2879 19.8118C19.2913 19.8258 19.2954 19.8418 19.2978 19.8507C19.3049 19.8745 19.3119 19.8984 19.3189 19.9222C19.3406 19.9957 19.3622 20.069 19.3849 20.1421C19.4566 20.3777 19.5168 20.6164 19.5654 20.8569C19.6542 21.2972 19.6971 21.8756 19.2407 22.1784C18.9965 22.3406 18.6887 22.3514 18.4105 22.2793C18.2553 22.2391 18.1175 22.1791 17.9753 22.1173C17.9461 22.1046 17.9168 22.0919 17.8871 22.0792C17.8412 22.0595 17.7945 22.0419 17.748 22.0242C17.6895 22.0021 17.6312 21.98 17.5747 21.9541C17.5467 21.9411 17.5196 21.9251 17.494 21.9079C17.3157 21.9578 17.1444 22.0376 17.0489 22.0903C16.7929 22.2321 16.5737 22.4247 16.3918 22.6402C16.005 23.0991 15.928 23.7067 16.0331 24.256C16.1311 24.7672 16.4038 25.3411 16.8821 25.6468C17.0902 25.7801 17.3416 25.8473 17.5995 25.8233C17.7265 25.8118 17.8416 25.7778 17.9618 25.7383C18.0131 25.7215 18.0702 25.7113 18.1274 25.701C18.2023 25.6876 18.2772 25.6742 18.3386 25.646C18.4991 25.5721 18.7184 25.7386 18.6635 25.8947C18.6512 25.9294 18.6408 25.9628 18.6307 25.995C18.6068 26.0719 18.5848 26.1422 18.5452 26.2082C19.0635 26.8529 19.624 27.4727 20.2146 28.063C20.589 28.4369 21.0022 28.7622 21.4173 29.089C21.5924 29.2269 21.7678 29.3651 21.9408 29.5072C22.1981 29.7188 22.3352 30.1663 21.9125 30.301C21.5408 30.4202 21.2201 30.1298 20.9657 29.8993C20.9316 29.8684 20.8987 29.8386 20.8671 29.811C19.7567 28.8416 18.8831 27.6954 18.4078 26.359C18.2533 26.4776 18.0707 26.5502 17.8754 26.5914C17.4865 26.673 17.0832 26.6357 16.7238 26.484C15.3627 25.9098 14.8941 24.0916 15.4091 22.8851C15.5333 22.5946 15.7303 22.3281 15.9796 22.1131C15.9557 22.0786 15.9439 22.0369 15.9535 21.9901C15.9705 21.9083 15.9899 21.8273 16.0105 21.7464C15.9798 21.7369 15.956 21.7139 15.9571 21.6768C15.9619 21.4828 15.9663 21.2888 15.9706 21.0948C15.9714 21.0595 15.9722 21.0242 15.973 20.9888C15.9618 20.8848 15.9496 20.7809 15.9375 20.6769C15.9097 20.4383 15.8818 20.1996 15.865 19.9586C15.8468 19.7023 15.8352 19.4455 15.8236 19.1887C15.8103 18.8934 15.7969 18.5981 15.7737 18.3034C15.6981 17.3492 15.6421 16.3939 15.586 15.4385C15.5293 14.4704 15.4725 13.5022 15.3954 12.5353C15.3207 11.5958 15.2449 10.6551 15.1396 9.71875C15.1388 9.71212 15.1381 9.70561 15.1374 9.6991C15.1368 9.69326 15.1362 9.68741 15.1355 9.68145C15.1225 9.56655 15.1044 9.44605 15.0858 9.32239C14.9831 8.6396 14.8659 7.86022 15.5179 7.39177C15.6445 7.30095 15.8106 7.28615 15.9598 7.32565C16.3549 7.02785 16.8672 6.8576 17.3612 6.74285C18.0893 6.57383 18.826 6.44759 19.5631 6.32128C19.7787 6.28434 19.9943 6.24739 20.2097 6.20936C20.7064 6.12185 21.2318 6.06049 21.7365 6.02877C21.9991 6.01221 22.2623 5.98172 22.526 5.9512C22.7747 5.92239 23.0238 5.89354 23.273 5.87631C23.8557 5.8366 24.4438 5.80762 25.0315 5.80258C25.0451 5.80019 25.0587 5.79792 25.0724 5.79564C25.0861 5.79335 25.0999 5.79106 25.1135 5.78866C25.9921 5.6383 26.8793 5.6056 27.7669 5.57289C27.9819 5.56496 28.1969 5.55704 28.4118 5.54745C29.4619 5.50047 30.5754 5.50672 31.553 5.8828C31.6787 5.93106 31.7866 5.98884 31.8801 6.05545C32.0038 6.06089 32.1232 6.08267 32.2326 6.12685C32.5306 6.04632 32.8786 6.14114 32.9766 6.4534C33.1195 6.91102 33.1981 7.37799 33.1749 7.85606C33.1746 7.86208 33.1743 7.86827 33.1741 7.87461C33.1739 7.88006 33.1737 7.88562 33.1734 7.89129C33.3361 8.31948 33.3675 8.79928 33.2984 9.24067C33.388 9.78369 33.4588 10.3299 33.5077 10.8769C33.5151 10.9597 33.5233 11.0427 33.5316 11.126C33.561 11.4232 33.5906 11.7226 33.5847 12.02C33.578 12.3547 33.4491 12.6299 33.2328 12.9017C33.1921 12.9529 33.1172 12.967 33.0534 12.9607C33.0369 12.9591 33.0224 12.9562 33.0092 12.9525C33.1451 13.1701 33.2619 13.4008 33.3761 13.6264C33.4014 13.6765 33.4267 13.7262 33.4519 13.7756C33.673 14.2079 33.8892 14.6482 34.0541 15.1015C34.3882 16.0152 34.6362 16.954 34.814 17.9052ZM17.4015 23.6112C17.3458 23.5825 17.2897 23.5535 17.2298 23.5335C17.2223 23.5311 16.9094 23.4665 16.9783 23.5804C17.0017 23.6181 16.9529 23.6664 16.9127 23.6346C16.7987 23.5459 16.848 23.4238 16.9417 23.3286C17.1109 23.1563 17.386 23.1701 17.6127 23.189C17.928 23.2152 18.2404 23.3133 18.5155 23.4497C18.8117 23.5965 19.1797 23.8035 19.2622 24.1217C19.3376 24.414 19.0391 24.7679 18.6876 24.5972C18.4974 24.5046 18.3572 24.3551 18.2165 24.2051C18.1162 24.0982 18.0156 23.991 17.8965 23.9039C17.7561 23.8017 17.6062 23.7139 17.4488 23.6354C17.433 23.6275 17.4173 23.6194 17.4015 23.6112Z" fill="black"/>
<path fill-rule="evenodd" clip-rule="evenodd" d="M30.2377 26.8264C29.8442 27.0201 29.3668 27.0978 28.9356 26.9963C28.5233 26.8994 28.1347 26.6396 27.8839 26.2931C27.6605 25.9846 27.5464 25.6059 27.6306 25.2119C27.6346 25.193 27.6517 25.1798 27.6687 25.1737C27.7709 25.2523 27.8367 25.3334 27.9024 25.414C28.0132 25.5499 28.1241 25.6843 28.2704 25.7962C28.4831 25.959 28.7618 26.0825 29.0304 26.1086C29.2934 26.1342 29.5551 26.0705 29.7767 25.9273C29.9116 25.8402 30.0173 25.7299 30.1218 25.6193C30.2357 25.4989 30.3474 25.3769 30.5116 25.3006C30.6432 25.2395 30.7893 25.2698 30.9058 25.3441C31.0309 25.424 31.1273 25.5574 31.1347 25.7046C31.1464 25.9326 31.0626 26.1305 30.9311 26.299C30.7534 26.5268 30.49 26.7022 30.2377 26.8264ZM29.2844 21.1993C29.7598 21.4368 30.5027 22.0211 30.0724 22.7436C29.5492 23.3925 28.6669 22.7715 28.2344 22.4934C27.8373 22.283 27.4653 22.9398 27.8385 23.1929C30.9572 25.1246 31.8205 21.0612 29.4865 20.8568C29.2295 20.8342 29.1588 21.124 29.2844 21.1993ZM24.2077 17.7823C24.8221 17.7016 25.3887 17.9336 25.987 18.0106C26.5399 18.0819 27.0693 17.9676 27.5853 17.7757C28.4227 17.4643 28.8861 18.7475 28.0617 19.0735C27.4613 19.3109 26.8138 19.3777 26.1739 19.3341C25.6054 19.2954 25.1121 19.0611 24.5636 18.9464C24.093 18.848 23.5573 18.9496 23.0775 19.0542L22.8913 19.0951C22.6145 19.1561 22.3363 19.2172 22.0637 19.295C21.8272 19.3625 21.5944 19.4693 21.3498 19.4998C21.322 19.5033 21.2954 19.4691 21.311 19.4434C21.5636 19.0283 22.0874 18.6739 22.5074 18.4316L22.5359 18.4153C23.0545 18.1189 23.6094 17.8608 24.2077 17.7823ZM24.2213 20.6875L24.2201 20.674C24.1892 20.2917 24.3394 19.4005 24.8896 19.3549C25.2333 19.3263 25.4913 19.9029 25.5782 20.5122L25.5815 20.537C25.6291 20.9164 25.5937 21.7571 25.0924 21.7987C24.5858 21.8407 24.2587 21.0744 24.2213 20.6875ZM32.3216 20.0151L32.3206 20.0016C32.288 19.6195 31.993 18.7653 31.4428 18.8109C31.1077 18.8387 30.9478 19.4205 30.9536 20.0198L30.9544 20.066C30.9632 20.4355 31.1331 21.2973 31.6456 21.2547C32.1522 21.2127 32.3485 20.4029 32.3216 20.0151ZM32.035 16.6639L32.0744 16.6615C32.7192 16.6304 33.4122 16.9565 33.6369 17.5821C33.6486 17.6145 33.6095 17.6403 33.5833 17.6195C33.0135 17.1684 32.3418 17.7004 31.833 17.9923L31.646 18.0982C30.9899 18.4724 30.2446 18.9102 29.4672 18.7364C29.098 18.6539 28.8387 18.3031 28.9104 17.921C28.9741 17.5811 29.3521 17.2685 29.7095 17.3596L29.7257 17.364C30.017 17.4486 30.355 17.3103 30.6376 17.1783L30.8696 17.0685C31.2426 16.8903 31.6159 16.6947 32.035 16.6639Z" fill="black"/>
</g>
</svg>
