<svg width="48" height="48" viewBox="0 0 48 48" fill="none" xmlns="http://www.w3.org/2000/svg">
<mask id="mask0_3272_92620" style="mask-type:alpha" maskUnits="userSpaceOnUse" x="0" y="0" width="48" height="48">
<circle cx="24" cy="24" r="24" fill="#FA2A2A"/>
</mask>
<g mask="url(#mask0_3272_92620)">
<circle cx="23.5859" cy="23.8771" r="27.1115" fill="#D08B5B"/>
<path fill-rule="evenodd" clip-rule="evenodd" d="M38.9727 41.888C38.0451 38.2035 35.153 35.4284 31.3577 34.1369C30.6231 33.7581 29.8588 32.0404 28.8804 31.7582C28.7235 31.713 28.9837 32.1111 28.8951 32.1389C28.5789 32.2381 28.2212 32.261 27.8563 31.9611C27.2042 31.425 26.9432 29.7955 26.5312 29.0704C24.3588 25.246 19.3699 26.9679 18.8603 31.3081C18.4007 31.6337 17.7445 31.9302 17.2408 32.1976C16.7222 32.4731 16.2811 33.1087 15.745 33.3506C15.2666 33.5664 14.4604 33.4578 13.9773 33.6485C11.7555 34.5256 9.88632 35.5962 8.46873 37.6739C8.17005 38.1121 7.83503 38.6496 7.56487 39.091C6.15212 40.8502 5.19888 42.7975 4.33212 44.8807C1.91798 50.9904 1.45516 57.6698 1.05942 64.1673C1.11785 65.2993 0.487651 68.4686 1.62012 68.9687C1.55635 69.0401 1.58576 69.1775 1.70897 69.1715C4.52617 69.0342 7.34767 69.1778 10.1412 69.561C11.489 69.7459 12.8331 70.0189 14.1987 70.0196C17.0286 69.8907 19.8307 69.3074 22.6749 69.6471C26.0733 69.5158 30.1996 69.2573 33.9746 68.9659C37.5028 68.6936 41.067 68.8631 44.5334 68.1275C44.8079 68.0731 44.9298 67.731 44.8625 67.4918C44.3955 66.0158 44.1352 64.4881 43.8465 62.9701C43.8544 61.9889 43.7331 60.9697 43.3355 60.0715C42.1511 53.9499 40.7009 47.8789 38.9727 41.888Z" fill="white"/>
<path fill-rule="evenodd" clip-rule="evenodd" d="M28.8959 32.161C28.9845 32.1332 28.7243 31.7351 28.8812 31.7803C29.8597 32.0625 30.6239 33.7802 31.3585 34.159C35.1538 35.4505 38.046 38.2256 38.9735 41.91C40.7017 47.901 42.1519 53.972 43.3364 60.0936C43.7339 60.9918 43.8553 62.011 43.8473 62.9922L43.8927 63.2319C44.164 64.6709 44.4209 66.1156 44.8634 67.5139C44.9306 67.7531 44.8087 68.0952 44.5342 68.1496C41.1072 68.8769 37.5846 68.7194 34.0957 68.9789L33.3686 69.0343C29.7623 69.3066 25.8929 69.5449 22.6758 69.6692C19.8315 69.3295 17.0294 69.9128 14.1995 70.0417C12.8339 70.041 11.4898 69.768 10.142 69.5831C7.34849 69.1999 4.527 69.0563 1.70979 69.1936C1.58658 69.1996 1.55717 69.0622 1.62094 68.9907C0.488476 68.4907 1.11868 65.3214 1.06024 64.1894L1.09609 63.6042C1.48551 57.2916 1.99123 50.8292 4.33294 44.9028L4.40342 44.7342C5.25157 42.7145 6.19113 40.8247 7.56569 39.1131L7.64859 38.978C7.90249 38.5652 8.20074 38.0904 8.46956 37.696C9.88714 35.6183 11.7563 34.5477 13.9782 33.6706C14.4612 33.4799 15.2674 33.5885 15.7458 33.3727C16.2472 33.1465 16.6655 32.5758 17.1419 32.2775L17.2224 34.3619L24.5403 41.034L28.3018 34.7487L28.6115 32.222C28.7092 32.2121 28.8043 32.1898 28.8959 32.161Z" fill="white"/>
<path fill-rule="evenodd" clip-rule="evenodd" d="M38.145 50.0263C38.0844 50.3913 37.9939 50.7574 37.8682 51.1057C37.7471 51.4418 37.5569 51.7462 37.4306 52.0786C37.4137 52.1234 37.3845 52.1579 37.3487 52.1847L37.3636 52.2732L37.3776 52.3618C37.4701 52.9595 37.5711 53.5552 37.6618 54.1529L37.7062 54.4519C37.8873 55.7002 38.145 56.9393 38.356 58.1831C38.5626 59.401 38.772 60.6188 38.9926 61.8345C39.2203 63.0878 39.4514 64.3393 39.7128 65.5862C39.8232 66.1128 39.9375 66.6389 40.0557 67.1643L40.1469 67.5664C40.9313 67.7234 41.1856 68.7986 40.4097 69.2291C40.0574 69.4237 39.5943 69.398 39.2872 69.1254C38.9682 68.8412 38.9348 68.3078 38.8479 67.9096L38.7647 67.5396C38.1418 64.7575 37.5856 61.9406 37.267 59.1071C37.185 58.3755 37.1115 57.6429 37.0537 56.9091C36.9991 56.2189 36.9857 55.5272 36.9484 54.8363L36.9375 54.6479C36.8927 53.9114 36.8778 53.1748 36.8685 52.4369C36.8673 52.347 36.8678 52.257 36.8688 52.1665C36.8417 52.137 36.8216 52.1016 36.8124 52.0668L36.8004 52.0209C36.7704 51.9027 36.7938 51.7621 36.8821 51.6732C36.9022 51.1695 36.9348 50.6659 36.9295 50.1638C36.929 50.1225 36.9884 50.1214 36.9934 50.1613C37.0432 50.5871 37.1263 51.0127 37.2095 51.4377C37.6249 51.0766 37.9199 50.4961 38.0885 50.0132C38.1007 49.9782 38.1515 49.9887 38.145 50.0263ZM27.2299 30.4545C27.3136 30.7771 27.4656 31.0638 27.6647 31.3282C27.7596 31.4546 27.8665 31.5716 27.993 31.6679C28.1014 31.7503 28.2234 31.8021 28.3381 31.873C28.4998 31.8412 28.6722 31.8963 28.7909 32.0116L28.7661 31.8372C28.7582 31.7809 28.8516 31.766 28.8645 31.8203C29.4549 34.2936 30.002 36.7701 30.4891 39.2653L30.7029 40.3673L30.904 41.4018C31.2381 43.1258 31.5635 44.8493 31.8256 46.5887C32.1749 48.91 32.4832 51.239 32.7329 53.5736C32.9838 55.9247 33.1733 58.2797 33.3346 60.6388C33.375 61.2335 33.4167 61.8276 33.4577 62.4222L33.5509 61.7058C33.6438 60.9892 33.7344 60.2721 33.8079 59.553C34.0723 56.9796 34.2631 54.3908 34.3051 51.8039C34.3439 49.4366 34.2073 47.0291 33.5174 44.751C33.3436 44.1779 33.1363 43.6151 32.8912 43.0684C32.6534 42.5369 32.3381 42.0478 32.0842 41.5247C31.7892 40.9161 31.6853 40.3352 31.7991 39.6632C31.8987 39.0778 32.0917 38.5233 32.1069 37.9242C32.1359 36.812 31.7334 35.7515 31.1858 34.8003C31.0415 34.5496 30.8899 34.3026 30.7323 34.058C30.2552 33.319 29.722 32.6098 29.1708 31.9313C29.1411 31.8951 29.1994 31.8516 29.2311 31.8809C29.7272 32.3347 30.2676 32.7788 30.7175 33.2779C30.9361 33.5207 31.1499 33.7686 31.3532 34.0239C33.4864 34.2962 35.3585 35.5459 36.6707 37.241C38.1599 39.1647 38.9664 41.518 39.5858 43.8423C40.2745 46.4254 40.872 49.0357 41.5013 51.6339C42.1527 54.3226 42.8013 57.0112 43.4562 59.6991C43.7815 61.0334 44.1069 62.3679 44.4317 63.7029C44.5964 64.3787 44.7678 65.0527 44.946 65.7258C45.0374 66.0707 45.1344 66.4149 45.2202 66.7612C45.3167 67.1518 45.2508 67.4066 44.9954 67.7061C44.9012 67.8173 44.7458 67.8216 44.6215 67.7692L44.5827 67.7527L44.5452 67.7364C44.3913 67.668 44.27 67.5957 44.1697 67.4342C44.0592 67.2569 44.0351 67.0565 43.9918 66.8562C43.9119 66.4875 43.8326 66.119 43.7527 65.7498C43.6334 65.1978 43.5055 64.6476 43.3757 64.0977L42.7252 61.3496C42.5517 60.6168 42.378 59.8841 42.2035 59.1518C41.5801 56.5329 40.9563 53.9145 40.3325 51.2962C39.7335 48.782 39.1916 46.2483 38.5238 43.7515L38.4859 43.6108L38.4474 43.4704C37.8535 41.3187 37.0596 39.2458 35.6953 37.4558C34.6453 36.0792 33.2143 34.869 31.5616 34.2924C31.6827 34.453 31.7994 34.6171 31.9111 34.7847C32.6124 35.837 33.1437 37.0978 33.0802 38.3856C33.0492 39.0147 32.8346 39.6402 32.8816 40.2714C32.9241 40.8321 33.2906 41.3118 33.5496 41.7911C34.1374 42.8772 34.5772 44.0386 34.878 45.2359C35.4817 47.64 35.5763 50.134 35.4957 52.6014C35.408 55.2834 35.1487 57.9715 34.8381 60.6361C34.6788 62.0028 34.449 63.361 34.2855 64.7256C34.2046 65.3984 34.0852 66.0712 33.9838 66.7415L33.9355 67.0618C33.9084 67.2395 33.88 67.4167 33.8461 67.5923L33.825 67.6974L33.8258 67.7161C33.8296 67.8444 33.7986 67.952 33.7454 68.0389C33.6776 68.2898 33.5909 68.5353 33.4723 68.7724C33.4113 68.8935 33.3189 68.9638 33.2165 68.9922C33.1217 69.234 32.8933 69.426 32.612 69.4358L28.912 69.5646C26.7629 69.6391 24.6136 69.708 22.4644 69.7791C21.9221 69.7973 21.38 69.808 20.8377 69.8148C20.3294 69.8203 19.8401 69.7781 19.3355 69.7343C18.7655 69.685 18.4428 69.2952 18.5056 68.7254C18.5195 68.5998 18.5349 68.4748 18.5494 68.3498C18.4379 68.3914 18.3028 68.3791 18.2084 68.2939L18.1199 68.2138C17.9972 68.1014 17.887 67.9907 17.8061 67.8376C17.7225 67.6802 17.6532 67.5132 17.5785 67.352C17.4175 67.0052 17.2604 66.6572 17.1071 66.3073C16.8001 65.6075 16.4929 64.9048 16.2053 64.1969C15.6358 62.795 15.1247 61.3693 14.6724 59.925C13.8658 57.3483 13.2525 54.7137 12.8271 52.048L12.7255 51.4127L12.6958 51.2251C12.5336 50.1918 12.3901 49.1417 12.3987 48.104C12.4036 47.4544 12.4789 46.797 12.6979 46.182C12.8999 45.6148 13.2266 45.1236 13.5355 44.6115L13.5708 44.5525L13.6063 44.4919C13.8758 44.0273 14.0859 43.5443 14.076 42.9931C14.066 42.4337 13.8822 41.896 13.6799 41.3798L13.6295 41.2525L13.5958 41.1682C13.1667 40.1017 12.6847 39.0525 12.7846 37.8701C12.9324 36.1288 13.929 34.6913 15.2093 33.563C14.0427 33.8412 12.8969 34.3458 11.8925 34.9685C10.7063 35.7045 9.64951 36.6561 8.74752 37.7189C7.0431 39.7273 5.86261 42.1037 4.91556 44.5468C3.92414 47.1037 3.21873 49.77 2.71354 52.463C2.20549 55.1715 1.90133 57.9151 1.72744 60.6644C1.64063 62.0328 1.58376 63.4034 1.54568 64.7739C1.52642 65.4762 1.5185 66.1791 1.49128 66.8805C1.46405 67.5813 1.4671 68.2917 1.32278 68.9784C1.25538 69.2984 0.719431 69.3513 0.648386 69.0045C0.490528 68.2298 0.495086 67.4222 0.500244 66.6314L0.50071 66.5595C0.505416 65.7719 0.520819 64.9844 0.544639 64.1965C0.593378 62.5863 0.679372 60.9769 0.810808 59.3709C1.27133 53.7333 2.3047 48.103 4.55668 42.8862C5.61695 40.4291 7.00692 38.0277 8.99915 36.206C9.94769 35.3394 11.0276 34.6353 12.2004 34.1103C13.2492 33.6404 14.3237 33.3958 15.4557 33.3527C16.0066 32.8958 16.6015 32.4932 17.1978 32.146C17.2338 32.1248 17.274 32.1708 17.2448 32.2025C17.2295 32.2183 17.2148 32.2347 17.1997 32.2501C17.2687 32.2519 17.3411 32.2814 17.4075 32.3461C17.6403 32.5718 17.8403 32.8578 18.0209 33.1557C18.2903 33.4666 18.5483 33.7887 18.8171 34.0962C19.2473 34.5888 19.6869 35.0736 20.1315 35.5542C20.8782 36.362 21.6475 37.1531 22.4472 37.91L22.5807 38.0359C22.9951 38.4244 23.4177 38.8923 23.9017 39.1938L23.9275 39.2095C24.1315 39.3315 24.2735 39.3496 24.4357 39.1494C24.5831 38.9672 24.7036 38.7578 24.8281 38.5584L24.8569 38.5126C25.493 37.5076 26.0785 36.4684 26.6036 35.4016C26.843 34.916 27.0695 34.4241 27.2833 33.9273L27.347 33.7781C27.4632 33.5043 27.5903 33.2353 27.684 32.9544C27.7058 32.8885 27.727 32.8227 27.7477 32.7574C27.3828 32.5378 27.0877 32.0435 26.9724 31.6519C26.8526 31.2453 26.8889 30.8218 27.0596 30.4391C27.0919 30.3671 27.2101 30.38 27.2299 30.4545ZM10.319 47.8206C10.3301 49.3838 10.3606 50.948 10.3474 52.511L10.3426 53.0446C10.4621 53.1679 10.535 53.3127 10.4892 53.517C10.4713 53.5952 10.4124 53.6676 10.3366 53.6966L10.3318 54.1927C10.3088 56.425 10.2669 58.6535 10.1193 60.885C9.93467 63.6777 9.70414 66.4676 9.47421 69.257C9.44139 69.652 9.17997 69.9743 8.7524 69.9332C8.31978 69.8916 8.13077 69.5238 8.17218 69.1313C8.33502 67.5914 8.48929 66.0506 8.61697 64.507L8.7623 62.7483C8.94481 60.5499 9.13361 58.3515 9.36424 56.1582C9.46064 55.2414 9.56214 54.325 9.66415 53.4085L9.61379 53.3482C9.40789 53.1011 9.19548 52.8598 8.98526 52.6168C8.5814 52.1481 8.18271 51.6832 7.81012 51.1907C7.79157 51.166 7.82577 51.1273 7.85188 51.1456C8.36082 51.4919 8.84426 51.8647 9.3307 52.2436L9.75654 52.5768C9.93297 50.9933 10.1071 49.4094 10.2557 47.823C10.2593 47.7833 10.3185 47.7782 10.319 47.8206ZM16.8597 32.6037C16.5728 32.8959 16.279 33.1823 15.9898 33.4729L15.8839 33.5798L15.7785 33.6872C15.2706 34.2076 14.7856 34.7475 14.3877 35.3615C13.6574 36.4889 13.2487 37.8448 13.6218 39.1723C13.9314 40.2719 14.582 41.2544 14.7903 42.3856C14.8948 42.9524 14.8768 43.5267 14.6829 44.0733C14.485 44.6309 14.1529 45.1149 13.8574 45.6225C13.2155 46.7255 13.168 47.9108 13.284 49.1555C13.4055 50.4553 13.6054 51.7526 13.8401 53.0363C14.315 55.6372 14.9787 58.2036 15.8228 60.7094C16.2452 61.9642 16.7343 63.1893 17.2215 64.4196C17.464 65.0319 17.7422 65.6282 18.0281 66.2213C18.1788 66.5335 18.3328 66.8437 18.489 67.1533C18.4187 66.7103 18.401 66.2533 18.358 65.812C18.2962 65.1797 18.2243 64.5489 18.1564 63.9173C18.0181 62.6357 17.8893 61.3525 17.769 60.069C17.3416 55.492 16.9802 50.9084 16.8162 46.3138C16.7343 44.0162 16.6924 41.717 16.7026 39.4181C16.7072 38.3355 16.7553 37.2523 16.7947 36.1699L16.803 35.938C16.8373 34.9665 16.8857 33.9921 16.9959 33.0262C16.9485 32.9294 16.9068 32.8311 16.8747 32.7299L16.8631 32.6919L16.8705 32.6927C16.8626 32.663 16.8592 32.6332 16.8597 32.6037ZM19.282 28.557C19.2871 28.5302 19.325 28.531 19.3327 28.555C19.5223 29.1134 19.487 29.737 19.3644 30.3109C19.2984 30.6217 19.1992 30.9248 19.0764 31.2181L19.0335 31.3207C18.9283 31.5705 18.8089 31.8283 18.5914 31.9898C18.5007 32.0572 18.3342 32.0676 18.2383 32.0034L18.1894 31.9692C18.1814 31.9634 18.1734 31.9575 18.1656 31.9514C18.0759 31.8819 18.0267 31.7225 18.0627 31.6148C18.1555 31.3368 18.3822 31.1267 18.5348 30.8764C18.67 30.6539 18.7882 30.4203 18.8846 30.1784C19.0924 29.655 19.1735 29.1048 19.282 28.557Z" fill="black"/>
<path fill-rule="evenodd" clip-rule="evenodd" d="M34.6168 11.511C34.5978 10.8347 33.6146 10.5538 33.3305 11.2237C33.3129 11.2416 33.2937 11.2589 33.2758 11.2743C33.3647 11.198 33.1787 11.3243 33.1485 11.3399C33.1226 11.3532 33.0962 11.3653 33.0698 11.3777C32.887 9.66425 32.2668 7.81707 30.664 6.95699C28.4286 5.87237 25.8455 5.66066 23.393 5.76841C22.1507 5.84217 20.716 6.04093 19.6123 5.41208C19.2683 5.21615 18.9926 4.90772 18.604 4.78662C17.3771 4.45455 16.8206 5.71508 16.9877 6.75168C16.4644 6.75581 15.9453 7.04568 15.7194 7.52295C15.5868 7.80542 15.5891 8.11023 15.4748 8.39371C15.1239 9.11261 14.6218 9.62935 14.9057 10.501C14.4064 11.0694 14.6911 11.9298 15.0939 12.474C15.2929 12.757 15.5298 13.0288 15.6755 13.3456C15.8169 13.6489 15.6034 14.0086 15.4846 14.2962C14.6061 16.3804 14.6563 18.6757 15.129 20.8497C14.1804 21.2616 13.8957 22.5489 14.5143 23.3595C14.7271 23.646 14.9868 23.7523 15.2813 23.9286C15.6539 24.1339 15.3496 24.9558 15.4689 25.3528C15.631 26.3218 16.5129 26.9186 17.3849 26.2893C17.9382 26.2055 18.3845 27.8163 18.7863 28.2206C19.0339 28.5464 19.3087 28.839 19.6076 29.1089C20.4979 31.4011 25.0603 32.5634 27.316 32.4307C29.6781 32.1833 31.2717 30.1761 32.5986 28.3948C33.2799 27.4456 33.7231 26.3833 33.8843 25.2246C34.0462 24.0602 33.9753 22.8936 33.8659 21.7277C33.636 19.2505 33.2733 15.6817 33.0391 13.1778C33.8854 13.1081 34.6425 12.3871 34.6168 11.511Z" fill="white"/>
<path fill-rule="evenodd" clip-rule="evenodd" d="M17.7426 5.11597C17.907 4.9537 18.1763 5.1202 18.3545 5.25058L18.3939 5.27986L18.5068 5.36574C18.7628 5.56322 19.0024 5.77781 19.2789 5.94861C19.5807 6.13515 19.9085 6.28345 20.2414 6.40506C20.887 6.64087 21.5815 6.74669 22.2659 6.78012C25.0662 6.91688 28.3255 5.44476 30.8671 7.20269C31.4695 7.61938 31.8853 8.22866 32.0998 8.92549C32.3418 9.7113 32.2589 10.5251 32.4569 11.3136C32.5428 11.6559 33.1347 11.7034 33.2008 11.3272L33.2052 11.2981L33.257 11.2656L33.2775 11.2534C33.2985 11.2413 33.3081 11.2378 33.2899 11.2549L33.2858 11.2585L33.2939 11.2515C33.3 11.246 33.3062 11.2403 33.3123 11.2345L33.3304 11.2169C33.4566 10.9194 33.7207 10.8094 33.977 10.8383L33.9697 10.856L33.8934 11.0527L33.8691 11.1145C33.7794 11.3398 33.6806 11.5532 33.5099 11.7463C33.2684 12.0195 32.9679 12.2422 32.6295 12.3793C32.5599 12.4075 32.5704 12.5019 32.6471 12.5095C33.4032 12.5848 34.2548 12.1253 34.6104 11.4287C34.6138 11.4533 34.616 11.4785 34.6167 11.5042C34.6192 11.5891 34.6143 11.6725 34.6028 11.754C34.5607 11.7696 34.5199 11.7929 34.4821 11.8243C34.2366 12.0284 34.116 12.3621 33.8851 12.5899C33.6432 12.8285 33.3462 13.0499 33.0237 13.1607C33.0187 13.1625 33.0145 13.165 33.0107 13.1679C32.9864 13.0755 32.9607 12.9837 32.9313 12.8934C32.9198 12.8578 32.8725 12.8667 32.8689 12.9018C32.8624 12.9645 31.9755 12.3333 31.2924 12.4353C30.0082 12.627 29.7117 13.3771 27.8666 13.2664C26.9661 13.2123 25.0644 12.3683 23.4007 12.3048C21.8914 12.2473 19.1941 13.1091 18.4825 13.6057C18.1126 13.8639 19.1572 14.7165 18.968 15.104C18.4312 16.2035 18.6487 17.658 18.0875 18.5274L18.0658 18.5601C17.7064 19.0885 17.9308 20.4946 17.7908 20.928C17.538 21.7106 17.1195 21.3678 17.1827 21.4727C17.2027 21.5059 17.2562 21.4844 17.2457 21.4462C17.0731 20.8184 16.6009 20.3444 16.0006 20.1714C16.0266 20.0226 15.9793 19.8358 15.8868 19.7137L15.849 19.5371L15.814 19.3718C15.7336 18.9861 15.6617 18.6007 15.6229 18.2045C15.5648 17.6102 15.5628 17.0116 15.601 16.4159C15.651 15.6331 15.8121 14.879 15.9893 14.1254L16.0084 14.0447L16.1477 13.4587C16.4959 13.5578 16.8532 13.6204 17.2004 13.6515C17.6048 13.6876 18.005 13.6842 18.4022 13.6523C18.7542 14.609 18.7409 15.6984 18.3058 16.6328C17.7969 17.7259 16.5495 18.77 16.8919 20.0955C17.0412 20.6733 17.9147 20.5553 17.9354 19.9719L17.9358 19.9541C17.9391 19.3776 18.1349 18.9028 18.3937 18.4073L18.4293 18.3396L18.4885 18.2292C18.7982 17.6496 19.0605 17.0776 19.1477 16.4182C19.2743 15.4604 19.0759 14.4713 18.6018 13.6338C20.2906 13.4576 21.9252 12.7886 23.5742 12.4292L23.6499 12.4131L23.7258 12.3974C24.9441 12.1516 26.2868 12.1226 27.3911 12.7643C27.4122 12.7765 27.4289 12.7459 27.4099 12.7322C25.8069 11.5755 23.7308 11.7397 21.8927 12.1473L21.7868 12.1711L21.6828 12.1949C19.9827 12.5878 18.2015 13.1649 16.4636 12.6565C16.0119 12.5244 15.5735 12.3074 15.2198 11.993L15.1903 11.9666C15.0407 11.8315 14.87 11.6568 14.8412 11.4518C14.8311 11.3796 14.8343 11.3301 14.8769 11.273C14.9212 11.2135 14.9986 11.2138 14.9541 11.1923C15.4746 11.4433 15.9208 10.722 15.4319 10.4095L15.3974 10.3882C14.7718 9.99166 15.0844 9.08926 15.802 9.09347L15.8387 9.09413C16.2451 9.09535 16.3697 8.61504 16.1511 8.33389L16.1301 8.30765C15.7256 7.78641 16.4065 7.15768 16.9362 7.45236L16.9652 7.46903C17.2167 7.60818 17.4811 7.45326 17.5762 7.20755C17.7803 6.68032 17.6759 6.13597 17.6638 5.5903L17.6631 5.55472L17.6623 5.49536L17.6621 5.44848L17.6626 5.41741C17.6652 5.30241 17.6801 5.17765 17.7426 5.11597ZM33.0299 13.2429L33.035 13.244L33.0459 13.2445L33.0558 13.3507L33.0431 13.2968L33.0299 13.2429ZM15.6635 13.3135L15.6513 13.2885L15.6908 13.3045L15.6718 13.3312L15.6635 13.3135ZM26.7523 10.2795C26.7102 10.2675 26.6798 10.3331 26.7217 10.3522C27.7616 10.8281 28.5503 11.5876 29.1659 12.5393C29.2242 12.6294 29.3122 12.6558 29.4136 12.6401C29.4633 12.6324 29.4912 12.6082 29.5177 12.5751L29.5244 12.5667L29.5446 12.5393C29.5885 12.479 29.5827 12.3787 29.5446 12.3178C28.9197 11.3193 27.8739 10.6 26.7523 10.2795ZM29.2276 9.96777C29.1819 9.96793 29.1575 10.0379 29.1924 10.0677C29.491 10.322 29.7826 10.6039 29.9947 10.9365C30.0977 11.098 30.1837 11.2702 30.246 11.4515C30.3139 11.6494 30.3359 11.8545 30.4328 12.0416C30.5953 12.3552 31.0307 12.18 31.0526 11.8736C31.0857 11.4114 30.6998 10.8918 30.3941 10.5768C30.0839 10.2572 29.7034 10.0368 29.2644 9.9724L29.2337 9.96816L29.2276 9.96777ZM17.7654 9.60598C17.638 9.57374 17.5337 9.73652 17.634 9.832C18.1844 10.3567 18.9284 10.6001 19.6692 10.7064L19.7069 10.7116C20.4005 10.8068 21.4092 10.8607 21.9322 10.2963C22.0429 10.1768 22.0082 9.94772 21.8305 9.91079C21.5871 9.86018 21.3372 9.87884 21.0903 9.90927L21.0198 9.91824L20.8447 9.9415C20.4989 9.98669 20.1517 10.0142 19.8026 10.004C19.1036 9.98341 18.4378 9.77629 17.7654 9.60598ZM29.8795 7.93638C29.8062 7.90804 29.7288 8.00884 29.7748 8.0727C29.9857 8.36534 30.2385 8.62128 30.4545 8.90947C30.6712 9.19855 30.8522 9.50234 31.1086 9.75953C31.2462 9.89754 31.4806 9.75715 31.4319 9.57123C31.2479 8.86744 30.5476 8.19475 29.8795 7.93638ZM18.9048 8.25403C18.8278 8.22677 18.7739 8.33344 18.8275 8.38701C19.5373 9.09606 20.8143 9.46744 21.7545 9.05788C21.9661 8.96569 21.8365 8.66942 21.6461 8.65771C21.1756 8.62869 20.7031 8.68311 20.2351 8.6115C19.7781 8.54153 19.3398 8.40816 18.9048 8.25403ZM20.098 7.3036C19.9963 7.26123 19.9538 7.41304 20.0285 7.46836C20.4301 7.76542 20.9231 7.89421 21.4145 7.78725C21.5745 7.75241 21.54 7.49421 21.3758 7.50083C20.9312 7.51859 20.5123 7.47616 20.098 7.3036ZM23.3929 5.76159C24.0014 5.73485 24.618 5.72779 25.2352 5.74884L24.9613 5.78522L24.7787 5.80906C24.0785 5.89942 23.3773 5.97586 22.6703 5.97276C22.1925 5.97067 21.7154 5.93214 21.2488 5.83791C21.9634 5.88103 22.7074 5.80228 23.3929 5.76159Z" fill="white"/>
<path fill-rule="evenodd" clip-rule="evenodd" d="M16.1659 10.0214C16.1651 10.0249 16.1663 10.0275 16.1671 10.0313C16.1673 10.0302 16.1674 10.0296 16.1677 10.0283C16.167 10.0255 16.1665 10.0236 16.1659 10.0214Z" fill="#4F66AF"/>
<path fill-rule="evenodd" clip-rule="evenodd" d="M16.1657 10.0582C16.1626 10.0549 16.1582 10.0525 16.1538 10.0492C16.1536 10.0493 16.1536 10.0494 16.1535 10.0495C16.1577 10.0522 16.1616 10.0553 16.1657 10.0582Z" fill="#4F66AF"/>
<path fill-rule="evenodd" clip-rule="evenodd" d="M34.4821 11.8314C34.7601 11.6002 35.1981 11.813 35.1039 12.1935C35.0014 12.6079 34.5575 12.891 34.1911 13.0613C33.8139 13.2365 33.4465 13.2702 33.035 13.2511L33.0299 13.25C33.1442 13.7083 33.209 14.1847 33.2964 14.6458C33.4073 15.2308 33.5164 15.816 33.6239 16.4015C33.7278 16.9675 33.8593 17.5342 33.9391 18.1029C34.0197 18.6771 34.097 19.2516 34.1762 19.826C34.3082 20.7852 34.4149 21.7488 34.5273 22.7108L34.5808 23.1661C34.6934 24.1299 34.7841 25.0949 34.5707 26.054C34.3707 26.9529 33.9203 27.7913 33.3979 28.5417C32.8862 29.2764 32.3146 29.9829 31.6872 30.622C30.4769 31.8545 28.9845 32.8417 27.2345 33.0247C26.481 33.1036 25.6763 33.0159 24.9679 32.7418L24.9208 32.7234C24.2038 32.4402 23.3256 31.9552 23.139 31.1592C23.0244 30.671 23.5272 30.2898 23.9681 30.5215C24.1724 30.6289 24.326 30.7515 24.4937 30.9054L24.5234 30.9328C24.6604 31.0601 24.7132 31.0993 24.8713 31.1989C25.1956 31.403 25.4387 31.4996 25.8071 31.5924C26.4862 31.7633 27.2192 31.7363 27.9087 31.5341C29.3725 31.1049 30.5081 29.985 31.4809 28.8621C32.0091 28.2523 32.5105 27.6127 32.8972 26.902C33.3029 26.1563 33.4902 25.3735 33.4789 24.525C33.4662 23.5677 33.334 22.6067 33.2472 21.6539C33.1588 20.6826 33.077 19.7116 33.005 18.7389C32.9376 17.8267 32.931 16.9105 32.9074 15.9955L32.9028 15.8239C32.889 15.3382 32.8793 14.8522 32.8683 14.3664C32.8574 13.8819 32.8191 13.3913 32.8689 12.9089C32.8725 12.8738 32.9198 12.8649 32.9314 12.9004C32.9608 12.9908 32.9865 13.0826 33.0108 13.1749C33.0145 13.1721 33.0187 13.1695 33.0238 13.1678C33.3462 13.0569 33.6432 12.8356 33.8851 12.5969C34.116 12.3691 34.2366 12.0355 34.4821 11.8314ZM16.8402 5.04412C17.0427 4.21176 17.9542 4.02584 18.6282 4.4267C18.9524 4.61946 19.212 4.89746 19.5149 5.11839C19.8159 5.33807 20.1487 5.51448 20.4998 5.63909C21.1973 5.8866 21.9331 5.97659 22.6703 5.97982C24.4646 5.98768 26.2222 5.48315 28.0192 5.53943C29.4096 5.58298 30.8854 5.99413 31.894 6.99979C32.4373 7.54153 32.7874 8.23803 32.9752 8.97746C33.063 9.32304 33.1284 9.67701 33.18 10.0302L33.1926 10.1184C33.2215 10.3248 33.2678 10.5433 33.2721 10.7519C33.276 10.9392 33.2287 11.1353 33.203 11.3207C33.1489 11.7115 32.5438 11.667 32.4569 11.3207C32.2589 10.5322 32.3418 9.71836 32.0999 8.93255C31.8853 8.23571 31.4695 7.62643 30.8671 7.20974C28.3255 5.45181 25.0662 6.92394 22.2659 6.78717C21.5815 6.75375 20.887 6.64792 20.2414 6.41211C19.9085 6.29051 19.5808 6.1422 19.279 5.95566C19.0024 5.78487 18.7628 5.57027 18.5068 5.37279L18.3939 5.28692C18.2184 5.15481 17.9197 4.94828 17.7426 5.12302C17.6656 5.19909 17.6609 5.37108 17.6623 5.50241L17.6632 5.56177C17.6712 6.11935 17.7848 6.67592 17.5762 7.21461C17.4811 7.46032 17.2167 7.61523 16.9653 7.47609L16.9523 7.46863C16.4204 7.15203 15.7215 7.7882 16.1301 8.3147L16.1428 8.33062C16.3727 8.61016 16.2502 9.10242 15.8387 9.10119L15.8239 9.10093C15.0908 9.07803 14.7656 9.99471 15.3974 10.3952L15.4169 10.4072C15.9299 10.7144 15.4799 11.4529 14.9541 11.1994C14.9987 11.2209 14.9212 11.2206 14.8769 11.2801C14.8343 11.3372 14.8312 11.3866 14.8413 11.4588C14.872 11.6775 15.0642 11.8618 15.2199 12.0001C15.5735 12.3144 16.0119 12.5314 16.4637 12.6636C18.2732 13.1929 20.1297 12.5454 21.8928 12.1544C23.7309 11.7468 25.8069 11.5826 27.4099 12.7393C27.4289 12.753 27.4123 12.7836 27.3912 12.7714C26.2408 12.1029 24.8318 12.1623 23.5743 12.4363C21.9253 12.7957 20.2907 13.4646 18.6018 13.6409C19.0759 14.4783 19.2744 15.4674 19.1477 16.4253C19.0606 17.0847 18.7983 17.6566 18.4885 18.2362L18.4294 18.3467C18.1532 18.8669 17.9392 19.3584 17.9358 19.9611C17.9325 20.5599 17.0428 20.6862 16.8919 20.1025C16.5495 18.777 17.7969 17.7329 18.3059 16.6399C18.7409 15.7055 18.7543 14.6161 18.4023 13.6593C18.0051 13.6913 17.6048 13.6946 17.2005 13.6585C16.8532 13.6275 16.4959 13.5649 16.1477 13.4658L16.0084 14.0517C15.8238 14.8323 15.6528 15.6122 15.601 16.4229C15.5628 17.0186 15.5649 17.6173 15.6229 18.2115C15.6731 18.7247 15.7791 19.2197 15.8869 19.7208C15.9794 19.8429 16.0266 20.0297 16.0006 20.1785C16.601 20.3515 17.0732 20.8254 17.2457 21.4532C17.2562 21.4914 17.2027 21.5129 17.1827 21.4798C16.7734 20.8003 15.7193 20.5502 15.0525 20.9991C14.4158 21.4278 14.1646 22.2931 14.5251 22.9782C14.7146 23.3384 14.9957 23.5916 15.3582 23.7659L15.4311 23.8001C15.621 23.89 15.7954 23.9881 15.9175 24.1687C16.076 24.4029 16.0813 24.6506 16.0663 24.9183L16.0599 25.0268C16.0499 25.2063 16.0476 25.391 16.101 25.5636L16.1132 25.602C16.1272 25.645 16.1421 25.683 16.1678 25.7241C16.1755 25.7363 16.2476 25.8071 16.2711 25.8328L16.3007 25.8417L16.3339 25.8431C16.3706 25.8436 16.4189 25.8277 16.4031 25.8387L16.4074 25.8363C16.4213 25.8276 16.4341 25.8184 16.445 25.8102L16.4655 25.7942C16.5135 25.7248 16.5736 25.6674 16.6474 25.6237L16.7179 25.5923C16.901 25.3989 17.2147 25.5005 17.346 25.6932C17.4405 25.8318 17.4913 25.9727 17.4955 26.1117C17.5102 26.088 17.543 26.075 17.5639 26.1015L17.6883 26.2602C18.1645 26.869 18.6325 27.4815 19.1736 28.0365C19.4717 28.3422 19.7923 28.6296 20.1275 28.8942C20.4136 29.1202 20.9564 29.3376 20.9648 29.7492C20.9674 29.8828 20.8726 29.9774 20.7566 30.0228C20.379 30.1703 19.9125 29.6684 19.6398 29.4242L19.6175 29.4044C19.2838 29.112 18.9792 28.7909 18.6981 28.4476C18.1522 27.7807 17.6957 27.0131 17.4945 26.1687C17.4851 26.316 17.4219 26.4604 17.2988 26.5967C17.1351 26.778 16.9109 26.9052 16.6715 26.9575C16.1291 27.0762 15.5995 26.8808 15.2768 26.4286C15.004 26.0463 14.9237 25.5415 14.9589 25.0797L14.9632 25.0242C14.9682 24.9502 14.9745 24.8142 14.9936 24.7564L14.8229 24.6626C14.6135 24.5511 14.4194 24.4049 14.2452 24.2443C13.5452 23.5986 13.194 22.5492 13.514 21.6309C13.7142 21.0565 14.1348 20.5567 14.6734 20.2969C14.5834 20.0887 14.5533 19.8415 14.5193 19.6228L14.5136 19.5866C14.456 19.2277 14.4078 18.8644 14.3894 18.5013C14.3551 17.8231 14.3968 17.1386 14.5033 16.4683C14.6763 15.3795 15.0344 14.2249 15.6909 13.3115C15.1901 13.1126 14.7291 12.8245 14.3733 12.4245C14.0015 12.0065 13.7645 11.4081 14.052 10.8772C14.1253 10.7419 14.2207 10.6282 14.3305 10.5379C14.1402 10.1784 14.0786 9.75348 14.196 9.34737C14.3364 8.86185 14.7173 8.48317 15.1775 8.30636C15.0658 7.84634 15.1571 7.35154 15.4986 6.96817C15.8374 6.58785 16.3634 6.44933 16.8502 6.53627C16.8766 6.04701 16.7227 5.52665 16.8402 5.04412ZM15.4747 22.2218C15.921 22.0033 16.45 22.038 16.8959 22.2451L16.9261 22.2595C17.4129 22.4956 18.0576 23.0475 17.9029 23.6343C17.8123 23.9775 17.4312 24.0947 17.1356 23.9466C16.8888 23.8228 16.8325 23.6015 16.7086 23.3791C16.621 23.2219 16.5128 23.099 16.3856 22.9726C16.1176 22.7062 15.8166 22.5084 15.4747 22.35C15.4254 22.3272 15.4271 22.2452 15.4747 22.2218ZM26.7217 10.3592C26.6799 10.3401 26.7102 10.2746 26.7523 10.2865C27.874 10.607 28.9197 11.3264 29.5446 12.3248C29.5827 12.3858 29.5886 12.486 29.5446 12.5463L29.5244 12.5737C29.4957 12.6111 29.4675 12.6388 29.4136 12.6471C29.3123 12.6629 29.2243 12.6364 29.1659 12.5463C28.5503 11.5946 27.7616 10.8351 26.7217 10.3592ZM34.2304 10.5477C34.3255 10.3866 34.5774 10.4191 34.6276 10.5996L34.6348 10.6153C34.6619 10.6769 34.6496 10.6895 34.5991 10.6546C34.7241 10.7577 34.7807 10.9112 34.7425 11.0762C34.536 11.9677 33.5269 12.6042 32.6472 12.5166C32.5704 12.5089 32.56 12.4145 32.6295 12.3864C32.968 12.2493 33.2684 12.0266 33.51 11.7533C33.7447 11.4877 33.8435 11.1838 33.9698 10.8631C34.0171 10.7426 34.0909 10.6559 34.1947 10.6086C34.2084 10.5896 34.2204 10.5693 34.2304 10.5477ZM29.2276 9.97483L29.2337 9.97521C29.6857 10.0336 30.0767 10.2568 30.3942 10.5839C30.6999 10.8988 31.0857 11.4185 31.0526 11.8807C31.0308 12.187 30.5954 12.3622 30.4329 12.0486C30.3359 11.8615 30.3139 11.6564 30.2461 11.4586C30.1838 11.2773 30.0977 11.1051 29.9947 10.9436C29.7827 10.6109 29.4911 10.3291 29.1925 10.0748C29.1575 10.045 29.1819 9.97499 29.2276 9.97483ZM17.634 9.83905C17.5338 9.74358 17.638 9.58079 17.7655 9.61303C18.4378 9.78334 19.1036 9.99047 19.8026 10.0111C20.1518 10.0213 20.4989 9.99375 20.8448 9.94856L21.0199 9.92529C21.2896 9.89007 21.5639 9.86242 21.8305 9.91784C22.0082 9.95478 22.0429 10.1839 21.9322 10.3034C21.4092 10.8678 20.4005 10.8138 19.7069 10.7187C18.9538 10.6153 18.1938 10.3727 17.634 9.83905ZM29.7748 8.07975C29.7288 8.01589 29.8063 7.9151 29.8795 7.94344C30.5477 8.20181 31.2479 8.87449 31.432 9.57829C31.4806 9.76421 31.2463 9.90459 31.1087 9.76658C30.8523 9.5094 30.6712 9.20561 30.4545 8.91652C30.2385 8.62834 29.9858 8.3724 29.7748 8.07975ZM18.8275 8.39406C18.7739 8.3405 18.8278 8.23382 18.9048 8.26109C19.3398 8.41522 19.7781 8.54859 20.2351 8.61855C20.7032 8.69016 21.1757 8.63575 21.6462 8.66476C21.8365 8.67647 21.9661 8.97274 21.7545 9.06494C20.8143 9.4745 19.5373 9.10312 18.8275 8.39406ZM20.0286 7.47541C19.9539 7.4201 19.9964 7.26829 20.0981 7.31065C20.5123 7.48322 20.9313 7.52564 21.3758 7.50788C21.54 7.50126 21.5746 7.75946 21.4146 7.79431C20.9231 7.90126 20.4302 7.77247 20.0286 7.47541Z" fill="black"/>
<path fill-rule="evenodd" clip-rule="evenodd" d="M29.3293 25.8577C29.3984 25.6981 29.581 25.5367 29.765 25.5374C30.5891 25.5403 30.6998 26.5264 30.4512 27.1377C30.2308 27.6798 29.6886 28.0449 29.1069 28.0667C28.4958 28.0896 27.9391 27.792 27.6474 27.2511C27.4546 26.8933 27.3065 26.209 27.6775 25.9116C27.6844 25.9061 27.6968 25.9059 27.7034 25.912C27.9204 26.1131 27.966 26.447 28.162 26.6761C28.3443 26.8892 28.6083 27.0523 28.8957 27.0494C29.1103 27.0474 29.3161 26.9465 29.3774 26.7466C29.4106 26.6385 29.3991 26.5832 29.3742 26.5142L29.3519 26.4544C29.2742 26.2446 29.2317 26.0831 29.3293 25.8577ZM29.0551 21.5089C29.5086 21.7185 30.2232 22.2462 29.8396 22.9372C29.3665 23.5618 28.5198 23.0036 28.1055 22.7547C27.7264 22.5684 27.3957 23.196 27.7536 23.4232C30.7388 25.1488 31.434 21.3068 29.2352 21.1814C28.9931 21.1676 28.9349 21.4418 29.0551 21.5089ZM24.3752 20.2503C24.5911 19.8301 25.1919 19.82 25.388 20.2672C25.4942 20.5095 25.4126 20.7473 25.4467 20.9974C25.4754 21.2087 25.4884 21.4463 25.4468 21.6588C25.3519 22.1434 24.9688 22.5216 24.4695 22.5645C23.9719 22.6072 23.4993 22.3429 23.2412 21.9243C22.9823 21.5042 22.9742 21.0397 23.0751 20.5711C23.0799 20.5486 23.1072 20.5348 23.1264 20.5511C23.328 20.7219 23.4827 20.9088 23.6433 21.1074L23.8079 21.311C23.9334 21.4641 24.1126 21.6575 24.3104 21.6216L24.3399 21.6153C24.3948 21.6042 24.3875 21.6162 24.4217 21.5358C24.4375 21.4986 24.4265 21.4341 24.4314 21.3918L24.4331 21.3775L24.4304 21.3702C24.4239 21.3507 24.4155 21.3136 24.4047 21.2487L24.4023 21.2343C24.3532 20.9306 24.2222 20.548 24.3752 20.2503ZM31.004 19.7601C30.9005 19.2658 31.5902 19.0751 31.8657 19.4182C32.0094 19.5971 32.0724 19.8352 32.1254 20.0615L32.1504 20.169C32.2048 20.4015 32.2436 20.6453 32.1663 20.8768C32.0446 21.2412 31.7151 21.464 31.3339 21.478C30.9698 21.4913 30.6168 21.3195 30.4071 21.0216C30.2202 20.7558 30.0034 20.2199 30.1578 19.9029C30.1671 19.8837 30.1895 19.8788 30.2066 19.8909C30.4022 20.0284 30.4638 20.3127 30.5927 20.5061C30.7257 20.7055 30.9144 20.8932 31.1684 20.897C31.4114 20.9005 31.488 20.7593 31.4009 20.5379C31.2886 20.2521 31.0697 20.0739 31.004 19.7601ZM24.2273 17.2588L24.3371 17.2017C24.7138 17.0083 25.2345 16.7751 25.5908 17.0587C25.8106 17.2336 25.8812 17.52 25.7677 17.7768C25.6302 18.0878 25.3248 18.1298 25.0341 18.2064C24.7033 18.2935 24.3719 18.4253 24.0739 18.5933C23.7382 18.7827 23.432 19.0059 23.135 19.2501C22.8527 19.4822 22.5857 19.8394 22.2278 19.9417C22.2132 19.9459 22.1955 19.9414 22.1898 19.9255C22.0664 19.5782 22.2567 19.2011 22.4306 18.8995C22.6409 18.5343 22.9106 18.2235 23.2191 17.9373C23.5169 17.6611 23.8685 17.4459 24.2273 17.2588ZM31.5197 17.7142L31.5541 17.7041C31.7882 17.6372 32.0055 17.6218 32.2068 17.7903C32.3605 17.9189 32.4346 18.0998 32.3909 18.2978C32.3505 18.4805 32.2358 18.6746 32.044 18.7337C31.3965 18.9334 30.6614 18.9961 29.9858 18.9775C29.6766 18.9689 29.3637 18.951 29.0579 18.9014L28.9171 18.8774C28.6617 18.8349 28.3701 18.7933 28.1697 18.6318C28.0977 18.5737 28.1243 18.4759 28.1982 18.4369C28.4977 18.2784 28.9349 18.2949 29.2681 18.2473C29.6557 18.192 30.042 18.1185 30.4244 18.0344C30.7982 17.952 31.1545 17.825 31.5197 17.7142Z" fill="black"/>
<path fill-rule="evenodd" clip-rule="evenodd" d="M24.2716 27.8968C24.7292 26.8268 25.7278 26.0403 26.8776 25.7528C27.722 25.5422 28.6081 25.5489 29.4688 25.6325C29.9197 25.676 30.4034 25.7116 30.8284 25.8788C31.1913 26.0216 31.4871 26.2916 31.7094 26.6085C31.9741 26.984 32.1542 27.4138 32.2806 27.8543C32.2986 27.9169 32.3154 27.98 32.3312 28.0435C32.2762 28.3758 32.1595 28.6587 31.8511 28.8677C31.5502 29.0717 31.1911 29.1552 30.8331 29.1849C30.798 29.168 30.7641 29.1507 30.733 29.133C30.1752 28.8142 29.7826 28.061 29.0786 28.1629C28.4503 28.2539 28.0367 29.0431 27.6631 29.5059C26.4637 29.6454 25.2653 29.2856 24.2894 28.601C24.2399 28.3667 24.237 28.1304 24.2716 27.8968ZM33.1463 27.0851C33.0504 26.8163 32.9296 26.556 32.7863 26.3108C32.3128 25.4998 31.5858 24.8537 30.7229 24.4843C28.6814 23.6118 26.04 24.2269 24.3914 25.6579C23.8283 26.1471 23.2589 26.866 23.0867 27.6393C23.0352 27.6495 22.9867 27.6762 22.9467 27.7138C21.7556 26.9652 20.529 26.2449 19.5692 25.2072C18.8722 24.4533 18.3874 23.561 18.0905 22.5805C18.0662 22.4998 17.9358 22.5116 17.9398 22.6009C17.9409 22.6218 17.942 22.6426 17.9432 22.6635C17.9308 22.6251 17.8721 22.6449 17.8675 22.6821C17.7078 23.8732 17.508 25.1361 17.692 26.3334C17.8021 27.0478 18.1272 27.5709 18.5618 28.1356C19.0274 28.741 19.5545 29.3041 20.0935 29.844C20.4356 30.1868 20.7928 30.5821 21.2116 30.8335C21.6987 31.1255 22.2512 31.3475 22.771 31.5728C23.2999 31.8026 23.8366 32.015 24.3835 32.1991C25.4768 32.5684 26.6067 32.8237 27.7564 32.9355C28.6769 33.0248 29.729 33.122 30.6111 32.7763C31.2873 32.5114 31.833 32.0325 32.2659 31.4564C32.7372 30.829 33.1098 30.1142 33.3157 29.3606C33.5297 28.5777 33.1914 27.2113 33.1463 27.0851Z" fill="black"/>
</g>
</svg>
