<svg width="48" height="48" viewBox="0 0 48 48" fill="none" xmlns="http://www.w3.org/2000/svg">
<path d="M48 24C48 37.2548 37.2548 48 24 48C10.7452 48 0 37.2548 0 24C0 10.7452 10.7452 0 24 0C37.2548 0 48 10.7452 48 24Z" fill="#E2C1FF"/>
<mask id="mask0_3272_92619" style="mask-type:alpha" maskUnits="userSpaceOnUse" x="0" y="0" width="48" height="48">
<path d="M48 24C48 37.2548 37.2548 48 24 48C10.7452 48 0 37.2548 0 24C0 10.7452 10.7452 0 24 0C37.2548 0 48 10.7452 48 24Z" fill="#E2C1FF"/>
</mask>
<g mask="url(#mask0_3272_92619)">
<path fill-rule="evenodd" clip-rule="evenodd" d="M16.8586 34.9835C19.3583 34.4329 20.8409 34.4329 21.6798 33.58C22.5186 32.7271 22.6709 31.2631 23.0189 30.1326C23.2106 29.5098 25.0893 28.944 26.9116 29.0326C28.3967 29.1048 29.8933 29.7319 30.0089 30.1326C30.2664 31.0252 30.6805 34.846 32.042 35.433C33.4036 36.02 36.3103 35.4848 37.1414 36.8867C37.9725 38.2885 40.7018 44.0029 40.7018 45.3344C40.7018 46.666 14.0183 46.2588 14.0183 46.2588C14.0183 46.2588 14.3589 35.534 16.8586 34.9835Z" fill="white"/>
<path fill-rule="evenodd" clip-rule="evenodd" d="M5.35929 65.9989C5.36732 66.0265 5.39745 66.026 5.35929 65.9989V65.9989ZM5.21117 65.8884C5.21368 65.8904 5.21669 65.8924 5.2197 65.8944C5.18958 65.8919 5.171 65.8613 5.21117 65.8884ZM44.7007 62.3582C44.533 61.6417 44.3658 60.9247 44.1981 60.2082C43.8482 58.71 43.4977 57.2112 43.1477 55.7125C42.4624 52.7813 41.7775 49.8501 41.0922 46.9188C40.7442 45.4291 40.3466 43.951 39.9876 42.4638C39.6733 41.1604 39.4137 39.8258 38.8739 38.5922C38.3231 37.3329 37.3556 36.2805 36.0743 35.7468C34.9953 35.2979 33.7817 35.0494 32.6068 34.9927C32.7544 34.8119 32.7891 34.5443 32.5737 34.3259C32.3066 34.0553 32.2523 33.6531 32.181 33.2951C32.0922 32.8477 31.9541 32.3682 31.688 31.9917C31.5755 31.8325 31.4118 31.7582 31.219 31.8009C31.1005 31.827 30.984 31.8576 30.8691 31.8922C30.8319 31.8551 30.7953 31.8154 30.7631 31.7672C30.6903 31.6558 30.6431 31.4926 30.5387 31.4072C30.4679 31.349 30.3875 31.3349 30.3047 31.3771C30.0822 31.4901 30.0637 31.832 30.1114 32.0419C30.121 32.0825 30.1325 32.1232 30.1466 32.1629C30.1315 32.1699 30.1159 32.1769 30.1004 32.184H30.0999C29.8097 32.1287 29.4391 32.2452 29.1559 32.2733C28.827 32.306 28.4967 32.3276 28.1663 32.3381C27.49 32.3597 26.8127 32.3396 26.1394 32.2718C25.4831 32.2065 24.8314 32.1016 24.1832 31.9831C23.7795 31.9093 23.2875 31.8481 22.933 31.6055C22.9274 31.4845 22.9245 31.363 22.922 31.242C22.9169 31.0317 22.928 30.8665 22.816 30.6817C22.8145 30.6797 22.812 30.6792 22.8095 30.6802C22.6709 30.7525 22.5715 30.876 22.4986 31.0226C22.3656 30.987 22.2225 30.992 22.0985 31.0437C21.9233 31.1165 21.7928 31.2004 21.6567 31.3349C21.4543 31.5342 21.3951 31.7672 21.3359 32.0348C21.2932 32.2266 21.2666 32.3637 21.1902 32.4922C21.1737 32.5199 21.1561 32.549 21.137 32.5756C21.13 32.5826 21.1169 32.5962 21.0948 32.6193C21.0728 32.6414 21.0507 32.663 21.0281 32.6845C21.015 32.6976 20.9507 32.7498 20.9607 32.7428C20.6826 32.9496 20.4311 33.0275 20.0877 33.1264C19.3486 33.3393 18.5914 33.4783 17.8549 33.7043C17.05 33.9513 16.2627 34.2516 15.493 34.5925C12.499 35.9185 9.81937 38.0178 7.99226 40.7517C5.86439 43.9359 5.08113 47.8035 4.69301 51.5532C4.26824 55.6628 4.29786 59.8191 4.20498 63.9458C4.19343 64.4619 4.18188 64.9781 4.17033 65.4942C4.15878 65.9988 4.12765 66.5421 4.57552 66.882C4.97468 67.1843 5.46071 67.0894 5.90255 66.9533C6.37552 66.8082 6.85703 66.6927 7.34456 66.6099C8.26439 66.4547 9.21334 66.4362 10.1412 66.5265C10.6398 66.5753 11.2498 66.76 11.6595 66.3694C11.8067 66.2288 11.8915 66.0506 11.9608 65.8633C12.0472 65.6323 12.1481 65.4059 12.2485 65.1789C12.3313 64.9922 12.4137 64.8044 12.496 64.6171C12.6296 65.202 12.7631 65.787 12.8967 66.3724C12.9494 66.6029 13.1899 66.6204 13.335 66.5085C13.572 66.6355 13.8833 66.633 14.1524 66.6641C14.5852 66.7138 15.0215 66.7309 15.4564 66.746C16.3084 66.7751 17.1605 66.7911 18.013 66.8022C19.7513 66.8243 21.4895 66.8163 23.2272 66.8087C26.67 66.7937 30.1124 66.7234 33.5538 66.634C34.5228 66.6089 35.4918 66.5863 36.4608 66.5627C36.9449 66.5511 37.4294 66.5396 37.9139 66.526C38.059 66.522 38.2056 66.5085 38.3432 66.4763H38.3437C38.405 66.5301 38.4803 66.5712 38.5702 66.5958C38.892 66.6842 39.2118 66.4874 39.3082 66.1766C39.3529 66.034 39.3841 65.9035 39.373 65.7649C39.3896 65.6604 39.4061 65.556 39.4227 65.4516C39.96 65.7915 40.6046 65.8839 41.2408 65.8417C41.9603 65.794 42.6798 65.6624 43.3938 65.5645C44.0641 65.4727 45.1506 65.5023 45.1827 64.5764C45.1943 64.2375 45.0511 63.8574 44.9748 63.5311C44.8834 63.1399 44.7921 62.7493 44.7007 62.3582Z" fill="black"/>
<path fill-rule="evenodd" clip-rule="evenodd" d="M34.4374 16.0809C33.9202 14.2138 31.9432 13.3991 30.1627 13.2698C25.3419 12.7687 20.4349 15.4561 18.2977 19.8138C16.5869 23.1227 16.5334 26.5987 20.2108 28.488C20.4116 28.5987 20.6214 28.7171 20.8355 28.8245C21.0216 28.9975 21.2133 29.1638 21.4224 29.3033C23.4249 30.6201 25.8827 31.1897 28.2646 31.0661C31.7813 30.9952 33.0367 28.609 33.8049 25.5488C34.6152 22.5021 35.0683 19.1962 34.4374 16.0809Z" fill="white"/>
<path fill-rule="evenodd" clip-rule="evenodd" d="M36.7457 33.6795C36.5815 33.1829 36.3757 32.7014 36.1834 32.2149C36.1427 31.9724 36.1156 31.7278 36.1086 31.4813C36.0819 30.6006 36.2467 29.7124 36.4314 28.8549C36.807 27.1121 37.2051 25.3874 37.4049 23.6125C37.7619 20.4378 37.5495 17.1365 36.1055 14.2385C34.8543 11.728 32.734 9.67495 29.9951 8.90574C29.1854 8.67824 28.3521 8.55277 27.513 8.50266C27.4091 8.48614 27.3054 8.46998 27.2022 8.45441C26.0351 8.27848 24.8537 8.19081 23.6741 8.26668C21.7179 8.39255 19.7801 8.9547 18.1509 10.0665C16.5106 11.186 15.3451 12.7558 14.8028 14.6704C14.2387 16.6622 14.2865 18.8193 13.3123 20.6867C13.0245 21.2384 12.6886 21.7629 12.3682 22.2961C11.5181 23.2446 10.5951 24.2991 10.3929 25.6033C10.1434 27.215 11.0707 28.5772 11.9484 29.8349C12.7417 30.9707 13.8182 32.5392 13.0018 33.9375C12.6167 34.5973 11.9996 35.0908 11.5362 35.6923C11.0557 36.317 10.6806 37.0339 10.4868 37.8001C10.1228 39.2391 10.4577 40.7389 11.4312 41.8636C11.9383 42.449 12.5895 42.8361 13.2945 43.1379C14.016 43.4462 14.7209 43.7389 15.3174 44.2636C15.59 44.5031 15.8396 44.7657 16.0756 45.0408C16.2955 45.3847 16.5516 45.7061 16.8403 46.0003C17.1581 46.3242 17.7807 45.8808 17.489 45.4997C17.4674 45.4716 17.4463 45.444 17.4247 45.4159C17.2113 45.1377 16.9969 44.8595 16.7725 44.5904C16.1032 43.53 15.8456 42.2316 16.1785 40.9929C16.2649 40.6711 16.3864 40.3658 16.5375 40.0776C16.5696 40.1615 16.6048 40.2443 16.6419 40.3262C16.7865 40.6435 16.9894 41.0195 17.2475 41.3409C17.2575 41.5613 17.2907 41.7797 17.3549 41.9936C17.7526 43.3196 19.0821 43.9739 20.2811 44.483C20.3986 44.5332 20.5146 44.5814 20.6285 44.6291C20.9418 44.7601 21.2732 44.3138 21.0779 44.0446C21.0267 43.9739 20.977 43.9016 20.9298 43.8283C20.3675 42.9576 20.0998 41.9163 20.2515 40.879C20.4111 39.7819 21.0578 38.8741 21.7 38.003C22.3306 37.1464 23.008 36.2723 23.2901 35.2274C23.6024 34.0731 23.3182 32.9223 22.8362 31.8599C22.3949 30.8877 21.807 29.9916 21.314 29.0462C21.4828 29.2145 21.657 29.3773 21.8364 29.5344C22.0382 29.711 22.2455 29.9132 22.4847 30.0377C22.6615 30.1297 22.8386 29.9094 22.6986 29.7604C22.5145 29.5647 22.279 29.4135 22.0746 29.2388C21.8784 29.0712 21.6879 28.8968 21.502 28.7177C21.2732 28.4972 21.0556 28.2664 20.8457 28.0285C20.6777 27.6007 20.5394 27.1614 20.4267 26.7154C20.2736 26.1119 20.132 25.4698 20.143 24.8442C20.1541 24.2025 20.4875 23.7531 20.9313 23.3223C21.1193 23.1399 21.3091 22.9596 21.4985 22.779C21.902 22.4829 22.2826 22.152 22.6523 21.822C23.311 21.234 23.9482 20.6125 24.5567 19.9728C24.7199 19.8011 24.8818 19.6276 25.0416 19.4521C25.6002 18.8789 26.1329 18.2804 26.6351 17.6612C27.1341 17.4795 27.6136 17.239 28.0635 16.9558C27.8677 17.1541 27.6699 17.3499 27.4731 17.5472C27.0347 17.9871 26.5794 18.4289 26.0712 18.7874C26.019 18.8246 26.0506 18.9034 26.115 18.8908C26.7611 18.7618 27.3656 18.5469 27.93 18.2045C28.5039 17.856 29.0095 17.3826 29.4814 16.9076C29.7485 16.7871 30.0062 16.6319 30.2416 16.4793C30.2541 16.4713 30.2667 16.4627 30.2793 16.4546C30.0473 17.1898 29.7069 18.0222 28.9813 18.2843C28.9577 18.2929 28.9593 18.332 28.9874 18.3305C29.5986 18.2947 30.0899 18.0197 30.4777 17.6188C30.7896 17.3944 31.0872 17.1566 31.3713 16.8976C31.6464 16.6468 31.907 16.3778 32.1546 16.0992C31.8086 16.7845 31.4211 17.4546 31.0389 18.1171C31.0188 18.1523 31.061 18.2 31.0972 18.1754C31.904 17.6291 32.5161 16.9242 33.0167 16.0906C33.0906 15.9679 33.1611 15.8432 33.2299 15.7175C33.178 15.9142 33.1213 16.1096 33.0606 16.304C32.9507 16.6559 32.8425 17.0087 32.7324 17.3604C32.673 17.55 32.6007 17.7353 32.5213 17.9175C32.4645 18.0478 32.39 18.1779 32.3785 18.3209C32.3777 18.3304 32.3881 18.3366 32.3964 18.3345C32.7181 18.2541 33.0177 17.8872 33.247 17.6599C33.3747 17.5333 33.4942 17.3944 33.6043 17.2478C33.6247 18.0917 33.6388 18.9357 33.6202 19.7821C33.5856 21.3365 33.4852 22.8905 33.3566 24.4399C33.2431 25.8097 33.1593 27.2472 32.3951 28.4376C31.8036 29.359 30.8446 29.9966 29.8028 30.3054C29.7109 30.333 29.6185 30.3576 29.5256 30.3797C28.0173 30.7377 26.5151 30.332 25.1815 29.615C24.7808 29.3996 24.4384 29.984 24.825 30.2245C26.2721 31.1253 28.1062 31.4321 29.744 31.0284C29.6924 32.9629 30.6458 34.7981 31.5942 36.439C32.1249 37.3573 32.6562 38.2696 33.0313 39.2652C33.3495 40.1108 33.5659 40.9879 33.6388 41.8902C33.7251 42.9536 33.6403 44.0231 33.4916 45.0775C33.4836 45.1346 33.4756 45.1924 33.467 45.2496C33.4339 45.4761 33.6372 45.6659 33.8577 45.5499C34.8322 45.0378 35.2525 43.9462 35.508 42.937C35.747 41.9916 35.9092 41.0276 35.9996 40.057C36.1321 40.4231 36.2396 40.7981 36.3229 41.1807C36.3345 41.2354 36.3455 41.2902 36.3566 41.3449C36.4198 41.6647 36.9039 41.6421 36.9812 41.3449C36.9952 41.2912 37.0088 41.2375 37.0213 41.1832C37.4205 39.569 37.528 37.8855 37.3171 36.2351C37.2061 35.367 37.0208 34.5104 36.7457 33.6795Z" fill="#A87F63"/>
<path fill-rule="evenodd" clip-rule="evenodd" d="M26.5522 28.3025C26.5522 28.3025 27.2636 28.8517 28.5903 28.8517C29.9169 28.8517 30.6875 28.3603 30.6875 28.3603C30.6875 28.3603 29.5247 27.654 28.5903 27.5968C27.6559 27.5396 26.5522 28.3025 26.5522 28.3025Z" fill="#FF6C6C"/>
<path fill-rule="evenodd" clip-rule="evenodd" d="M24.9706 26.906C24.9759 26.3528 25.4553 26.2574 25.9107 26.3312C26.6816 26.4559 27.4554 26.5437 28.2368 26.5595L28.3715 26.5619C28.3932 26.5302 28.4294 26.5062 28.4787 26.501C28.9118 26.4542 29.3543 26.4617 29.7898 26.4489C30.1697 26.4377 30.5602 26.3997 30.9401 26.4296L30.9703 26.4322C31.4346 26.4772 31.9245 26.7141 31.8685 27.259C31.8169 27.7636 31.3346 28.2102 30.9494 28.4906C30.8716 28.5468 30.7919 28.5994 30.71 28.6474C30.6843 28.6802 30.6468 28.7031 30.6035 28.7077C30.2242 28.9126 29.8057 29.0338 29.3725 29.0742C28.4541 29.1596 27.3864 29.0671 26.5042 28.6691C26.2174 28.5397 25.9499 28.3782 25.7134 28.1797C25.3488 27.8736 24.9665 27.4094 24.9706 26.906ZM28.6395 27.9025C28.2713 27.8914 27.9037 27.943 27.553 28.0565C27.3154 28.1332 27.0988 28.2807 26.8711 28.3831C27.6385 28.6758 28.53 28.7396 29.3173 28.6864C29.6627 28.663 29.9975 28.5833 30.3095 28.4464C30.2609 28.4113 30.2117 28.3756 30.1602 28.3445C30.0046 28.2502 29.8418 28.1701 29.672 28.1062C29.3413 27.9822 28.9924 27.9137 28.6395 27.9025ZM28.7127 23.1653C28.6133 23.094 28.6922 22.8578 28.9044 22.8943C30.8323 23.2256 29.8334 26.5464 27.372 24.7241C27.0789 24.4877 27.4338 23.967 27.7497 24.1694L27.8618 24.2559C28.2264 24.5354 28.8295 24.9579 29.2616 24.5045C29.6695 23.9332 29.0918 23.3958 28.7127 23.1653ZM30.0178 20.6519C30.4276 20.3023 30.9416 20.56 31.2434 20.9141L31.2965 20.9774C31.3569 21.0497 31.4237 21.1339 31.4639 21.2238C31.7982 20.9391 32.2516 20.7388 32.6855 20.8689C33.1062 20.9954 33.3462 21.3971 33.2739 21.8284C33.192 22.3188 32.8209 22.6484 32.4222 22.9032L32.3091 22.975C31.83 23.2805 31.3817 23.5882 30.9874 24.008C30.9231 24.0762 30.7841 24.0672 30.7419 23.9764L30.7079 23.9033L30.6736 23.8302C30.3939 23.2338 30.0942 22.6412 29.8481 22.0307C29.6658 21.5783 29.6067 21.0024 30.0178 20.6519ZM25.4086 20.8965C25.7089 20.547 26.2175 20.3131 26.6187 20.652C27.046 21.013 26.9621 21.61 26.7718 22.0704C26.5427 22.6257 26.275 23.1688 26.0179 23.7135L25.9629 23.8302C25.9398 23.8789 25.9172 23.9276 25.8947 23.9763C25.8525 24.0672 25.7129 24.0762 25.6491 24.008C25.2671 23.6013 24.8348 23.3003 24.3732 23.0046L24.2338 22.9159C23.8285 22.6588 23.4455 22.327 23.3621 21.8284C23.2908 21.3981 23.5293 20.9939 23.9506 20.8688C24.3854 20.7398 24.8378 20.9387 25.1726 21.2239C25.2126 21.1316 25.2813 21.0447 25.3462 20.9687L25.4086 20.8965ZM25.8956 18.4616C26.0422 18.652 25.8856 18.9632 25.6715 19.0124C25.4063 19.0734 25.1384 19.0363 24.878 19.1119C24.6394 19.1813 24.4108 19.3202 24.2063 19.4587C23.9731 19.6165 23.7583 19.7928 23.561 19.9936C23.4436 20.113 23.2957 20.396 23.1146 20.4013C22.9346 20.4065 23.1762 19.8436 23.1962 19.7949C23.3381 19.4482 23.5375 19.1292 23.7869 18.8497C24.279 18.2983 25.3212 17.7164 25.8956 18.4616ZM31.3911 18.3092L31.5139 18.3434C31.8179 18.4279 32.1424 18.5317 32.4032 18.7139L32.4236 18.7284L32.4552 18.7515C32.7826 18.9956 33.2457 19.4826 33.0138 19.9075C32.9978 19.9368 32.9639 19.9397 32.9365 19.9277C32.6281 19.7926 32.3994 19.5228 32.0712 19.4099L32.0107 19.3893C31.6929 19.2823 31.2998 19.1697 30.9577 19.18C30.7173 19.2581 30.3924 19.1934 30.3298 18.9006L30.327 18.8863L30.3216 18.856C30.2855 18.6559 30.3392 18.4009 30.546 18.3045C30.8293 18.1724 31.1058 18.2312 31.3911 18.3092Z" fill="black"/>
</g>
</svg>
