<svg width="48" height="48" viewBox="0 0 48 48" fill="none" xmlns="http://www.w3.org/2000/svg">
<ellipse cx="24" cy="24" rx="24" ry="24" fill="#FFD79C"/>
<mask id="mask0_3272_92624" style="mask-type:alpha" maskUnits="userSpaceOnUse" x="0" y="0" width="48" height="48">
<ellipse cx="24" cy="24" rx="24" ry="24" fill="#FFD79C"/>
</mask>
<g mask="url(#mask0_3272_92624)">
<path fill-rule="evenodd" clip-rule="evenodd" d="M5.3058 64.6709C11.8654 65.6672 18.5439 65.7173 25.158 65.3555C27.7756 65.1596 30.4013 65.1243 33.0168 65.3748C34.5623 65.4897 41.3385 66.0077 41.8922 64.6235C41.5437 57.2525 40.838 49.8188 38.673 42.7297C37.7826 40.2126 37.0179 38.1234 35.2801 36.0404C34.7324 35.4717 33.5513 34.2789 32.8746 33.8899C32.2882 33.5529 32.0432 33.6732 31.7065 33.104C31.3719 32.4752 31.1252 31.4252 30.6501 30.9815C30.1665 30.5298 29.4497 30.6914 28.5612 30.8369C28.7244 28.6312 27.7063 28.0694 26.3036 27.6499C23.8381 26.709 21.4032 27.1817 20.7826 30.183C19.632 30.183 18.9857 30.6782 18.287 31.154C18.0014 31.3484 18.2001 31.8439 17.8589 31.9968C17.2277 32.2215 16.1123 32.1665 15.5045 32.4431C12.7408 33.7008 10.2793 35.5247 8.66274 38.1884C5.03863 43.8754 2.54915 55.8551 2.97994 62.5955C2.7912 62.8915 3.0522 63.3159 3.11854 63.6342C3.20228 63.911 3.47347 64.0952 3.75648 64.0637C4.15142 64.4884 4.76228 64.583 5.3058 64.6709Z" fill="white"/>
<path fill-rule="evenodd" clip-rule="evenodd" d="M18.9527 30.6334C19.3568 30.2118 19.9906 29.96 20.5907 29.9742L20.6188 29.9751L20.8226 29.9842L20.6864 30.6521L20.6796 30.6838L20.6518 30.7997L20.6148 30.9515L20.6017 31.0074L20.5878 31.0691C20.5856 31.0792 20.5835 31.0891 20.5814 31.0989L20.5753 31.1281L20.5173 31.4119L20.5281 31.4371L20.525 31.5016C20.516 31.7347 20.5662 31.8629 20.6769 31.904L20.6857 31.907L20.7488 31.9273L20.8003 32.039C20.9188 32.2946 21.0294 32.5178 21.1429 32.7281C21.474 33.3413 21.8689 33.9543 22.3243 34.5703C22.757 35.1557 23.2077 35.7144 23.6764 36.245C23.8871 36.4835 24.1097 36.723 24.3466 36.9668L24.5505 37.1757L24.6153 37.2413L24.659 37.2848L24.7134 37.3381L24.7918 37.4129L24.8486 37.4688L24.867 37.4863C24.8902 37.5079 24.9081 37.5224 24.9243 37.5328L24.9303 37.5365L24.9482 37.5471L25.8936 38.5414L26.2276 38.725L26.3861 38.8129L26.4183 38.749L26.4248 38.7285L26.7762 37.9568L26.9907 37.4842C27.4311 36.5118 27.7738 35.7383 28.0871 35.0018L28.1261 34.9099L28.2416 34.6359L28.3028 34.4897C28.5828 33.8185 28.7897 33.3005 28.9749 32.7974L29.0012 32.7256L29.0402 32.6181L29.0981 32.4559L29.1086 32.4282C29.1589 32.2995 29.0354 31.8316 28.9137 31.5752L28.9068 31.5609L28.8752 31.4974L28.841 31.4304C28.7605 31.2734 28.7022 31.0991 28.6532 30.8882C28.6453 30.854 28.6378 30.8196 28.6308 30.7849L28.6206 30.7327L28.6141 30.6984L28.6051 30.6504L28.5922 30.5816L28.8645 30.5361L29.0139 30.5118L29.079 30.5015C29.1634 30.4885 29.2386 30.4778 29.3093 30.4688L29.3356 30.4655L29.383 30.4599L29.3846 30.4693L29.4818 30.4789L29.5539 30.4863C29.9092 30.5239 30.1833 30.5653 30.3779 30.6112L30.3971 30.6158L30.4319 30.6246L30.4477 30.6288C30.6248 30.6764 30.7612 30.7794 30.8691 30.9312C30.9432 31.0354 30.9912 31.1352 31.0673 31.3242L31.0945 31.3924L31.185 31.6162C31.1956 31.6434 31.212 31.687 31.2342 31.7468L31.311 31.9559L31.6959 33.019L32.0899 33.2262C32.273 33.322 32.4069 33.3911 32.4731 33.4238L32.4966 33.4352L32.5133 33.4429L32.6491 33.4967L32.6345 33.5391L32.6509 33.5485C34.2728 34.4814 35.5235 35.9167 36.4973 37.822L36.5267 37.8799L36.5569 37.9399C37.3329 39.4919 37.8889 41.2239 38.4319 43.5362L38.4654 43.68L38.4919 43.7943L38.6334 44.4114C39.1652 46.7413 39.5306 48.4787 39.8331 50.1834L39.8527 50.2945L39.9031 50.5841C40.2829 52.7906 40.6009 54.9771 40.8554 57.1422L40.8976 57.5066C41.0038 58.4369 41.0997 59.3985 41.2038 60.5533L41.2177 60.7084L41.2635 61.2271C41.3123 61.7861 41.3569 62.3439 41.3973 62.9005L41.4171 63.1787L41.4578 63.7836L41.4818 64.1283L41.4847 64.175L41.4944 64.3546L41.497 64.3968C41.5007 64.4508 41.5048 64.4964 41.51 64.5385L41.5142 64.5695L41.5188 64.5996C41.5322 64.6819 41.5587 64.7557 41.6027 64.838L41.614 64.8588L41.6894 64.9936L41.5527 65.0655C40.8403 65.4408 39.4377 65.6059 37.5135 65.6145L37.4551 65.6147H37.3348C36.3998 65.6142 35.4088 65.5782 34.3749 65.5165L34.141 65.5022L33.9459 65.4898C33.8618 65.4843 33.78 65.4788 33.6951 65.4729L33.565 65.4638L33.0213 65.424C30.5757 65.1897 28.0111 65.1937 25.1852 65.4052C17.8177 65.8082 11.4585 65.6382 5.48154 64.7461L5.30053 64.7188L5.16716 64.6971L5.0876 64.6838C4.45362 64.5756 4.05553 64.4368 3.74491 64.1457L3.72864 64.1303L3.71508 64.117L3.7092 64.1171C3.39643 64.1158 3.11011 63.9111 3.00387 63.6094L2.99835 63.5932L2.99135 63.5707L2.98651 63.5482C2.98156 63.5266 2.97538 63.5032 2.96786 63.4776L2.96198 63.4579L2.9126 63.2962L3.07894 63.2657C3.09328 63.2631 3.10818 63.2531 3.12263 63.2322L3.13649 63.2124L3.16048 63.1791L3.21842 63.0997C3.28014 63.0131 3.3105 62.9588 3.32555 62.9042C3.33886 62.8559 3.34385 62.794 3.3424 62.7078L3.34129 62.6658L3.33473 62.5131C3.3343 62.5009 3.33401 62.4902 3.33382 62.4799L3.33362 62.4645L3.33351 62.2497L3.33404 62.0135C3.33443 61.9105 3.33501 61.81 3.3358 61.7113L3.33714 61.5646L3.33848 61.4464C3.34649 60.7923 3.36569 60.1388 3.39607 59.4863C3.45547 58.2124 3.55736 56.9404 3.70149 55.6731C3.9991 53.0569 4.45496 50.5196 5.07508 48.0676L5.13737 47.8227C5.80789 45.2022 6.45436 43.182 7.27604 41.3138C8.32112 38.9377 9.59537 36.9822 11.1998 35.4188C12.0819 34.5592 13.0588 33.8337 14.0969 33.2772C14.5744 33.0213 15.0818 32.7942 15.626 32.5899L15.704 32.5609L15.8298 32.5149L15.9264 32.4792L16.2376 32.3629C16.303 32.3384 16.3742 32.311 16.4583 32.2779L16.5105 32.2573L17.0677 32.0351L17.1602 31.9987L17.2631 31.9586L17.3387 31.9296C17.4624 31.8825 17.5744 31.8413 17.6783 31.805L17.7397 31.7838L17.7955 31.7651L18.0333 31.6828L18.0287 31.8991C18.0256 32.0429 18.0626 32.1517 18.1449 32.2297L18.1477 32.2322L18.1505 32.2345L18.1531 32.2362L18.1675 32.2358L18.2237 32.2355C18.2295 32.2323 18.2349 32.2286 18.24 32.2242C18.32 32.1563 18.3572 32.0652 18.3933 31.8564L18.4029 31.7982L18.4195 31.6894L18.4262 31.6482C18.4502 31.5032 18.4712 31.4232 18.5119 31.3316C18.5708 31.1992 18.6486 31.0703 18.7402 30.9519L18.7616 30.9247L18.8472 30.8218L18.8603 30.8056C18.8903 30.7672 18.9057 30.7401 18.9121 30.7152L18.9136 30.7085L18.9222 30.6652L18.9527 30.6334Z" fill="#EA744C"/>
<path fill-rule="evenodd" clip-rule="evenodd" d="M32.4569 33.7228C32.4166 33.7004 32.4521 33.6429 32.4925 33.6619C34.4379 34.5745 35.9303 36.1756 36.9803 38.0256C38.0677 39.9411 38.6874 42.116 39.2217 44.2417L39.241 44.3185C39.8107 46.5925 40.2951 48.89 40.7312 51.1931C41.1729 53.5253 41.5274 55.8721 41.8126 58.2285C41.9537 59.3936 42.0795 60.5607 42.1776 61.7303C42.2266 62.3147 42.2711 62.8996 42.3112 63.4847C42.3271 63.7188 42.3422 63.9528 42.3551 64.187L42.3644 64.3627C42.3724 64.5221 42.3913 64.6818 42.3519 64.839C42.3179 64.9745 42.2462 65.0973 42.1831 65.2217C42.0583 65.4676 41.7161 65.4271 41.5816 65.2217L41.5425 65.1618C41.4533 65.024 41.3792 64.8959 41.3512 64.7243C41.3241 64.5582 41.3231 64.3841 41.311 64.2163C41.2886 63.9075 41.2696 63.5985 41.2479 63.2897C41.2024 62.6396 41.1512 61.9899 41.0946 61.3406C40.9826 60.059 40.8624 58.7785 40.7149 57.5004C40.4527 55.2289 40.1236 52.9635 39.7358 50.7101C39.3568 48.5088 38.8777 46.3299 38.3779 44.1536L38.3261 43.9285C37.4511 40.129 36.1023 35.7534 32.4569 33.7228ZM11.7362 48.601C11.7505 48.563 11.8121 48.5542 11.8224 48.601C11.9535 49.191 11.9664 49.7987 11.9865 50.4027C12.0062 50.9986 12.0054 51.5972 11.9967 52.1934C11.9647 54.3847 11.9045 56.5742 11.8525 58.7651C11.8265 59.861 11.8021 60.9571 11.7834 62.0531C11.7763 62.4642 11.7704 62.8753 11.7654 63.2864L11.7594 63.8286C11.7563 64.0683 11.7501 64.3051 11.7208 64.5446C11.7015 64.7021 11.6605 64.8524 11.5735 64.9874C11.5118 65.0832 11.4238 65.1318 11.3381 65.197L11.3221 65.2094C11.2127 65.2958 11.0975 65.2964 10.9892 65.2094L10.9578 65.1845C10.8543 65.1036 10.7649 65.0404 10.6989 64.9124C10.607 64.7346 10.5923 64.5413 10.5767 64.3453C10.553 64.048 10.5687 63.7464 10.5717 63.4483C10.5779 62.8504 10.5861 62.2525 10.5966 61.6545C10.6352 59.4618 10.7113 57.2687 10.85 55.08C10.9153 54.049 11.004 53.0147 11.1228 51.9879L11.1455 51.7954C11.1815 51.4933 11.2144 51.1858 11.2515 50.8774C10.6983 50.4883 10.2121 50.0162 9.79746 49.4807C9.76693 49.4413 9.81719 49.386 9.85405 49.4242C10.2777 49.8628 10.7635 50.2125 11.3013 50.4875C11.3894 49.8418 11.5105 49.1995 11.7362 48.601ZM20.9773 29.0552C20.9849 29.0493 20.9967 29.0468 21.004 29.0552C21.1229 29.1938 21.0988 29.4058 21.1026 29.5814L21.103 29.5978C21.1116 29.8546 21.1132 30.1106 21.1123 30.3676L21.1097 31.1855C21.1093 31.298 21.1002 31.4151 21.106 31.5282L21.109 31.572C21.1714 31.636 21.2004 31.7284 21.1793 31.8212C21.1754 31.9403 21.1132 32.0397 21.0224 32.1022L21.217 32.3783L21.4119 32.6544C21.8135 33.224 22.2195 33.7885 22.6427 34.3425C23.0742 34.9073 23.5345 35.4508 24.0162 35.9734C24.2516 36.2288 24.4909 36.4806 24.7358 36.7267C24.8354 36.8268 24.9374 36.9244 25.0382 37.023L25.1386 37.1222C25.1979 37.1815 25.2725 37.2401 25.3119 37.3153C25.335 37.3596 25.3403 37.4689 25.3486 37.487C25.4229 37.6503 25.2961 37.9107 25.0854 37.8292L25.095 37.8229C25.1334 37.7962 25.1088 37.7958 25.0212 37.8217C24.966 37.8216 24.9142 37.8089 24.8658 37.7837L24.8514 37.7758C24.7833 37.7411 24.7225 37.6741 24.6671 37.6205L24.6534 37.6075C24.5268 37.4889 24.4062 37.3631 24.2848 37.2391C24.0316 36.9805 23.7842 36.7163 23.5446 36.4451C23.0666 35.904 22.6134 35.3409 22.1843 34.7603C21.7472 34.169 21.3409 33.5473 20.9915 32.9001C20.8589 32.6545 20.7373 32.4041 20.6208 32.1509C20.3939 32.0781 20.3413 31.8368 20.3571 31.565C20.2734 31.3701 20.198 31.1712 20.1534 30.9679C20.1473 30.9401 20.1831 30.9138 20.2045 30.9382C20.2771 31.0206 20.3443 31.1084 20.4088 31.1984C20.4478 31.0079 20.4971 30.8325 20.5203 30.7207L20.6209 30.2272C20.0542 30.1977 19.4332 30.4305 19.0425 30.8381C19.0215 30.9442 18.9398 31.0202 18.8602 31.1194C18.7692 31.2328 18.6898 31.3601 18.6306 31.4932C18.4993 31.7883 18.5735 32.223 18.3186 32.4395C18.2921 32.462 18.2624 32.4777 18.2318 32.4874C18.3527 33.0802 18.2978 33.7335 18.2952 34.335L18.2951 34.3879C18.2957 35.061 18.2732 35.7348 18.2472 36.4074L18.2207 37.073C18.1864 37.9608 18.1642 38.849 18.2505 39.732C18.6443 39.3831 19.0516 39.0502 19.4729 38.733C19.75 38.5244 20.0325 38.3232 20.3203 38.1296L20.554 37.9734C20.8342 37.7855 21.1211 37.5922 21.4278 37.4577C21.829 37.2818 22.2105 37.3423 22.5978 37.5227C22.9835 37.7024 23.3577 37.9111 23.736 38.1059C24.1208 38.3039 24.5064 38.5003 24.8918 38.6971C25.147 38.8276 25.5211 38.9453 25.7083 39.1854C25.7203 39.1323 25.7342 39.0793 25.7505 39.0266C25.7319 38.9461 25.7391 38.8591 25.7842 38.7762C26.4133 37.6203 26.9954 36.4367 27.5734 35.2545C27.866 34.6563 28.1441 34.051 28.4373 33.4531L28.7222 32.8708C28.7698 32.7738 28.8176 32.6768 28.8656 32.5801C28.9375 32.4351 29.0123 32.2917 29.085 32.1471C29.1158 32.086 29.1543 32.0254 29.1842 31.9637L29.1984 31.9328C29.1991 31.9312 29.2681 31.7141 29.2148 31.7348L29.2102 31.737C29.183 31.7524 29.1612 31.7182 29.1788 31.6963C29.2542 31.6031 29.3592 31.6857 29.4023 31.772C29.5208 32.0095 29.3036 32.3824 29.22 32.6098L29.2154 32.6225C28.9561 33.3565 28.6625 34.0768 28.3616 34.7945C27.7848 36.1706 27.1651 37.5256 26.5468 38.8829L26.5394 38.9062C26.6713 38.8051 26.8121 38.7134 26.9326 38.6241C27.2367 38.3989 27.5498 38.1847 27.8623 37.9712C28.4353 37.5796 29.024 37.2139 29.6223 36.8626L29.7421 36.7926C30.041 36.6184 30.3371 36.4772 30.6919 36.5295C31.0215 36.5781 31.3279 36.7551 31.6257 36.899L31.6565 36.9137L32.5765 37.3511C32.4782 36.9589 32.3717 36.5686 32.2606 36.1797C32.0439 35.4212 31.8054 34.6691 31.5469 33.9237C31.3053 33.2272 31.0443 32.5384 30.7681 31.855L30.685 31.6499C30.5724 31.3685 30.4604 31.0617 30.1386 30.9751C29.817 30.8885 29.4482 31.0169 29.1542 30.8336C29.1275 30.8169 29.1308 30.7729 29.1632 30.7647L29.3446 30.719C29.6851 30.6343 30.0843 30.5491 30.4064 30.6315C30.7568 30.7213 31.0467 31.0153 31.2167 31.3211C31.4057 31.6611 31.539 32.0418 31.6824 32.4044L31.7052 32.4615C31.8698 32.8719 32.0282 33.2848 32.1797 33.7003C32.4827 34.5307 32.7585 35.3712 33.0081 36.2192C33.1284 36.6279 33.2425 37.0386 33.3522 37.4502C33.3838 37.5686 33.4358 37.7122 33.4785 37.8619C33.5274 37.9096 33.5737 37.9628 33.6171 38.0235C33.6891 38.1243 33.6374 38.2424 33.5478 38.3027C33.5444 38.4057 33.5215 38.5026 33.4668 38.5856C33.2531 38.9099 32.6883 38.8264 32.7113 38.3904C32.7147 38.3237 32.7407 38.26 32.7801 38.2062L32.779 38.1974L32.7745 38.1814C32.6765 38.1345 32.578 38.0821 32.4742 38.0308L31.5086 37.5537C31.2289 37.4155 30.9189 37.2019 30.6079 37.1492C30.318 37.1002 30.0121 37.3162 29.763 37.4465L29.7468 37.4549C29.1445 37.7636 28.5468 38.0825 27.9513 38.404C27.6607 38.561 27.3738 38.7246 27.0842 38.8834C26.8421 39.0163 26.5808 39.207 26.3087 39.2819C26.1924 39.3723 26.0544 39.3602 25.9434 39.2919C25.9941 39.6059 25.991 39.9282 26.0066 40.2493C26.0275 40.6786 26.0307 41.109 26.0376 41.5389L26.0404 41.7C26.0587 42.6503 26.0685 43.6008 26.0721 44.5512C26.0849 47.9357 26.0475 51.3213 26.0388 54.7058C26.0344 56.4062 26.0007 58.1082 25.9565 59.808C25.9378 60.5283 25.8986 61.2477 25.8563 61.9669L25.833 62.3592C25.7838 63.1869 25.7547 64.0237 25.6015 64.8403C25.5815 64.9468 25.4013 64.9495 25.3836 64.8403C25.2426 63.9653 25.2347 63.0712 25.2076 62.186L25.2019 62.0091C25.1693 61.0586 25.1538 60.1087 25.1571 59.1578C25.1692 55.7719 25.2572 52.3882 25.3292 49.0032C25.3654 47.3026 25.3898 45.6011 25.446 43.901C25.4741 43.0503 25.5059 42.2001 25.5437 41.3498C25.5606 40.9701 25.5768 40.5908 25.602 40.2117L25.6134 40.0493C25.6212 39.9433 25.6275 39.8386 25.6352 39.7349C25.2926 39.86 24.9793 39.6283 24.6712 39.4698C24.316 39.2871 23.9609 39.1041 23.6056 38.9217L23.25 38.7397L22.5383 38.3766C22.2179 38.213 21.971 38.0503 21.6292 38.2421C20.398 38.9329 19.2665 39.852 18.2411 40.8165C18.0445 41.0014 17.629 40.9517 17.5792 40.6418C17.3665 39.3175 17.4959 37.974 17.6045 36.6457L17.6445 36.1525C17.693 35.5635 17.7459 34.9745 17.8163 34.3879C17.8478 34.1255 17.8792 33.8632 17.9139 33.6013L17.9406 33.4049C17.9839 33.0945 18.0123 32.7859 18.1047 32.4882C18.0756 32.4787 18.0475 32.4633 18.0224 32.4395C17.7443 32.1757 17.8784 31.7179 18.0053 31.4041C18.1306 31.0944 18.3216 30.824 18.5609 30.5914C18.613 30.5406 18.6866 30.5079 18.7605 30.5062C19.3405 30.1219 19.9769 29.9301 20.6392 30.1398C20.6578 30.0509 20.6768 29.9621 20.6968 29.8735L20.7171 29.785C20.7686 29.5652 20.7877 29.2022 20.9773 29.0552ZM26.9224 63.7608C27.1024 63.7113 27.2994 63.7634 27.4313 63.8953C27.5632 64.0272 27.6154 64.2243 27.5658 64.4043C27.541 64.4929 27.4962 64.5698 27.4313 64.6351C27.3707 64.6953 27.3 64.7383 27.2193 64.764L27.2005 64.7696L27.1711 64.7819C27.0808 64.8061 26.9906 64.8061 26.9004 64.7819C26.8141 64.7577 26.7393 64.7141 26.6757 64.651C26.6126 64.5874 26.569 64.5126 26.5448 64.4263C26.5205 64.336 26.5205 64.2458 26.5448 64.1556L26.5571 64.1262C26.5819 64.0375 26.6267 63.9606 26.6915 63.8953C26.7568 63.8305 26.8338 63.7856 26.9224 63.7608ZM37.6104 45.8241C37.6399 45.7902 37.6879 45.8336 37.6695 45.8697C37.3892 46.4194 37.0766 46.9651 36.7695 47.5008C36.7941 47.6493 36.8185 47.7965 36.8466 47.9401C36.9662 48.5519 37.1128 49.1527 37.2083 49.7704C37.5518 51.9906 37.7301 54.2349 37.8831 56.475C38.0365 58.7232 38.0561 60.9724 38.0792 63.225C38.0812 63.4202 37.931 63.6471 37.7298 63.6839C37.6376 63.7007 37.5687 63.6974 37.4768 63.6839C37.2673 63.6531 37.1363 63.4132 37.1274 63.225C37.0673 61.966 36.9865 60.7087 36.8929 59.4517C36.727 57.2232 36.6257 54.9889 36.4917 52.7581L36.4445 51.9784C36.3938 51.1336 36.3475 50.2882 36.3324 49.4421C36.3224 48.8816 36.3523 48.3212 36.3339 47.7613C36.3169 47.2444 36.2645 46.6824 36.3784 46.1745C36.3827 46.1555 36.4127 46.1507 36.4214 46.1689C36.5399 46.4183 36.615 46.6895 36.6728 46.9662C36.9782 46.58 37.2892 46.1929 37.6104 45.8241ZM17.6072 32.1699C17.6501 32.1667 17.6484 32.2311 17.6072 32.2359C17.0079 32.3054 16.429 32.5493 15.8631 32.7566L15.8146 32.7743C15.2429 32.9817 14.6856 33.2229 14.1492 33.5104C13.1005 34.0725 12.1375 34.7973 11.286 35.6271C7.88659 38.9395 6.33739 43.7161 5.20221 48.2049C4.57148 50.6989 4.12296 53.235 3.83225 55.7905C3.6885 57.0544 3.58688 58.3231 3.52763 59.5937C3.4973 60.245 3.47817 60.8968 3.47019 61.5486C3.46607 61.8825 3.46487 62.2165 3.46527 62.5504C3.46547 62.7034 3.49279 62.8961 3.45186 63.0447C3.41391 63.1823 3.30686 63.3035 3.22768 63.4182C3.13384 63.5542 2.96519 63.5471 2.87004 63.4182L2.83495 63.3713C2.73348 63.2367 2.63419 63.108 2.6197 62.932C2.60418 62.7435 2.61513 62.5491 2.61443 62.3596C2.61282 61.978 2.61754 61.5963 2.62517 61.2147C2.63988 60.4834 2.6687 59.7523 2.71153 59.0221C2.79849 57.5402 2.94164 56.0613 3.14659 54.591C3.51091 51.9776 4.05699 49.3892 4.77227 46.8494C5.44708 44.4534 6.24651 42.0646 7.38535 39.8452C8.44276 37.7846 9.82994 35.8677 11.6604 34.4276C12.5116 33.7579 13.4382 33.1998 14.4372 32.7795C14.941 32.5675 15.4701 32.3944 16.0082 32.2958C16.5404 32.1982 17.0702 32.2118 17.6072 32.1699ZM27.0255 59.5258C27.1206 59.5251 27.2266 59.546 27.3081 59.5986L27.4171 59.6828C27.4466 59.7207 27.476 59.7587 27.5052 59.7969C27.5734 59.8857 27.5824 60.0293 27.5682 60.1351C27.565 60.2058 27.544 60.2714 27.5052 60.3323L27.4223 60.4397C27.3426 60.5048 27.2761 60.5511 27.1795 60.5824C27.1291 60.5987 27.0804 60.6022 27.032 60.5997L27.0158 60.5986L27.0255 60.5999L27.0086 60.598C26.9928 60.5967 26.977 60.595 26.9611 60.5928C26.9503 60.5915 26.9395 60.5907 26.9287 60.5892C26.9183 60.5883 26.9082 60.5879 26.8978 60.5889C26.775 60.6004 26.6517 60.5308 26.5646 60.4509C26.4861 60.3788 26.4156 60.226 26.4266 60.1177L26.4313 60.0725C26.4395 59.9961 26.4463 59.9661 26.4787 59.8894C26.5101 59.8148 26.554 59.749 26.6138 59.6933C26.7283 59.5868 26.8684 59.5269 27.0255 59.5258ZM26.6457 53.9384C26.8086 53.7609 27.0883 53.7478 27.2903 53.8552C27.3395 53.8814 27.3847 53.9234 27.428 53.9585C27.5374 54.0468 27.5803 54.2062 27.5863 54.3406C27.5923 54.4734 27.5222 54.6311 27.428 54.7227L27.4052 54.7449C27.3489 54.7996 27.2683 54.8472 27.1896 54.8617C27.0626 54.885 26.9559 54.8843 26.8377 54.8344C26.7361 54.7916 26.6485 54.7226 26.589 54.6292L26.5793 54.6133C26.5752 54.6068 26.5714 54.6001 26.5677 54.5933L26.5625 54.583C26.4493 54.3654 26.4797 54.119 26.6457 53.9384ZM26.73 48.3215C26.8035 48.2984 26.8769 48.2952 26.9504 48.3117C27.0002 48.3118 27.0467 48.3244 27.0898 48.3493C27.1366 48.3624 27.1773 48.3861 27.2117 48.4204C27.2532 48.4449 27.2863 48.4779 27.3108 48.5195C27.3597 48.5728 27.3926 48.6355 27.4097 48.7073L27.4294 48.8542L27.4097 49.0011L27.354 49.1331C27.3387 49.1531 27.3233 49.1731 27.3077 49.193C27.2831 49.2346 27.25 49.2678 27.2083 49.2924C27.1813 49.3193 27.1502 49.3394 27.1156 49.3534C26.9925 49.4416 26.8287 49.4703 26.6829 49.4302C26.5963 49.406 26.5212 49.3621 26.4575 49.2988C26.3941 49.2351 26.3503 49.1599 26.3261 49.0734L26.3161 49.0043C26.3033 48.9116 26.3012 48.8603 26.3275 48.7424C26.339 48.6906 26.3724 48.6176 26.3898 48.5868C26.4645 48.4555 26.5866 48.3654 26.73 48.3215ZM33.1083 44.2805C33.3192 44.2791 33.5301 44.2795 33.741 44.2818L33.8991 44.2839C34.164 44.2881 34.3908 44.2608 34.5991 44.4445C34.7502 44.5779 34.6836 44.8016 34.5402 44.9021C34.3228 45.0542 34.0502 44.9777 33.8003 44.9609C33.5368 44.9433 33.2731 44.9286 33.0093 44.9167C32.4986 44.8939 31.9876 44.8793 31.4763 44.8771C30.9661 44.8749 30.4552 44.8797 29.9451 44.888C29.426 44.8964 28.8856 44.9448 28.3694 44.891C28.2985 44.8837 28.2825 44.7904 28.3525 44.7662C28.8389 44.5979 29.386 44.5434 29.8958 44.4791C30.4215 44.4126 30.9473 44.3657 31.4763 44.3352C32.0197 44.304 32.5639 44.2844 33.1083 44.2805ZM26.7291 42.628L26.7465 42.6283C26.8393 42.6285 26.9262 42.6504 27.0072 42.6938L27.0245 42.7035L27.136 42.7895C27.2042 42.8583 27.2514 42.9393 27.2775 43.0326L27.2972 43.179C27.3001 43.2548 27.2843 43.3255 27.2498 43.3912C27.2276 43.4595 27.1896 43.5185 27.136 43.5684C27.0861 43.6221 27.027 43.6601 26.9587 43.6823C26.8981 43.7141 26.8332 43.7301 26.7639 43.7301L26.7465 43.7297C26.6471 43.7294 26.5544 43.7043 26.4686 43.6545L26.3571 43.5684C26.2888 43.4997 26.2416 43.4187 26.2155 43.3254L26.1957 43.179C26.1929 43.1032 26.2087 43.0324 26.2432 42.9668C26.2654 42.8985 26.3034 42.8394 26.3571 42.7895C26.407 42.7359 26.466 42.6979 26.5344 42.6757C26.5949 42.6439 26.6598 42.6279 26.7291 42.628ZM28.3618 29.6905C28.4805 29.5187 28.6955 29.6715 28.6647 29.8097C28.6729 30.1977 28.6927 30.5744 28.781 30.9545C28.8214 31.1285 28.8744 31.3027 28.9561 31.4622L28.9904 31.5293C29.0962 31.7382 29.1782 31.9352 29.0358 32.1644C28.9687 32.2724 28.8474 32.3536 28.7159 32.3479C28.1327 32.3227 28.0526 31.511 28.0171 31.0579C27.9806 30.5912 28.0943 30.0783 28.3618 29.6905Z" fill="black"/>
</g>
<path fill-rule="evenodd" clip-rule="evenodd" d="M33.9492 15.1205C34.0039 14.6121 33.4088 13.2559 33.4232 13.531C32.4691 12.0599 30.6072 11.4814 29.0007 10.9957C25.5905 9.86995 22.9275 11.2296 20.5314 13.6393C19.1168 14.9606 17.7708 16.4366 17.0607 18.2658C15.6637 21.7552 17.7577 25.7341 20.9421 27.4011C21.1991 27.5401 21.4791 27.6722 21.7238 27.8402C23.0402 28.6007 24.586 28.8638 26.0528 29.1948C28.7971 29.8221 32.2436 29.5232 33.8608 26.9105C34.9578 25.0562 34.6663 22.8084 34.5805 20.7506C34.4515 18.9477 34.2251 16.9102 33.9492 15.1205Z" fill="white"/>
<path fill-rule="evenodd" clip-rule="evenodd" d="M19.2806 9.97528C21.0585 8.31325 23.6863 7.50769 26.0889 7.64858C27.3902 7.7249 28.6443 8.05096 29.8203 8.61114C30.1881 8.78632 30.5465 8.99138 30.877 9.23283C31.0999 9.33687 31.3179 9.44943 31.529 9.57184C32.5864 10.1844 33.4038 11.1122 33.927 12.2128C34.1768 12.7381 34.3738 13.292 34.4854 13.8628L34.5034 13.9567C34.5604 14.2431 34.6729 14.6205 34.5305 14.8885C34.4361 15.0662 34.2383 15.1782 34.051 15.1631C34.0917 15.3278 34.1404 15.4925 34.1715 15.6582L34.2563 16.1101C34.2704 16.1854 34.2843 16.2607 34.298 16.336C34.3799 16.7849 34.4552 17.2332 34.5155 17.6856C34.6415 18.6276 34.7555 19.5715 34.8559 20.517C34.9278 21.1931 34.9953 21.87 35.0608 22.5466L35.0999 22.9526C35.1672 23.6515 35.2199 24.3565 35.1741 25.0584C35.1053 26.1113 34.7815 27.072 34.1529 27.8535C34.2128 27.9975 34.233 28.1597 34.2781 28.3388C34.3405 28.5866 34.4218 28.8293 34.5083 29.0699C34.5487 29.1644 34.5893 29.259 34.6294 29.3538L34.7349 29.6049L34.8172 29.7695C34.9064 29.9486 34.9927 30.1303 35.0475 30.3157C35.4027 30.5053 35.6927 30.8147 35.7069 31.2386C35.7195 31.6217 35.5206 32.0274 35.1847 32.2227C34.8533 32.4156 34.5121 32.3397 34.1947 32.1924C33.918 32.2729 33.6218 32.2831 33.3477 32.1971C33.1367 32.3881 32.8645 32.52 32.5628 32.5556C32.108 32.6096 31.6761 32.4823 31.2589 32.3148L31.2298 32.3031C31.2167 32.298 31.2037 32.2925 31.1911 32.287C30.7111 32.2639 30.2331 32.0741 29.8926 31.7377C29.7817 31.6288 29.6858 31.5043 29.6085 31.3647C29.3278 30.857 29.2842 30.2339 29.5603 29.7304C29.5011 29.7329 29.4413 29.7353 29.3821 29.7369C28.592 29.7594 27.8006 29.7191 27.0126 29.6672L26.8268 29.6546C26.3169 29.6178 25.5649 29.5314 25.5506 28.8994C25.5485 28.8186 25.6319 28.7578 25.7083 28.7794C25.998 28.8612 26.2826 28.9898 26.5829 29.036C26.9755 29.0967 27.3822 29.1032 27.7789 29.1253L27.893 29.1317C28.6929 29.1754 29.5215 29.2021 30.3084 29.0435C30.8958 28.9255 31.5079 28.7106 32.0462 28.4444C32.5628 28.1884 33.0323 27.8535 33.4109 27.4162C34.2448 26.4542 34.3553 25.097 34.3146 23.88C34.2654 22.4264 34.0947 20.9749 33.9983 19.5233L33.9547 18.8712C33.9187 18.3274 33.8859 17.7829 33.8723 17.2388C33.8622 16.8416 33.8687 16.4435 33.8707 16.0463C33.8717 15.848 33.8693 15.6487 33.8738 15.4503C33.8763 15.3389 33.8893 15.2299 33.8989 15.1209C33.8547 15.0979 33.8135 15.0657 33.7764 15.0231C33.7473 14.9894 33.7247 14.9538 33.7091 14.9176C33.5218 14.8628 33.435 14.79 33.3134 14.6249C33.211 14.4858 33.095 14.3573 32.971 14.2368C32.7069 13.9807 32.4052 13.7713 32.0863 13.589C31.4271 13.212 30.7051 12.96 29.977 12.7531C28.8623 12.4368 27.7046 12.2741 26.5734 12.02C26.2616 12.4548 25.9312 12.8766 25.5857 13.2848C24.5077 14.5581 23.2716 15.6933 21.947 16.7056C21.6775 16.9119 21.4043 17.1153 21.1272 17.3126C20.7621 17.8692 20.3932 18.4232 20.0187 18.9734L19.8579 19.209L19.8554 19.2135C19.8333 19.2472 19.8121 19.2808 19.7911 19.3144C19.7464 19.3857 19.6962 19.4545 19.643 19.5213C19.6083 19.572 19.5732 19.6227 19.5375 19.6734C19.6058 19.71 19.6681 19.7513 19.7168 19.797C19.8162 19.8908 19.7996 20.04 19.7168 20.1354C19.4497 20.4437 19.0269 20.042 18.7196 19.935C18.3867 20.0364 18.1091 20.4326 17.971 20.7353C17.7722 21.1717 17.6924 21.6978 17.7822 22.1703C17.8645 22.6021 18.0865 22.9752 18.4555 23.2092C18.4686 23.2172 18.4826 23.2257 18.4962 23.2332C18.4967 23.2343 18.4967 23.2343 18.4972 23.2337C18.5098 23.2418 18.5228 23.2493 18.5359 23.2564C18.7091 23.3518 18.8994 23.408 19.0967 23.4215C19.2096 23.4296 19.3277 23.4235 19.4406 23.4371C19.5566 23.4506 19.652 23.5039 19.7635 23.532C19.8865 23.5636 19.9658 23.7288 19.8885 23.8398C19.8503 23.8945 19.8142 23.9468 19.7755 23.9934C19.9026 24.1431 20.013 24.3083 20.1129 24.4654C20.2495 24.6808 20.3705 24.9093 20.481 25.1422C20.5829 25.2763 20.6803 25.4129 20.7747 25.5524C21.3094 26.3447 21.7186 27.2274 21.9702 28.1497C22.2192 29.062 22.3749 30.0868 22.1444 31.0182C21.932 31.8748 21.3119 32.5843 20.3941 32.6299C20.2026 32.6394 20.0142 32.618 19.837 32.5693C19.4479 32.8097 18.9657 32.9306 18.5342 32.9447C18.185 32.9562 17.8028 32.8826 17.5177 32.6715C17.1794 32.8187 16.8125 32.9023 16.4934 32.9213C16.1364 32.9426 15.7627 32.8453 15.4717 32.6526C15.1947 32.8898 14.8959 33.0901 14.5563 33.2274C13.9724 33.4634 13.2775 33.4342 12.7427 33.0813C12.207 32.7279 11.9344 32.0932 12.098 31.4635C12.2487 30.8832 12.7221 30.4574 13.167 30.0908L13.2549 30.0188C13.6949 29.6596 14.1393 29.312 14.4217 28.806C14.7215 28.2693 14.8309 27.6457 14.8606 27.0381C14.9248 25.7006 14.6527 24.375 14.5698 23.0445C14.4845 21.6703 14.5322 20.292 14.7195 18.9278C15.0835 16.2778 16.0415 13.68 17.7747 11.6143C18.0254 11.3154 18.2939 11.0305 18.5767 10.7605C18.7929 10.4777 19.0266 10.2127 19.2806 9.97528ZM42.3355 25.1061C42.345 25.1066 42.3541 25.1071 42.3626 25.1106C42.3683 25.113 42.3732 25.1169 42.3776 25.1211L42.4199 25.1633C42.4349 25.1784 42.4339 25.2015 42.4199 25.2165C42.4075 25.2302 42.3853 25.2306 42.3707 25.22L42.3666 25.2165L42.3229 25.1728C42.3181 25.1676 42.314 25.162 42.3119 25.1548C42.3099 25.1477 42.3099 25.1397 42.3094 25.1322C42.3089 25.1186 42.322 25.1061 42.3355 25.1061ZM18.7784 21.004C19.181 20.8819 19.6641 21.1722 19.9041 21.4785C20.0246 21.6321 20.0587 21.8425 19.9041 21.9936C19.7725 22.1221 19.5154 22.1457 19.3884 21.9936C19.2443 21.8204 19.1268 21.5803 18.921 21.4694C18.6975 21.3489 18.3983 21.3791 18.3456 21.6727C18.3365 21.7225 18.2652 21.7059 18.2622 21.6612C18.2426 21.364 18.5032 21.0868 18.7784 21.004Z" fill="black"/>
<path fill-rule="evenodd" clip-rule="evenodd" d="M28.4003 26.2065C28.0628 26.0689 27.7616 25.8392 27.5415 25.5458C27.4649 25.4438 27.4451 25.3361 27.4611 25.2376C27.4792 25.1268 27.5447 25.0264 27.6341 24.9591C27.7238 24.8915 27.8359 24.8582 27.9443 24.8752C28.0385 24.8899 28.1323 24.9415 28.2065 25.0485L28.222 25.0699C28.3529 25.247 28.5235 25.3923 28.7178 25.4859C28.9052 25.5762 29.1147 25.6183 29.3315 25.5938C29.7444 25.5472 30.029 25.3239 30.3315 25.0206C30.369 24.9823 30.4065 24.9428 30.4442 24.9027C30.468 24.8664 30.501 24.843 30.5377 24.8307C30.5785 24.8171 30.6245 24.8179 30.6667 24.8326C30.7074 24.8468 30.7438 24.8737 30.7682 24.9095C30.7914 24.9436 30.8046 24.9857 30.8003 25.034C30.7726 25.3483 30.6083 25.6288 30.3749 25.849C30.1157 26.0936 29.7721 26.2628 29.4487 26.3222C29.0923 26.3875 28.7291 26.3407 28.4003 26.2065ZM29.6168 21.3584C29.9959 21.5888 30.5736 22.1262 30.1658 22.6976C29.6856 23.2014 28.9944 22.6237 28.6538 22.3625C28.3379 22.1601 27.983 22.6808 28.2761 22.9172C30.7375 24.7395 31.7364 21.4186 29.8085 21.0874C29.5963 21.0509 29.5174 21.2871 29.6168 21.3584ZM25.2058 19.2385C25.2477 18.7185 26.0397 18.6004 26.1184 19.115C26.189 19.5759 26.1059 19.9993 25.8983 20.4143C25.7 20.8108 25.2014 20.6258 25.1636 20.2648C25.1131 19.7809 25.1798 19.562 25.2058 19.2385ZM31.2341 19.0083C31.3446 18.8637 31.504 18.765 31.695 18.8208C32.2917 18.9951 32.1158 19.8423 31.9062 20.2547C31.7924 20.4786 31.4243 20.5354 31.2579 20.3382C30.9868 20.0167 30.857 19.3746 31.2017 19.0579C31.211 19.0415 31.2214 19.025 31.2341 19.0083ZM25.8899 16.9632L25.9842 16.9467C26.2758 16.8963 26.6384 16.8478 26.8447 17.0823C26.9541 17.2066 26.9917 17.4377 26.8447 17.5566C26.586 17.766 26.3 17.6849 25.99 17.7026C25.7345 17.7173 25.489 17.7595 25.2429 17.8299C24.7031 17.9842 24.2632 18.2659 23.8021 18.5751C23.7416 18.6157 23.6799 18.5383 23.7087 18.4818C23.9749 17.9604 24.4907 17.5322 25.0073 17.2712C25.2831 17.1318 25.5849 17.0162 25.8899 16.9632ZM30.6902 16.7297L30.7623 16.7445C31.5475 16.9086 32.5675 17.2364 32.9393 18.0076C32.9535 18.1166 32.9385 18.14 32.9264 18.1553L32.9223 18.1604C32.9123 18.1734 32.9043 18.1914 32.857 18.2062C32.8439 18.2031 32.8306 18.1998 32.8173 18.1963C32.6468 18.1516 32.512 18.0901 32.3814 18.0262L32.2399 17.9565C32.0757 17.876 31.91 17.7984 31.7345 17.7411C31.3598 17.6189 30.9744 17.5328 30.5831 17.4869C30.4983 17.4769 30.4166 17.4483 30.3521 17.3992C30.291 17.3527 30.2442 17.2882 30.2229 17.2025C30.1953 17.0916 30.2033 17.0076 30.2628 16.9075C30.3075 16.8324 30.3716 16.7803 30.4451 16.7504C30.52 16.7199 30.6054 16.7127 30.6902 16.7297Z" fill="black"/>
<path fill-rule="evenodd" clip-rule="evenodd" d="M34.6501 20.2581C34.5081 20.6445 34.292 21.0468 34.0277 21.372C32.9586 22.2774 31.9197 21.7761 31.3922 20.549C31.1918 19.6819 31.7239 18.7478 32.2878 18.1099C33.1022 17.2936 34.4313 17.722 34.8058 18.6923C34.8285 18.8181 34.8423 18.9435 34.8488 19.0685C34.8411 19.4747 34.7921 19.8219 34.6501 20.2079M24.3732 19.4788C25.7817 17.8035 28.4167 17.7139 28.3495 20.2924C28.0469 23.5562 22.9521 22.7551 24.3732 19.4788ZM35.0931 18.0812C35.0437 17.9976 34.9889 17.9168 34.9291 17.8394C34.907 17.8262 34.8943 17.7095 34.8131 17.7009C33.7272 16.503 31.8196 17.1826 31.1304 18.3763C31.0045 18.5272 30.9018 18.7039 30.8261 18.8906C30.147 18.766 29.3552 18.7902 28.7236 19.0468C28.0973 17.4113 26.2011 17.2653 24.9516 17.9641C24.1744 18.3463 23.6704 19.1468 22.9146 19.5866C21.1377 19.7144 19.2307 19.3163 17.4859 19.762C16.1099 20.0481 17.2602 20.7449 17.491 20.2799C19.136 19.7939 21.0848 20.2046 22.7928 20.0951C22.9704 20.3955 23.311 20.6413 23.6504 20.6308C24.017 23.8804 28.7559 23.3416 28.9194 20.4529C29.1048 20.1597 29.3354 19.8791 29.6655 19.6965C29.7919 19.6703 29.9139 19.6363 30.0255 19.5837C30.2162 19.5568 30.51 19.6376 30.6854 19.7964C31.2864 23.4022 34.7486 22.9823 35.3673 19.8234C35.3796 19.8108 35.414 19.7637 35.4404 19.6882C35.6522 19.4082 36.1707 19.3041 36.0878 18.8314C36.014 18.3585 35.417 18.3642 35.0931 18.0812Z" fill="black"/>
</svg>
