<svg width="48" height="48" viewBox="0 0 48 48" fill="none" xmlns="http://www.w3.org/2000/svg">
<mask id="mask0_3272_92618" style="mask-type:alpha" maskUnits="userSpaceOnUse" x="0" y="0" width="48" height="48">
<circle cx="24" cy="24" r="24" fill="#FA2A2A"/>
</mask>
<g mask="url(#mask0_3272_92618)">
<circle cx="23.5859" cy="23.8771" r="27.1115" fill="#22252B"/>
<path fill-rule="evenodd" clip-rule="evenodd" d="M3.98853 63.7671C3.91674 63.7694 3.93937 63.7485 3.96574 63.7434C3.97334 63.7513 3.98093 63.7592 3.98853 63.7671ZM6.10818 65.3428C8.114 65.5806 10.1223 65.3631 12.1183 65.145C16.1619 64.8452 20.177 65.7185 24.2286 65.4522C29.2919 65.2388 34.369 64.8381 39.4155 65.5134C40.8113 65.5454 43.0377 65.9221 42.5315 63.7613C41.8665 58.2061 40.9775 52.6788 40.0252 47.1663C39.2182 44.0759 39.1598 38.7305 36.9498 36.5814C36.6267 36.2864 35.4678 35.3321 35.1614 35.2039C33.6381 34.6368 30.892 34.1942 29.759 32.992C28.8413 31.4392 29.2682 29.3203 27.8412 28.0702C26.5906 27.0491 23.8609 27.265 22.5238 28.0317C21.4689 28.7157 21.3036 30.0443 20.6463 31.0269C20.4841 31.2623 20.099 31.8298 19.8815 32.0129C19.3521 32.5226 17.4927 33.058 16.9557 33.1564C13.9255 33.7773 12.4146 34.161 10.0314 36.1746C3.80412 42.5319 4.68685 53.7761 2.96376 62.0894C2.89323 63.0033 2.33765 64.2435 3.32887 64.8319C4.18259 65.2408 5.18637 65.1963 6.10818 65.3428Z" fill="#8FA7DF"/>
<path fill-rule="evenodd" clip-rule="evenodd" d="M29.0642 30.8781C29.0717 30.8565 29.1064 30.8528 29.1117 30.8781C29.1967 31.2668 29.3559 31.693 29.5173 32.0575C29.6814 32.4268 29.9055 32.7659 30.1888 33.0539C30.7822 33.6574 31.5454 33.9327 32.3825 33.9332L32.4026 33.9337C32.4065 33.9056 32.4108 33.8775 32.4148 33.8494L32.4205 33.8072C32.497 33.229 33.1833 33.2459 33.3172 33.6821C33.3853 33.7038 33.4533 33.7254 33.5208 33.7481L33.5343 33.7529C33.648 33.7962 34.033 33.9879 34.1037 33.9369C34.2593 33.825 34.437 33.9533 34.4961 34.0962C34.5927 34.3303 34.6088 34.6195 34.6402 34.8734L34.6443 34.9064L34.6491 34.9459C36.8513 35.5183 38.0872 37.7215 38.718 39.7512C39.0598 40.8516 39.2835 41.9867 39.5082 43.1155C39.7487 44.3228 39.9703 45.5334 40.205 46.7413C40.6676 49.1217 41.1054 51.5076 41.4857 53.9023L41.5959 54.5977C41.9443 56.7998 42.2837 59.0005 42.5691 61.2125C42.7231 62.4051 42.8676 63.5988 43.0069 64.7935C43.0319 65.0066 43.0566 65.2197 43.0811 65.433L43.1177 65.753C43.1504 66.0399 43.2058 66.3237 43.0639 66.5922C42.7563 67.1745 41.8248 67.1703 41.7721 66.4245C41.7616 66.2763 41.8116 66.1628 41.8945 66.0837L41.8933 66.0712C41.8925 66.0637 41.8917 66.0582 41.8913 66.0558C41.8639 65.9076 41.8565 65.7509 41.8396 65.601C41.8027 65.2814 41.7668 64.9618 41.7304 64.6416C41.6603 64.0318 41.5896 63.4221 41.5163 62.8129C41.3681 61.577 41.2114 60.3427 41.0453 59.1095L40.8806 57.8901C40.3299 53.8256 39.756 49.7619 39.0007 45.7296C38.795 44.6319 38.5836 43.5359 38.3667 42.4403C38.161 41.4028 37.93 40.37 37.585 39.3683C37.0217 37.7321 36.0369 36.1998 34.6697 35.1258C34.6908 35.331 34.7061 35.5373 34.7256 35.7425C34.7757 36.2694 34.829 36.7958 34.8828 37.3222C35.0785 39.2296 35.3438 41.1337 35.7963 42.9988C36.0205 43.923 36.2938 44.835 36.6266 45.7259C36.7906 46.1648 36.9694 46.5978 37.1657 47.023C37.3598 47.4434 37.7001 47.8928 37.7206 48.3612C37.7301 48.578 37.5033 48.7705 37.2934 48.7473C37.3914 49.6102 37.4468 50.4821 37.5054 51.343C37.5908 52.5899 37.6589 53.839 37.7585 55.0849C37.9368 57.3166 38.1605 59.5452 38.3947 61.7716C38.4411 62.213 38.4916 62.6541 38.5415 63.0951L38.5833 63.4653C38.6114 63.7054 38.654 63.993 38.5265 64.2059C38.6405 64.4807 38.7185 64.7629 38.764 65.0573C38.8214 65.4233 38.612 65.8337 38.1847 65.8179C38.1362 65.8162 38.0877 65.812 38.0392 65.8068C37.643 65.8986 37.248 65.9793 36.8365 65.9819C36.3112 65.9856 35.7847 65.9751 35.2594 65.9714C34.243 65.9645 33.2265 65.9577 32.2101 65.9492C28.5304 65.9197 24.8492 65.9213 21.1701 65.8622L19.698 65.8388C18.3485 65.8171 16.9989 65.7921 15.6501 65.743C14.7212 65.7092 13.7924 65.6749 12.864 65.6375L12.6749 65.6303C11.8558 65.6004 11.0357 65.5851 10.2255 65.4597C10.2052 65.4563 10.1964 65.4352 10.1996 65.4167L10.2007 65.4117L10.1654 65.4038C10.1448 65.4924 9.71758 65.12 9.72074 64.8727C9.54351 64.6421 9.62633 64.274 9.64532 64.0071C9.66378 63.747 9.68699 63.4865 9.70756 63.2264C9.75134 62.671 9.78879 62.115 9.83362 61.5596C10.0145 59.3199 10.1707 57.0745 10.272 54.8301C10.3231 53.6987 10.3643 52.5667 10.4075 51.4353C10.427 50.9202 10.4541 50.4046 10.5046 49.8918L10.5178 49.7637C10.5731 49.2436 10.5679 48.6845 10.7593 48.1944C10.762 48.1876 10.7709 48.1876 10.7736 48.1944C10.9672 48.6713 10.9856 49.2257 11.0247 49.749C11.0315 49.7468 11.0384 49.7458 11.0458 49.7442C11.3132 49.6171 11.5832 49.5026 11.8364 49.3454C11.8707 49.3243 11.904 49.3021 11.9377 49.2806C12.336 48.0621 12.7975 46.8637 13.2221 45.6531C14.5941 41.7388 15.3515 37.5701 15.5192 33.4253C14.4727 34.0999 13.333 34.6248 12.225 35.1884L12.1213 35.2414C11.0299 35.7994 9.98501 36.4329 9.20804 37.4008C8.53077 38.2437 8.08822 39.2707 7.67415 40.2608C7.22949 41.3247 6.82861 42.4076 6.46202 43.5005C5.71828 45.718 5.14228 47.9898 4.69287 50.2849C4.24927 52.5498 3.93226 54.8316 3.72022 57.1294C3.61208 58.3014 3.51345 59.4745 3.43063 60.6492C3.38844 61.2436 3.35098 61.8386 3.31617 62.4341C3.29929 62.7232 3.28663 63.0128 3.26764 63.3018C3.25604 63.4685 3.25393 63.6404 3.19907 63.7987C3.15318 63.9305 3.07195 64.0408 2.996 64.1574C2.85727 64.37 2.50703 64.4085 2.37674 64.1574L2.32033 64.0487C2.24566 63.9038 2.17746 63.758 2.16734 63.5909C2.15784 63.4327 2.17736 63.2676 2.18633 63.1087C2.20373 62.7876 2.22378 62.4658 2.24382 62.1446C2.28602 61.4689 2.33296 60.7932 2.38571 60.118C2.49068 58.7656 2.62571 57.4168 2.79556 56.0707C3.39318 51.343 4.25613 46.64 5.9029 42.1534C6.31011 41.0441 6.76426 39.9437 7.27696 38.8788C7.77279 37.8492 8.39995 36.877 9.31037 36.1681C10.1484 35.5154 11.1226 35.0785 12.0905 34.6545L12.2115 34.6015C13.2965 34.1273 14.3794 33.6167 15.5124 33.2644C15.4871 33.2676 15.4623 33.2707 15.4407 33.2781C15.4159 33.286 15.4011 33.2538 15.4164 33.2364C15.4807 33.1652 15.5076 33.0919 15.5815 33.0217C15.6326 32.9732 15.6856 32.9274 15.7402 32.8832L15.8188 32.8207C15.9625 32.7066 16.1137 32.59 16.2946 32.5502C16.5505 32.4943 16.676 32.7269 16.6043 32.9089C16.6412 32.8609 16.7403 32.8751 16.7662 32.941C17.608 35.1121 18.1608 37.4103 19.2938 39.4617C20.1304 40.9771 21.2529 42.3765 22.7425 43.2916C23.5426 43.7832 24.4584 44.1609 25.4041 44.2205C26.2533 44.2738 27.0704 44.058 27.7925 43.6123C29.1924 42.7489 30.1066 41.2329 30.7585 39.7639C31.4753 38.1467 31.9869 36.4234 32.2876 34.6764C31.335 34.6896 30.3296 34.255 29.6961 33.5466C29.3628 33.1737 29.1143 32.7195 28.9883 32.2353C28.8611 31.7468 28.9018 31.3454 29.0642 30.8781ZM21.0725 29.6095C21.1886 29.4022 21.446 29.3336 21.6564 29.418C21.89 29.5119 21.9603 29.7387 21.927 29.9692C21.8885 30.2393 21.7149 30.5311 21.5799 30.7668C21.4386 31.0136 21.2566 31.241 21.0682 31.4536C20.7138 31.8544 20.3345 32.2158 19.8846 32.5112C19.4368 32.8049 18.9304 33.0249 18.4098 33.1478L18.2861 33.1767C17.8811 33.2693 17.305 33.3753 16.9677 33.1552C16.9514 33.1446 16.9518 33.123 16.9677 33.1125C17.1502 32.9853 17.3945 32.9627 17.6043 32.9026C17.8333 32.8366 18.0628 32.7617 18.2816 32.6678C18.7137 32.4821 19.1272 32.2374 19.4953 31.9452C19.8651 31.6519 20.2227 31.3022 20.4701 30.8987C20.5946 30.6962 20.7006 30.4835 20.8024 30.2694C20.9053 30.0547 20.9569 29.8163 21.0725 29.6095Z" fill="black"/>
<path fill-rule="evenodd" clip-rule="evenodd" d="M33.4086 15.2128C34.3647 14.5996 35.6694 13.0348 34.9279 11.8483C34.6268 11.3842 34.2161 11.2098 33.7653 11.1958C33.6579 11.061 33.4793 11.0215 33.3127 11.0205L33.3137 11.0134C32.7045 11.0246 32.1059 11.238 31.616 11.5942C31.3001 11.3167 30.9079 11.1589 30.5279 10.9883C30.6872 10.1868 30.9304 9.40495 31.2065 8.63664C31.3555 8.19424 30.8835 7.72822 30.4384 7.86188C30.5479 7.38231 30.2963 6.82529 29.7483 6.83147C29.4553 6.83147 29.1237 6.98855 28.8403 7.05933C28.6304 7.11176 28.4237 7.16557 28.2212 7.23398C28.2202 7.22849 28.2197 7.22296 28.2191 7.21736C28.75 6.84571 28.7315 5.99004 27.9514 6.07301C27.6186 6.10239 27.2803 6.32889 26.9725 6.46719C26.4653 6.49773 25.9781 6.65893 25.485 6.7746C24.1358 7.10929 22.6923 7.4456 21.5808 8.29483C19.6556 9.03678 17.261 10.1838 17.0225 12.451C13.6317 11.1391 11.0701 15.3284 14.1452 16.9769C14.7486 17.2582 15.4461 17.4038 16.1062 17.2685C15.9503 17.8454 15.8012 18.4242 15.6617 19.0053C14.4874 21.7033 13.5379 24.5547 13.8795 27.516C13.8845 28.0533 14.5744 28.3632 14.9558 27.9619C15.2713 27.5812 15.654 28.0262 15.5512 28.3936C15.4537 28.8019 15.7411 29.1766 16.1592 29.1918C16.6595 29.218 17.0569 28.8825 17.4109 28.5726C17.4041 28.5793 17.4203 28.5691 17.4438 28.5532C18.3174 30.6137 19.1359 29.0116 20.2127 29.9387C20.4643 30.1711 20.6408 30.4464 20.9632 30.5976C21.7191 30.9806 22.316 30.2979 23.0381 30.2191C23.7056 30.1699 24.3657 30.401 25.0058 30.5565C25.7532 30.738 26.5069 30.833 27.2747 30.7479C28.2565 30.6389 30.2153 30.1953 30.7951 29.8301C31.5053 30.3068 32.2362 29.7413 32.6267 29.0903C32.8998 29.3532 33.4164 29.3935 33.6358 28.9881C33.8541 28.536 34.2621 27.845 34.7312 27.9474C34.7731 27.9602 34.7976 27.9682 34.8232 27.9868C35.2617 28.3595 35.8278 28.0765 35.8919 27.5348C36.3075 24.0246 35.4597 20.5033 34.3323 17.1999C34.0862 16.5092 33.882 15.7911 33.4086 15.2128Z" fill="#8FA7DF"/>
<path fill-rule="evenodd" clip-rule="evenodd" d="M33.0208 15.1158C33.003 15.0672 33.0775 15.0393 33.1021 15.0816C33.9078 16.4666 34.5519 17.9378 35.1027 19.4407C35.5902 20.771 36.0226 22.127 36.3307 23.5107L36.3516 23.606C36.6414 24.9414 36.7843 26.354 36.4042 27.6862L36.3859 27.7496C36.2984 28.0459 36.1827 28.3469 35.9124 28.5228C35.6854 28.6707 35.4285 28.6891 35.1671 28.648C34.9468 28.6134 34.737 28.5174 34.5162 28.4908C34.3498 28.4708 34.3064 28.5507 34.2579 28.6852L34.2176 28.799C34.0446 29.2815 33.8334 29.7305 33.2691 29.8322C32.9652 29.887 32.6351 29.8301 32.3718 29.6704C32.3687 29.6806 32.3657 29.6908 32.3632 29.7006L32.3507 29.7481C32.2956 29.9545 32.2248 30.1642 32.0788 30.3245C31.875 30.5483 31.5827 30.6276 31.2881 30.5682C31.1542 30.5413 31.0285 30.4804 30.9014 30.4297C30.8704 30.6169 30.6554 30.7694 30.4588 30.7233C30.3524 30.6984 30.2704 30.65 30.2093 30.5876C29.9055 30.822 29.4958 30.9419 29.1409 31.0327C28.627 31.1642 28.0801 31.2182 27.5501 31.2024C27.0122 31.1863 26.465 31.0828 25.959 30.9005L25.8799 30.8717C25.4434 30.7107 24.984 30.5069 24.6304 30.2058C24.5601 30.1713 24.6012 30.0437 24.6849 30.0707C25.1653 30.226 25.6133 30.4085 26.1174 30.4832C26.5931 30.5536 27.0708 30.5653 27.5501 30.5363C28.0361 30.5069 28.5077 30.4077 28.9715 30.2611C29.3751 30.1335 29.7727 29.9031 30.2013 29.873C30.2237 29.842 30.2479 29.8121 30.2759 29.7849C30.6467 29.4248 31.0223 29.6049 31.4396 29.736C31.4533 29.7404 31.4571 29.7477 31.4572 29.7548L31.4623 29.7475L31.4656 29.7431L31.4631 29.7462C31.4457 29.7658 31.4805 29.693 31.4867 29.6781L31.4873 29.6765C31.5352 29.5457 31.5538 29.405 31.5944 29.2719C31.6911 28.9541 31.872 28.6633 32.2184 28.5872C32.3894 28.5496 32.6225 28.6069 32.7016 28.7839C32.7668 28.9294 32.8736 29.0031 33.0379 28.9993C33.2095 28.9953 33.2726 28.8953 33.3324 28.7445C33.4296 28.4993 33.4821 28.2441 33.6418 28.0277C33.8214 27.7843 34.0898 27.6422 34.3931 27.6306C34.6269 27.6216 34.8558 27.6898 35.0781 27.7529L35.0985 27.759C35.2 27.7909 35.3814 27.8626 35.4606 27.8097C35.5795 27.7304 35.6409 27.2681 35.6753 27.0951L35.6775 27.0843C35.7387 26.7896 35.7743 26.4926 35.7887 26.192C35.849 24.9347 35.5898 23.6839 35.3031 22.467C34.7118 19.9574 33.9025 17.5364 33.0208 15.1158ZM16.1728 18.1843C16.1888 18.1604 16.2237 18.1811 16.2112 18.2068C16.1532 18.326 16.1321 18.4513 16.093 18.5755C16.0496 18.7131 15.9761 18.8464 15.9215 18.9798C15.8331 19.196 15.7475 19.4133 15.6611 19.6303C15.4875 20.0665 15.3261 20.5093 15.1731 20.9532C14.866 21.845 14.615 22.7618 14.4314 23.687C14.2509 24.596 14.0998 25.5465 14.1056 26.4756C14.1082 26.8982 14.1543 27.3333 14.322 27.7257C14.3483 27.7872 14.3792 27.8475 14.4119 27.9062L14.4317 27.9411C14.4345 27.9461 14.4375 27.951 14.4405 27.9558L14.4586 27.9849C14.5115 27.9072 14.6641 27.8044 14.7271 27.75L14.7359 27.7422L15.0314 27.4688C15.16 27.3497 15.3456 27.3211 15.5012 27.4082C15.974 27.6728 15.9587 28.1642 16.0599 28.628L16.0644 28.6481C16.1084 28.843 16.1846 29.005 16.418 28.9667C16.6616 28.9268 16.8023 28.6792 16.8819 28.4663L16.8921 28.4381C17.0327 28.0417 17.5382 28.0575 17.6837 28.4381L17.7383 28.5822C17.8511 28.8777 18.0049 29.2341 18.2962 29.351C18.5411 29.4493 18.8217 29.3023 19.0444 29.211C19.1669 29.1609 19.3099 29.2655 19.3425 29.3803C19.3514 29.4115 19.3573 29.4414 19.362 29.4707C19.5948 29.4482 19.8178 29.5038 20.0468 29.6095C20.3466 29.7478 20.7235 30.0464 20.7799 30.3925C20.8466 30.8017 20.3727 30.9948 20.1282 30.6673C19.9742 30.461 19.9184 30.2105 19.7344 30.0144C19.6262 29.8993 19.4918 29.7994 19.3507 29.7144C19.2246 30.1602 18.5167 30.2886 18.0948 30.1567C17.6897 30.0301 17.4211 29.7315 17.2206 29.3823C16.8457 29.7489 16.3254 29.9263 15.8041 29.6065C15.5022 29.4214 15.3615 29.0976 15.3069 28.7612C15.2905 28.6601 15.2896 28.4939 15.2606 28.3479L15.2324 28.3765C14.9778 28.634 14.6817 28.8762 14.348 28.8205C13.9106 28.7476 13.7029 28.2608 13.5665 27.89C13.2828 27.1193 13.3351 26.2622 13.4312 25.4621C13.5365 24.586 13.7127 23.7182 13.9458 22.8673C14.1732 22.0373 14.4676 21.2319 14.8139 20.4443C14.9905 20.043 15.1941 19.6515 15.4129 19.2715C15.5229 19.0808 15.6425 18.8952 15.7628 18.7109C15.8869 18.5206 16.0483 18.3707 16.1728 18.1843ZM13.5522 12.761C14.1946 12.1649 15.0534 11.8932 15.9195 12.0158C16.3283 12.0735 16.7176 12.2213 17.0627 12.4493C17.4128 12.6806 17.6396 12.967 17.8491 13.3251C17.8637 13.35 17.8305 13.3737 17.8103 13.355C17.2518 12.8404 16.4061 12.5657 15.6545 12.5947C14.3151 12.6464 13.2047 13.8314 13.2879 15.182C13.3289 15.8471 13.7028 16.5189 14.2809 16.8612C14.8935 17.2239 15.5909 17.1035 16.2474 16.9438C16.4845 16.8861 16.604 17.1526 16.4688 17.324C15.8029 18.1688 14.4337 17.9479 13.6649 17.3668C12.1795 16.2441 12.2303 13.9878 13.5522 12.761ZM15.7091 14.0912L15.7661 14.0814C16.2453 14.0023 17.2656 13.911 17.4157 14.4958C17.4921 14.7936 17.1963 14.954 16.9375 14.9408C16.724 14.9299 16.5171 14.8631 16.3064 14.8177C16.2459 15.0269 16.2253 15.2453 16.1958 15.4606C16.1701 15.6491 15.8668 15.5979 15.8704 15.4166C15.8755 15.1644 15.9926 14.95 16.177 14.7935C16.134 14.7869 16.0908 14.7813 16.0471 14.7783C15.5232 14.7431 15.0056 14.8404 14.5162 15.02L14.5679 15.0491C14.5926 15.0577 14.5821 15.0906 14.5574 15.0872L14.314 15.0995C14.2121 15.1233 14.152 15.007 14.2162 14.9314C14.5933 14.4872 15.1374 14.1932 15.7091 14.0912ZM33.1823 10.9608C33.914 10.8731 34.6408 11.1427 35.0336 11.7865C35.398 12.3836 35.4296 13.1396 35.1711 13.7814C35.0242 14.1459 34.8024 14.4729 34.5278 14.7541C34.392 14.8931 34.2364 15.0365 34.0644 15.1284C33.864 15.2355 33.7148 15.2262 33.5034 15.1869C33.3672 15.1615 33.2733 14.9868 33.3168 14.8584L33.3492 14.761C33.3846 14.6564 33.4177 14.5789 33.5145 14.4803C33.599 14.3942 33.7001 14.3246 33.793 14.2479C33.9928 14.0828 34.1784 13.8986 34.3172 13.6785C34.571 13.276 34.659 12.8133 34.5157 12.3543C34.362 11.8613 33.9548 11.542 33.4447 11.4825C33.1551 11.4488 32.8612 11.4793 32.5755 11.5298L32.4013 11.5613C32.1583 11.6063 31.9601 11.6586 31.7925 11.8814C31.7784 11.9001 31.751 11.8984 31.7428 11.8749C31.6588 11.6329 31.9154 11.4169 32.0971 11.3024C32.4128 11.1038 32.8155 11.0047 33.1823 10.9608ZM29.9934 10.666C29.9575 10.6204 29.9883 10.5279 30.0582 10.5545C30.8733 10.8639 31.5597 11.6174 32.0296 12.3293C32.1718 12.5447 32.2993 12.7683 32.4145 12.9983C32.5788 12.7986 32.8243 12.6541 33.0539 12.5559L33.0794 12.5452C33.3443 12.4351 33.9172 12.2468 34.0794 12.5994C34.1316 12.7128 34.1107 12.8293 34.0192 12.9172C33.8778 13.0531 33.652 13.0016 33.4755 13C33.119 12.9969 32.8358 13.1096 32.5203 13.219C32.5777 13.3442 32.632 13.471 32.6826 13.5995C32.7516 13.7742 32.8024 13.9584 32.886 14.1269C32.9654 14.2871 33.0901 14.4302 33.1965 14.5722C33.3403 14.7639 33.1481 15.0879 32.9139 15.0649C32.429 15.0172 32.2358 14.6165 32.1023 14.1919L32.0295 13.9596C31.9204 13.6127 31.8081 13.2726 31.6444 12.9426C31.4337 12.5183 31.1823 12.1038 30.8932 11.7282C30.6097 11.3599 30.279 11.0312 29.9934 10.666ZM28.7314 5.66547C29.0325 5.55322 29.2858 5.93981 29.1358 6.19157C29.004 6.41268 28.9256 6.64103 28.8949 6.88061L30.2228 6.56423C30.4868 6.50135 30.7365 6.73465 30.6636 7.00509L30.4587 7.76491C30.7235 7.67635 31.0004 7.62387 31.2851 7.60535C31.5291 7.58953 31.6638 7.84134 31.6237 8.0498C31.54 8.4841 31.4236 8.91045 31.2686 9.32458L31.1553 9.62267C31.0221 9.96974 30.8666 10.32 30.5454 10.5155C30.3902 10.61 30.189 10.4878 30.1882 10.3107C30.1864 9.88166 30.4512 9.51512 30.5983 9.11957C30.6877 8.87946 30.7635 8.63519 30.8278 8.38781C30.5786 8.45829 30.344 8.57006 30.1226 8.71746L30.0894 8.73984C29.8276 8.91936 29.4986 8.62764 29.5637 8.34764L29.5662 8.33764L29.8165 7.39937L28.6262 7.68658C28.3809 7.74582 28.1925 7.57439 28.1693 7.3385C28.1446 7.08774 28.1605 6.8382 28.2126 6.59651C27.426 6.84422 26.6231 7.03696 25.8179 7.21701L25.6971 7.24393C23.9298 7.63637 22.124 7.98286 20.5026 8.82281C19.7865 9.19368 19.13 9.63275 18.5328 10.1758C18.2378 10.4441 17.9679 10.7394 17.7315 11.0608C17.6207 11.2116 17.517 11.3676 17.4221 11.5288L17.346 11.6601C17.3095 11.7234 17.2739 11.7886 17.2522 11.8569L17.2414 11.891C17.2238 11.9487 17.2048 12.0246 17.2208 12.0752C17.2439 12.1481 17.3759 12.2679 17.4691 12.2351C17.4818 12.2307 17.4883 12.2472 17.4811 12.2558C17.3989 12.3548 17.2832 12.3726 17.1655 12.3229C16.9793 12.2441 16.9328 12.0643 16.9534 11.8768C17.0044 11.4125 17.3275 10.9006 17.5829 10.5217C18.6346 8.96106 20.3652 8.02723 22.1109 7.44215C24.2815 6.71466 26.5823 6.46628 28.7314 5.66547Z" fill="black"/>
<path fill-rule="evenodd" clip-rule="evenodd" d="M24.6538 25.8171L24.0964 23.6895L24.1863 23.7033C25.0704 23.8423 25.5125 23.985 25.5125 24.1313L25.5121 24.1413C25.5004 24.3062 25.2143 24.8648 24.6538 25.8171ZM29.7843 24.1493L29.5869 25.6706L28.5588 24.5437L29.7843 24.1493Z" fill="white"/>
<path fill-rule="evenodd" clip-rule="evenodd" d="M23.9756 20.3623C25.1263 20.3623 26.0591 19.5121 26.0591 18.4634C26.0591 17.4146 25.1263 16.5645 23.9756 16.5645C22.8249 16.5645 21.8921 17.4146 21.8921 18.4634C21.8921 19.5121 22.8249 20.3623 23.9756 20.3623Z" fill="white"/>
<path fill-rule="evenodd" clip-rule="evenodd" d="M27.0613 18.4111C28.11 18.4111 28.9602 17.5727 28.9602 16.5385C28.9602 15.5044 28.11 14.666 27.0613 14.666C26.0125 14.666 25.1624 15.5044 25.1624 16.5385C25.1624 17.5727 26.0125 18.4111 27.0613 18.4111Z" fill="white"/>
<path fill-rule="evenodd" clip-rule="evenodd" d="M29.6459 19.9934C30.4907 19.9934 31.1756 19.2377 31.1756 18.3054C31.1756 17.3732 30.4907 16.751 29.6459 16.751C28.8011 16.751 28.1162 17.3732 28.1162 18.3054C28.1162 19.2377 28.8011 19.9934 29.6459 19.9934Z" fill="white"/>
<path fill-rule="evenodd" clip-rule="evenodd" d="M24.116 23.6148C24.4985 23.541 24.9745 23.7019 25.356 23.7723L25.3844 23.7775C25.8471 23.8583 26.3087 23.956 26.7765 24.0036C27.2231 24.0493 27.6791 24.0574 28.1257 24.0061C28.3402 23.9814 28.5528 23.9394 28.7612 23.8831C28.8503 23.859 28.9387 23.8321 29.0261 23.8022L29.0359 23.7985C29.1001 23.772 29.2736 23.6721 29.2716 23.7278C29.3204 23.6715 29.3876 23.6316 29.4614 23.6121C29.5655 23.5848 29.6992 23.6105 29.7863 23.6841C29.8997 23.5943 30.0697 23.6587 30.1457 23.7662C30.2761 23.9506 30.2337 24.1667 30.2168 24.3805L30.2154 24.3994C30.2011 24.601 30.1792 24.8012 30.1522 25.0013L30.1403 25.0871C30.0983 25.383 30.0867 25.8712 29.7281 25.9682C29.4444 26.0449 29.1849 25.7531 29.002 25.5215L28.9019 25.3932C28.7834 25.2428 28.6758 25.088 28.5891 24.9171C28.5496 24.8393 28.5114 24.7596 28.4783 24.6788C28.4742 24.6686 28.4711 24.6595 28.4679 24.6503C27.9419 24.7211 27.4035 24.711 26.8761 24.6415C26.5422 24.5974 26.2133 24.5338 25.8893 24.4483L25.7432 24.7125C25.5721 25.0206 25.3986 25.3278 25.2163 25.6289L25.2021 25.6519C25.0314 25.9235 24.7456 26.1955 24.4077 25.992C24.1053 25.81 24.0924 25.3958 24.0605 25.0867C24.0393 24.8803 24.022 24.6724 24.0137 24.4649L24.0107 24.3759C24.0053 24.1746 23.9726 23.9413 24.0499 23.7531C24.0612 23.7257 24.1006 23.7046 24.1243 23.7334C24.286 23.9299 24.3349 24.2346 24.4047 24.4758C24.4825 24.7442 24.5951 25.0373 24.6355 25.3157L24.6468 25.296C24.6866 25.2204 24.7272 25.1452 24.768 25.0701L24.8904 24.8448C25.0001 24.6415 25.1119 24.4393 25.2247 24.2377C25.0959 24.1893 24.9683 24.1373 24.8413 24.0845L24.5529 23.9639C24.3881 23.8943 24.2202 23.8158 24.0964 23.6892C24.0744 23.6668 24.0821 23.6213 24.116 23.6148ZM29.5868 24.3579C29.3027 24.4735 29.0088 24.5568 28.7095 24.6121C28.7288 24.6319 28.7481 24.6516 28.766 24.6724C28.8364 24.7539 28.9111 24.8322 28.9863 24.9096L29.0314 24.9559C29.1465 25.074 29.3194 25.2685 29.4958 25.3816L29.5054 25.3305C29.5069 25.3217 29.5082 25.3141 29.5088 25.3082L29.5276 25.1404C29.5306 25.1124 29.5336 25.0844 29.5364 25.0564C29.5516 24.9051 29.5637 24.7534 29.5763 24.6019C29.583 24.522 29.5845 24.44 29.5868 24.3579ZM26.2242 14.6067C26.9009 14.3176 27.7041 14.4541 28.287 14.8907C28.8835 15.3376 29.1443 16.064 29.1788 16.7887C29.6505 16.386 30.3299 16.6908 30.7271 17.0682C31.1856 17.5038 31.4175 18.1611 31.3106 18.7849C31.2041 19.4065 30.7543 19.955 30.1456 20.1399C29.8544 20.2283 29.5298 20.2303 29.2369 20.148C29.1374 20.12 29.0155 20.0767 28.9029 20.0163C28.9093 20.0421 28.9159 20.068 28.922 20.0938C29.0681 20.7125 29.151 21.4079 28.9317 22.0197C28.5792 23.0029 27.3271 23.5533 26.5454 22.6806C26.2385 22.338 25.9999 21.8015 26.0184 21.3344C26.0282 21.089 26.1672 20.805 26.4543 20.8216C26.6769 20.8345 26.7824 21.0208 26.7255 21.2179L26.722 21.2293C26.6013 21.6061 26.8073 22.1507 27.1058 22.4077C27.5636 22.8019 28.1917 22.4589 28.442 21.9967C28.7337 21.458 28.6982 20.7673 28.605 20.1812C28.5134 19.6058 28.3092 19.0794 28.0925 18.5469C28.0695 18.5511 28.0462 18.5549 28.0223 18.5581C27.5913 18.6166 26.7142 18.6387 26.238 18.3264C26.2891 18.8084 26.1888 19.3045 25.915 19.7126C25.6099 20.1674 25.1502 20.4081 24.6153 20.4818C24.0957 20.5536 23.4934 20.5681 22.9805 20.445C21.8881 20.1828 21.503 18.8342 21.8333 17.8607C22.0288 17.2849 22.5741 16.767 23.1802 16.6361C23.4924 16.4307 23.9117 16.3699 24.2721 16.3979C24.8103 16.4399 25.3404 16.6724 25.7009 17.0808C25.8386 17.2369 25.9519 17.4135 26.0392 17.6026C26.0685 17.5795 26.1027 17.5621 26.1413 17.553C26.2016 17.5389 26.2543 17.5357 26.3133 17.5565C26.3427 17.5669 26.385 17.6036 26.4105 17.6275L26.4687 17.6958C26.5401 17.779 26.6079 17.8487 26.735 17.9004C27.0891 18.0446 27.5694 18.0759 27.9457 18.0464C28.9057 17.9713 28.7848 16.6997 28.5483 16.0464C28.2682 15.2725 27.4654 14.7911 26.6487 14.9285C26.2977 14.9876 25.963 15.1744 25.7061 15.4184C25.4193 15.6909 25.2966 16.02 25.1245 16.365C25.1144 16.3854 25.0792 16.3809 25.0749 16.3584C24.9335 15.6311 25.6038 14.8717 26.2242 14.6067ZM21.1111 20.4702C21.0819 20.436 21.1202 20.3758 21.162 20.4042C21.4679 20.612 21.8082 20.7621 22.1781 20.8026C22.3519 20.8216 22.527 20.8229 22.7001 20.7963C22.8475 20.7735 22.9804 20.7286 23.1275 20.7692C23.2059 20.7908 23.2201 20.8817 23.1723 20.9387C22.9499 21.2033 22.4026 21.1326 22.1041 21.0617C21.7182 20.97 21.3683 20.7724 21.1111 20.4702ZM31.4079 19.987C31.5582 19.8939 31.737 20.0783 31.6481 20.2272C31.4201 20.6092 30.759 20.6404 30.3755 20.5489C30.3454 20.5418 30.3523 20.4947 30.3827 20.4956C30.6031 20.501 30.8023 20.4586 30.9922 20.3437C31.1545 20.2454 31.2513 20.0841 31.4079 19.987ZM24.078 16.933L24.0479 16.9333C23.6973 16.9389 23.3761 17.0726 23.0382 17.1433C23.0102 17.1492 22.9821 17.1462 22.9567 17.1369C22.5452 17.4115 22.2615 17.8432 22.223 18.4112C22.1963 18.8046 22.2924 19.2333 22.526 19.5562C22.7919 19.9237 23.2203 19.9804 23.6421 19.9913L23.685 19.9923C24.4824 20.0078 25.3597 19.9607 25.6439 19.0692C25.8543 18.4094 25.6296 17.6084 25.0437 17.2131C24.7591 17.0212 24.4192 16.9327 24.078 16.933ZM30.5026 17.4062L30.4792 17.3789C30.1664 17.02 29.6705 16.6932 29.1816 16.8739L29.183 16.9344C29.1832 16.9444 29.1833 16.9545 29.1833 16.9646C29.1818 17.6576 28.9133 18.3043 28.2532 18.5077C28.4303 18.7603 28.5726 19.0406 28.6865 19.3315C28.7267 19.3052 28.7756 19.2885 28.8324 19.2828C29.0647 19.2593 29.1978 19.4775 29.3993 19.5589C29.588 19.6351 29.8019 19.6548 30.001 19.6154C30.4366 19.5293 30.7422 19.1537 30.8493 18.7368C30.9704 18.2657 30.8104 17.7717 30.5026 17.4062ZM23.8719 17.9894C24.0171 17.7441 24.3755 17.7796 24.5191 17.9959L24.526 18.0067L24.5275 18.0047C24.7668 18.3147 24.6512 18.8044 24.3038 18.9788C24.0251 19.1185 23.6707 19.0818 23.4854 18.8098C23.4439 18.7488 23.4173 18.6771 23.4075 18.6045C23.4009 18.555 23.4047 18.5057 23.4158 18.4566L23.413 18.468C23.4185 18.4433 23.4272 18.4044 23.4294 18.3952C23.4539 18.2951 23.5126 18.1879 23.5861 18.1154C23.6618 18.0409 23.7669 17.9955 23.8719 17.9894ZM29.8412 17.7346C29.9698 17.7346 30.084 17.7884 30.1769 17.8736C30.3091 17.995 30.3275 18.1697 30.299 18.3355C30.2902 18.3861 30.2782 18.435 30.2656 18.4848L30.2547 18.5298C30.2528 18.5373 30.2508 18.5447 30.2485 18.552C30.2406 18.5829 30.228 18.6112 30.213 18.6383C30.158 18.8431 29.9352 18.9448 29.7389 18.9002C29.6464 18.8791 29.5543 18.8024 29.5072 18.722C29.4917 18.6956 29.4809 18.6692 29.4732 18.6427L29.4349 18.552C29.4277 18.5303 29.4233 18.507 29.4175 18.4848C29.4047 18.435 29.3924 18.386 29.3834 18.3355C29.3531 18.1642 29.3773 18.0018 29.5055 17.8736C29.5916 17.7875 29.7195 17.7346 29.8412 17.7346ZM27.0075 15.9578C27.2307 15.9279 27.4581 16.0319 27.5736 16.2291C27.6739 16.4005 27.6735 16.6312 27.5736 16.8026L27.5652 16.8171C27.3811 17.1329 26.9519 17.1734 26.6937 16.9294L26.6812 16.9176C26.5152 16.7608 26.4778 16.5007 26.5638 16.297C26.6423 16.1107 26.8071 15.9848 27.0075 15.9578Z" fill="black"/>
</g>
</svg>
