<svg width="28" height="28" viewBox="0 0 28 28" fill="none" xmlns="http://www.w3.org/2000/svg">
<mask id="mask0_2009_14431" style="mask-type:alpha" maskUnits="userSpaceOnUse" x="0" y="0" width="28" height="28">
<circle cx="14" cy="14" r="14" fill="#FFF04F"/>
</mask>
<g mask="url(#mask0_2009_14431)">
<circle cx="13.452" cy="15.5418" r="21.1434" fill="#A3F1C5"/>
<path fill-rule="evenodd" clip-rule="evenodd" d="M8.12711 20.6105C9.67768 20.2685 10.5973 20.2685 11.1177 19.7386C11.6381 19.2088 11.7325 18.2994 11.9484 17.5972C12.0673 17.2103 13.2327 16.8589 14.3631 16.9139C15.2843 16.9587 16.2127 17.3483 16.2844 17.5972C16.4441 18.1517 16.701 20.5251 17.5456 20.8897C18.3901 21.2543 20.1932 20.9219 20.7088 21.7927C21.2243 22.6635 22.9173 26.2132 22.9173 27.0403C22.9173 27.8674 6.36523 27.6145 6.36523 27.6145C6.36523 27.6145 6.57654 20.9524 8.12711 20.6105Z" fill="white"/>
<path fill-rule="evenodd" clip-rule="evenodd" d="M0.992759 39.877C0.997742 39.8941 1.01643 39.8938 0.992759 39.877V39.877ZM0.90088 39.8084C0.902438 39.8096 0.904306 39.8108 0.906175 39.8121C0.887488 39.8105 0.875964 39.7915 0.90088 39.8084ZM25.3967 37.6155C25.2927 37.1704 25.189 36.725 25.085 36.2799C24.8679 35.3493 24.6505 34.4183 24.4334 33.4873C24.0083 31.6665 23.5834 29.8456 23.1583 28.0248C22.9425 27.0995 22.6958 26.1813 22.4731 25.2574C22.2781 24.4478 22.1171 23.6188 21.7823 22.8525C21.4406 22.0702 20.8405 21.4165 20.0456 21.085C19.3763 20.8061 18.6235 20.6518 17.8947 20.6165C17.9863 20.5042 18.0078 20.338 17.8742 20.2023C17.7085 20.0342 17.6748 19.7844 17.6306 19.562C17.5755 19.2841 17.4898 18.9863 17.3248 18.7523C17.255 18.6535 17.1535 18.6073 17.0339 18.6338C16.9604 18.65 16.8881 18.6691 16.8168 18.6906C16.7937 18.6675 16.771 18.6429 16.7511 18.6129C16.7059 18.5437 16.6766 18.4423 16.6119 18.3893C16.5679 18.3531 16.5181 18.3444 16.4667 18.3706C16.3287 18.4408 16.3172 18.6532 16.3468 18.7835C16.3527 18.8088 16.3599 18.8341 16.3686 18.8587C16.3593 18.8631 16.3496 18.8674 16.34 18.8718H16.3396C16.1596 18.8375 15.9298 18.9099 15.7541 18.9273C15.5501 18.9476 15.3452 18.961 15.1402 18.9676C14.7207 18.981 14.3006 18.9685 13.8829 18.9264C13.4758 18.8858 13.0716 18.8207 12.6695 18.747C12.4191 18.7012 12.1138 18.6631 11.894 18.5125C11.8905 18.4373 11.8887 18.3619 11.8871 18.2867C11.884 18.156 11.8908 18.0534 11.8214 17.9386C11.8204 17.9374 11.8189 17.9371 11.8173 17.9377C11.7314 17.9826 11.6697 18.0593 11.6245 18.1504C11.542 18.1283 11.4532 18.1314 11.3763 18.1635C11.2676 18.2087 11.1866 18.2608 11.1022 18.3444C10.9767 18.4682 10.94 18.6129 10.9032 18.7792C10.8767 18.8983 10.8602 18.9835 10.8129 19.0633C10.8026 19.0805 10.7917 19.0985 10.7799 19.1151C10.7755 19.1194 10.7674 19.1279 10.7537 19.1422C10.74 19.1559 10.7263 19.1693 10.7123 19.1828C10.7042 19.1909 10.6643 19.2233 10.6705 19.2189C10.498 19.3474 10.342 19.3958 10.1289 19.4572C9.67049 19.5895 9.20081 19.6759 8.74391 19.8162C8.24465 19.9697 7.75629 20.1562 7.27883 20.3679C5.42163 21.1916 3.7594 22.4957 2.62602 24.1939C1.30608 26.1719 0.820214 28.5744 0.57946 30.9036C0.31597 33.4564 0.334346 36.0382 0.276727 38.6017C0.269563 38.9223 0.2624 39.2429 0.255236 39.5635C0.248073 39.877 0.228763 40.2144 0.50658 40.4256C0.754185 40.6133 1.05567 40.5544 1.32975 40.4699C1.62314 40.3797 1.92183 40.308 2.22425 40.2565C2.79483 40.1602 3.38348 40.1486 3.95905 40.2048C4.26832 40.235 4.64674 40.3498 4.90088 40.1071C4.99214 40.0198 5.04477 39.9091 5.08775 39.7928C5.14132 39.6493 5.20393 39.5086 5.26622 39.3677C5.31761 39.2516 5.36869 39.135 5.41976 39.0186C5.50261 39.382 5.58546 39.7453 5.6683 40.109C5.70101 40.2522 5.85019 40.2631 5.9402 40.1935C6.08721 40.2724 6.28031 40.2709 6.44725 40.2902C6.71572 40.3211 6.98635 40.3317 7.2561 40.3411C7.78463 40.3591 8.31317 40.3691 8.84202 40.376C9.92027 40.3897 10.9985 40.3847 12.0765 40.38C14.2121 40.3707 16.3474 40.327 18.4821 40.2715C19.0832 40.2559 19.6843 40.2419 20.2854 40.2272C20.5857 40.22 20.8862 40.2129 21.1868 40.2045C21.2768 40.202 21.3677 40.1935 21.4531 40.1736H21.4534C21.4914 40.2069 21.5381 40.2325 21.5939 40.2478C21.7935 40.3027 21.9919 40.1804 22.0517 39.9874C22.0794 39.8988 22.0987 39.8177 22.0919 39.7316C22.1022 39.6668 22.1124 39.6019 22.1227 39.537C22.456 39.7482 22.8559 39.8055 23.2505 39.7793C23.6968 39.7497 24.1431 39.668 24.586 39.6072C25.0018 39.5501 25.6758 39.5685 25.6957 38.9934C25.7029 38.7829 25.6141 38.5468 25.5668 38.344C25.5101 38.1011 25.4534 37.8584 25.3967 37.6155Z" fill="black"/>
<path fill-rule="evenodd" clip-rule="evenodd" d="M9.4112 6.14836C9.57279 5.97471 9.77947 5.84534 10.0054 5.804C9.79888 5.90731 9.597 6.01499 9.4112 6.14836ZM9.09469 7.64562C9.06612 7.51328 9.04692 7.37967 9.04088 7.24609C9.07699 7.30107 9.13467 7.3378 9.19945 7.35677C9.1576 7.4506 9.12202 7.54727 9.09469 7.64562ZM19.9074 9.72043C19.7209 8.94294 18.8507 7.44745 18.645 7.15961C18.4217 6.4469 19.6398 5.87533 18.9773 5.318C18.6774 5.06654 18.281 4.97754 17.9091 4.88836C15.3345 4.26916 12.5683 4.58145 10.1804 5.72009C9.81717 5.64355 9.43875 5.79314 9.17461 6.05587C7.93372 7.30488 9.62483 9.55845 9.99462 10.9665C10.6291 12.5366 9.32215 12.8007 9.4623 14.1291C9.5712 14.8154 10.2653 14.9968 10.8511 15.1005C10.945 15.1225 11.0705 15.1258 11.1008 15.2252C11.1957 15.8053 11.521 16.3581 11.9578 16.7333C11.9196 16.8466 11.9488 16.9842 12.0835 17.0838C13.3039 17.992 14.8428 18.4465 16.3649 18.3648C18.1789 18.2675 19.117 17.2262 19.3434 16.9581C20.595 15.2655 20.4454 13.0321 20.1901 11.0148C20.0123 9.60957 20.2378 11.0978 19.9074 9.72043Z" fill="white"/>
<path fill-rule="evenodd" clip-rule="evenodd" d="M14.3143 3.2508C14.3713 3.07232 14.5327 2.96498 14.7174 2.98713C14.881 3.00648 15.0561 3.16905 15.0362 3.34847C15.0325 3.3831 15.0275 3.41556 15.0216 3.44613L15.0223 3.44641L15.0231 3.44645L15.0191 3.4583C15.0069 3.51541 14.9901 3.56658 14.9652 3.61494C14.9334 3.70762 14.9028 3.8006 14.8726 3.8939C14.9162 3.89203 14.9608 3.89453 15.006 3.90295C15.0527 3.78313 15.0998 3.66362 15.1465 3.54349C15.1967 3.41524 15.2319 3.25049 15.331 3.15126C15.4578 3.02458 15.6778 2.99837 15.8323 3.08886C15.9956 3.18434 16.0538 3.35408 16.0183 3.536C16.0003 3.62879 15.9384 3.69337 15.8618 3.73394L15.8535 3.7382L15.7946 3.87799C15.8127 3.87019 15.8314 3.86301 15.8516 3.85708C15.8834 3.84772 15.9146 3.84179 15.9451 3.8393C16.0292 3.68671 16.1218 3.5385 16.2174 3.39309C16.3274 3.22584 16.5424 3.1547 16.7228 3.26047C16.8842 3.35502 16.9708 3.6034 16.8552 3.76659C16.7674 3.89047 16.6842 4.01684 16.6022 4.14447C16.6163 4.14696 16.6303 4.15008 16.6437 4.15414C16.6499 4.14571 16.6565 4.13729 16.6633 4.12886C16.7527 4.01778 16.8568 3.93447 16.9637 3.84211C17.0637 3.75536 17.1098 3.619 17.2413 3.55316C17.4068 3.47047 17.6062 3.5101 17.7046 3.67486C17.9159 4.02777 17.5613 4.28551 17.3345 4.49925C17.5317 4.376 17.737 4.26335 17.9477 4.166C18.0661 4.11139 18.1863 4.05866 18.3085 4.0131C18.4895 3.9457 18.636 3.96726 18.7846 4.09267C18.851 4.14883 18.884 4.27149 18.8535 4.35322C18.7943 4.50986 18.7008 4.60503 18.5369 4.65027C18.4216 4.6821 18.3035 4.70363 18.1882 4.73702C17.995 4.79256 17.8075 4.86027 17.6255 4.94483C17.6386 4.95295 17.651 4.96168 17.6626 4.97167C17.7984 4.92767 17.9368 4.8896 18.0757 4.85715C18.3062 4.80303 18.5408 4.76647 18.7764 4.7436L18.8547 4.7363C19.1371 4.70915 19.4768 4.65905 19.6502 4.92985C19.7072 5.0191 19.7134 5.16638 19.6502 5.25468C19.5293 5.42443 19.409 5.45813 19.209 5.46125C19.4059 5.48215 19.6025 5.50805 19.7982 5.53832C19.9331 5.55891 20.0679 5.58226 20.2022 5.60816L20.2693 5.62132C20.4329 5.65408 20.6155 5.67312 20.756 5.76798C21.0626 5.97517 20.9187 6.37863 20.579 6.42169C20.4148 6.44228 20.2325 6.3727 20.0714 6.34025C19.915 6.30873 19.758 6.28096 19.6003 6.25662C19.5187 6.24383 19.4371 6.2326 19.3551 6.2223C19.5218 6.24632 19.6873 6.28034 19.8484 6.32839L19.8931 6.34191C20.2045 6.43696 20.6249 6.58834 20.722 6.92157C20.7809 7.12408 20.6198 7.30069 20.4248 7.31254C20.2434 7.32346 20.0923 7.21519 19.9384 7.13531C19.8262 7.07727 19.7122 7.0339 19.5913 6.99677C19.4663 6.95839 19.3389 6.92656 19.2105 6.90066C19.319 6.96051 19.4247 7.0263 19.5261 7.09989L19.5727 7.13438C19.8423 7.33552 20.2533 7.64694 20.1584 8.02398C20.1285 8.14287 19.996 8.25645 19.8689 8.24428C19.538 8.21339 19.3554 7.86048 19.1058 7.67138C19.0407 7.62208 18.9694 7.5734 18.8946 7.52597C19.2729 7.9778 19.5738 8.50014 19.8029 9.03965C20.3062 10.2266 20.4606 11.3257 20.4643 12.6019L20.4644 12.6415C20.465 13.3454 20.4491 14.0621 20.3805 14.763C20.317 15.4104 20.2004 16.0495 19.9072 16.6358C19.4159 17.619 18.4584 18.3847 17.4024 18.6762C16.2274 19.0007 14.9141 18.747 13.9516 17.9981C13.706 17.8072 14.0316 17.3925 14.2825 17.5688C15.2842 18.2724 16.5798 18.4952 17.7296 18.019C18.6416 17.6415 19.376 16.8293 19.6873 15.8941C19.8854 15.2992 19.9431 14.6648 20.0137 14.0448L20.0185 14.0035C20.0933 13.3551 20.1366 12.7023 20.1359 12.0495C20.135 10.8373 19.9611 9.83939 19.4286 8.73979C19.1781 8.22181 18.8531 7.74287 18.4649 7.32253C18.3471 7.34656 18.2219 7.31286 18.1028 7.30006C18.0421 7.29351 17.9813 7.28727 17.9206 7.28165C17.9826 7.32184 18.0435 7.36363 18.1033 7.40639L18.1818 7.46307C18.4274 7.63919 18.739 7.8398 18.6758 8.18031C18.6587 8.27236 18.5671 8.35692 18.4783 8.37783C18.1564 8.45459 17.9352 8.1413 17.7177 7.95533C17.5286 7.7937 17.3307 7.64892 17.1291 7.50382C17.0833 7.47106 17.0372 7.43829 16.9908 7.40584C17.0344 7.45677 17.0768 7.50849 17.1182 7.56069L17.1794 7.63836C17.3646 7.87037 17.6315 8.17193 17.4666 8.47268C17.4198 8.55756 17.3201 8.61404 17.2235 8.61216C16.8914 8.6053 16.7593 8.22774 16.6035 7.98935C16.4695 7.78496 16.324 7.59244 16.1735 7.39991C16.1321 7.34718 16.0903 7.29445 16.0479 7.24171C15.3503 7.27791 14.6551 7.37027 13.9721 7.51786C13.5029 7.61927 13.0414 7.75067 12.5834 7.89449L12.5453 7.90661C12.2974 7.98654 12.042 8.08883 11.8633 8.26425C11.8378 8.3851 11.8574 8.51256 11.8818 8.63326L11.9008 8.72565C11.9792 9.11197 12.0326 9.49113 11.9926 9.88776C11.9512 10.2968 11.8281 10.6647 11.6779 11.0448C11.6069 11.2239 11.5333 11.1914 11.5081 11.3836C11.4888 11.5301 11.5007 11.6812 11.5139 11.8288L11.525 11.954C11.5527 12.2818 11.5666 12.6393 11.352 12.9098C11.3187 12.9513 11.2473 12.9348 11.2236 12.8933C11.2143 12.8767 11.2043 12.8608 11.1934 12.8455C11.0899 12.6954 10.9314 12.6099 10.75 12.5769C10.7269 12.5728 10.736 12.5419 10.7553 12.5394C10.9086 12.5213 11.0538 12.5597 11.1772 12.639C11.1187 12.4363 10.6657 12.5349 10.5168 12.5743L10.5116 12.5756C10.3259 12.6255 10.1502 12.7067 9.99534 12.8215C9.68376 13.0524 9.50366 13.4125 9.51269 13.8003C9.52173 14.1817 9.71834 14.5339 10.0561 14.7165C10.2191 14.8045 10.4045 14.8469 10.5889 14.845C10.7815 14.8432 10.9529 14.7586 11.1457 14.7705C11.2573 14.7773 11.3426 14.8971 11.2781 15.0017C11.2351 15.0716 11.1791 15.1265 11.1143 15.1686C11.2722 15.5334 11.4738 15.8813 11.7063 16.2024C11.835 16.3806 11.9808 16.545 12.1412 16.6951C12.2665 16.8124 12.5379 16.9481 12.5226 17.1438C12.5173 17.2143 12.4809 17.2574 12.4167 17.2836C12.2171 17.3653 11.9745 17.084 11.841 16.9483L11.8303 16.9375C11.6639 16.7715 11.5121 16.5881 11.38 16.3933C11.1457 16.0476 11.0002 15.6579 10.9401 15.2485C10.6201 15.3449 10.1963 15.2544 9.93521 15.1362C9.11449 14.7648 8.84621 13.6581 9.34506 12.921C9.44165 12.7784 9.56255 12.6564 9.70027 12.5578C9.67005 12.5413 9.64169 12.5201 9.61645 12.4932C9.47684 12.3447 9.37813 12.1509 9.28016 11.9723L9.26841 11.9509C9.18144 11.7937 9.0994 11.6339 9.0225 11.4717L8.9939 11.4108C8.82222 11.041 8.67172 10.8794 8.54927 10.4906C8.43149 10.1155 8.33863 9.7333 8.2785 9.34451L8.26252 9.2416C8.22774 9.016 8.19485 8.77475 8.22023 8.5457C8.04543 8.6028 7.8697 8.63806 7.69676 8.55225C7.58272 8.49578 7.51978 8.33102 7.55873 8.21276C7.58709 8.1257 7.63445 8.05737 7.69458 8.0037C7.65875 7.9856 7.6251 7.96251 7.5955 7.93692L7.56964 7.91449C7.46494 7.82334 7.45747 7.65016 7.52103 7.53596C7.52726 7.52504 7.53349 7.51381 7.53941 7.50288C7.59986 7.39461 7.72481 7.32378 7.8482 7.32565C7.86814 7.32596 7.88808 7.32596 7.90833 7.32565C7.85069 7.31286 7.79429 7.2932 7.7407 7.26012C7.49891 7.11128 7.52944 6.70782 7.82202 6.63668C7.94479 6.60704 8.08033 6.6192 8.21556 6.65103C8.21057 6.64822 8.20559 6.64542 8.2006 6.6423C8.0984 6.57958 8.01271 6.45695 8.02237 6.3312C8.03297 6.19203 8.07784 6.0928 8.2006 6.01979C8.30716 5.95676 8.45797 5.95083 8.56391 6.01979C8.65583 6.08001 8.74588 6.14647 8.8325 6.21793C8.74557 6.1109 8.67016 5.99451 8.63963 5.87095C8.60193 5.71712 8.66487 5.54955 8.80321 5.46842C8.91351 5.40383 9.03005 5.41101 9.13412 5.46094C9.12851 5.38012 9.14814 5.29774 9.20173 5.22473C9.31141 5.07498 9.51082 4.98883 9.68438 5.09804C9.70712 5.11239 9.73766 5.13705 9.76726 5.16731C9.70962 4.98352 9.76165 4.79069 9.95826 4.70769C10.0782 4.65683 10.2406 4.68241 10.3446 4.77009C10.2786 4.41219 10.8061 4.14915 11.0111 4.51891C11.0576 4.60267 11.1037 4.69087 11.1449 4.7811L11.1601 4.81503L11.1616 4.8144L11.1511 4.7896L11.1404 4.76479C11.0834 4.63217 11.0108 4.49426 10.9909 4.35041C10.9616 4.1376 11.0563 3.93572 11.2875 3.90451C11.4068 3.88829 11.5396 3.94258 11.6196 4.03747C11.5763 3.70731 11.9446 3.46735 12.2098 3.71386C12.3354 3.83056 12.4024 4.00124 12.4821 4.15102C12.5273 4.23558 12.5734 4.31983 12.6186 4.4047C12.6301 4.39097 12.6426 4.37724 12.6557 4.36383C12.5887 4.16288 12.5366 3.95693 12.4927 3.74974C12.451 3.55441 12.5485 3.35159 12.7498 3.29639C12.9327 3.24581 13.1617 3.3588 13.2025 3.55382C13.2312 3.69108 13.2651 3.82685 13.3025 3.96193C13.3281 3.95569 13.3533 3.95132 13.3782 3.9482C13.3803 3.92282 13.3827 3.8973 13.3853 3.87192L13.3951 3.78166C13.4169 3.57542 13.4389 3.33999 13.5465 3.16468C13.73 2.86513 14.2005 2.98932 14.2055 3.34348C14.2083 3.52664 14.1338 3.70824 14.108 3.88953C14.0968 3.96848 14.0902 4.04836 14.0865 4.12824C14.1366 3.86301 14.2055 3.60122 14.2853 3.34348C14.2946 3.31258 14.3046 3.28169 14.3143 3.2508ZM10.2549 13.4786C10.6677 13.4147 11.0451 13.6453 11.2897 13.9682C11.3342 14.0272 11.3049 14.1105 11.2647 14.1601C11.2358 14.1966 11.1968 14.201 11.1529 14.2066C11.1024 14.2132 11.0385 14.1723 11.0164 14.1283C10.8591 13.8138 10.5783 13.615 10.2549 13.4927C10.249 13.4905 10.2471 13.4799 10.2549 13.4786ZM10.8272 7.84318L10.8397 7.82974C10.9232 7.74296 10.7912 7.61041 10.7075 7.69737C10.6194 7.78893 10.5608 7.90013 10.5044 8.01284C10.4508 8.12031 10.612 8.21523 10.6659 8.10736L10.6904 8.05833C10.7289 7.98209 10.77 7.90678 10.8272 7.84318ZM9.66777 7.66508C9.78617 7.64511 9.73598 7.46466 9.61807 7.48457C9.46533 7.51034 9.31319 7.53964 9.16041 7.56545C9.04204 7.58542 9.09224 7.76587 9.21014 7.74599C9.36288 7.72018 9.51503 7.69088 9.66777 7.66508ZM16.7211 6.43314C16.6067 6.39492 16.5576 6.57568 16.6714 6.61368C16.8286 6.6662 16.9845 6.72002 17.1336 6.79295C17.2414 6.84562 17.3362 6.6842 17.228 6.63128C17.0643 6.55124 16.8937 6.4908 16.7211 6.43314ZM9.64085 6.1905C9.52915 6.14576 9.48063 6.32677 9.59115 6.37104L9.99497 6.53277C10.1067 6.57752 10.1552 6.39654 10.0447 6.35226L9.64085 6.1905ZM18.1312 5.75092L18.1164 5.74161C18.0152 5.6759 17.9213 5.8379 18.022 5.90327C18.0812 5.94163 18.153 5.96764 18.2072 6.01334L18.2185 6.02344C18.3059 6.10613 18.4384 5.97401 18.3507 5.89104C18.2866 5.8304 18.2053 5.79664 18.1312 5.75092Z" fill="black"/>
<path fill-rule="evenodd" clip-rule="evenodd" d="M17.0347 16.2838C16.825 16.1983 16.6379 16.0556 16.5011 15.8734C16.4535 15.81 16.4412 15.7431 16.4512 15.6819C16.4624 15.6131 16.5031 15.5507 16.5586 15.5089C16.6143 15.4669 16.684 15.4463 16.7514 15.4568C16.8099 15.466 16.8682 15.498 16.9143 15.5645L16.9239 15.5778C17.0052 15.6878 17.1112 15.778 17.232 15.8362C17.3483 15.8923 17.4785 15.9184 17.6132 15.9032C17.8697 15.8742 18.0466 15.7355 18.2345 15.5471C18.2578 15.5234 18.2811 15.4988 18.3045 15.4739C18.3193 15.4513 18.3399 15.4368 18.3627 15.4292C18.388 15.4207 18.4166 15.4212 18.4428 15.4304C18.4681 15.4392 18.4907 15.4559 18.5059 15.4782C18.5203 15.4993 18.5284 15.5254 18.5258 15.5555C18.5086 15.7507 18.4065 15.9249 18.2615 16.0617C18.1005 16.2137 17.887 16.3188 17.686 16.3556C17.4646 16.3963 17.239 16.3672 17.0347 16.2838ZM17.7905 13.2722C18.026 13.4154 18.385 13.7492 18.1315 14.1041C17.8333 14.417 17.4038 14.0582 17.1921 13.896C16.9959 13.7702 16.7754 14.0937 16.9575 14.2405C18.4868 15.3725 19.1074 13.3096 17.9096 13.1039C17.7777 13.0812 17.7287 13.2279 17.7905 13.2722ZM15.0499 11.9554C15.076 11.6324 15.568 11.559 15.6169 11.8787C15.6608 12.165 15.6092 12.428 15.4802 12.6858C15.3569 12.932 15.0471 12.8171 15.0237 12.5929C14.9923 12.2923 15.0338 12.1563 15.0499 11.9554ZM18.7953 11.8124C18.8639 11.7226 18.963 11.6612 19.0816 11.6959C19.4524 11.8042 19.3431 12.3305 19.2129 12.5866C19.1422 12.7257 18.9135 12.761 18.8101 12.6385C18.6417 12.4388 18.561 12.0399 18.7752 11.8432C18.781 11.833 18.7874 11.8227 18.7953 11.8124ZM15.475 10.542L15.5335 10.5318C15.7147 10.5004 15.94 10.4703 16.0681 10.616C16.1361 10.6932 16.1595 10.8367 16.0681 10.9106C15.9074 11.0407 15.7297 10.9903 15.5371 11.0013C15.3784 11.0104 15.2259 11.0367 15.073 11.0804C14.7376 11.1762 14.4643 11.3512 14.1778 11.5433C14.1402 11.5685 14.1018 11.5204 14.1198 11.4853C14.2851 11.1615 14.6056 10.8954 14.9266 10.7333C15.0979 10.6467 15.2854 10.5749 15.475 10.542ZM18.4574 10.3969L18.5022 10.4061C18.99 10.5081 19.6238 10.7117 19.8548 11.1908C19.8636 11.2585 19.8543 11.273 19.8467 11.2825L19.8442 11.2857C19.838 11.2938 19.833 11.3049 19.8036 11.3141C19.7955 11.3122 19.7872 11.3101 19.7789 11.308C19.673 11.2802 19.5893 11.242 19.5082 11.2023L19.4202 11.159C19.3182 11.109 19.2153 11.0608 19.1062 11.0252C18.8734 10.9493 18.634 10.8958 18.3908 10.8673C18.3381 10.8611 18.2874 10.8433 18.2473 10.8128C18.2093 10.7839 18.1803 10.7439 18.1671 10.6906C18.1499 10.6217 18.1549 10.5696 18.1918 10.5074C18.2196 10.4607 18.2594 10.4284 18.3051 10.4098C18.3517 10.3909 18.4047 10.3864 18.4574 10.3969Z" fill="black"/>
<path fill-rule="evenodd" clip-rule="evenodd" d="M19.8923 13.5673C19.4246 13.7929 18.7721 13.4601 18.4577 13.1115C18.3432 12.9846 18.2549 12.6215 18.299 12.3912C18.4182 11.7675 18.8663 11.3931 19.3394 11.2653C19.9951 11.0881 20.6551 11.5371 20.5781 12.0669C20.5052 12.5691 20.3947 13.2975 19.8923 13.5673ZM16.7091 12.3692C16.6716 13.0489 16.1267 13.6438 15.4754 13.8201C14.4261 14.1134 13.9075 13.3745 13.6726 12.5785C13.6492 12.4994 13.5943 12.2579 13.7416 12.0509C14.3207 11.2363 15.7296 11.3751 16.4333 11.5988C16.6392 11.7961 16.7234 12.0809 16.7091 12.3692ZM20.4004 11.1968C20.4001 11.1972 20.3997 11.1976 20.3994 11.198C20.397 11.1965 20.3946 11.195 20.3922 11.1936C20.3949 11.1947 20.3978 11.1957 20.4004 11.1968ZM21.2784 11.2754C21.2174 10.5833 19.0497 10.8483 18.7963 10.905C18.1046 11.1088 17.5072 11.6632 16.7339 11.4195C15.9326 10.5248 13.2344 10.7814 12.6687 11.2371C12.5616 11.1951 12.4315 11.2176 12.2935 11.2573C11.5851 11.2317 8.35099 11.4763 9.01249 12.3821C9.11289 12.4518 9.2132 12.3808 9.21597 12.2371C12.6644 10.9902 12.3301 12.1581 12.7391 12.0217C12.8016 12.0397 12.8667 12.0511 12.9237 12.0631C13.2403 12.1651 13.3477 12.1336 13.3894 12.4896C13.6759 15.2381 17.3298 14.2895 17.0301 12.035C17.3268 12.0186 17.5863 11.8901 17.9001 12.0156C18.118 14.1394 19.8241 14.2251 20.3375 13.4889C20.7247 12.9779 20.5712 12.2067 21.1034 11.8048C21.3135 11.9809 21.327 11.3865 21.2784 11.2754Z" fill="black"/>
</g>
</svg>
