<svg width="48" height="48" viewBox="0 0 48 48" fill="none" xmlns="http://www.w3.org/2000/svg">
<ellipse cx="24" cy="24" rx="24" ry="24" fill="#FFD1FB"/>
<mask id="mask0_3272_92617" style="mask-type:alpha" maskUnits="userSpaceOnUse" x="0" y="0" width="48" height="48">
<ellipse cx="24" cy="24" rx="24" ry="24" fill="#FFD1FB"/>
</mask>
<g mask="url(#mask0_3272_92617)">
<path fill-rule="evenodd" clip-rule="evenodd" d="M41.2867 59.6489C41.0843 58.506 40.8988 57.3599 40.7302 56.2114C40.6501 55.6662 40.5721 55.1204 40.5019 54.5738C40.4527 54.1908 40.3778 53.7528 40.6384 53.4691C41.0051 53.0699 41.3382 52.7281 41.3831 52.1562C41.4253 51.6181 41.2434 51.0315 41.1296 50.5092C40.891 49.4139 40.5939 48.332 40.2657 47.2605C39.9323 46.1718 39.5667 45.0933 39.1958 44.0169C38.849 43.0105 38.5157 41.9951 38.0641 41.0295C37.2069 39.1971 35.7569 37.8401 33.9648 36.934C33.5191 36.7087 32.6101 35.9042 32.1444 35.7241C31.7163 35.5585 31.7179 36.0421 31.2966 35.8599C30.9598 35.7143 30.6461 35.5202 30.4576 35.195C30.2528 34.8419 29.7393 34.348 29.6612 33.937C29.4955 33.0658 29.6749 32.3243 29.0532 31.6686C28.5012 31.0863 27.7592 30.6874 26.9915 30.4733C25.3027 30.0022 23.0504 30.3316 22.0315 31.9009C21.5448 32.6503 21.3747 33.5561 20.718 34.1678C20.1446 34.7018 20.2729 35.0669 19.5302 35.3421C19.4882 35.3578 18.348 35.1132 18.306 35.1289C17.4935 34.955 16.7169 35.4417 15.9715 35.7241C14.8602 36.1451 13.8022 36.6931 12.8082 37.3443C10.8039 38.6576 9.08727 40.3628 7.67202 42.2925C6.24508 44.2381 5.13791 46.4188 4.34958 48.698C4.15813 49.2516 3.98617 49.812 3.83448 50.3778C3.74958 50.6944 3.65885 51.0229 3.76223 51.3471C3.84678 51.6123 4.03487 51.8098 4.25574 51.9689C4.55514 52.1846 5.15569 52.3249 5.14399 52.7588C5.13505 53.0887 5.02314 53.4358 4.96851 53.7618C4.90349 54.1501 4.85006 54.5406 4.79664 54.9305C4.55363 56.7054 4.36449 58.4903 4.28084 60.2803C4.1985 62.0427 4.13016 63.8412 4.25242 65.6031C4.26051 65.7193 4.29515 65.8259 4.35104 65.9161C4.29887 65.936 4.29485 66.0333 4.35977 66.047C4.40526 66.0567 4.45065 66.0663 4.49614 66.076C4.59063 66.1475 4.70847 66.1913 4.84409 66.1956C4.93602 66.1985 5.02791 66.2026 5.11974 66.2073C6.08883 66.4099 7.05776 66.6013 8.0395 66.7462C9.23288 66.9223 10.4298 67.0659 11.6304 67.1826C14.0974 67.4224 16.545 67.3429 19.0153 67.2136C21.4818 67.0845 23.9468 67.0544 26.4158 67.1186C28.887 67.1829 31.3573 67.2904 33.8291 67.3343C36.5905 67.3834 39.3478 67.308 42.1012 67.0885C42.4787 67.0584 42.7123 66.7581 42.6379 66.3831C42.1918 64.1366 41.6862 61.9051 41.2867 59.6489Z" fill="white"/>
<path fill-rule="evenodd" clip-rule="evenodd" d="M15.9715 35.7237L16.0254 35.7029C16.7544 35.4182 17.513 34.9587 18.306 35.1284C18.334 35.118 18.8499 35.2232 19.2033 35.2898L18.8679 35.64L18.2759 35.7538C20.3181 39.1243 22.7334 40.8095 25.5219 40.8095C28.3103 40.8095 30.4262 39.1243 31.8695 35.7538L32.0665 35.6993C32.0908 35.705 32.1167 35.713 32.1444 35.7237C32.6101 35.9038 33.5191 36.7082 33.9648 36.9336C35.7569 37.8397 37.2069 39.1966 38.0641 41.029C38.5006 41.9624 38.8267 42.9424 39.1611 43.9158L39.1958 44.0165C39.5667 45.0929 39.9323 46.1713 40.2657 47.26C40.5797 48.285 40.8651 49.3193 41.0981 50.3659L41.1296 50.5087C41.2434 51.0311 41.4253 51.6177 41.3831 52.1558C41.3671 52.3595 41.3145 52.5341 41.2369 52.6924L37.1977 54.1458L39.122 67.2702C37.3594 67.3457 35.5951 67.3653 33.8291 67.3339C31.3573 67.2899 28.887 67.1824 26.4158 67.1181C24.0216 67.0558 21.6312 67.0823 19.2395 67.2017L18.6321 67.2328C16.2917 67.3498 13.9698 67.4096 11.6304 67.1822L11.471 67.1665V67.1665L11.4709 65.2467L12.2927 54.5566L8.12811 53.7727L4.03999 51.7871C3.91647 51.6636 3.81735 51.5195 3.76223 51.3466C3.66648 51.0463 3.73724 50.7424 3.81567 50.4476L3.83448 50.3773C3.98617 49.8115 4.15813 49.2512 4.34958 48.6975C5.13791 46.4184 6.24508 44.2376 7.67202 42.2921C9.08727 40.3624 10.8039 38.6571 12.8082 37.3439C13.8022 36.6926 14.8602 36.1447 15.9715 35.7237Z" fill="black"/>
<path fill-rule="evenodd" clip-rule="evenodd" d="M17.5353 35.0734C17.7907 35.0623 18.0511 35.1036 18.3058 35.1287C18.328 35.1308 18.3364 35.1651 18.3114 35.1703C17.8555 35.2656 17.4046 35.3959 16.9568 35.5282L16.7651 35.5849C16.2601 35.7343 15.77 35.8884 15.2811 36.0876C14.3069 36.4847 13.3816 37.0206 12.53 37.6363C9.25069 40.0073 6.8773 43.5969 5.37956 47.3135C4.97282 48.3228 4.62818 49.3572 4.34902 50.409C4.28113 50.6649 4.21727 50.9218 4.15672 51.1796C4.13894 51.2551 4.06147 51.4486 4.10395 51.526C4.1415 51.5943 4.28751 51.6365 4.35534 51.6721L4.58435 51.7908C5.03106 52.021 5.77515 52.3995 5.84977 52.4364L5.96615 52.4937C7.86961 53.4268 9.90344 54.2181 12.0454 54.2729L12.0622 54.0899V54.0899C12.1577 53.0787 12.283 52.062 12.5566 51.0819C12.5713 51.0292 12.6383 51.047 12.6444 51.0938C12.7968 52.2541 12.7481 53.4236 12.6949 54.5893C12.6008 56.654 12.4758 58.7176 12.3647 60.7815C12.309 61.8139 12.2371 62.8457 12.1722 63.8776C12.1072 64.9115 12.0862 65.9703 11.9377 66.9958C11.9046 67.2243 11.6369 67.3486 11.4341 67.3245C11.2098 67.2978 11.0372 67.1003 11.0362 66.8738C11.0335 66.2764 11.1085 65.672 11.1503 65.0761C11.1899 64.5099 11.2324 63.9441 11.276 63.3782C11.4352 61.313 11.6185 59.2503 11.7879 57.186C11.848 56.4539 11.9128 55.7224 11.9796 54.9909C9.71051 54.9178 7.59062 54.0773 5.5683 53.0953C5.53903 53.76 5.46833 54.4234 5.3999 55.0852C5.20885 56.9322 5.0404 58.7785 4.91432 60.6313C4.85066 61.567 4.80431 62.5039 4.76395 63.4409C4.74411 63.9014 4.72795 64.362 4.71554 64.8228C4.71139 64.9764 4.70765 65.13 4.70433 65.2836L4.69743 65.6355C4.69179 65.8584 4.66912 66.065 4.48152 66.2273C4.29098 66.3921 4.0336 66.4009 3.84502 66.2273C3.59257 65.9948 3.6372 65.6781 3.64468 65.3659C3.65091 65.1025 3.65839 64.8392 3.66708 64.576C3.6845 64.0494 3.70674 63.5231 3.7338 62.9969C3.82851 61.1575 4.01772 59.3253 4.265 57.5006L4.36153 56.7962C4.5418 55.4867 4.7397 54.1475 5.14267 52.8861C4.98577 52.8081 4.82932 52.7295 4.67347 52.6505C4.39702 52.5106 4.11118 52.3792 3.84246 52.2247C3.62927 52.1022 3.4454 51.9341 3.38606 51.686C3.31987 51.4096 3.42108 51.1072 3.48832 50.8376L3.49416 50.8139C3.56008 50.5424 3.63108 50.2721 3.70599 50.0029C4.00975 48.9114 4.38537 47.8412 4.82495 46.7971C5.70512 44.7068 6.8412 42.721 8.22893 40.9254C9.47809 39.3092 10.9537 37.8435 12.6832 36.7442C13.5288 36.2068 14.4298 35.7655 15.3827 35.4535C15.8281 35.3077 16.3128 35.1808 16.7791 35.1286C17.0307 35.1005 17.2826 35.0844 17.5353 35.0734ZM22.0598 31.7611C22.3633 31.4353 22.9662 31.7725 22.8205 32.204C22.4778 33.2191 21.932 34.1451 21.0803 34.8122C20.2796 35.4393 19.3249 35.8466 18.2967 35.7597C18.2888 35.759 18.2819 35.757 18.2758 35.7541L18.3644 35.8743C19.0601 36.8153 19.7939 37.7432 20.6784 38.5123C22.4806 40.0794 24.9343 40.9246 27.3037 40.3234C29.1679 39.8504 30.8102 38.3763 31.2932 36.4977C31.224 36.5287 31.1417 36.5393 31.0514 36.5196C30.6649 36.4357 30.2823 36.0293 30.0331 35.7379C29.7634 35.4226 29.5529 35.0822 29.3985 34.6974C29.116 33.9932 29.0255 33.0864 29.4112 32.4042C29.4588 32.3201 29.5685 32.3673 29.5779 32.4494L29.5926 32.5775C29.6669 33.2169 29.7595 33.8353 30.061 34.4181C30.2085 34.7033 30.3853 34.9817 30.6006 35.2205C30.7158 35.3483 30.8406 35.4704 30.9754 35.5776C31.1068 35.682 31.2658 35.7574 31.3836 35.8772L31.4051 35.9002L31.4057 35.8961C31.4355 35.643 31.613 35.5315 31.7867 35.5385C31.9547 35.5452 32.1522 35.6192 32.2286 35.6546L32.2358 35.658C33.4083 36.2209 34.4882 36.9545 35.5044 37.7684C37.606 39.4516 39.1806 41.652 39.9435 44.2432C40.318 45.515 40.5328 46.8254 40.7596 48.1297L40.8993 48.9288C41.111 50.1329 41.3475 51.3607 41.8254 52.4808C41.949 52.7706 41.8537 53.0423 41.5506 53.1562C41.1721 53.2985 40.7922 53.4363 40.4117 53.5724C40.5985 54.3738 40.7125 55.2031 40.8524 56.0086C41.15 57.7206 41.5146 59.4218 41.8272 61.1316C41.987 62.0058 42.1312 62.883 42.2908 63.7573C42.3677 64.1784 42.4479 64.5988 42.526 65.0197C42.568 65.2466 42.6061 65.4743 42.6462 65.7015L42.6532 65.7393C42.6762 65.8591 42.7051 65.9831 42.6721 66.1031C42.6345 66.2399 42.5277 66.3366 42.4323 66.4347C42.3539 66.5155 42.2404 66.516 42.1443 66.4719L42.1127 66.4573C41.9409 66.377 41.8064 66.2968 41.7455 66.1031C41.7069 65.9805 41.693 65.8423 41.6678 65.7159C41.6194 65.4736 41.5736 65.2311 41.5303 64.9878C41.4438 64.5011 41.3592 64.0141 41.2767 63.5267L41.1996 63.0703C40.9349 61.4973 40.6836 59.9147 40.5566 58.3251C40.5003 57.6198 40.4405 56.9152 40.3803 56.2105L40.335 55.6819C40.2778 55.0129 40.2078 54.3269 40.1979 53.6488L39.9704 53.7296V53.7296L38.8602 54.122V54.122C38.585 54.2193 38.2345 54.4186 37.9383 54.3824C37.7933 54.3646 37.6827 54.319 37.5974 54.236C37.6996 55.6787 37.838 57.1188 38.0224 58.5516C38.1902 59.8554 38.3762 61.1574 38.5959 62.4534C38.7047 63.0952 38.8166 63.7364 38.938 64.3758C38.9987 64.6956 39.0614 65.0149 39.126 65.334C39.1581 65.4931 39.1964 65.6524 39.2216 65.8129C39.2503 65.9967 39.1997 66.1097 39.097 66.2609C39.0127 66.3851 38.844 66.4489 38.7073 66.3631C38.5263 66.2495 38.4318 66.1511 38.3785 65.9442C38.3301 65.7563 38.3007 65.5601 38.2633 65.3697C38.1941 65.0183 38.1273 64.6666 38.0628 64.3143C37.9279 63.5776 37.8035 62.8392 37.6924 62.0985C37.301 59.4892 37.0527 56.858 36.9273 54.2226C36.8654 52.9223 36.8463 51.6209 36.8572 50.3192C36.8629 49.6521 36.8847 48.983 36.9319 48.3175C36.9797 47.6438 37.0791 46.9836 37.1678 46.3164C37.171 46.2929 37.2041 46.2916 37.2055 46.3164C37.2475 47.0644 37.3134 47.8116 37.3457 48.5616C37.3765 49.2772 37.39 49.9939 37.4145 50.7098C37.4467 51.6508 37.4913 52.5924 37.5504 53.5333C37.6574 53.4163 37.8187 53.3488 37.9801 53.3752C38.2139 53.3261 38.4655 53.2035 38.6884 53.129L39.5286 52.8483V52.8483C39.9703 52.7008 40.412 52.5543 40.8552 52.4122C40.4589 51.079 40.1874 49.7259 39.9556 48.3531L39.8523 47.7357C39.6476 46.5204 39.427 45.3046 39.0563 44.1277C38.6666 42.8905 38.0835 41.7402 37.3099 40.6985C36.5474 39.6719 35.6197 38.7679 34.6645 37.9224C33.8468 37.1986 32.972 36.545 32.1379 35.8411C32.1466 35.8878 32.1485 35.9391 32.1408 35.9956C31.9635 37.2935 31.2864 38.5022 30.3428 39.4011C28.4472 41.2072 25.6411 41.5819 23.2149 40.735C20.868 39.9158 18.793 37.9756 18.0599 35.5748C18.0473 35.5337 18.1024 35.5174 18.1244 35.5475C18.1651 35.6033 18.206 35.659 18.2469 35.7147C18.2441 35.6926 18.2556 35.6685 18.283 35.658C19.1383 35.3277 19.9783 34.8593 20.6194 34.1967C20.9319 33.8737 21.2047 33.5077 21.42 33.1131C21.5231 32.9241 21.6157 32.7283 21.6897 32.526L21.7084 32.4737C21.798 32.2203 21.8729 31.9619 22.0598 31.7611Z" fill="black"/>
</g>
<path fill-rule="evenodd" clip-rule="evenodd" d="M22.1115 8.56358C25.2754 8.39086 28.0785 7.5019 30.3056 9.49144C30.3056 9.49144 33.9085 6.80087 34.5096 7.82561C34.9124 8.51226 34.3538 9.43403 34.5036 10.2813C35.4803 11.9463 35.4251 14.7645 35.4803 15.4249C35.6195 17.0895 36.4961 23.3534 36.4961 24.8409C36.4961 25.6002 35.8701 27.5887 35.4803 28.6953C34.6125 31.1584 32.9562 32.4137 30.2398 32.4137C27.5234 32.4137 23.0898 30.1433 21.6678 28.1276C21.5432 27.9509 20.7374 28.4663 19.8945 27.5723C18.9813 26.6038 18.4748 24.7565 18.4748 23.6553C18.4748 22.2579 17.5717 21.2889 17.6767 19.5002C17.9113 15.5057 18.7259 8.7484 22.1115 8.56358Z" fill="white"/>
<path fill-rule="evenodd" clip-rule="evenodd" d="M34.5128 7.81584C34.9156 8.50249 34.357 9.42427 34.5068 10.2716C34.8837 10.9141 35.1069 11.7283 35.2421 12.524L34.5036 12.9159L34.2303 12.956C29.7994 13.6093 26.9715 14.1972 25.7465 14.7198C24.5089 15.2477 23.0071 17.1017 21.2409 20.282L21.1873 20.3788L20.8373 22.7523L19.2329 23.2444L18.4776 23.6023C18.4594 22.2281 17.5759 21.2606 17.6799 19.4905C17.9145 15.4959 18.7291 8.73863 22.1146 8.55381C25.2786 8.3811 28.0817 7.49213 30.3088 9.48167C32.7107 7.68796 34.112 7.13268 34.5128 7.81584Z" fill="#F04EEA"/>
<path fill-rule="evenodd" clip-rule="evenodd" d="M21.758 3.92005C21.7991 3.91754 21.8408 3.91955 21.8825 3.92362C21.9282 3.92562 21.9739 3.93009 22.0195 3.93918C22.252 3.98382 22.4594 4.10683 22.62 4.28005C22.6246 4.28457 22.6281 4.28964 22.6321 4.29411C22.7074 4.35085 22.7772 4.41516 22.84 4.4834C22.851 4.47285 22.8616 4.46236 22.8731 4.45182C22.9062 4.42265 22.9409 4.39503 22.977 4.36897C23.1283 4.23925 23.3058 4.14495 23.4967 4.0913L23.5228 4.08424C23.5278 4.08273 23.5329 4.08172 23.5379 4.08072C23.6734 4.03558 23.816 4.01249 23.9596 4.01294C24.1313 4.00742 24.3036 4.03558 24.4642 4.10181C24.6545 4.18069 24.8202 4.30516 24.9593 4.45483C25.0507 4.52914 25.1305 4.61093 25.2149 4.70085C25.3891 4.88708 25.5267 5.10499 25.6135 5.34504C25.6256 5.37868 25.6361 5.41327 25.6457 5.44792C25.858 5.42337 26.0714 5.40579 26.2848 5.39721C26.5243 5.3827 26.7638 5.37763 27.0038 5.38571C27.6651 5.40725 28.3118 5.52378 28.9379 5.73717C29.0634 5.77428 29.1854 5.82147 29.3029 5.87972C29.4872 5.95302 29.6614 6.04641 29.8256 6.15938L29.9654 6.24233C30.0357 6.28408 30.1059 6.32638 30.174 6.36976C30.3362 6.47374 30.4898 6.59018 30.6354 6.7157C30.7891 6.83977 30.9342 6.97483 31.0723 7.11637C31.1098 7.15468 31.146 7.19349 31.1817 7.23256C31.4999 7.40432 31.7827 7.62424 32.0464 7.88653C32.2555 7.76623 32.472 7.65717 32.6955 7.56022C32.926 7.4603 33.2187 7.35738 33.4602 7.28964C33.6771 7.22889 33.8915 7.18722 34.1089 7.15654C34.2078 7.13947 34.3072 7.12591 34.4072 7.11436L34.4031 7.11592V7.11592C34.4734 7.10834 34.5432 7.10181 34.614 7.09579L34.612 7.09528V7.09528C34.6421 7.09282 34.6728 7.09026 34.7029 7.08825L34.7762 7.08228V7.08228C34.7983 7.08027 34.8304 7.13194 34.8324 7.15001L34.8349 7.16859V7.16859C34.8515 7.18722 34.8666 7.2078 34.8771 7.22035C34.8902 7.2193 34.9032 7.21835 34.9163 7.21779C34.9554 7.21433 35.0006 7.28407 35.0237 7.31068L35.0446 7.33522C35.0684 7.36382 35.0922 7.39677 35.096 7.43269C35.1216 7.64111 35.1457 7.84993 35.1678 8.0588C35.1764 8.21696 35.1678 8.37361 35.1417 8.52876C35.1221 8.67938 35.1021 8.83001 35.082 8.98014C35.0498 9.08563 35.0182 9.19107 34.9866 9.29646C34.974 9.33667 34.96 9.37629 34.9464 9.41595C34.8661 9.68086 34.772 9.93873 34.6599 10.1886C34.7417 10.2791 34.8179 10.3729 34.8889 10.4697C34.9058 10.4872 34.9229 10.5045 34.9389 10.5226C34.9434 10.5156 34.9499 10.5091 34.957 10.5055C34.9811 10.4949 34.9986 10.5075 35.0137 10.5281C35.1718 10.6792 35.2868 10.8555 35.3581 11.0568L35.4025 11.1618C35.4099 11.1793 35.4172 11.1969 35.4244 11.2144C35.4811 11.3671 35.5248 11.5238 35.561 11.6824C35.5933 11.8072 35.6165 11.9337 35.6315 12.0616C35.7399 12.4258 35.8257 12.7983 35.9066 13.1659C35.9193 13.2237 35.9133 13.2753 35.8948 13.3193L35.9421 13.3654V13.3654L36.0229 13.4459C36.1586 13.5812 36.2971 13.7235 36.398 13.8846C36.5024 14.0518 36.5792 14.2305 36.6646 14.4078L36.683 14.4455V14.4455L36.7205 14.521C36.7612 14.6034 36.7807 14.649 36.8167 14.7487C36.8764 14.9149 36.9086 15.0821 36.9236 15.2583C36.9457 15.5149 36.9427 15.7945 36.8303 16.033C36.8298 16.035 36.8287 16.0366 36.8277 16.038C36.7765 16.2686 36.65 16.4824 36.4577 16.619C36.4165 16.6577 36.3723 16.6923 36.3252 16.7199C36.2119 16.7864 36.1079 16.7924 35.9842 16.7616L35.9687 16.7575C35.9531 16.7535 35.939 16.75 35.9255 16.747C35.9456 16.7636 35.9556 16.7832 35.9255 16.7972C35.8964 16.8113 35.8703 16.8193 35.8457 16.8223C35.8562 16.8359 35.8572 16.8504 35.8351 16.8625C35.7869 16.8881 35.7477 16.8962 35.7076 16.8891L35.716 16.9589C35.7819 17.4871 35.8408 17.5916 35.8923 18.1589C35.9265 18.7398 35.9807 19.3192 36.0555 19.8962L36.0813 20.1058C36.1639 20.7703 36.2568 21.4396 36.399 22.0933C36.4708 22.379 36.5325 22.6667 36.5847 22.9564C36.6585 23.1768 36.7103 23.4022 36.7389 23.6322C36.7805 23.8662 36.8092 24.1022 36.8257 24.3401C36.8835 24.4923 36.9116 24.6469 36.9101 24.8046C36.9176 25.0165 36.9106 25.2279 36.888 25.4383C36.8754 25.6571 36.8453 25.874 36.7976 26.0889C36.7549 26.3837 36.6771 26.6684 36.5657 26.9445C36.4763 27.2528 36.3668 27.5551 36.2423 27.8508C36.049 28.3087 35.8155 28.734 35.5499 29.1532C35.3009 29.5463 35.0338 29.9249 34.7285 30.2769C34.3339 30.7318 33.884 31.1485 33.3909 31.5C33.1098 31.7079 32.813 31.8946 32.5027 32.0543C32.1231 32.2501 31.7375 32.4263 31.3263 32.5453C31.0698 32.6196 30.8087 32.6709 30.5446 32.7101C30.0259 32.7868 29.4887 32.7753 28.967 32.6854C28.6306 32.6402 28.2997 32.5619 27.9869 32.4499C27.7298 32.3576 27.4848 32.2516 27.2398 32.1321C27.1138 32.0714 26.9923 32.0011 26.8758 31.9222C26.68 31.7952 26.4967 31.6517 26.326 31.493C26.2703 31.4453 26.216 31.3966 26.1628 31.3453C26.1372 31.3227 26.1513 31.2891 26.1809 31.2811L26.1899 31.2801V31.2801C26.1784 31.2695 26.1663 31.259 26.1548 31.2479C26.1523 31.2459 26.1503 31.2435 26.1482 31.2409C26.1427 31.2359 26.1367 31.2309 26.1317 31.2259C26.1121 31.2088 26.1317 31.1706 26.1487 31.1616C26.1553 31.1581 26.1638 31.1576 26.1734 31.1586C26.1713 31.1566 26.1698 31.155 26.1678 31.1536C26.1658 31.152 26.1653 31.148 26.1658 31.144L26.1583 31.138V31.138C26.1327 31.1154 26.1457 31.0823 26.1759 31.0737C26.1906 31.0692 26.2148 31.0715 26.2401 31.077L26.2497 31.0792L26.2326 31.0632C26.2025 31.0371 26.212 31.0079 26.2492 30.9989C26.2769 31.0006 26.3043 31.0044 26.3314 31.011L26.3516 31.0165C26.3616 31.019 26.3712 31.022 26.3812 31.0251C26.3641 31.0094 26.3471 30.9944 26.3305 30.9788C26.3139 30.9643 26.3315 30.9226 26.3466 30.9141C26.3672 30.9025 26.4073 30.9186 26.4259 30.9321C26.4716 30.9372 26.5318 30.9572 26.5539 30.9763C26.6147 31.0345 26.6775 31.0903 26.7412 31.1445C26.7799 31.1565 26.8165 31.1726 26.8446 31.1967C26.917 31.266 26.9923 31.3313 27.0691 31.3945L27.1275 31.4348C27.1373 31.4414 27.1471 31.4479 27.157 31.4543C27.2674 31.5191 27.3779 31.5833 27.4878 31.6481C27.891 31.7847 28.2942 31.9213 28.6969 32.0574L28.7501 32.0734V32.0734L29.1412 32.1216V32.1216C29.3983 32.1487 29.6559 32.1472 29.9129 32.1176C30.1057 32.1201 30.297 32.101 30.4853 32.0618C30.8052 32.0076 31.119 31.9278 31.4242 31.8163C31.7757 31.6883 32.1106 31.5196 32.4375 31.3379C32.5549 31.272 32.6704 31.2022 32.7839 31.1285C32.8205 31.1024 32.8572 31.0757 32.8939 31.0486C33.1354 30.8673 33.3663 30.674 33.5887 30.4697C33.6932 30.3738 33.7936 30.2739 33.8905 30.1705C33.9046 30.1554 33.9181 30.1409 33.9317 30.1258C34.0246 30.0243 34.1144 29.9194 34.2003 29.8109L34.2821 29.7186V29.7186C34.6125 29.3074 34.9062 28.8651 35.1703 28.4096C35.4324 27.9582 35.6483 27.4832 35.82 26.9917C35.8753 26.8165 35.9235 26.6388 35.9636 26.459C36.038 26.2431 36.0867 26.0217 36.1093 25.7958C36.1168 25.7515 36.1228 25.7073 36.1288 25.6632L36.1323 25.5935C36.1328 25.5819 36.1332 25.5703 36.1334 25.5587C36.1434 25.4885 36.1519 25.4181 36.1585 25.3478C36.1625 25.2771 36.165 25.2063 36.1655 25.1355L36.16 24.7011V24.7011C36.1585 24.6876 36.157 24.6736 36.1559 24.6595L36.1449 24.5636C36.1208 24.3658 36.1022 24.1674 36.0781 23.9697C36.0781 23.9686 36.0781 23.9671 36.0776 23.9656C36.0686 23.8918 36.059 23.8175 36.048 23.7432C36.0425 23.699 36.0354 23.6548 36.0289 23.6106L36.0164 23.5333V23.5333C35.9931 23.3989 35.9648 23.2656 35.9305 23.1334L35.9154 23.0769L35.8281 22.6375L35.7297 22.2052C35.6659 21.9155 35.6127 21.6238 35.5705 21.3296C35.4942 20.8607 35.4289 20.3912 35.3722 19.9197C35.3692 19.8971 35.3662 19.874 35.3636 19.8514C35.3059 19.4142 35.2642 18.9753 35.2371 18.535C35.2005 18.1012 35.1794 17.6663 35.1739 17.2311C35.1734 17.2114 35.1864 17.1954 35.202 17.1863L35.2006 17.1026C35.1987 17.0286 35.1974 17.1174 35.1968 17.033L35.1958 16.8009C35.1959 16.7815 35.196 16.768 35.1964 16.7671C34.9282 16.7856 34.7478 16.7704 34.4887 16.7568L34.4448 16.7545C34.2073 16.7435 33.9713 16.7174 33.7369 16.6782C33.7359 16.6903 33.7278 16.6988 33.7143 16.7013C33.6902 16.7023 33.6676 16.7023 33.6445 16.7029L33.653 16.7355V16.7355C33.6535 16.7521 33.646 16.7626 33.6299 16.7671L33.5629 16.7701C33.4735 16.7739 33.3838 16.7756 33.295 16.7636C33.2152 16.7531 33.1374 16.7345 33.06 16.7124C33.0123 16.7043 32.9636 16.6933 32.9139 16.6792C32.7864 16.6426 32.6599 16.5934 32.5318 16.5543C32.4013 16.5266 32.2687 16.5176 32.1302 16.5507C31.9836 16.5853 31.8595 16.6481 31.7059 16.6099C31.6753 16.6025 31.6457 16.5909 31.616 16.5788L31.5886 16.5769C31.584 16.5765 31.5792 16.576 31.5744 16.5753C31.4142 16.5522 31.2716 16.4508 31.119 16.3965C31.0657 16.3836 31.0128 16.3868 30.9611 16.4084L30.9482 16.4142L30.8975 16.4518C30.8771 16.4759 30.8569 16.5002 30.837 16.5246L30.8072 16.5612C30.7524 16.629 30.6942 16.6898 30.6234 16.7339C30.538 16.8128 30.4366 16.859 30.3156 16.862C30.2468 16.864 30.1785 16.8494 30.1123 16.8284C29.8622 16.9057 29.5946 16.9213 29.3451 16.846C29.2462 16.8309 29.1493 16.8043 29.0564 16.7626C29.0127 16.743 28.969 16.7199 28.9268 16.6943C28.7506 16.7686 28.5839 16.8675 28.4137 16.9529L28.3753 16.9722C28.2014 17.0588 28.009 17.1433 27.8122 17.1307C27.5641 17.1145 27.3206 17.0814 27.0776 17.0397C27.0756 17.0397 27.0731 17.0392 27.0711 17.0387L27.0376 17.0332V17.0332L26.9161 17.0118V17.0118L26.818 16.9936V16.9936L26.7679 17.0128C26.3655 17.165 25.9245 17.2838 25.5201 17.1773C25.3439 17.1558 25.1787 17.0965 25.0296 16.9955C25.0246 16.992 25.0195 16.9885 25.0145 16.9845C24.9909 16.9724 24.9688 16.9589 24.9493 16.9444L24.945 16.9411V16.9411L24.9412 16.9378L24.9392 16.9368C24.7188 16.8354 24.5923 16.6195 24.6144 16.3775C24.6008 16.3006 24.6013 16.2253 24.6164 16.145C24.5446 16.2298 24.4713 16.3137 24.397 16.397C24.1251 16.7243 23.859 17.0582 23.6125 17.4057L23.5559 17.4861C23.4204 17.6774 23.2944 17.8753 23.1779 18.0791C23.0599 18.2804 22.9389 18.4798 22.8139 18.6766C22.6513 18.8562 22.4941 19.0402 22.3427 19.2286L22.2781 19.3097L22.0602 19.5964C21.9061 19.7792 21.778 19.979 21.6771 20.1959C21.5943 20.3501 21.518 20.5072 21.4492 20.6684C21.4271 20.717 21.406 20.7663 21.3854 20.8155C21.3146 21.0078 21.2549 21.2036 21.2082 21.4059C21.1707 21.5523 21.1437 21.7008 21.1277 21.8513L21.1228 21.9015C21.1168 21.9607 21.1123 22.02 21.1098 22.0792C21.1243 22.0878 21.1364 22.0963 21.1454 22.1048L21.1821 22.1179V22.1179L21.2117 22.1267C21.2579 22.1411 21.3377 22.1707 21.3186 22.2073L21.2217 22.3921V22.3921C21.2318 22.4026 21.2363 22.4136 21.2298 22.4257C21.165 22.5497 21.0997 22.6737 21.0344 22.7978C21.0324 22.8023 21.0289 22.8058 21.0254 22.8083C21.0811 22.8339 21.1354 22.862 21.1871 22.8926C21.288 22.9529 21.3623 23.0227 21.4311 23.104C21.5034 23.1472 21.5717 23.1944 21.6359 23.2486C21.7153 23.3319 21.7846 23.4234 21.8433 23.5222C21.8975 23.6156 21.9417 23.713 21.9759 23.815C21.9909 23.8687 21.998 23.9244 21.9975 23.9811C21.9367 24.41 21.4462 24.1162 21.4366 24.0786C21.3693 23.8195 21.292 23.6558 21.1183 23.463L21.1138 23.46V23.46C21.0134 23.4158 20.9139 23.3721 20.81 23.338C20.7944 23.341 20.7784 23.343 20.7623 23.3455C20.7804 23.3712 20.7713 23.3963 20.7347 23.4007C20.5765 23.4319 20.4169 23.4404 20.2562 23.4268L20.0122 23.3922V23.3922C19.911 23.4311 19.8142 23.4809 19.723 23.5403L19.6929 23.5604L19.6873 23.5644C19.4518 23.7537 19.2701 24.0053 19.1456 24.2794C19.1345 24.3038 19.1239 24.3285 19.1138 24.3534L19.0989 24.3909L19.0979 24.3929C18.9352 25.0321 19.0803 25.734 19.3775 26.3139C19.5397 26.5735 19.7089 26.828 19.8857 27.0776L20.0574 27.302V27.302C20.1588 27.3974 20.2582 27.4953 20.3551 27.5957C20.3702 27.6108 20.3862 27.6258 20.4023 27.6404C20.4535 27.674 20.5057 27.7037 20.559 27.7288C20.5795 27.7358 20.6006 27.7423 20.6217 27.7479C20.7241 27.7971 20.8316 27.8232 20.9446 27.8262C21.0938 27.8361 21.2386 27.8186 21.3786 27.7742L21.4065 27.7649L21.4271 27.7574C21.5034 27.7087 21.5742 27.6479 21.6415 27.5766C21.6565 27.5611 21.6846 27.5611 21.7168 27.5696C21.7344 27.5515 21.7519 27.5324 21.7685 27.5119C21.78 27.4993 21.7981 27.4989 21.8122 27.5083C21.8599 27.5029 21.9889 27.5762 21.9553 27.6148C21.9498 27.6238 21.9427 27.6319 21.9367 27.6404C21.9593 27.6519 21.9819 27.665 22.002 27.6786C22.1074 27.7078 22.2632 27.8131 22.2505 27.8447L22.249 27.8473C22.2246 27.8934 22.1929 27.9321 22.1538 27.9628L22.1405 27.9728L22.1109 27.9934C22.1526 28.0195 22.1877 28.0496 22.1702 28.0707C22.1621 28.0863 22.1536 28.1014 22.1436 28.1149C22.2289 28.2204 22.3138 28.3268 22.3981 28.4332C22.4825 28.616 22.5869 28.7867 22.7114 28.9448C22.8154 29.1166 22.9404 29.2707 23.0865 29.4083C23.0985 29.4204 23.1111 29.4319 23.1231 29.4435C23.2308 29.523 23.3434 29.5975 23.4607 29.669L23.5113 29.6995C23.5379 29.7155 23.5826 29.7356 23.5615 29.7743C23.559 29.7793 23.5559 29.7834 23.5524 29.7863C23.6262 29.8346 23.7026 29.8802 23.7814 29.9225L23.7889 29.9271C23.8187 29.9461 23.859 29.9806 23.8165 30.0088C23.7804 30.0329 23.6845 29.9676 23.6393 29.9375C23.6308 29.9375 23.6207 29.935 23.6107 29.932C23.6257 29.94 23.6406 29.9487 23.6556 29.9572L23.6785 29.9697C23.696 29.9801 23.7824 30.0374 23.7221 30.0615C23.6925 30.064 23.6654 30.0565 23.6403 30.0394C23.6107 30.0248 23.5816 30.0093 23.5529 29.9932C23.563 30.0088 23.563 30.0243 23.5379 30.0344C23.5293 30.0349 23.5208 30.0344 23.5123 30.0334C23.5715 30.0711 23.6323 30.1062 23.695 30.1393L23.7052 30.1457C23.7317 30.1629 23.774 30.1956 23.7432 30.2237C23.7086 30.2548 23.6132 30.1885 23.5886 30.1735L23.5153 30.1298V30.1298C23.5098 30.1323 23.5037 30.1333 23.4972 30.1338C23.5193 30.1474 23.5399 30.162 23.5625 30.175L23.5932 30.1917C23.6317 30.213 23.6861 30.248 23.6664 30.2829C23.6467 30.3175 23.5881 30.289 23.5503 30.2666L23.5096 30.2414C23.5079 30.2403 23.5061 30.2392 23.5042 30.2382L23.5027 30.2443C23.5023 30.2453 23.5019 30.2463 23.5012 30.2473C23.4824 30.28 23.435 30.2586 23.4024 30.2397L23.3762 30.2237C23.3317 30.1969 23.2876 30.1703 23.2438 30.1436L23.1784 30.1032H23.1774C22.9509 29.9671 22.7416 29.8316 22.5442 29.6569C22.4262 29.5524 22.3163 29.4419 22.2118 29.3239C22.002 29.0874 21.8458 28.8169 21.6952 28.5407C21.6927 28.5361 21.6962 28.5246 21.7022 28.512C21.6857 28.4779 21.6696 28.4432 21.6535 28.4076C21.4989 28.4508 21.3262 28.4634 21.167 28.4528C21.0816 28.4473 20.9973 28.4322 20.9134 28.4096C20.6458 28.3724 20.3877 28.2504 20.1648 28.1043C20.1508 28.0953 20.1382 28.0853 20.1252 28.0763C20.0333 28.0245 19.9459 27.9643 19.8631 27.8955C19.7014 27.7619 19.5472 27.6133 19.4072 27.4581C19.3057 27.3377 19.2098 27.2126 19.12 27.0831C19.0286 26.955 18.9362 26.8271 18.8438 26.699C18.5872 26.2973 18.4231 25.8349 18.3593 25.3624C18.3282 25.1882 18.3121 25.0119 18.3156 24.8362C18.3181 24.7092 18.3322 24.5806 18.3568 24.4527C18.3422 24.4386 18.3277 24.4245 18.3131 24.41C18.3051 24.424 18.297 24.4341 18.292 24.429L18.1769 24.3138C18.0953 24.2315 18.0405 24.1709 17.9466 24.0379C17.797 23.8255 17.6855 23.592 17.6026 23.3461C17.5429 23.1703 17.5032 22.9704 17.4877 22.7772C17.4826 22.745 17.4776 22.7124 17.4736 22.6792C17.4415 22.4176 17.4711 22.1671 17.5108 21.909C17.5133 21.892 17.5218 21.8815 17.5334 21.8759C17.5363 21.8554 17.5397 21.8345 17.5431 21.8135C17.2106 21.4614 16.9712 21.0371 16.9907 20.5247C16.9969 20.3632 17.03 20.2041 17.0933 20.0554L17.101 20.0387V20.0387C16.8233 19.996 16.6031 19.801 16.4377 19.5593C16.423 19.5477 16.4088 19.536 16.3952 19.5243C16.0993 19.2717 15.8942 18.9139 15.7538 18.5361C15.6532 18.3166 15.5866 18.0822 15.5583 17.839C15.5563 17.8216 15.5551 17.8044 15.5536 17.7871C15.4849 17.4025 15.4674 17.0141 15.4991 16.6315C15.4302 16.3946 15.3741 16.1536 15.3357 15.907C15.3176 15.7896 15.3051 15.672 15.2955 15.5545L15.2945 15.5481L15.293 15.5269L15.2888 15.4742C15.2881 15.4655 15.2875 15.4568 15.287 15.4481C15.2021 14.3726 15.4426 13.3142 15.8403 12.318C15.8749 12.2285 15.9107 12.1391 15.9476 12.0505L15.9868 11.9578V11.9578C16.3859 11.3142 16.9853 10.7935 17.493 10.2437C17.6682 10.054 17.3848 9.76923 17.209 9.95967C16.8717 10.325 16.5098 10.6749 16.1831 11.0504C16.1254 11.0546 16.0676 11.0562 16.01 11.0533C15.9096 11.0483 15.8122 11.0322 15.7178 11.0066C15.4823 10.9719 15.2679 10.877 15.0731 10.7375C14.8125 10.616 14.5901 10.387 14.568 10.0883C14.5655 10.0581 14.566 10.0285 14.568 9.99893C14.5439 9.85277 14.5655 9.69969 14.6267 9.55855C14.6373 9.51989 14.6508 9.48173 14.6679 9.44407C14.7176 9.3321 14.7995 9.22471 14.8994 9.15185C14.9019 9.15035 14.9039 9.14939 14.9059 9.14784C14.9164 9.13684 14.9265 9.12574 14.938 9.11575C14.9551 9.10014 14.9732 9.08563 14.9923 9.07207C14.9245 8.96056 14.8632 8.84613 14.811 8.72407C14.7543 8.59152 14.7252 8.45701 14.7091 8.31487C14.7026 8.25863 14.7 8.2029 14.699 8.14722C14.696 8.12156 14.694 8.09545 14.692 8.06934C14.6795 7.87051 14.7026 7.6642 14.7769 7.47838C14.7824 7.46437 14.7894 7.45026 14.7959 7.4357C14.81 7.39353 14.8256 7.3514 14.8447 7.31018C14.919 7.15202 15.0244 7.01796 15.1544 6.908C15.2247 6.83721 15.3036 6.77445 15.3894 6.72122C15.4401 6.68959 15.4979 6.66148 15.5586 6.63838C15.6671 6.58114 15.8062 6.52892 15.9191 6.52496C15.9327 6.5244 15.9447 6.52596 15.9578 6.52596C15.9683 6.23771 16.0055 5.9239 16.1195 5.66281C16.1857 5.47358 16.2852 5.30537 16.4348 5.18432C16.5216 5.09375 16.6285 5.02019 16.7619 4.97212L16.7857 4.9639L16.7948 4.96139C16.9148 4.90315 17.0443 4.88005 17.1774 4.8806C17.3325 4.87252 17.4907 4.90169 17.6257 4.97294C17.6539 4.988 17.684 5.00658 17.7126 5.02666C17.7342 4.98348 17.7583 4.9398 17.7859 4.89617C17.8828 4.74097 17.9998 4.60591 18.1354 4.4829C18.1514 4.46834 18.169 4.45528 18.1861 4.44127C18.2518 4.38152 18.3216 4.32629 18.3939 4.27608C18.5501 4.16758 18.7213 4.0868 18.9011 4.03453C19.1086 3.95785 19.3275 3.92224 19.5466 3.92973L19.5919 3.93165V3.93165C19.602 3.9326 19.612 3.93311 19.6216 3.93361C19.839 3.94772 20.0534 4.00094 20.2582 4.08122C20.4706 4.16512 20.6503 4.2921 20.8175 4.43771C20.8567 4.38353 20.9014 4.33227 20.9561 4.28407C20.9717 4.27056 20.9882 4.25846 21.0038 4.24591C21.0159 4.23386 21.0284 4.22231 21.0415 4.21076C21.1012 4.15804 21.1645 4.11235 21.2338 4.07168C21.3116 4.02604 21.3954 3.99441 21.4823 3.97483C21.5707 3.94465 21.6636 3.92608 21.758 3.92005ZM20.7262 24.6188C20.7351 24.6183 21.2001 24.7927 21.4318 24.9054L21.4431 24.911C21.7103 25.0436 21.8388 25.139 22.0788 25.3092C22.0949 25.3207 22.1114 25.3383 22.1114 25.3554C22.1114 25.6033 22.0512 25.9064 21.8428 25.7721C21.8127 25.7527 21.7823 25.7337 21.7518 25.7151L21.7057 25.6873L21.7042 25.6878C21.7047 25.6878 21.7052 25.6873 21.7057 25.6868C21.2519 25.4101 20.7724 25.1932 20.2662 25.0381C20.2316 25.0255 20.4882 24.6379 20.559 24.6595C20.5183 24.6434 20.7194 24.6192 20.7262 24.6188ZM25.4952 13.6689C25.1934 13.7012 24.8916 13.733 24.5898 13.7641C24.3975 13.7862 24.2046 13.8057 24.0118 13.8223C23.7221 13.844 23.4324 13.8474 23.1437 13.8078C23.0413 13.7937 22.9409 13.7736 22.8415 13.749C22.7737 13.7987 22.7034 13.8454 22.6316 13.8901L21.8343 14.5001V14.5001C21.2995 14.9204 20.7764 15.3657 20.3054 15.8573C19.4829 16.7161 18.8129 17.7208 18.3917 18.8336C18.3535 18.8562 18.324 18.8955 18.3142 18.9558C18.2397 19.412 18.0221 19.828 17.9435 20.2823C17.8661 20.7298 17.9691 21.1101 18.2501 21.4648C18.3101 21.5406 18.4331 21.5366 18.5085 21.4854C18.526 21.5198 18.6019 21.5184 18.6286 21.3663C18.7535 21.2309 18.8604 21.0891 18.9328 20.9135C18.9862 20.7841 18.8965 20.6945 18.7878 20.6768C18.833 20.5142 18.8839 20.3529 18.9412 20.1934C19.1109 19.7194 19.3268 19.2666 19.5985 18.8418C19.8375 18.4682 20.1141 18.1428 20.4113 17.8165C20.4149 17.8119 20.4209 17.8105 20.4274 17.8095L20.4892 17.7411V17.7411C20.4977 17.7316 20.5153 17.7326 20.5349 17.7376C20.5534 17.7181 20.5715 17.698 20.5906 17.6784C20.6092 17.6583 20.6298 17.6643 20.6413 17.6804C20.6729 17.6734 20.7307 17.7075 20.7482 17.7186C20.7784 17.7386 20.7879 17.7612 20.7623 17.7898C20.7578 17.7949 20.7533 17.7999 20.7487 17.8044C20.7834 17.819 20.8175 17.8386 20.8441 17.8577C20.937 17.8782 21.0676 17.9646 21.045 17.9902C20.9973 18.0399 20.9511 18.0907 20.9054 18.1423C20.9456 18.1705 20.9717 18.1981 20.9611 18.2102C20.7653 18.4165 20.5846 18.6349 20.4189 18.8663C20.2929 19.0391 20.1789 19.2188 20.077 19.4061C19.9253 19.6712 19.7968 19.9438 19.6828 20.224C19.6667 20.2667 19.6512 20.3093 19.6361 20.352C19.4694 20.8185 19.3449 21.3025 19.2922 21.7955L19.29 21.8288C19.2802 22.0064 19.2763 22.482 19.258 22.5954C19.369 22.6501 19.4845 22.6968 19.6045 22.735C19.6271 22.7415 19.6502 22.7476 19.6733 22.7531C19.6863 22.7476 19.6999 22.743 19.7134 22.739C19.8239 22.6943 19.9394 22.6622 20.0574 22.6466C20.1369 22.6361 20.216 22.6324 20.2951 22.6347L20.329 22.636C20.3641 22.637 20.3988 22.6396 20.4339 22.6431C20.4319 22.623 20.4309 22.6035 20.4294 22.5833C20.4194 22.5768 20.4118 22.5678 20.4113 22.5557C20.3877 22.3298 20.3872 22.1038 20.4098 21.8779C20.4249 21.7599 20.4425 21.6424 20.4616 21.525C20.4811 21.4285 20.5037 21.3337 20.5283 21.2387C20.5936 20.9727 20.6805 20.713 20.7859 20.459C21.0862 19.7345 21.5164 19.0812 21.9493 18.4315C22.2651 17.9571 22.5638 17.472 22.8907 17.0056C23.1688 16.6084 23.4611 16.2173 23.7729 15.8457C24.0841 15.4748 24.413 15.1177 24.768 14.7874C24.8252 14.7346 24.883 14.6834 24.9417 14.6327C25.2781 14.3315 25.6436 14.0839 26.0242 13.8409C26.0388 13.8314 26.0649 13.8419 26.0865 13.86L26.1479 13.8222C26.1582 13.816 26.1685 13.8098 26.1789 13.8037C26.1884 13.7978 26.199 13.8078 26.2045 13.8163C26.2306 13.8027 26.2567 13.7897 26.2828 13.7766C26.3018 13.7613 26.3215 13.7467 26.3406 13.7315C26.0584 13.7173 25.7766 13.6962 25.4952 13.6689ZM29.0348 10.3217C28.8068 10.2761 28.5779 10.2695 28.3479 10.3037C28.2516 10.3178 28.1557 10.3347 28.0606 10.3553C28.2765 10.5436 28.4502 10.7845 28.5629 11.0618C28.6847 11.3616 28.1988 11.4907 28.0787 11.1953C27.9629 10.9103 27.7436 10.6917 27.4788 10.5607C27.4216 10.5927 27.3661 10.6273 27.3131 10.6657C27.2438 10.7219 27.1785 10.7826 27.1173 10.8494C26.9837 10.9946 26.8612 11.1883 26.7809 11.3801C26.7498 11.4846 26.7267 11.592 26.7121 11.7025C26.7091 11.7276 26.7061 11.7532 26.7036 11.7788C26.6541 12.2984 26.8026 12.804 27.0582 13.2513L27.0683 13.2515V13.2515C27.2964 13.1278 27.5353 13.0235 27.7811 12.9386C27.9779 12.8061 28.1822 12.6836 28.3926 12.5726C28.8398 12.3367 29.3122 12.1548 29.799 12.0304L29.8552 12.0163C29.9698 11.987 30.0855 11.9612 30.2017 11.9386L30.2714 11.9255H30.2724L30.2649 11.8506V11.8506C30.2257 11.5569 30.1108 11.2842 29.9621 11.0322C29.8507 10.8419 29.6825 10.6471 29.4957 10.4915L29.4947 10.4909C29.4099 10.4427 29.3207 10.4029 29.229 10.3699L29.1944 10.3579L29.0348 10.3217ZM22.9143 9.87542C22.4403 9.83068 21.9663 9.8352 21.4923 9.87386C21.1826 9.90454 20.8748 9.94717 20.5685 10.0014C20.3611 10.037 20.1578 10.0873 19.958 10.1496L20.0723 10.3807C20.2633 10.7657 20.459 11.1481 20.6895 11.5117C20.8085 11.699 20.9375 11.8773 21.0781 12.0484C21.173 12.1709 21.2775 12.2845 21.3919 12.3888C21.4221 12.4255 21.4542 12.4602 21.4868 12.4938C21.5913 12.5832 21.7037 12.6615 21.8267 12.7262C21.9254 12.7981 22.0284 12.8609 22.1357 12.9159L22.1762 12.9362L22.5528 13.0807C22.5729 13.0864 22.5932 13.0921 22.6135 13.0975L22.6441 13.1054L22.7014 13.1174L22.7443 13.0941C22.7515 13.0902 22.7588 13.0864 22.7662 13.0827C22.7782 13.0763 22.7867 13.0888 22.7893 13.0978C22.7903 13.1014 22.7888 13.1063 22.7862 13.1114L22.8411 13.0817V13.0817C22.9355 13.12 23.0356 13.1506 23.143 13.1708C23.1916 13.1799 23.2403 13.1869 23.289 13.1928L23.2956 13.1972C23.2967 13.198 23.2978 13.1988 23.2989 13.1998H23.3522V13.1998C23.7276 13.236 24.1082 13.1881 24.483 13.1208C25.0133 13.0675 25.5435 13.0087 26.0734 12.9537C26.0835 12.9527 26.0875 12.9572 26.0875 12.9643L26.1201 12.9613V12.9613C26.1673 12.9562 26.2226 13.035 26.1869 13.0637C26.2155 13.0807 26.2431 13.1054 26.2637 13.1245L26.2758 13.1234C26.203 12.9808 26.1467 12.8317 26.1066 12.6766L26.0554 12.4165V12.4165C26.0413 12.3196 26.0333 12.2162 26.0318 12.1142C26.0282 12.0675 26.0257 12.0239 26.0257 11.9857C26.0257 11.9495 26.0262 11.9134 26.0277 11.8773C25.9278 11.836 25.8264 11.7999 25.723 11.7693C25.4293 11.7332 25.136 11.697 24.8423 11.6613C24.6661 11.6678 24.4898 11.6804 24.3141 11.7C24.1148 11.7175 23.9159 11.7401 23.7176 11.7673C23.699 11.7693 23.6659 11.7442 23.6458 11.715L23.561 11.7266V11.7266C23.5168 11.7322 23.4706 11.6437 23.5288 11.6257C23.5499 11.6173 23.571 11.6094 23.5921 11.6017L23.6237 11.5905L23.6057 11.5925C23.5996 11.5931 23.5921 11.5915 23.5836 11.5886C23.5369 11.5945 23.4902 11.6006 23.444 11.6061C23.3854 11.6134 23.3987 11.5362 23.4398 11.518L23.4595 11.5107C23.4248 11.489 23.3943 11.4298 23.4372 11.4105L23.443 11.4083C23.4631 11.4003 23.4826 11.3937 23.5027 11.3862C23.5012 11.3797 23.5012 11.3736 23.5032 11.3681L23.4204 11.3786V11.3786C23.4128 11.3796 23.4488 11.3268 23.4661 11.3163L23.4691 11.3149L23.5088 11.3028C23.5148 11.2857 23.5469 11.2481 23.558 11.2446C23.7036 11.1989 23.8391 11.1578 23.9807 11.1261C23.9877 11.1175 23.9958 11.111 24.0048 11.109C24.0932 11.0879 24.1826 11.0714 24.2719 11.0573C24.278 11.0483 24.284 11.0418 24.291 11.0412C24.5124 11.0131 24.7344 11.0066 24.9573 11.0217C25 11.0257 25.0426 11.0302 25.0853 11.0357C25.1672 11.0448 25.249 11.0563 25.3303 11.0719C25.5341 11.1069 25.7331 11.16 25.9269 11.2317L25.9715 11.2486C26.0202 11.2667 26.0684 11.2857 26.1161 11.3064C26.1402 11.2205 26.1703 11.1361 26.206 11.0533C26.2115 11.0372 26.2175 11.0217 26.2241 11.0061L26.1754 10.977V10.977C26.1648 10.997 26.1432 11.0126 26.1292 11.0041C25.7802 10.7686 25.4112 10.5723 25.0221 10.4156C24.8041 10.3192 24.5812 10.2374 24.3528 10.1691C24.2388 10.1325 24.1238 10.0994 24.0083 10.0677C23.9506 10.0556 23.8929 10.0436 23.8341 10.0335C23.5323 9.95219 23.2256 9.89952 22.9143 9.87542ZM34.4128 10.6724C34.3705 10.7456 34.3264 10.8181 34.2796 10.8896C34.0526 11.237 33.7805 11.563 33.4719 11.8472C33.5524 11.847 33.6327 11.8501 33.712 11.8575C33.8487 11.8704 33.9826 11.8931 34.1131 11.9249C34.1237 11.9164 34.1356 11.9122 34.1451 11.9189L34.1791 11.9424V11.9424C34.4591 12.018 34.722 12.1368 34.9602 12.296L34.9559 12.2645C34.9552 12.2593 34.9544 12.254 34.9534 12.2488C34.9575 12.1871 34.9585 12.1252 34.9564 12.064C34.9072 11.702 34.7842 11.3686 34.6436 11.0312C34.641 11.0247 34.6429 11.0162 34.647 11.0076C34.576 10.8917 34.4983 10.7796 34.4128 10.6724ZM34.4775 7.82633C34.3725 7.84541 34.2686 7.87001 34.1652 7.90064C33.9708 7.92981 33.7826 7.98102 33.6008 8.05378C33.3503 8.14265 33.1072 8.24608 32.8652 8.35558C32.3953 8.56842 31.9544 8.83759 31.5533 9.16194C31.5277 9.18148 31.5031 9.20161 31.4785 9.22169C31.3886 9.29947 31.3012 9.38081 31.2184 9.46666C31.1315 9.56106 31.0441 9.6555 30.9573 9.75035C30.8508 9.86186 30.7283 9.96273 30.6319 10.0832C30.6123 10.1078 30.5953 10.1349 30.5797 10.1621L30.6364 10.1816V10.1816C30.6841 10.1977 30.6761 10.2871 30.6289 10.274C30.6128 10.2695 30.5978 10.264 30.5827 10.258C30.5893 10.2665 30.5938 10.2751 30.5948 10.2826C30.5978 10.3067 30.5792 10.3399 30.5496 10.3313C30.536 10.3278 30.5225 10.3227 30.5089 10.3172C30.5049 10.3328 30.5019 10.3483 30.5019 10.3634C30.5044 10.3644 30.5069 10.3654 30.5099 10.366C30.5431 10.3775 30.6053 10.4292 30.6144 10.4644C30.6214 10.4915 30.5983 10.5206 30.5687 10.5125C30.5466 10.5065 30.525 10.4975 30.5039 10.4874C30.518 10.501 30.529 10.5156 30.53 10.5281C30.532 10.5512 30.5119 10.5838 30.4843 10.5763C30.4331 10.5622 30.3919 10.5407 30.3578 10.5136C30.3487 10.5256 30.3357 10.5351 30.3252 10.5322L30.3056 10.5261V10.5261C30.3109 10.5311 30.3158 10.5364 30.3206 10.5415L30.3277 10.5492C30.4662 10.6988 30.5872 10.8645 30.6841 11.0428C30.6887 11.0377 30.6942 11.0332 30.7012 11.0277C30.7464 10.9895 30.7931 10.9524 30.8398 10.9163L30.8539 10.9039V10.9039L30.8684 10.8916L30.7635 10.9262L30.7658 10.9235C30.7732 10.914 30.7963 10.8824 30.8071 10.8718L30.8097 10.8695C30.9538 10.7405 31.1109 10.631 31.2806 10.5417C31.3906 10.4703 31.5061 10.4101 31.6271 10.3604C31.9158 10.2263 32.21 10.1245 32.5123 10.0301C32.5575 10.0155 32.6026 9.99994 32.6478 9.98583C32.6609 9.98131 32.6634 9.98683 32.6614 9.99587L32.685 9.98884V9.98884C32.7272 9.97528 32.799 10.0496 32.7703 10.0842C32.7876 10.0983 32.8046 10.114 32.8194 10.1287L32.8301 10.1395L32.8421 10.136C32.878 10.1249 32.9385 10.1808 32.977 10.2204L33.0053 10.2504C33.0269 10.2735 33.0691 10.3212 33.0174 10.3399L32.9526 10.3619V10.3619C32.9546 10.3749 32.9491 10.386 32.929 10.3935C32.9064 10.4011 32.8843 10.4091 32.8622 10.4172C32.8756 10.4289 32.8888 10.441 32.9017 10.4533L32.921 10.4719C32.9437 10.4951 32.9976 10.5462 32.95 10.5688L32.9441 10.5713L32.8823 10.5934C32.8903 10.6114 32.8883 10.6286 32.8612 10.6385C32.5007 10.7611 32.1487 10.9047 31.8048 11.0679C31.5472 11.2104 31.2751 11.3169 30.9884 11.3867C30.9648 11.3942 30.9136 11.3586 30.8925 11.323L30.8497 11.3355C30.8426 11.3376 30.8354 11.3396 30.8282 11.3415L30.8212 11.343V11.343C30.8749 11.4861 30.9146 11.6412 30.9367 11.7914C30.9392 11.8049 30.9412 11.819 30.9427 11.8326C30.999 11.828 31.0547 11.824 31.1109 11.821C31.5 11.8004 31.8937 11.8129 32.2838 11.8591C32.4415 11.7652 32.5931 11.6623 32.7382 11.5509C32.7824 11.5167 32.8261 11.4816 32.8693 11.4459C33.1283 11.221 33.3628 10.9685 33.5707 10.6958C33.763 10.4432 33.9302 10.1721 34.0708 9.88797C34.1953 9.62131 34.2982 9.34415 34.376 9.05796C34.4473 8.79637 34.4719 8.54181 34.49 8.27118C34.496 8.227 34.5 8.18286 34.5036 8.13863L34.5032 8.1197V8.1197L34.5026 8.11051C34.4975 8.01567 34.488 7.92072 34.4775 7.82633ZM30.7986 11.1888C30.7871 11.1929 30.775 11.1969 30.763 11.2004C30.77 11.216 30.7765 11.2311 30.7831 11.2466L30.7838 11.2463V11.2463L30.8313 11.2089V11.2089C30.8212 11.2044 30.8097 11.1974 30.7986 11.1888ZM34.4072 7.11438C34.4975 7.08074 34.5658 7.07421 34.612 7.0953C34.5437 7.10032 34.4754 7.10685 34.4072 7.11438Z" fill="black"/>
<path fill-rule="evenodd" clip-rule="evenodd" d="M27.6567 27.8579C28.0584 27.0546 31.7432 27.4157 31.7432 27.4157L32.0545 29.9692C32.0545 29.9692 30.2765 30.5407 29.2182 30.421C28.1599 30.3012 27.2549 28.6613 27.6567 27.8579Z" fill="white"/>
<path fill-rule="evenodd" clip-rule="evenodd" d="M27.9161 29.1992C27.7888 28.9269 30.4231 28.1843 31.2387 28.6917C32.0543 29.1992 31.7993 29.8914 31.7993 29.8914C31.7993 29.8914 28.3688 30.6738 27.9161 29.1992Z" fill="#FF8181"/>
<path fill-rule="evenodd" clip-rule="evenodd" d="M27.4281 27.3827C28.043 26.6682 29.0785 26.6185 29.9364 26.7971C30.4869 26.9118 31.0228 27.1028 31.582 27.1736C31.8431 27.2067 32.1071 27.2166 32.3701 27.2117C32.6285 27.2069 32.8873 27.1549 33.1447 27.1646C33.1843 27.166 33.1993 27.218 33.165 27.2391C32.8117 27.4561 32.3359 27.5257 31.9187 27.5681C31.92 27.599 31.9218 27.6291 31.9261 27.6547C31.9375 27.7228 31.9479 27.7905 31.9563 27.8591C31.9752 28.0138 31.9964 28.1679 32.0175 28.3223C32.0592 28.6262 32.0723 28.9396 32.1456 29.2382L32.1584 29.2879C32.1753 29.3506 32.1792 29.4072 32.1735 29.4582L32.1905 29.4505L32.2441 29.4246L32.2792 29.408C32.4075 29.3485 32.5298 29.3053 32.6806 29.3197C32.7954 29.3306 32.8917 29.4089 32.8924 29.5315C32.8953 30.0815 32.154 30.2584 31.73 30.3637L31.6056 30.3943C31.0659 30.526 30.5148 30.6414 29.9598 30.669C29.0689 30.7132 28.0679 30.4675 27.4852 29.7449C26.9415 29.0708 26.8418 28.064 27.4281 27.3827ZM31.4735 29.6938C31.38 28.8656 30.3624 28.8201 30.0696 29.3453C29.9397 28.6132 28.0179 29.282 28.1682 29.4275C28.7378 29.9791 29.6021 30.0287 30.3452 29.9267C30.7236 29.8748 31.1023 29.7902 31.4735 29.6938ZM30.3441 27.5232L30.0883 27.4864L29.9875 27.4725C29.3532 27.3876 28.6399 27.3437 28.1184 27.7504C27.928 27.8988 27.8209 28.0924 27.7809 28.3003C28.2743 28.2272 28.7696 28.1714 29.2663 28.125L29.4018 28.1125C29.7126 28.0845 30.0232 28.055 30.3337 28.024L30.5544 28.0017L30.775 27.9788C30.8526 27.9706 31.3757 27.9439 31.4741 27.9618C31.4846 27.8735 31.4983 27.6822 31.5205 27.5962C31.1488 27.6088 30.7788 27.5812 30.4093 27.5321L30.3441 27.5232ZM31.5218 23.8218C31.901 24.0522 32.4787 24.5896 32.0708 25.161C31.5907 25.6647 30.8995 25.0871 30.5588 24.8259C30.243 24.6234 29.8881 25.1441 30.1811 25.3805C32.6426 27.2029 33.6415 23.882 31.7136 23.5508C31.5013 23.5143 31.4225 23.7505 31.5218 23.8218ZM32.2004 24.7926L32.2186 24.7827L32.2247 24.779C32.2354 24.7721 32.2286 24.7728 32.2044 24.7812L32.1862 24.7878V24.8006C32.1909 24.7978 32.1958 24.7956 32.2004 24.7926ZM27.3446 22.7451L27.3445 22.7338C27.3452 22.4136 27.5317 21.6826 27.9926 21.6826C28.2806 21.6826 28.4554 22.1801 28.4857 22.693L28.4867 22.7139C28.5001 23.0327 28.4126 23.7297 27.9926 23.7297C27.5682 23.7297 27.3489 23.0696 27.3446 22.7451V22.7451ZM34.1306 22.6447L34.1307 22.6334C34.13 22.3132 33.9435 21.5822 33.4826 21.5822C33.2018 21.5822 33.0286 22.0551 32.9921 22.5541L32.9895 22.5926C32.9714 22.9006 33.0532 23.6293 33.4826 23.6293C33.907 23.6293 34.1263 22.9692 34.1306 22.6447V22.6447ZM27.6076 19.4996C27.9837 19.4424 28.4819 19.5511 28.6572 19.9336C28.7354 20.104 28.6428 20.2924 28.4459 20.3019C27.9698 20.3247 27.5429 20.2187 27.1251 20.5283C26.9452 20.6615 26.7941 20.846 26.6672 21.03L26.6192 21.1L26.5794 21.1577C26.4933 21.2844 26.4117 21.422 26.4244 21.5748C26.4282 21.62 26.382 21.6629 26.338 21.6611C26.0642 21.6499 26.0347 21.3066 26.0707 21.1004C26.1377 20.7177 26.3229 20.3584 26.5796 20.0691C26.8493 19.7652 27.2052 19.5608 27.6076 19.4996ZM32.7886 19.9641C33.048 19.7973 33.3798 19.7333 33.6836 19.7578C34.2828 19.8061 35.2879 20.3154 35.1556 21.0472C35.1148 21.2729 34.8009 21.392 34.6159 21.2668C34.417 21.1322 34.3686 20.9229 34.2206 20.747C34.1025 20.6065 33.9529 20.5048 33.7926 20.4182C33.6346 20.3328 33.4519 20.281 33.2726 20.2621L33.2428 20.2593C33.1349 20.2501 32.59 20.2525 32.67 20.4559C32.6856 20.4958 32.6264 20.5273 32.5992 20.4972C32.4321 20.3124 32.6213 20.0716 32.7886 19.9641Z" fill="black"/>
<path fill-rule="evenodd" clip-rule="evenodd" d="M36.7179 24.1559C36.257 24.7317 34.4527 25.3709 33.4923 24.6771C32.532 23.9832 32.1525 23.4996 32.0241 22.6326C32.0104 22.5401 31.8433 22.4786 31.7726 22.5443C31.3769 22.9118 31.1208 23.3799 30.867 23.8493C30.5808 24.3786 30.2989 24.9111 29.7787 25.2695C28.8575 25.7633 27.1909 25.8336 26.6985 25.6158C25.7552 25.1985 25.0091 24.3061 24.8394 23.078C24.8394 23.078 24.6668 22.5332 24.5157 22.4186C24.3723 22.3099 23.5814 22.2131 23.4948 22.1971C21.9333 21.9073 19.9585 21.7226 18.5677 22.7419C18.3795 22.8557 17.7352 23.2831 17.7257 23.178C17.7189 22.7664 18.1854 21.8346 19.2464 21.3912C20.5585 20.843 22.5089 20.8109 23.6388 20.9319C23.6956 20.938 23.8893 20.8904 23.903 20.8845C25.6148 20.1433 27.5845 20.3402 29.4161 20.6517C29.6786 20.7026 32.0282 21.2844 32.9628 20.9319C34.508 20.3011 36.1556 19.8441 37.8242 20.0239C37.8382 20.0254 38.0489 21.304 37.8848 21.3912C37.7542 21.4607 37.5319 21.6385 37.453 21.7359C37.3824 21.8229 37.338 21.9311 37.3419 22.081C37.3736 22.9481 37.1262 23.6457 36.7179 24.1559ZM30.3645 23.3822C30.5604 23.0988 30.6222 22.4621 30.5402 21.9976C30.4987 21.7624 30.418 21.5752 30.3168 21.482C30.2495 21.4201 30.1728 21.3909 30.089 21.3952C30.0432 21.3976 29.9934 21.4107 29.9408 21.439C29.2282 21.0536 28.3649 20.9148 27.5465 20.9547C26.8951 20.9546 26.4303 21.1083 26.1151 21.3477C25.7358 21.6357 25.5649 22.0497 25.555 22.4987C25.5433 23.0315 25.7622 23.6144 26.1212 24.0756C26.4649 24.5171 26.935 24.8444 27.4449 24.9199C28.0239 25.0348 28.6139 24.9236 29.1268 24.6516C29.6529 24.3727 30.0973 23.9247 30.3645 23.3822ZM36.0772 23.6828C36.4074 23.2926 36.627 22.785 36.6604 22.282C36.6908 21.8243 36.5683 21.3709 36.2294 20.9962C35.9221 20.7324 35.3792 20.7281 34.8081 20.8749C34.0696 21.0648 33.3057 21.4892 33.051 21.7632C32.991 21.7947 32.9353 21.8495 32.8868 21.967L32.8865 22.0088C32.8093 22.3647 32.8551 22.7257 32.9886 23.0588C33.1335 23.4206 33.3821 23.7491 33.6853 23.9997C34.0881 24.3315 34.5085 24.4331 34.902 24.3795C35.3478 24.3188 35.7623 24.055 36.0772 23.6828Z" fill="white"/>
<path fill-rule="evenodd" clip-rule="evenodd" d="M32.9098 20.7911C34.4746 20.1523 36.1472 19.6918 37.8405 19.8743C37.9806 19.821 38.1544 19.8659 38.2165 20.0639C38.8196 21.9013 37.4746 21.3903 37.4927 22.0772C37.6336 25.9284 32.4573 26.5861 31.8753 22.6548L31.8646 22.6611V22.6611C31.0272 23.4425 30.8508 24.7141 29.8644 25.3937C27.8744 26.849 25.0536 25.6959 24.6913 23.1051L24.6834 23.0701C24.5617 22.5413 24.4163 22.4102 23.8165 22.4128L23.7218 22.394C22.1633 22.087 20.088 21.811 18.6526 22.867C18.3404 23.0485 18.3257 23.5153 18.0619 23.7181C17.7729 23.7742 17.5949 23.4266 17.5753 23.1861C17.5295 20.7879 21.8209 20.6154 23.7428 20.8212C23.7795 20.7832 23.8579 20.7879 23.8843 20.8353C25.6224 20.0827 27.5807 20.1869 29.4417 20.5033C30.5946 20.7265 31.7332 21.2349 32.9098 20.7911ZM37.6848 20.317C36.7458 20.2701 35.8773 20.3214 34.9556 20.5471C34.4699 20.6643 34.0972 20.8125 33.6322 20.9907C30.7322 22.2755 30.3977 19.9917 23.8973 20.8869C23.9814 21.2471 23.9968 21.6038 24.0013 21.9422C25.3286 21.8887 25.0161 23.1561 25.5134 24.0463L25.5287 24.0731C26.2534 25.3719 27.9635 25.9777 29.343 25.1163C30.4939 24.4455 30.6062 22.7441 31.7521 22.0689C32.7454 22.0298 32.3486 23.3704 32.8892 23.9214C33.65 24.9367 35.2673 25.0786 36.2214 24.1237C36.669 23.6642 36.9069 23.0807 36.9201 22.4539C36.945 22.0534 36.8763 21.6465 37.1791 21.3648C37.3913 21.1492 37.7684 21.2212 37.8117 20.8953C37.8392 20.7026 37.7591 20.4935 37.6848 20.317ZM27.4802 20.8419C28.4129 20.796 29.3999 20.9579 30.2007 21.4154C30.7936 20.9436 30.9388 22.8185 30.5453 23.3609C29.9784 24.5208 28.6586 25.2834 27.3877 25.0302C25.4052 24.7429 24.0238 20.8384 27.4802 20.8419ZM30.1438 21.5411L30.0931 21.5337C29.2339 21.4026 26.8944 20.7952 25.9921 21.7539C25.1164 23.3439 27.338 26.0148 29.6498 23.8874C30.2933 23.2323 30.5427 22.438 30.1438 21.5411ZM32.8666 21.7443C33.3116 21.2175 35.5793 20.1504 36.3697 20.8352C37.8124 22.4519 35.5245 25.7222 33.6082 24.1289C32.97 23.5964 32.5501 22.7478 32.7338 21.9262L32.7341 21.8917C32.7345 21.8792 32.7368 21.8821 32.7502 21.8665C32.7738 21.8044 32.8164 21.7647 32.8666 21.7443ZM36.3496 22.7243C36.8361 20.0854 34.8027 21.0886 33.1327 21.7929C33.2224 21.8748 33.222 21.9867 33.1962 22.0785C33.0201 24.0365 35.3998 25.146 36.3496 22.7243ZM23.7091 20.9494C23.0125 21.1853 18.4053 20.7635 17.9796 22.9232C18.4289 22.1953 19.3594 21.9064 20.1959 21.7497C21.3337 21.5364 22.4652 21.6599 23.5871 21.8843L23.6102 21.6521C23.6351 21.4059 23.6613 21.1755 23.7091 20.9494Z" fill="black"/>
</svg>
