<svg width="48" height="48" viewBox="0 0 48 48" fill="none" xmlns="http://www.w3.org/2000/svg">
<ellipse cx="24" cy="24" rx="24" ry="24" fill="#E2C1FF"/>
<mask id="mask0_3272_92625" style="mask-type:alpha" maskUnits="userSpaceOnUse" x="0" y="0" width="48" height="48">
<ellipse cx="24" cy="24" rx="24" ry="24" fill="#E2C1FF"/>
</mask>
<g mask="url(#mask0_3272_92625)">
<path fill-rule="evenodd" clip-rule="evenodd" d="M39.0142 44.4136C39.0142 44.0588 38.5233 43.4292 38.5225 43.1079C38.9352 43.0341 39.2802 42.4748 39.1887 42.1246C39.0277 42.0015 38.6055 41.759 38.4309 41.6459C37.3671 41.6781 37.7714 40.1977 37.651 39.4452C37.5298 38.709 37.4398 37.9392 37.2624 37.1988C36.9473 36.6064 36.7994 35.9422 36.4983 35.3528C36.3638 35.1574 36.1464 34.9783 36.0813 34.7514C35.4224 34.0315 34.5154 33.6001 33.769 32.9904C34.0587 32.8976 34.0393 32.5068 34.0206 32.2558C34.088 31.9284 34.016 31.5177 33.7175 31.3333C33.6166 31.0045 33.1756 30.8897 32.9177 31.0992C32.7484 30.3397 32.0857 29.879 31.3915 29.5972C31.3921 29.595 31.3927 29.5928 31.3933 29.5905C30.6932 29.3126 29.854 29.174 29.1555 29.3303C29.5242 25.2204 26.3774 25.0696 24.7804 25.4149C23.9635 25.5916 22.7378 26.1416 22.4594 26.9062C22.3022 27.3379 21.8511 28.73 21.7868 29.174C20.5673 28.4779 19.1535 27.56 18.0957 28.9614C17.8839 29.2057 17.6495 29.3871 17.3326 29.471C16.343 29.7278 15.0296 29.7364 14.4671 30.7455C14.1309 31.3707 14.4333 31.7826 14.3429 32.4079C9.88838 35.5371 6.16578 47.0647 7.00162 52.4276C7.2027 54.3468 8.18439 57.7439 10.6075 57.3203C11.8433 58.6725 32.5871 58.6725 34.7261 57.3203C36.4868 57.781 38.2758 57.0679 39.0142 55.3811C39.9518 53.0681 38.9582 50.5701 38.7821 48.1973C38.6752 47.5982 38.516 47.1227 38.4309 46.5094C38.3955 46.2539 38.5177 45.8287 38.4309 45.5931C38.4719 45.4398 39.0142 44.7683 39.0142 44.4136Z" fill="white"/>
<path fill-rule="evenodd" clip-rule="evenodd" d="M21.4884 28.8907L21.5616 28.9221L21.8128 29.031L21.7601 29.1518C21.6119 29.4918 21.4453 29.8189 21.2627 30.1268L21.2283 30.1844L21.1755 30.2717L21.1782 30.2747C21.201 30.2999 21.2242 30.3261 21.2479 30.3532L24.0124 33.3245C25.1785 34.5767 25.7942 35.2356 25.8593 35.3011C26.1312 35.5743 26.3984 35.6084 26.643 35.378L26.6706 35.3518L26.7159 35.3082L26.7468 35.2778C26.9065 35.1201 27.0651 34.9457 27.2932 34.6825L29.8467 31.0593L29.6854 30.6989C29.3894 30.0333 29.2277 29.6441 29.2005 29.5314L29.1882 29.4761L29.1627 29.3571L29.2792 29.3224C29.6996 29.1971 30.165 29.23 30.6929 29.3862L30.7234 29.3953L30.8114 29.4225C31.169 29.5337 31.3716 29.6085 31.579 29.7193C31.8612 29.8701 32.0696 30.0573 32.1997 30.3013C32.3492 30.5822 32.4637 30.7233 32.6565 30.8374L32.6716 30.8462L32.6903 30.8568L32.7101 30.8674C32.7271 30.8764 32.7461 30.886 32.7688 30.8972L32.8498 30.9363C33.1053 31.0588 33.2226 31.1373 33.3232 31.292C33.4342 31.4627 33.453 31.6226 33.4187 31.8539L33.4157 31.8739L33.4103 31.9066L33.3894 32.0268L33.3845 32.0573C33.3709 32.1432 33.3686 32.2189 33.3784 32.2825L33.3808 32.2969L33.4368 32.5946L33.3257 32.524L33.6329 32.7745C34.0628 33.1265 34.319 33.3449 34.5869 33.5912L34.661 33.6598L34.6755 33.6733C35.1583 34.1237 35.5504 34.558 35.8786 35.0216C36.2345 35.5242 36.5361 36.0739 36.7797 36.6594L36.8072 36.7265L36.8095 36.7352C37.1743 38.1653 37.4673 39.614 37.6878 41.0766L37.709 41.2182L37.816 41.9442L37.4636 41.3006C37.4087 41.2004 37.2568 41.1012 37.0674 41.0273L37.0495 41.0204L37.0366 41.0156L37.0095 41.0059C36.8016 40.9335 36.592 40.9267 36.3957 40.9876L36.3754 40.9941L36.3158 41.0141L36.2628 40.9803C36.1651 40.9179 36.0557 40.8651 35.9355 40.8217L35.9052 40.811L35.7784 40.7675L35.8244 40.6415C35.8592 40.5463 35.7954 40.3594 35.7035 40.2791C35.5604 40.1549 35.3547 40.1201 35.0352 40.1437L34.992 40.1471L34.9577 40.1502L34.9062 40.1553L34.7441 40.1727L34.7441 40.1735C34.7421 40.2015 34.7408 40.2272 34.7403 40.2515L34.74 40.2695L34.74 40.287C34.7407 40.3474 34.7459 40.4032 34.756 40.4552L34.7606 40.4773L34.7971 40.6405L34.6299 40.6375L34.557 40.6364C34.3129 40.6335 34.0566 40.6373 33.7547 40.6473L33.4568 40.6584L32.6969 40.6905L32.0302 40.7139L31.8316 40.7206L31.8221 40.5948C31.8096 40.4289 31.6678 40.3187 31.4166 40.2698L31.4004 40.2667L31.1379 40.2192L31.3535 40.0236L31.371 40.0072L31.389 39.9896C31.5623 39.817 31.6205 39.6588 31.5492 39.506C31.4657 39.3269 31.2081 39.2745 30.9716 39.3718L30.9553 39.3787L30.9386 39.3862C30.8941 39.4067 30.8499 39.4326 30.7795 39.4781L30.6895 39.5366L30.6568 39.5575C30.5789 39.6066 30.5273 39.6344 30.4621 39.6613C30.2896 39.7327 30.1286 39.7377 29.8643 39.7047L29.8407 39.7017L29.7846 39.6943L29.6415 39.6743L29.6061 39.6696L29.5701 39.6652C29.3 39.633 29.129 39.6504 28.9847 39.7427C28.8923 39.8017 28.84 39.8772 28.7593 40.0536L28.7209 40.1386L28.704 40.1752C28.6069 40.3819 28.5332 40.4812 28.3882 40.5673C28.2956 40.6224 28.2079 40.6553 28.053 40.7003L27.9427 40.7322L27.9035 40.744C27.8799 40.7514 27.8602 40.758 27.8395 40.7654C27.6708 40.8254 27.5182 40.9116 27.3748 41.0271L27.3525 41.0452L27.3284 41.0654C27.1888 41.1832 27.0695 41.3109 26.8657 41.5504L26.7173 41.7255L26.6646 41.787L26.621 41.8369C26.6163 41.8422 26.6117 41.8474 26.607 41.8526L26.5656 41.8988C26.2424 42.2537 25.9191 42.5808 25.5898 42.8842L25.5206 42.9474L25.4495 43.0115L25.3909 43.0634C25.1993 43.2321 24.9925 43.4029 24.6712 43.661L24.2729 43.9801L24.1476 44.0812C23.7713 44.3861 23.542 44.5828 23.3085 44.8049L23.2505 44.8604L23.2464 44.8842C23.2442 44.8975 23.2417 44.9128 23.2391 44.93C23.2391 44.93 23.011 46.3371 23.2181 47.4911C23.4251 48.645 23.4984 48.1758 23.7079 48.4591L23.7565 48.5242C23.8713 48.6771 23.9599 48.7853 24.056 48.8858L24.1695 49.003L24.3 49.1088L24.3824 49.1586C24.442 49.1946 24.5013 49.2229 24.5609 49.2432C24.643 49.2714 24.7527 49.2157 24.8066 49.1177L24.8116 49.1081L24.8468 49.0376L24.9255 49.0353C24.9439 49.0348 24.9627 49.032 24.9811 49.0268C25.1674 48.9755 25.2601 48.7536 25.1691 48.5812L25.164 48.572L25.1168 48.4882L25.0926 48.446C25.0579 48.3865 25.0257 48.3361 24.9932 48.2918L24.981 48.2754L24.7998 48.037L25.2559 48.0796L25.2932 48.0833L25.3445 48.0887L25.5087 48.1074C25.6797 48.1266 25.8448 48.144 26.0058 48.1598L26.1429 48.1729L26.3827 48.1948L26.432 48.1997L26.5385 48.2109L26.7937 48.2386L26.8846 48.2479L26.9352 48.2528C26.9839 48.2574 27.0276 48.2611 27.0715 48.2644L27.1197 48.2679C27.4872 48.2929 27.7741 48.2763 28.0344 48.203C28.458 48.083 28.8838 47.8355 29.3449 47.4694C29.8161 47.0952 30.1569 46.7427 30.3619 46.3771C30.3658 46.3702 30.3664 46.3648 30.3637 46.3581L30.3617 46.3539L30.2838 46.211L30.4399 46.1649C30.5647 46.128 30.6706 46.0811 30.7596 46.021C31.0335 45.8367 31.1252 45.4677 30.9266 45.2749L30.9177 45.2666L30.9057 45.2557L30.7379 45.0042L30.9806 44.9684C31.0617 44.9559 31.133 44.9418 31.1996 44.9244C31.643 44.8091 31.8709 44.4554 31.6745 44.1151L31.668 44.104L31.5887 43.9729L31.7303 43.9144C31.7606 43.9018 31.792 43.89 31.8267 43.8778L31.848 43.8705L31.8692 43.8633L31.9488 43.8369C32.117 43.7814 32.2817 43.7392 32.4459 43.7103C32.5757 43.688 32.7056 43.6736 32.8355 43.6671L32.8843 43.6651L32.9386 43.6632L32.939 43.6616L32.9708 43.6621L33.082 43.6582L33.0798 43.6639C33.2448 43.668 33.4105 43.6841 33.5764 43.712L33.6156 43.7187C33.6732 43.7288 33.7279 43.7393 33.7864 43.7512L34.0395 43.8049C34.0855 43.8144 34.1257 43.8222 34.1655 43.8294L34.2041 43.8361L34.6117 43.905L34.2391 44.0843L34.2295 44.0891L34.22 44.0941L34.1788 44.1168C33.9256 44.2599 33.7758 44.4231 33.7406 44.6245C33.6858 44.9386 33.8644 45.0833 34.2856 45.1321L34.3207 45.1359L34.3579 45.1394L34.3822 45.1413L35.4369 45.2128L34.4383 45.4044C34.1965 45.4508 33.9521 45.5135 33.7054 45.5918C33.6862 45.5978 33.6655 45.6053 33.6431 45.6142L33.6259 45.6212L33.5244 45.6633L33.427 45.7337C33.2561 45.8605 33.2084 45.9863 33.2937 46.1112L33.2996 46.1196L33.3525 46.1919L33.3044 46.2676C33.1665 46.485 33.1845 46.7619 33.3494 46.987C33.487 47.1748 33.7097 47.2943 34.0135 47.3628L34.037 47.368L34.1037 47.3822L34.2011 47.3975L34.2717 47.4072L34.3258 47.4136L34.3624 47.4173L34.4186 47.4226L34.5718 47.4355C34.7896 47.4541 34.9015 47.4691 35.0357 47.5026C35.2158 47.5475 35.3745 47.6207 35.5857 47.7456L35.6103 47.7602L35.6623 47.7916L35.7631 47.8536L35.8607 47.9143L35.8937 47.9345L35.9344 47.9591C36.2349 48.1385 36.4329 48.2059 36.6414 48.1744C36.7739 48.1545 36.885 48.106 36.9836 48.029L36.999 48.0166L37.1503 47.8921L37.1458 47.8668L37.1787 47.8216C37.2417 47.7349 37.5102 47.2293 37.5103 47.229C37.6836 46.9247 37.8506 46.7145 38.0616 46.5755L38.0798 46.5638L38.1212 46.5384L38.1686 46.5283L38.1924 46.5321C38.2619 46.5429 38.2825 46.5738 38.3021 46.626C38.3071 46.6393 38.3111 46.6541 38.3151 46.6719L38.3187 46.6896L38.3224 46.7098L38.3282 46.7448L38.3343 46.7857L38.3411 46.8362L38.3485 46.8945C38.3543 46.9415 38.3607 46.9961 38.3679 47.0603L38.4474 47.793L38.4692 47.9876L38.4894 48.1611C38.4911 48.1751 38.4927 48.1891 38.4944 48.2031L38.5116 48.3436L38.5303 48.4906C38.5786 48.861 38.6263 49.1589 38.6758 49.3849L38.6849 49.4256L38.691 49.452L38.7068 49.5195C38.9905 50.7345 39.1343 51.7377 39.1414 52.7428C39.1479 53.8232 38.9123 54.7875 38.4014 55.5823C37.9143 56.3407 37.2034 56.8911 36.4024 57.0811C35.9801 57.1808 35.5612 57.159 35.2236 56.991C35.162 56.9604 35.1183 56.9289 35.0384 56.8621L35.0118 56.8397C34.9063 56.7504 34.8598 56.7193 34.8036 56.7062C34.7967 56.7046 34.79 56.7033 34.7835 56.7025L34.7739 56.7015L34.6545 56.6924L34.6524 56.5727C34.6479 56.3175 34.5262 56.2178 34.5376 56.6158C34.5376 56.6158 34.5596 57.1894 34.5656 57.2618L34.5698 57.3093L34.5714 57.3261L34.5009 57.5722C31.4241 58.7475 13.5875 58.7679 10.8356 57.6182L10.7568 57.583L10.2702 57.3494C10.2702 57.3494 11.2454 57.1222 10.5786 57.2065C9.86335 57.2969 9.03067 56.8585 8.57935 56.1203L8.41482 55.8488L8.36447 55.7644L8.33656 55.717C8.26948 55.6023 8.2217 55.5144 8.17111 55.4134C7.96703 55.0058 7.79757 54.5671 7.65824 54.0952C7.39895 53.2171 7.26313 52.2659 7.22258 51.1901C7.14918 49.2441 7.34995 47.1902 7.79329 45.0503C8.22328 42.9746 8.87489 40.9571 9.73466 39.0493C10.1644 38.0956 10.6382 37.1835 11.1575 36.314L11.2134 36.221L11.2741 36.1205L11.3365 36.0181L11.3993 35.9161L11.4564 35.8239L11.514 35.7319L11.5722 35.64C12.1027 34.806 12.5745 34.1906 13.1197 33.6596C13.6043 33.1878 14.1147 32.7091 14.6511 32.2235L14.6396 32.0202L14.6391 32.0165C14.6277 31.9496 14.4258 31.3781 14.6298 30.9328L14.6531 30.8828C14.8377 30.4918 14.8646 30.5924 15.0412 30.4691L15.0485 30.4639C15.4359 30.1864 15.9295 29.9961 16.5149 29.8692C16.665 29.8366 16.8063 29.8221 17.0054 29.8141L17.0329 29.8131L17.0689 29.8119L17.2238 29.8072C17.5154 29.7978 17.7341 29.6949 17.9027 29.482L17.9152 29.466L17.9278 29.4493L17.9397 29.433C17.9809 29.3755 18.0202 29.3098 18.0837 29.1969L18.1272 29.1197L18.1481 29.0832L18.1695 29.0465C18.2423 28.923 18.294 28.8504 18.367 28.7709C18.5877 28.5309 18.9301 28.39 19.291 28.3665C19.9311 28.3247 20.5612 28.4964 21.4884 28.8907ZM29.8885 41.2386L29.8364 41.4953C29.8315 41.5195 29.8287 41.5433 29.8283 41.5665L29.8284 41.5838L29.8321 41.7008L29.7163 41.718C29.6226 41.7319 29.5297 41.7464 29.4377 41.7615L29.346 41.7768L28.4814 41.9235L29.2719 41.5262L29.2879 41.5184L29.2923 41.5162L29.3227 41.5017L29.4177 41.4575L29.6516 41.3501L29.8885 41.2386Z" fill="#1D1D1D"/>
<path fill-rule="evenodd" clip-rule="evenodd" d="M29.2087 28.0023C29.2577 28.2121 29.213 28.4487 29.2212 28.6641C29.229 28.8699 29.2532 29.0746 29.289 29.2774C29.6651 29.0795 30.1096 29.0541 30.5382 29.1178C31.0926 29.2002 31.7342 29.3826 32.1687 29.7531C32.276 29.8446 32.3649 29.953 32.4393 30.0724C32.5286 30.2158 32.5856 30.3777 32.7272 30.4805C32.9463 30.6394 33.2178 30.7009 33.4284 30.877C33.6431 31.0565 33.7764 31.3249 33.8046 31.6019C33.8196 31.7493 33.7953 31.8871 33.7673 32.0309C33.7422 32.1603 33.7546 32.2134 33.7886 32.3379C33.8153 32.4357 33.7643 32.5466 33.6812 32.6005C33.8595 32.723 34.0354 32.8492 34.2082 32.9805C35.2153 33.7451 36.0669 34.6982 36.6572 35.8196L36.6715 35.8474L36.688 35.8809C36.8319 36.1765 37.2083 37.0409 37.255 37.2352C37.2885 37.3367 37.3209 37.4386 37.351 37.5411C37.4305 37.8127 37.4979 38.0877 37.5538 38.365L37.5688 38.4407C37.6141 38.6736 37.6922 38.9494 37.6796 39.1976C37.8103 39.8753 37.9261 40.5558 38.025 41.2391C38.0379 41.3287 38.0023 41.4014 37.947 41.4496C38.0792 41.4709 38.2106 41.497 38.3406 41.5234L38.416 41.5393L38.4538 41.5476C38.7245 41.6087 38.9916 41.6976 39.1688 41.925C39.3599 42.1709 39.3638 42.487 39.1719 42.7347C39.0089 42.9451 38.7709 43.0451 38.5224 43.1082C38.4734 43.1205 38.4238 43.1319 38.3743 43.1419C38.341 43.1489 38.3191 43.1034 38.3506 43.0858L38.4033 43.0567L38.4753 43.0173C38.6626 42.914 38.857 42.7974 38.9607 42.6111C39.1014 42.3581 38.99 42.124 38.7485 41.9956C38.5464 41.8879 38.2963 41.8604 38.0718 41.8236L37.9791 41.8083C37.7444 41.7708 37.505 41.7465 37.2682 41.7733C37.0609 41.7969 36.8509 41.8676 36.6835 41.9942L36.668 42.0064L36.6519 42.0199C36.5051 42.1472 36.2939 42.4331 36.5709 42.5155C36.7826 42.5781 37.0405 42.5626 37.263 42.5747L37.2918 42.5764C37.478 42.5892 37.6727 42.5892 37.8611 42.6115C37.9286 42.6194 37.9952 42.6303 38.0605 42.6457C38.2477 42.69 38.1832 42.939 38.0184 42.9565C37.9781 42.9609 37.9369 42.9631 37.8957 42.964C37.7879 43.0451 37.6389 43.0819 37.5114 43.1323C37.3895 43.1805 37.2673 43.2283 37.1441 43.2752C37.2502 43.2801 37.3562 43.2888 37.4619 43.302C37.496 43.3059 37.4964 43.352 37.4619 43.3555C37.2076 43.3813 36.9534 43.4094 36.7001 43.4448C36.3079 43.4992 35.9183 43.572 35.5375 43.6829C35.2591 43.7643 34.9842 43.8612 34.7175 43.9743L34.6368 44.0091L34.6035 44.0236C34.3615 44.1285 34.0484 44.2513 33.9093 44.4825C33.8366 44.6031 33.8046 44.7894 33.9072 44.9047C34.0168 45.0289 34.2466 45.0148 34.4002 45.0208L34.4125 45.0213C34.7377 45.0371 35.0632 45.0393 35.3889 45.0279C36.0712 45.0038 36.7541 44.9293 37.4242 44.7982C37.5478 44.7741 37.6012 44.9595 37.4768 44.9885C36.6863 45.1722 35.8873 45.2729 35.0762 45.2776L34.9874 45.2778C34.6715 45.3382 34.3617 45.4283 34.0545 45.53L33.9931 45.5505C33.8116 45.6118 33.5018 45.6728 33.3948 45.8529C33.3238 45.9726 33.3488 46.0546 33.4189 46.1103C33.5425 46.2081 33.8054 46.2264 33.9334 46.2313C34.4462 46.2505 34.9594 46.254 35.4726 46.2431C35.729 46.2374 35.9854 46.2282 36.2418 46.2151C36.4924 46.2019 36.7602 46.1647 37.01 46.1887C37.1174 46.1992 37.1533 46.3571 37.0368 46.3865C36.7287 46.4645 36.3832 46.4577 36.0649 46.4677L36.0283 46.4689C35.6864 46.4811 35.3442 46.4864 35.0024 46.4856C34.7089 46.4844 34.4156 46.4785 34.1225 46.4677L33.8634 46.4574L33.8175 46.4552C33.6794 46.4478 33.5383 46.4319 33.4159 46.375C33.3028 46.5644 33.3873 46.8183 33.5333 46.9682C33.6722 47.1111 33.8725 47.1813 34.0645 47.2251C34.0825 47.2291 34.1004 47.233 34.1184 47.2365C34.54 47.3224 34.9695 47.315 35.3639 47.5087C35.6956 47.6718 35.9994 47.9436 36.371 48.008C36.7032 48.0659 36.9447 47.9195 37.1217 47.6486C37.1314 47.6337 37.1411 47.6188 37.1503 47.6038C37.2896 47.3794 37.3899 47.1322 37.5368 46.9121C37.6117 46.7999 37.6963 46.692 37.7998 46.6044C37.8462 46.5644 38.1714 46.3917 38.2222 46.34C38.4409 46.1155 38.2472 45.6434 38.3042 45.362C38.3708 45.0344 38.6587 44.9192 38.8314 44.6653C39.1596 44.1823 38.2594 43.7298 38.5286 43.2015C38.5321 43.195 38.5364 43.1902 38.5421 43.1871C38.5658 43.1744 38.6035 43.1902 38.6013 43.2213C38.5715 43.615 38.9467 43.8859 39.0821 44.2269C39.2363 44.615 38.99 44.8499 38.7385 45.109C38.4159 45.4418 38.6429 45.8144 38.5711 46.2151C38.5617 46.2676 38.5466 46.3139 38.527 46.3553C38.5822 46.3895 38.6247 46.4461 38.634 46.5252C38.7446 47.4634 38.8635 48.3986 39.0577 49.3238L39.0992 49.5204L39.1548 49.7826C39.2932 50.4385 39.4224 51.097 39.4469 51.7674C39.524 52.3333 39.5546 52.9038 39.509 53.4734C39.3705 55.2073 38.4014 57.0214 36.641 57.5535C36.2334 57.6767 35.8013 57.7087 35.3832 57.6224C35.2399 57.593 35.0392 57.5281 34.859 57.4299C34.8697 57.5455 34.8783 57.661 34.8818 57.7763C34.9412 57.8424 34.968 57.9423 34.9342 58.0277C34.7906 57.9805 34.6601 57.9057 34.5426 57.8033L34.5232 57.786C34.4535 57.5271 34.4331 57.2438 34.423 56.971L34.4204 56.8933C34.4177 56.8179 34.416 56.7439 34.4133 56.6715C34.3984 56.2213 34.409 55.7702 34.4322 55.3204L34.4492 54.9893C34.4884 54.217 34.5202 53.4465 34.4988 52.6721C34.4743 51.7809 34.398 50.8935 34.3025 50.0071C34.2529 49.5499 34.1969 49.0935 34.1394 48.6372C34.0934 48.2698 34.0163 47.8744 34.015 47.4956C33.72 47.4325 33.4303 47.3114 33.2489 47.0638C33.0565 46.8012 33.028 46.4654 33.1989 46.1962C33.0337 45.97 33.1691 45.757 33.3734 45.6132C33.0596 45.4373 32.8847 44.9577 32.8383 44.6242C32.8067 44.3953 32.7966 44.0529 32.8943 43.7956C32.7541 43.8004 32.6139 43.8149 32.4736 43.839C32.3114 43.8675 32.1524 43.9091 31.9954 43.9609L31.916 43.9872C31.8759 44.0006 31.8308 44.0164 31.786 44.035C32.0696 44.504 31.7053 44.9293 31.2381 45.0507C31.1492 45.0739 31.0585 45.0902 30.9669 45.1033C30.7605 45.1318 30.5496 45.1405 30.345 45.1594C29.9532 45.1953 29.5592 45.2467 29.1661 45.2633C29.0797 45.2673 29.0241 45.2269 28.9978 45.1708C28.9969 45.17 28.9965 45.1695 28.9965 45.1686C28.9873 45.1537 28.9811 45.1379 28.9789 45.1213C28.9803 45.1226 28.982 45.1235 28.9833 45.1244C28.9645 45.0191 29.0276 44.8911 29.1661 44.8758C29.7336 44.8117 30.309 44.8087 30.8783 44.7618L30.9148 44.7588C31.0935 44.7434 31.304 44.715 31.4455 44.6018C31.577 44.4966 31.5887 44.3598 31.5362 44.2362C31.5353 44.2392 31.5344 44.2427 31.534 44.2458C31.53 44.2703 31.4963 44.2695 31.4854 44.2524C31.4525 44.2024 31.4441 44.1533 31.4525 44.1059C31.413 44.0604 31.3653 44.02 31.3136 43.9889C31.0843 43.8495 30.7828 43.8114 30.522 43.7701C30.2368 43.725 29.9493 43.7044 29.6613 43.6908C29.0947 43.664 28.5262 43.7101 27.9688 43.8118C27.9455 43.8158 27.9359 43.7833 27.9587 43.7759C28.176 43.7039 28.3982 43.6435 28.6231 43.5957C28.6178 43.5948 28.6126 43.5939 28.6073 43.5926C28.5876 43.5878 28.5735 43.5637 28.5802 43.5444C28.581 43.5413 28.5823 43.5383 28.5837 43.5356C28.4881 43.4918 28.4482 43.3445 28.5639 43.2849C28.9246 43.0986 29.3479 43.0143 29.7437 42.9376C30.1237 42.8644 30.5076 42.8131 30.892 42.7676C31.5419 42.6913 32.2506 42.6931 32.8759 42.4878L32.9016 42.4792C33.1563 42.3914 33.4603 42.2133 33.4781 41.9127C33.5044 41.4581 32.829 41.5765 32.5476 41.5874C31.7777 41.6168 31.0085 41.6703 30.242 41.7527C30.0855 41.7694 29.9291 41.7864 29.7727 41.804C29.5329 41.8307 29.2928 41.8588 29.0535 41.8886C28.9198 41.9053 28.7831 41.9272 28.6455 41.9482C28.6025 41.9588 28.5604 41.9662 28.5184 41.9701C28.5153 41.9705 28.5127 41.9697 28.5105 41.9684C28.3102 41.9965 28.109 42.0179 27.9136 42.0118C27.8912 42.0114 27.8772 41.9762 27.9009 41.9657C28.1533 41.8588 28.4342 41.7957 28.716 41.7461C28.8904 41.6159 29.1012 41.5116 29.2744 41.4108C29.5119 41.2722 29.784 41.0684 30.0536 40.9855C30.1749 40.89 30.3125 40.8132 30.4392 40.7611C30.4029 40.7045 30.3897 40.626 30.3962 40.5599C30.4204 40.3227 30.6102 40.1902 30.8293 40.1438C30.8972 40.1298 30.9757 40.1193 31.0594 40.1153C31.0611 40.071 31.0808 40.0276 31.1246 39.9952L31.1376 39.9854L31.1468 39.9781C31.2939 39.8586 31.5859 39.5222 31.2342 39.4976C31.0475 39.4844 30.8897 39.6213 30.7412 39.7138C30.4326 39.9062 30.1342 39.9158 29.7819 39.868L29.6235 39.8453L29.5971 39.8417C29.3424 39.8083 29.0839 39.8037 28.9417 40.0636C28.7892 40.3415 28.7357 40.5949 28.428 40.7479C28.134 40.8939 27.8075 40.9228 27.5375 41.1236C27.2483 41.3384 27.0309 41.64 26.7943 41.9074C26.2723 42.4966 25.675 43.017 25.0596 43.5063L24.9502 43.593C24.3835 44.041 23.7986 44.482 23.1642 44.8271C23.1598 44.8293 23.1554 44.8302 23.1515 44.8302C23.1344 44.8284 23.1216 44.8065 23.137 44.7916C23.8781 44.0713 24.745 43.4874 25.5062 42.7864C25.8436 42.4756 26.1649 42.1485 26.4739 41.8093C26.7438 41.5116 26.9831 41.1771 27.2978 40.9237C27.4507 40.8005 27.616 40.7063 27.8009 40.6405C27.9736 40.5787 28.1673 40.548 28.3264 40.4533C28.638 40.2683 28.6078 39.8299 28.9194 39.6309C29.1865 39.4601 29.512 39.5225 29.8082 39.563L29.8437 39.5678C30.0356 39.5932 30.2341 39.6147 30.4173 39.5388C30.5987 39.4639 30.7447 39.3236 30.9274 39.2491C31.1821 39.1443 31.5432 39.1693 31.6738 39.4494C31.7987 39.7168 31.6282 39.9588 31.4293 40.1364C31.7005 40.1855 31.9385 40.3165 31.9587 40.584C32.1576 40.5773 32.3562 40.5703 32.5551 40.5634C33.248 40.5392 33.9444 40.4927 34.6377 40.5051C34.6219 40.4344 34.6149 40.3617 34.614 40.2876C34.6136 40.2464 34.6154 40.2052 34.6184 40.1631C34.6237 40.0912 34.671 40.0478 34.7412 40.0403L34.8978 40.0236L34.9502 40.0184C35.2436 39.9907 35.5716 39.9848 35.7952 40.1788C35.9153 40.2837 36.0121 40.5248 35.9534 40.6857C36.0901 40.7326 36.2203 40.7926 36.339 40.8685C36.5744 40.7895 36.8216 40.7983 37.0582 40.8807L37.0863 40.8908C37.2545 40.9525 37.4929 41.0695 37.5844 41.2365C37.3625 39.732 37.0634 38.2404 36.6875 36.7668C36.4476 36.1783 36.1444 35.6158 35.7768 35.0966C34.8507 33.7885 33.5166 32.8889 32.3185 31.8548C32.2128 31.9711 32.0989 32.0819 31.9924 32.1885L31.9472 32.2339C31.7303 32.4536 31.504 32.6639 31.2728 32.8684C30.7894 33.2959 30.2806 33.6904 29.7755 34.0912C28.7572 34.8993 27.8366 35.7573 27.0706 36.8123C27.0568 36.8314 27.0186 36.8203 27.0293 36.795C27.5547 35.5457 28.6438 34.5959 29.6332 33.7146C30.1535 33.2512 30.686 32.799 31.1863 32.3137C31.4195 32.0874 31.6455 31.8534 31.8586 31.608L31.9116 31.5464C32.051 31.3833 32.3773 30.8851 32.593 31.2445C32.6381 31.3197 32.6362 31.4159 32.593 31.4912C32.5317 31.5981 32.4539 31.7001 32.3688 31.7981C32.6712 31.9626 32.9674 32.1364 33.2571 32.3203C33.2404 32.2317 33.2446 32.1338 33.2601 32.0358L33.2651 32.0046L33.2862 31.8831C33.3165 31.704 33.3321 31.5374 33.2184 31.3627C33.0764 31.1441 32.8085 31.076 32.595 30.9497C32.3492 30.8041 32.2208 30.6094 32.0891 30.3622C31.837 29.8891 31.2674 29.6993 30.7778 29.5471L30.7162 29.528C30.2639 29.3878 29.7745 29.3127 29.3222 29.4475C29.3646 29.645 29.4202 29.8398 29.4895 30.0294C29.5634 30.2314 29.7321 30.4559 29.7148 30.674C29.7029 30.8249 29.5219 30.9862 29.3717 30.8709C29.159 30.7076 29.1165 30.4417 29.0594 30.1884C29.0043 29.9435 28.9691 29.6925 28.9541 29.4419C28.9397 29.2004 28.951 28.959 28.9807 28.7191L29.0036 28.5429L29.0091 28.502C29.034 28.3239 29.0709 28.137 29.1711 27.9974C29.1807 27.984 29.2043 27.9837 29.2087 28.0023ZM23.0368 27.0009C23.04 27.0151 23.0422 27.0292 23.0442 27.0433C23.0589 27.1033 23.0644 27.1611 23.0626 27.2191C23.0634 27.24 23.0619 27.2609 23.058 27.2817C23.0502 27.3499 23.0337 27.42 23.0115 27.4966C22.9642 27.6595 22.91 27.8205 22.8495 27.9791C22.7299 28.2926 22.5886 28.5918 22.414 28.8786C22.0986 29.3967 21.6976 29.8267 21.2249 30.1984C21.3147 30.2724 21.4024 30.3495 21.4902 30.4251C21.9149 30.7907 22.3282 31.1729 22.7284 31.5652C23.4392 32.2619 24.1358 32.9716 24.8159 33.6982C25.1514 34.0566 25.4807 34.4197 25.8081 34.7852L25.8189 34.7975L25.8305 34.8113C25.9468 34.952 26.1792 35.2875 26.3526 35.2336C26.4402 35.2063 26.5324 35.0756 26.5921 35.0133L26.702 34.8986C26.7386 34.8603 26.7749 34.8217 26.8106 34.7826C27.4503 34.0816 28.0556 33.3536 28.6239 32.5927C28.9012 32.2214 29.1693 31.8431 29.4277 31.4583C29.5604 31.2605 29.6908 31.0609 29.8185 30.8596C29.942 30.665 30.0419 30.4558 30.2239 30.3105C30.3575 30.2039 30.5425 30.3016 30.5089 30.4764C30.4559 30.7517 30.2654 30.9845 30.1154 31.2171C29.9648 31.4509 29.8106 31.6824 29.653 31.9115C29.3496 32.3525 29.033 32.7842 28.7051 33.2073C28.4228 33.5716 28.1282 33.9266 27.8257 34.2743L27.743 34.369C27.4176 34.7401 27.0982 35.134 26.7386 35.4727C26.4166 35.7761 26.065 35.6877 25.7716 35.3929C25.4007 35.0202 25.0562 34.6172 24.6993 34.2309C23.986 33.459 23.2652 32.693 22.537 31.9351L22.2976 31.6856C22.0185 31.3942 21.7405 31.1009 21.4698 30.8023L21.4349 30.7634C21.1261 30.416 20.8122 29.9808 20.3733 29.8042C20.3416 29.7914 20.3532 29.7463 20.3875 29.7526C20.6684 29.8046 20.903 29.9462 21.1213 30.1154C21.3174 29.7907 21.4925 29.4484 21.6451 29.0983L21.5472 29.0557C20.8466 28.753 20.0571 28.4477 19.305 28.4967C19.0019 28.5165 18.6785 28.6313 18.4693 28.8589C18.2798 29.0651 18.1852 29.3431 18.0113 29.5627C17.8121 29.8142 17.5523 29.9274 17.2334 29.9376L17.0784 29.9423C16.9001 29.9481 16.7291 29.9575 16.5482 29.9967C16.0582 30.103 15.5415 30.2754 15.1305 30.5699C14.9814 30.6767 14.8275 30.8235 14.7554 30.9853C14.6839 31.1457 14.6634 31.3333 14.6564 31.5063C14.653 31.5906 14.6783 31.702 14.6572 31.7827C14.6596 31.7735 14.6607 31.7784 14.661 31.788C14.7267 31.8399 14.7714 31.926 14.7763 32.0118C15.186 31.7983 15.6101 31.6111 16.0424 31.4423C16.5238 31.2545 17.0201 31.1039 17.5166 30.9614C18.0024 30.8219 18.511 30.7642 19.0062 30.6648C19.0693 30.6521 19.0912 30.7373 19.0324 30.7599C18.5119 30.9599 18.0082 31.197 17.4833 31.3852C16.9587 31.5733 16.4379 31.7769 15.9285 32.0032C14.9438 32.4407 13.9927 32.9975 13.2169 33.7529C12.4592 34.4907 11.8748 35.3869 11.3313 36.2881C10.7839 37.1956 10.2954 38.1362 9.85999 39.1023C8.99864 41.0137 8.35274 43.0233 7.9275 45.076C7.51366 47.0736 7.28243 49.1425 7.35943 51.1842C7.39598 52.1539 7.5144 53.1243 7.7898 54.057C7.92137 54.5025 8.08606 54.9379 8.29415 55.3535C8.51358 55.7918 8.80923 56.1821 9.0096 56.6278C9.02608 56.6644 9.03239 56.6996 9.03147 56.7323C9.88607 57.473 11.2237 56.9739 12.1486 56.5317C14.2768 55.5137 16.3655 54.3998 18.3508 53.1214C20.3103 51.8597 22.1672 50.4516 23.9802 48.9901C23.84 48.8454 23.7163 48.6832 23.6077 48.5363C23.3833 48.233 23.2146 47.8893 23.0984 47.5306C22.9626 47.1107 22.9205 46.6613 22.9591 46.2225L22.97 46.0984C23.007 45.6841 23.0496 45.2636 23.1405 44.8586C23.1414 44.8534 23.1453 44.8512 23.1497 44.8512C23.1541 44.8512 23.1585 44.8539 23.1602 44.8586C23.4052 45.643 23.4249 46.4859 23.7001 47.2602C23.811 47.5714 23.9828 47.8722 24.1888 48.1304C24.2778 48.2421 24.3821 48.3391 24.4886 48.4338C24.4956 48.3855 24.5052 48.3377 24.5197 48.2908L24.5311 48.2537C24.5454 48.2086 24.5631 48.1585 24.5876 48.1141C24.553 48.1041 24.5193 48.0931 24.486 48.0808C24.4596 48.0712 24.4539 48.0287 24.486 48.0217C24.5732 48.0015 24.663 47.9914 24.7546 47.987C24.7691 47.9848 24.7831 47.9844 24.7971 47.9853C24.9685 47.98 25.1429 47.9923 25.3081 47.9949C25.5943 47.9993 25.8796 48.0045 26.1653 48.0173C26.7123 48.0409 27.3298 48.1457 27.868 48.0186C28.3571 47.9029 28.8392 47.5767 29.2314 47.2698C29.5741 47.0015 29.8384 46.6828 30.1228 46.365C30.1024 46.3682 30.0821 46.3712 30.0619 46.374L29.8785 46.3992C29.647 46.4301 29.3722 46.4544 29.1885 46.3431C29.1183 46.3006 29.1385 46.2041 29.2099 46.1778C29.3975 46.109 29.6302 46.166 29.83 46.1563C29.9869 46.1488 30.1456 46.1322 30.3003 46.0998C30.3512 46.0893 30.4015 46.077 30.4515 46.0625C30.8179 45.9569 31.2483 45.5851 30.9573 45.1792C30.9463 45.1638 30.9585 45.1498 30.9734 45.1471C30.98 45.1458 30.9871 45.1471 30.9928 45.152C31.324 45.4264 31.1518 45.9182 30.8385 46.1291C30.7307 46.2019 30.6088 46.2528 30.4826 46.29C30.5067 46.3343 30.5111 46.3887 30.4821 46.4404C30.2368 46.8779 29.8213 47.2623 29.4321 47.5714C29.0324 47.8888 28.5714 48.1882 28.0757 48.3285C27.5033 48.4898 26.8745 48.3684 26.2938 48.3171C25.9791 48.2895 25.6653 48.2566 25.3511 48.2202C25.2669 48.2106 25.1797 48.2032 25.0912 48.1948C25.1745 48.3044 25.2406 48.4307 25.284 48.5065C25.4252 48.7529 25.295 49.0773 25.0215 49.1527C24.993 49.1606 24.9636 49.165 24.9347 49.1658C24.8611 49.3136 24.6858 49.4223 24.5236 49.3666C24.4531 49.3425 24.3851 49.3097 24.3199 49.2702C23.3 50.1663 22.2263 51.0071 21.1219 51.7953C19.0739 53.2569 16.9273 54.5918 14.7015 55.7654C14.2001 56.0297 13.6949 56.287 13.1854 56.5342L12.7469 56.7456C12.2615 56.9793 11.7648 57.2117 11.2493 57.3567C11.1488 57.385 11.0436 57.4078 10.9358 57.4253C10.9344 57.4349 10.934 57.4442 10.9347 57.453C10.8377 57.466 10.7532 57.4679 10.6809 57.4589L10.6645 57.4567C10.0327 57.5009 9.35683 57.3466 8.95035 56.8849C8.88259 56.9325 8.78381 56.9378 8.69664 56.8693C8.25825 56.5252 7.99692 56.0014 7.76758 55.5012C7.53504 54.9939 7.35277 54.4651 7.21884 53.9234C6.95133 52.8416 6.84523 51.7256 6.83964 50.6128C6.81941 46.3245 7.89305 41.9986 9.75792 38.1487C10.2309 37.1722 10.7522 36.2141 11.331 35.2962C11.9082 34.3808 12.5784 33.5302 13.4367 32.8626C13.6836 32.6706 13.9403 32.4952 14.2052 32.3335C14.0274 32.2454 13.9568 32.0212 13.9444 31.8221C13.9168 31.3799 13.9694 30.8704 14.2283 30.4973C14.5914 29.9739 15.2413 29.6512 15.844 29.4942C16.1587 29.4123 16.4841 29.3646 16.8086 29.3484C16.976 29.3401 17.1498 29.3676 17.3151 29.3495C17.461 29.3337 17.5512 29.2466 17.6351 29.1321C17.8499 28.8387 17.9898 28.531 18.2981 28.3159C18.6143 28.0953 19.0241 28.0108 19.4051 28.0337C19.8489 28.0604 20.2538 28.2353 20.6447 28.4363C20.9975 28.6177 21.3399 28.8187 21.6737 29.0331C21.7349 28.8897 21.7925 28.7452 21.8461 28.6002C21.95 28.3191 22.0405 28.0291 22.1138 27.7385C22.1882 27.4439 22.1773 27.0548 22.402 26.8332C22.5973 26.6406 22.9735 26.7162 23.0368 27.0009ZM38.1776 46.6611L38.176 46.6614C37.7217 46.9307 37.5044 47.6038 37.2905 47.898C37.308 47.9966 37.3203 48.097 37.3444 48.1904C37.3996 48.4048 37.4719 48.6174 37.5556 48.8217C37.7029 49.1825 37.8874 49.5262 38.0579 49.876C38.1951 50.1573 38.3295 50.4438 38.434 50.7399C38.4227 50.7513 38.4122 50.7648 38.4033 50.7815C38.2899 50.9939 38.2011 50.9522 37.9918 50.9058L37.9917 50.9053C37.872 50.5389 37.6994 50.1948 37.5443 49.8431L37.5065 49.7573L37.4692 49.6714C37.3396 49.3704 37.2213 49.0667 37.1524 48.7441C37.1086 48.5385 37.0906 48.3272 37.088 48.1172C36.9745 48.2106 36.8382 48.2777 36.6664 48.3035C36.2988 48.3591 35.9659 48.1288 35.6664 47.944L35.5989 47.9027C35.4114 47.7886 35.2255 47.6832 35.0093 47.6293C34.7639 47.5679 34.5102 47.5679 34.2608 47.5368C34.231 47.5328 34.2008 47.5289 34.1705 47.5241C34.2678 47.8463 34.3129 48.1961 34.3708 48.5188C34.4515 48.9712 34.5172 49.4276 34.5803 49.8826C34.703 50.7647 34.7885 51.6537 34.8318 52.5432C34.8738 53.4045 34.8527 54.2625 34.8215 55.1235L34.806 55.5433C34.7935 55.8852 34.7833 56.2274 34.7893 56.5694C34.806 56.5706 34.8226 56.5733 34.8393 56.5773C35.012 56.6176 35.1299 56.7938 35.2877 56.8723C35.6207 57.038 36.0231 57.0358 36.3776 56.9521C37.184 56.7609 37.8545 56.198 38.2963 55.5102C38.8266 54.6852 39.0212 53.7141 39.015 52.7426C39.0077 51.6493 38.8307 50.604 38.5843 49.5485L38.5685 49.4811C38.3611 48.6017 38.2312 46.6694 38.1776 46.6611ZM15.5969 44.4551C15.6015 44.7491 15.4819 45.0637 15.4162 45.3494C15.3455 45.6573 15.2749 45.9652 15.2034 46.2729L15.1391 46.5486C15.0855 46.7784 15.0327 47.0083 14.9854 47.2395C14.9465 47.4296 14.9302 47.68 14.8664 47.8895C15.6249 47.5827 16.3846 47.2789 17.143 46.973C18.0773 46.5961 19.0161 46.2295 19.9526 45.8586C20.8857 45.4895 21.8135 45.0695 22.7654 44.7539C22.992 44.6785 23.1454 45.0402 22.9284 45.1405C21.9616 45.589 20.9387 45.9402 19.9482 46.333L18.5155 46.902C17.2021 47.4233 15.8878 47.942 14.5669 48.4429C13.6671 48.7841 12.7709 49.1352 11.8655 49.4591C11.4338 49.6135 10.9982 49.7595 10.5687 49.9194C10.2089 50.0536 9.81969 50.2527 9.68646 50.6393C9.67945 50.6594 9.65184 50.6512 9.65491 50.6305C9.70881 50.2561 9.98671 50.022 10.3 49.8449C10.7159 49.6093 11.1726 49.4378 11.6116 49.2488L11.6713 49.2229C12.5677 48.8318 13.4713 48.4566 14.3776 48.0877C14.3686 48.0658 14.3633 48.0423 14.3629 48.0177L14.3603 48.0184C14.3438 47.8508 14.4206 47.7014 14.4759 47.5455L14.6344 47.0981C14.74 46.8003 14.8348 46.4987 14.9324 46.1981C15.0345 45.884 15.1375 45.5701 15.2404 45.2563C15.3275 44.9904 15.386 44.6735 15.5351 44.4358C15.553 44.4072 15.6026 44.4233 15.5969 44.4551ZM33.0521 43.7938L33.0408 43.8509C33.0277 43.9177 33.0153 43.985 33.0122 44.0525C33.0034 44.2292 33.0236 44.4058 33.0705 44.5764C33.1166 44.7451 33.1809 44.9082 33.2726 45.0577C33.3593 45.1984 33.4851 45.3089 33.5653 45.4531C33.5736 45.4684 33.5789 45.4838 33.5811 45.4987C33.6117 45.486 33.642 45.4746 33.6714 45.4654C33.9159 45.3878 34.1657 45.3229 34.419 45.2743L34.3788 45.2716L34.3529 45.2695C33.9296 45.2337 33.5303 45.0952 33.6166 44.6009C33.6654 44.3215 33.8847 44.1341 34.1196 44.0013L34.1491 43.985C34.1617 43.9779 34.1749 43.9709 34.1876 43.9648C33.975 43.9289 33.8208 43.8846 33.5601 43.8408C33.3909 43.8123 33.2212 43.7965 33.0521 43.7938ZM13.7167 37.7054C14.1328 38.5465 14.4459 39.4408 14.6821 40.3481C14.7962 40.7863 14.893 41.2288 14.9708 41.6748L14.9963 41.8237L15.0109 41.9046C15.0836 42.3021 15.1759 42.7328 15.0691 43.1207C15.0343 43.2475 14.8239 43.2976 14.765 43.1605C14.5874 42.7467 14.6123 42.271 14.5608 41.8281C14.5067 41.3634 14.4329 40.9009 14.3408 40.4423C14.1641 39.5609 13.9159 38.7002 13.6394 37.8459L13.6085 37.751C13.585 37.6878 13.6873 37.6461 13.7167 37.7054ZM29.713 41.4682C29.589 41.5265 29.465 41.58 29.3554 41.6334C29.3471 41.6379 29.3383 41.6418 29.3295 41.6462C29.4536 41.6251 29.578 41.6054 29.7025 41.587C29.7012 41.5466 29.7052 41.5068 29.713 41.4682ZM34.566 41.0469C34.5474 41.053 34.5309 41.0627 34.5166 41.0761L34.5096 41.0832C34.4925 41.0991 34.4804 41.1179 34.4733 41.1396C34.4624 41.1605 34.4573 41.1831 34.4582 41.2072L34.4645 41.2538C34.4728 41.2835 34.4879 41.3092 34.5096 41.3312L34.545 41.3586C34.569 41.3724 34.5945 41.3803 34.6218 41.3821L34.6335 41.3825L34.669 41.3825C34.6893 41.3819 34.7084 41.3768 34.7263 41.3674C34.7449 41.3614 34.7614 41.3516 34.7757 41.3382L34.7827 41.3312C34.7998 41.3152 34.8119 41.2964 34.819 41.2747C34.8284 41.2568 34.8334 41.2377 34.8341 41.2174L34.8341 41.2072L34.8278 41.1605C34.8205 41.1345 34.8081 41.1115 34.7906 41.0915L34.7827 41.0832L34.7473 41.0557C34.7233 41.0419 34.6978 41.034 34.6705 41.0322L34.6588 41.0318H34.6335C34.6094 41.0309 34.5869 41.0359 34.566 41.0469ZM33.4257 40.9876C33.3326 41.0047 33.2798 41.1176 33.3033 41.2032C33.3293 41.298 33.4194 41.3402 33.5099 41.3272L33.5189 41.3258C33.6249 41.3063 33.7287 41.3138 33.8296 41.351C33.9184 41.3838 34.0217 41.3143 34.0453 41.2285C34.0722 41.1306 34.012 41.0457 33.9228 41.0128C33.7628 40.9537 33.5913 40.9571 33.4257 40.9876ZM14.9615 34.7601C15.1735 35.0709 15.3059 35.4841 15.4365 35.8394L15.4496 35.8747C15.5884 36.248 15.7224 36.6243 15.8473 37.0026C16.0966 37.7577 16.4215 38.5479 16.4816 39.3456C16.4926 39.4928 16.2674 39.5518 16.2021 39.4214C16.0145 39.0462 15.9136 38.6552 15.8026 38.253C15.6967 37.8695 15.5864 37.4872 15.4761 37.105C15.3658 36.7229 15.259 36.3397 15.1504 35.9572C15.0447 35.585 14.8976 35.1712 14.8734 34.7839C14.8703 34.7336 14.9371 34.7243 14.9615 34.7601ZM19.7476 32.2575C20.0307 32.454 20.2625 32.7415 20.5021 32.9873C20.7451 33.2368 20.9849 33.4885 21.2224 33.7432C21.6193 34.1689 22.0091 34.6016 22.4116 35.0221C23.2138 35.8601 24.1213 36.6312 25.2284 37.025C25.4963 37.1203 25.379 37.5504 25.1104 37.4531C23.978 37.0424 23.04 36.2831 22.2125 35.424C21.7839 34.9792 21.3907 34.5038 21.0072 34.0199C20.8278 33.7935 20.6497 33.5664 20.4742 33.337L20.3691 33.1992C20.1484 32.9078 19.8783 32.6174 19.7167 32.2885C19.7077 32.27 19.7276 32.2436 19.7476 32.2575Z" fill="black"/>
</g>
<path fill-rule="evenodd" clip-rule="evenodd" d="M33.6672 18.0765C33.5592 17.1268 33.699 15.1417 33.7084 15.0211C33.7677 14.2587 33.4104 11.248 32.7351 11.5254C31.6023 10.6286 30.0935 10.4306 28.6826 10.336C25.752 10.1395 22.6344 10.5906 20.3714 12.5628C19.2523 13.5871 18.1628 15.0767 18.2504 16.6278C17.2336 18.098 15.8002 20.1148 17.0671 21.8336C17.4977 22.3827 18.1821 22.5872 18.7231 23.0031C19.8112 23.8808 20.4939 25.1403 21.5923 26.0127C24.5024 28.6278 29.4439 29.1741 32.3031 26.1997C34.5141 24.0455 34.1566 20.8228 33.7677 18.0765C33.5062 16.2302 33.8781 19.9293 33.6672 18.0765Z" fill="white"/>
<path fill-rule="evenodd" clip-rule="evenodd" d="M24.7678 6.30837C25.5515 6.15021 26.3563 6.0518 27.1567 6.08142L27.2184 6.08382C27.8207 6.10789 28.5833 6.16113 29.1087 6.51131C29.1389 6.48099 29.1875 6.46542 29.2316 6.48646C29.8559 6.78445 30.5425 6.9999 31.1999 7.21399C31.8542 7.42703 32.533 7.56767 33.2188 7.62435C33.4769 7.64569 33.6977 7.9243 33.5343 8.17419C33.4954 8.23374 33.4576 8.29389 33.4199 8.35419C33.4829 8.34762 33.546 8.34084 33.6091 8.33446C33.8166 8.31358 34.0239 8.53505 34.0116 8.73709C34.0039 8.86417 33.9902 8.98974 33.9699 9.11381C34.0489 9.11215 34.1275 9.124 34.2034 9.15609C34.5878 9.31841 34.5611 9.77627 34.5323 10.1246C34.4924 10.608 34.3116 11.1201 33.9759 11.4819C34.2266 11.7422 34.404 12.0531 34.5099 12.4223C34.5866 12.692 34.6294 12.9792 34.6083 13.2598L34.6016 13.3439C34.5755 13.6484 34.5236 13.9857 34.3045 14.2048C34.192 14.3177 34.0535 14.3589 33.9214 14.3459C34.0013 15.0478 34.0525 15.7537 34.1007 16.4572L34.1233 16.7934C34.2308 18.4191 34.3116 20.0555 34.2905 21.6839C34.2708 23.2058 33.9701 24.6829 33.0367 25.9186C32.1866 27.0438 30.9661 27.8732 29.5854 28.1885C28.8413 28.3588 28.0816 28.3708 27.3284 28.2624C26.9634 28.2096 26.5959 28.1288 26.2494 28.0013C25.8659 27.8597 25.5902 27.6513 25.3321 27.339C25.2101 27.1909 25.2688 26.8756 25.5119 26.9052C25.8795 26.9498 26.2151 27.0035 26.5675 27.1122L26.6179 27.1281C26.9689 27.2406 27.3325 27.3244 27.6994 27.3601C28.4511 27.4329 29.2143 27.3596 29.9343 27.1316C31.1067 26.7601 32.1164 25.9321 32.7636 24.8918C33.5318 23.6587 33.6187 22.2588 33.6076 20.8409C33.5957 19.285 33.5451 17.7282 33.4625 16.1739L33.4484 15.9149C33.4047 15.1151 33.3625 14.3147 33.3254 13.5144C33.3139 13.2634 33.2963 13.0103 33.2646 12.7598C32.975 12.59 32.7154 12.3561 32.5462 12.0674C32.2063 12.208 31.8488 12.3094 31.5199 12.3902C30.758 12.5776 29.967 12.6231 29.1915 12.5057C28.9823 12.5922 28.769 12.6681 28.5524 12.7335C28.4939 12.7595 28.4353 12.785 28.3768 12.81C27.8546 13.0334 27.3249 13.2227 26.7736 13.3613L26.6382 13.395C26.3481 13.4665 26.033 13.537 25.7243 13.5591C25.6736 13.5787 25.6188 13.5952 25.559 13.6098C25.2779 13.6781 24.9861 13.6997 24.698 13.6756C24.4173 13.652 24.2144 13.3683 24.3691 13.1027C24.482 12.9089 24.5961 12.7156 24.711 12.5228C24.3109 12.6895 23.8977 12.828 23.4809 12.9455C23.0602 13.064 22.6334 13.1639 22.2061 13.2558C21.9776 13.3045 21.7482 13.3477 21.5202 13.3964C21.3571 13.4311 21.1065 13.4491 20.9734 13.5566C20.8264 13.6746 20.7847 13.9497 20.7289 14.1194C20.6556 14.3398 20.5868 14.5613 20.524 14.7852C20.3991 15.2321 20.2966 15.6854 20.2173 16.1434C20.138 16.6018 20.0847 17.0647 20.0551 17.5291C20.0255 17.9931 20.0385 18.46 19.9909 18.9219C19.9652 19.167 19.7022 19.293 19.5079 19.1218C19.4851 19.1017 19.4621 19.0814 19.4393 19.0608L19.4054 19.0299C19.2392 18.8793 19.078 18.7196 18.945 18.5398C18.9209 18.5067 18.8978 18.4721 18.8762 18.4369C18.8727 18.4369 18.8697 18.4359 18.8662 18.4334L18.8293 18.4056C18.4232 18.1034 17.7448 17.7093 17.3489 18.2115C17.2227 18.3714 17.1581 18.5751 17.1045 18.7716L17.0104 19.1233C16.9495 19.3529 16.8923 19.5838 16.8588 19.8187C16.783 20.3449 16.8211 20.9514 17.1832 21.3731C17.3278 21.5418 17.5271 21.6624 17.7495 21.694C17.8736 21.7111 17.9961 21.69 18.1191 21.6744C18.2441 21.6588 18.3645 21.6839 18.4896 21.6719C18.6884 21.6523 18.7753 21.8903 18.701 22.0399C18.6608 22.1203 18.6136 22.1895 18.5599 22.2483C18.603 22.2854 18.6443 22.3256 18.6839 22.3678C18.8014 22.4054 18.9068 22.4863 18.9857 22.5932C19.0495 22.6796 19.0825 22.7735 19.0881 22.8724C19.0951 22.897 19.1011 22.9221 19.1067 22.9477L19.2144 23.1225C19.2381 23.1609 19.2617 23.1988 19.2854 23.2359C19.5595 23.6677 19.8638 24.0332 20.2419 24.3777C20.6059 24.709 21.001 25.0058 21.343 25.3613L21.3833 25.4035C21.7021 25.7394 22.0382 26.1461 21.9134 26.6346C21.8813 26.7601 21.706 26.8505 21.5915 26.7656C21.2235 26.4925 21.0382 26.0597 20.7259 25.7283C20.4045 25.3869 20.0486 25.0801 19.7263 24.7397C19.4215 24.4183 19.1809 24.0543 18.9997 23.6537C18.9274 23.7335 18.822 23.7902 18.6759 23.8123C18.4248 23.85 18.1908 23.7029 18.0814 23.4854C18.0111 23.5166 17.9393 23.5447 17.867 23.5668C17.4864 23.6833 17.2469 23.26 17.3905 22.9472C17.4673 22.7795 17.5632 22.6339 17.6823 22.5114C17.3102 22.4602 16.9316 22.2679 16.6871 22.0279C16.0736 21.4249 15.9892 20.5186 16.1273 19.7127C16.2006 19.2854 16.3271 18.8531 16.4913 18.452C16.5199 18.3822 16.5505 18.3119 16.5841 18.2426C16.5656 18.2421 16.5465 18.2341 16.5344 18.2185C16.4235 18.0669 16.2884 17.9429 16.2061 17.7731C16.1302 17.6175 16.0459 17.4598 15.9861 17.2977C15.8632 16.9658 15.8029 16.5912 15.7628 16.2403C15.6799 15.5218 15.712 14.8078 15.822 14.0938C16.0092 12.8777 16.4615 11.714 17.1278 10.6928C17.0916 10.6738 17.0568 10.6508 17.0244 10.6236L17.0084 10.6096L16.9824 10.5861C16.7922 10.414 16.8087 10.0915 16.9824 9.91726L17.0373 9.86226C17.1067 9.79324 17.1666 9.73855 17.2789 9.6634C17.2954 9.6523 17.3124 9.64186 17.3295 9.63212C17.2707 9.52357 17.2504 9.39664 17.2913 9.25661C17.4339 8.76877 18.1358 8.78604 18.5807 8.99878C19.0729 8.5595 19.6187 8.17816 20.2102 7.86937C21.6192 7.13431 23.2122 6.62167 24.7678 6.30837ZM17.4849 19.1569C17.748 19.0711 18.0975 19.2513 18.334 19.3598C18.6337 19.4973 18.8888 19.7007 19.1358 19.9156C19.2588 20.023 19.2809 20.1988 19.2503 20.3489C19.2472 20.3639 19.2443 20.3795 19.2407 20.3951C19.2081 20.5552 19.0293 20.6813 18.8712 20.6767C18.5403 20.6677 18.3827 20.382 18.1954 20.14C18.1733 20.1792 18.1457 20.2153 18.1115 20.2424L18.0884 20.2605C18.0107 20.3197 17.925 20.367 17.8223 20.3624C17.7495 20.3589 17.6798 20.3403 17.6154 20.3067C17.4548 20.2218 17.384 20.014 17.4277 19.8448C17.4548 19.7383 17.517 19.655 17.5984 19.5972L17.568 19.5765C17.5032 19.5314 17.444 19.4838 17.3979 19.4135L17.3875 19.3969H17.3915C17.3413 19.3106 17.374 19.1931 17.4849 19.1569Z" fill="black"/>
<path fill-rule="evenodd" clip-rule="evenodd" d="M33.8541 20.6627C33.2445 21.2926 32.2268 21.4733 31.4158 21.1355C29.3333 20.2654 30.3526 17.5516 31.9587 16.8228C32.1593 16.7728 32.4273 16.6542 32.6716 16.6273C32.6937 16.6164 32.7418 16.6478 32.8001 16.6181C34.571 16.8158 34.9743 19.5649 33.8541 20.6627M27.1372 20.8239C26.4535 21.7307 25.1824 22.0105 24.1438 21.5889C22.0922 20.781 22.8199 18.3745 24.2236 17.4311C27.1888 16.3169 28.4132 19.1519 27.1372 20.8239M22.6896 18.8146C22.6877 18.8137 22.6858 18.8133 22.6839 18.8124C22.6947 18.8076 22.7056 18.8028 22.7164 18.798C22.7128 18.8071 22.709 18.8162 22.7056 18.8254C22.7003 18.8218 22.6956 18.8175 22.6896 18.8146M35.2655 17.8344C35.0981 17.8347 34.8563 17.8623 34.7178 17.9784C34.376 16.8259 33.1147 15.7593 32.0177 16.5371C31.1539 16.8149 30.5128 17.431 30.1485 18.2501C29.4916 17.8594 28.4587 18.0262 27.8891 18.5429C27.516 17.3103 26.5979 16.8786 25.5051 16.8149C24.3124 16.6195 23.1235 17.7779 22.7526 18.7072C22.4441 18.6721 21.9832 18.5739 21.6931 18.7643C19.8099 18.2704 16.5174 17.9981 16.1346 18.2725C15.8617 18.3772 15.712 19.0212 16.0931 19.0559C16.4252 19.0088 16.0543 18.5841 16.3891 18.5377C18.1727 18.4272 19.9041 18.7864 21.6688 18.9371C21.8264 19.149 22.3355 19.2199 22.607 19.1348C22.1793 20.7111 23.1027 21.7836 24.4862 22.1048C26.6285 22.5969 28.4923 20.6806 27.9321 18.6872C28.581 18.3644 29.3275 18.3783 30.0344 18.5483C28.8531 22.8959 35.8551 22.7009 34.7615 18.1274C35.4893 18.4894 35.6474 17.9074 35.2655 17.8344" fill="black"/>
<path fill-rule="evenodd" clip-rule="evenodd" d="M29.6993 23.3143C29.8716 23.0103 30.3857 23.0597 30.4642 23.4142C30.6236 24.1329 29.7666 24.7966 29.1157 24.8132C28.4689 24.8296 27.7431 24.279 27.8367 23.5836C27.8599 23.4116 28.0896 23.4325 28.168 23.5404L28.1984 23.5817C28.4111 23.8675 28.6918 24.1633 29.0866 24.0937C29.2503 24.0648 29.3989 23.9626 29.4978 23.831C29.6171 23.6722 29.604 23.4826 29.6993 23.3143ZM25.5863 18.0563C25.6739 18.0322 25.7624 18.0415 25.8401 18.0745C26.0135 18.1063 26.1584 18.2509 26.2093 18.416C26.2133 18.4303 26.2178 18.4444 26.2227 18.4584L26.2305 18.4792L26.2097 18.4263C26.2193 18.4784 26.2617 18.5332 26.277 18.5855C26.2957 18.6498 26.3003 18.7229 26.294 18.7937C26.3491 18.7942 26.4042 18.7961 26.4593 18.8009L26.5124 18.8056C26.8098 18.8333 27.1363 18.884 27.3126 19.1409C27.4116 19.2853 27.3187 19.5453 27.1368 19.5731C26.8568 19.616 26.6156 19.461 26.3365 19.43C26.0727 19.4006 25.7966 19.4174 25.5363 19.4651C24.9987 19.5634 24.5047 19.7813 23.9808 19.918L23.9095 19.9361V19.9361L23.9096 19.9358C23.8198 19.9574 23.7179 19.8326 23.8067 19.7596C24.2264 19.4148 24.7637 19.1354 25.2931 18.9653C25.216 18.8426 25.1921 18.681 25.2448 18.5493C25.253 18.522 25.2631 18.4955 25.2738 18.469L25.2961 18.4146V18.4146C25.2983 18.389 25.3032 18.3636 25.3103 18.3387L25.3115 18.3312V18.3312L25.3121 18.3316V18.3316C25.3515 18.2035 25.4545 18.0927 25.5863 18.0563ZM30.9408 18.0761C31.0556 17.9613 31.2169 17.9783 31.3367 18.0687L31.3526 18.0811V18.0811C31.4655 18.1313 31.559 18.2409 31.6203 18.3425C31.684 18.4479 31.7264 18.5554 31.728 18.6715C32.0059 18.6724 32.272 18.7558 32.476 18.9801C32.5419 19.0525 32.5869 19.1642 32.5506 19.2623L32.529 19.3207V19.3207C32.4605 19.5061 32.1526 19.6128 32.0479 19.3948L32.0431 19.3842C31.9319 19.1253 31.5049 19.1525 31.278 19.1789C31.1199 19.1975 30.9637 19.2368 30.8109 19.2808C30.7571 19.2963 30.7038 19.3132 30.6505 19.3304L30.5972 19.3476C30.5688 19.3568 30.4208 19.4372 30.5129 19.4182C30.5377 19.4131 30.5563 19.4491 30.531 19.4612C30.4213 19.5137 30.3042 19.4092 30.3115 19.2913C30.3242 19.0867 30.6492 18.9745 30.8055 18.9039L30.8149 18.8996C30.8749 18.8719 30.9377 18.8453 31.0025 18.8207C30.966 18.7665 30.9359 18.7062 30.9109 18.6415C30.8872 18.5805 30.8713 18.5211 30.8627 18.4562C30.8541 18.4245 30.8541 18.3928 30.8627 18.361L30.864 18.3519V18.3519C30.8595 18.3309 30.8574 18.3092 30.8577 18.2874L30.8568 18.2789H30.8577C30.8608 18.2024 30.8912 18.1258 30.9408 18.0761ZM29.1068 20.2555C29.5478 20.3917 30.2753 20.7629 30.0455 21.3359C29.7246 21.8621 28.8736 21.4753 28.4612 21.3053C28.0907 21.1826 27.8978 21.7018 28.2561 21.8583C31.2164 23.0295 31.2055 19.9386 29.2141 19.984C28.9949 19.989 28.988 20.2102 29.1068 20.2555ZM25.1902 16.2253L25.2654 16.2034C25.6563 16.0901 26.0553 15.8946 26.4024 16.1997C26.5386 16.3195 26.5667 16.5684 26.4692 16.7179C26.2471 17.0583 25.9177 17.0063 25.5589 17.0353C25.2858 17.0574 25.0167 17.1377 24.7617 17.2379C24.5534 17.3199 24.3601 17.4353 24.1777 17.5641C23.9984 17.6907 23.876 17.8885 23.6921 18.0025C23.6247 18.0442 23.5469 18.0012 23.5227 17.9335C23.4369 17.6933 23.5818 17.394 23.7044 17.1893C23.8541 16.9395 24.0815 16.7353 24.3259 16.5807C24.5936 16.4115 24.8896 16.3137 25.1902 16.2253V16.2253ZM30.8858 15.9668C31.5465 15.9666 32.1823 16.3341 32.5518 16.8728C32.6774 17.0558 32.5854 17.3269 32.4051 17.4323C32.2029 17.5506 31.9867 17.4654 31.8534 17.2959L31.8455 17.2856C31.6336 17.0034 31.3604 16.7811 31.0366 16.6364C30.8786 16.5658 30.7038 16.5085 30.5329 16.4794L30.4777 16.47C30.4003 16.457 30.3105 16.4446 30.2404 16.4567C30.2029 16.4617 30.1685 16.4741 30.1368 16.4929C30.152 16.5263 30.1126 16.5664 30.0762 16.5465C29.912 16.4563 29.9322 16.2954 30.0678 16.1704C30.2596 15.9935 30.6381 15.9668 30.8858 15.9668Z" fill="black"/>
</svg>
