<svg width="48" height="48" viewBox="0 0 48 48" fill="none" xmlns="http://www.w3.org/2000/svg">
<ellipse cx="24" cy="24" rx="24" ry="24" fill="#C1F0FF"/>
<mask id="mask0_3272_92623" style="mask-type:alpha" maskUnits="userSpaceOnUse" x="0" y="0" width="48" height="48">
<ellipse cx="24" cy="24" rx="24" ry="24" fill="#C1F0FF"/>
</mask>
<g mask="url(#mask0_3272_92623)">
<path fill-rule="evenodd" clip-rule="evenodd" d="M34.8001 35.7775C34.3625 34.0805 33.96 33.3609 33.1826 32.7711C32.4554 32.2193 31.3939 31.756 29.8451 31.4175C28.2319 31.1355 28.1862 30.2972 27.7817 28.9499C27.6637 28.5448 27.0789 28.4371 26.8265 28.729C26.791 28.6906 26.7539 28.6554 26.7155 28.6237C26.7498 28.4305 26.4685 27.8768 26.4779 27.692C26.576 25.7634 25.9451 24.7949 24.3702 24.4348C24.0277 24.3565 21.7014 24.3104 21.3675 24.4027C19.9076 24.8063 18.4705 26.0875 18.6904 27.631C18.2321 28.2298 17.7836 28.5952 17.0767 28.7881C15.9757 28.9279 16.5287 44.5229 18.4409 53.866C19.2613 57.8747 38.8786 51.0517 37.9921 49.044C38.1178 48.676 37.8888 48.2715 37.9921 47.8915C38.067 47.6164 38.2586 47.5027 38.355 47.2303C38.4907 46.8471 38.3431 46.333 38.1903 45.9419C38.1277 45.747 38.3056 45.5372 38.355 45.3384C38.5894 44.4003 38.0526 44.483 37.6656 43.8559C37.6714 43.8539 37.772 43.4063 37.7716 43.4085C37.8308 43.0889 37.6824 42.6794 37.5529 42.4126C37.4654 42.2323 37.2779 42.1194 37.0916 42.1401C37.2792 41.5034 37.5165 40.9736 37.7716 40.3602C38.2227 39.2789 38.6518 38.1477 39.2997 37.169C39.565 36.7682 39.3507 36.3996 38.9213 36.3723C37.5317 36.284 36.1572 36.084 34.8001 35.7775Z" fill="white"/>
<path fill-rule="evenodd" clip-rule="evenodd" d="M32.6307 35.9092L29.4585 41.277C29.4585 41.277 30.211 41.3521 30.5156 41.4984C30.8201 41.6446 32.2185 43.4221 32.2185 43.4221L32.4406 44.4009L31.9142 45.1899L32.1195 45.6854C32.1195 45.6854 32.266 45.3497 32.6307 45.0892C32.9954 44.8286 33.7997 44.4009 33.7997 44.4009C33.7997 44.4009 33.5324 44.2579 33.5324 44.09C33.5324 43.9222 33.297 43.2061 33.7997 42.9356C34.3024 42.6651 36.9001 42.032 36.9001 42.032L39.5329 36.4793L32.6307 35.9092Z" fill="#FF8DAC"/>
<path fill-rule="evenodd" clip-rule="evenodd" d="M18.4797 28.8252L28.5524 30.5928L33.1826 32.7717L33.9385 33.3539L29.4586 41.2771L22.5412 42.539L20.7789 47.116L21.1386 52.2753L32.3918 50.9338L37.2459 50.357L38.3869 54.9631L38.1808 56.858L37.881 57.8188L25.8473 61.0673C25.8473 61.0673 19.7197 60.4734 18.6334 60.4734C17.5472 60.4734 9.58309 61.2642 9.58309 61.2642L7.74042 61.0673C7.74042 61.0673 3.6635 56.7709 3.03118 55.2418C2.39885 53.7127 1.03149 44.4177 1.03149 44.4177L1.18205 42.9895L4.70441 33.9259C4.70441 33.9259 5.17478 33.4989 5.76778 32.7717C6.36079 32.0445 18.4797 28.8252 18.4797 28.8252Z" fill="#9DDADB"/>
<path fill-rule="evenodd" clip-rule="evenodd" d="M36.7102 41.9173C35.7999 41.9636 34.8886 42.18 34.0652 42.5721C33.7283 42.7327 33.423 42.9647 33.3337 43.3463C33.2885 43.5412 33.2995 43.7425 33.3236 43.9393C33.3417 44.0884 33.3462 44.2787 33.4757 44.3796C33.4978 44.3967 33.5214 44.4097 33.546 44.4193C33.2423 44.5563 32.953 44.7211 32.696 44.8907C32.461 45.0459 32.2195 45.2849 32.1111 45.5545C32.102 45.5239 32.093 45.4953 32.084 45.4681C31.8992 44.9219 31.6145 44.4745 31.1661 44.1737C31.1152 43.9882 30.5688 43.1897 30.0612 43.2198C29.5054 43.2524 29.0583 43.2931 28.5557 43.5486C28.3725 43.5446 28.1897 43.5471 28.009 43.5552C27.9778 43.5562 27.9793 43.5984 28.009 43.6019C28.1556 43.6205 28.3022 43.641 28.4488 43.6651C28.7973 43.7209 29.1447 43.7917 29.4846 43.8795C29.8923 43.985 30.3141 44.0909 30.6952 44.2752C31.4342 44.6332 31.8916 45.5691 31.7978 46.3835C31.7822 46.517 31.7305 46.9207 31.5452 46.879C31.3886 46.8439 31.3263 46.517 31.2716 46.396C31.125 46.0747 30.8609 45.8648 30.544 45.7227C30.172 45.5555 29.7738 45.4425 29.3882 45.311C29.1698 45.2362 28.9514 45.1614 28.7325 45.0871C28.5086 45.0103 28.2957 44.9043 28.0572 44.958C27.9131 44.9906 27.8965 45.1624 27.9773 45.2608C28.1004 45.4109 28.2831 45.4551 28.4604 45.5168C28.6943 45.5982 28.9278 45.6796 29.1613 45.7609C29.5222 45.8864 29.9004 45.9923 30.2523 46.146L30.2413 46.1711C30.2126 46.163 30.179 46.1917 30.1845 46.2268C30.2373 46.5517 30.3106 46.9272 30.2292 47.2526C30.165 47.5107 29.9385 47.7964 29.6443 47.7205C29.6905 47.6784 29.7076 47.6055 29.6764 47.5383C29.5599 47.2892 28.0336 46.3061 27.8975 46.6712C27.893 46.6842 27.907 46.6937 27.9181 46.6918C28.0341 46.6676 28.2284 46.8655 28.3212 46.9282C28.4553 47.0187 28.5913 47.107 28.724 47.1999C28.8691 47.3013 29.0106 47.4078 29.1487 47.5177C29.2572 47.6041 29.339 47.6939 29.4635 47.7376C29.3983 47.7687 29.3465 47.8265 29.3245 47.9003C29.2682 48.0926 29.1598 48.2558 28.9715 48.3407C28.7742 48.429 28.5517 48.3732 28.3439 48.3949C28.0607 48.4235 27.8137 48.5581 27.6073 48.7504C27.174 49.155 26.9566 49.868 26.3506 50.0593C25.9886 50.1733 25.5869 50.1014 25.2204 50.0497C24.8111 49.992 24.4125 49.9463 24.0003 50.0066C23.6056 50.0643 23.2326 50.2009 22.8721 50.3676C22.5342 50.5237 22.1606 50.7005 21.8609 50.9334C21.7991 50.7431 21.7368 50.5548 21.6896 50.3605C21.5782 49.9012 21.5179 49.4332 21.5033 48.9612C21.4898 48.5119 21.5149 48.0605 21.5535 47.6131C21.5727 47.3896 21.6028 47.1672 21.6219 46.9438C21.6268 46.8876 21.6369 46.8273 21.6445 46.7671C22.1797 46.4512 22.742 46.2093 23.3088 45.9602C23.3104 45.9597 23.3119 45.9587 23.3134 45.9582C23.331 45.9501 23.3481 45.9427 23.3656 45.9351C23.3651 45.9341 23.3646 45.9331 23.3636 45.9321C23.4284 45.8925 23.4736 45.8397 23.5007 45.7804C24.3176 45.2387 25.0004 44.4992 25.5096 43.6365C25.7229 43.275 25.9283 42.8999 26.2075 42.5832C26.5047 42.2452 26.8577 42.0444 27.2945 41.9399C27.8051 41.8175 28.3313 41.7441 28.8545 41.7024C29.1402 41.6799 29.4595 41.6447 29.7708 41.6463C29.9877 41.6477 30.2001 41.6663 30.3949 41.72C30.6836 41.7993 30.8523 42.0188 31.0336 42.2407C31.2068 42.4536 31.379 42.667 31.5407 42.8889C31.6938 43.0993 31.8384 43.3167 31.964 43.5446C32.0393 43.6812 32.1091 43.8218 32.1678 43.9669C32.1884 44.0181 32.2155 44.0763 32.2281 44.1296C32.2406 44.1833 32.2175 44.2401 32.2778 44.2401C32.0292 44.2435 31.864 44.8633 32.1111 44.8487C32.4584 44.8285 32.633 44.4121 32.565 44.0427C32.4435 43.3836 31.7878 42.5876 31.6581 42.4189C31.3714 42.0464 31.0758 41.5604 30.6168 41.3871C30.6103 41.3846 30.6033 41.3822 30.5968 41.3801C30.7303 41.2536 30.8358 41.102 30.9367 40.9478C31.0406 40.7891 31.1646 40.6074 31.1988 40.4191C31.2204 40.2991 31.0712 40.2308 31.0004 40.3357C30.8975 40.4889 30.8478 40.6827 30.771 40.8509C30.6927 41.0216 30.5973 41.1828 30.5219 41.355C30.3407 41.2993 30.1449 41.2737 29.9455 41.2652C30.1971 40.9248 30.6268 40.268 30.6786 40.1836C30.9166 39.793 31.143 39.3904 31.3594 38.9871C31.5934 38.5503 31.7937 38.0954 32.0177 37.6536C32.1447 37.4031 32.2727 37.1505 32.4138 36.9075C32.4625 36.8241 32.5147 36.7408 32.574 36.665C32.5855 36.6499 32.6001 36.6374 32.6137 36.6233C32.6292 36.6147 32.6453 36.6052 32.6543 36.6002C32.7356 36.5535 32.7643 36.4451 32.8215 36.3762C32.9129 36.2653 33.0204 36.2523 33.1579 36.2507C33.4511 36.2477 33.7454 36.2593 34.0381 36.2673C34.4684 36.2793 34.8982 36.2964 35.328 36.319C35.458 36.326 35.5875 36.3331 35.7176 36.3411C36.3427 36.3783 36.9673 36.427 37.5904 36.4868C38.1417 36.5394 38.693 36.6253 39.2448 36.6665C38.4977 38.4414 37.6692 40.1842 36.7313 41.8662C36.7218 41.8832 36.7147 41.9003 36.7102 41.9173ZM32.565 46.4899C32.4445 46.5452 32.3275 46.6139 32.2185 46.6923C32.2366 46.5703 32.2411 46.4417 32.2361 46.3127C32.326 46.4091 32.4409 46.4643 32.565 46.4899ZM37.7089 43.4367C37.7004 43.4377 37.6923 43.4422 37.6883 43.4507C37.5216 43.7947 37.5914 44.1788 37.8635 44.4484C38.0061 44.589 38.3169 44.7476 38.3068 44.9786C38.2983 45.1654 38.095 45.322 38.0081 45.4762C37.9273 45.6198 37.8972 45.7774 37.9619 45.9331C38.0448 46.1324 38.2763 46.2117 38.3556 46.4076C38.456 46.6561 38.2928 46.9559 38.1783 47.1722C38.0719 47.3726 37.9343 47.5729 37.8429 47.7848C37.2309 48.1017 35.8421 48.677 35.6749 48.7092C35.4711 48.7488 35.2667 48.7865 35.0618 48.8217C34.6687 48.8899 34.2746 48.9532 33.8794 49.0089C33.6545 49.0405 33.4291 49.0717 33.2036 49.0963C33.0068 49.1173 32.7849 49.146 32.6262 48.9979C32.3064 48.6986 32.4856 48.197 32.688 47.8948C32.692 47.8888 32.692 47.8832 32.6905 47.8782C32.8813 47.8335 33.0716 47.7813 33.2614 47.7446C33.6264 47.6743 33.9939 47.6151 34.3619 47.5624C35.1181 47.4544 35.8793 47.3831 36.6394 47.3114C36.8277 47.2932 36.8297 46.9971 36.6394 47.0146C35.5473 47.1146 34.4498 47.2094 33.3723 47.4198C33.1022 47.472 32.834 47.5312 32.5675 47.598C32.4414 47.6292 32.3064 47.6779 32.1743 47.6794C32.1663 47.6794 32.1582 47.6794 32.1502 47.6789C31.8917 47.6709 31.854 47.4494 31.9961 47.2652C32.0137 47.2425 32.0317 47.2199 32.0503 47.1984C32.3014 46.8991 32.6141 46.6993 32.9365 46.4924C33.2975 46.4432 33.6575 46.3337 34.011 46.2534C34.8836 46.0546 35.7563 45.8558 36.6294 45.6574C36.8006 45.6183 36.7278 45.3552 36.5566 45.3938C35.8938 45.544 35.2311 45.6941 34.5683 45.8442L33.5983 46.0642C33.4045 46.1078 33.1624 46.1957 32.9344 46.2274C32.822 46.2429 32.7131 46.2449 32.6147 46.2218C32.2968 46.1465 32.2808 45.7493 32.4178 45.5133C32.5715 45.2483 32.8617 45.0825 33.1193 44.9324C33.5656 44.6718 34.0406 44.4845 34.5045 44.2686C34.5869 44.2506 34.6692 44.2325 34.7516 44.2144C35.2306 44.109 35.7778 44.0573 36.2287 43.864C36.3638 43.8067 36.2899 43.5938 36.1564 43.5968C35.8065 43.6044 35.4404 43.7289 35.0985 43.8027C34.7285 43.883 34.3579 43.9629 33.9879 44.0427C33.9507 44.0507 33.7308 44.121 33.6977 44.1055C33.6766 44.0954 33.6691 44.0222 33.662 43.9739C33.6394 43.8153 33.6229 43.6486 33.6475 43.4894C33.7017 43.1324 33.9994 42.9647 34.3007 42.8276C34.9715 42.5229 35.7071 42.3321 36.4391 42.2558C36.6078 42.2382 36.7765 42.2272 36.9462 42.2216C37.1455 42.2156 37.3097 42.1804 37.4106 42.3768C37.5693 42.686 37.6567 43.0838 37.7089 43.4367ZM36.7773 54.6507C36.6311 54.1452 36.6709 53.6054 36.5708 53.0898C36.5191 52.8238 36.4486 52.5599 36.3716 52.3002C36.3094 52.0904 36.2057 51.8673 36.194 51.6484C36.1933 51.6338 36.2105 51.6254 36.2223 51.6321C36.4286 51.7502 36.5869 52.0055 36.7045 52.2058C36.8453 52.4456 36.9528 52.6966 37.0395 52.9606C37.2123 53.4864 37.3542 54.1207 37.1313 54.6507C37.065 54.8084 36.832 54.84 36.7773 54.6507ZM31.0731 58.4774C30.8553 58.3254 30.6966 58.1129 30.5119 57.9254C30.3302 57.741 30.6142 57.457 30.7959 57.6414C30.9535 57.8013 31.0904 58.0012 31.2758 58.1306C31.3651 58.1928 31.4064 58.3053 31.3479 58.4054C31.2962 58.4937 31.1622 58.5395 31.0731 58.4774ZM29.8585 52.6357C30.2561 52.4638 30.6471 52.2766 31.0632 52.1528C31.3119 52.0787 31.4172 52.4665 31.17 52.54C30.7868 52.6541 30.4273 52.8242 30.0612 52.9825C29.8261 53.0841 29.6218 52.738 29.8585 52.6357ZM25.6595 52.5154C25.5622 52.2755 25.951 52.1721 26.0468 52.4087C26.1571 52.6809 26.2835 52.9462 26.3938 53.2184C26.491 53.4583 26.1023 53.5617 26.0065 53.3252C25.8962 53.0529 25.7697 52.7877 25.6595 52.5154ZM21.515 57.3063C21.4502 57.3927 21.3422 57.4395 21.2402 57.3784C21.1547 57.3272 21.1025 57.191 21.1681 57.1036C21.3596 56.8485 21.5535 56.5964 21.7779 56.3689C21.9598 56.1845 22.2437 56.4687 22.0619 56.6529C21.8616 56.8561 21.686 57.0784 21.515 57.3063ZM20.9223 30.4247C21.1067 30.5507 21.2682 30.7037 21.4257 30.8611C21.6089 31.0441 21.3248 31.3281 21.1417 31.145C21.009 31.0124 20.8751 30.8777 20.7196 30.7716C20.6298 30.7102 20.5895 30.5961 20.6475 30.4968C20.6996 30.4078 20.8327 30.3636 20.9223 30.4247ZM26.952 36.8885C26.8478 37.0973 26.7539 37.3019 26.748 37.5391C26.7417 37.7975 26.34 37.7977 26.3464 37.5391C26.3541 37.2287 26.4686 36.9594 26.6052 36.6858C26.7208 36.4542 27.0671 36.6579 26.952 36.8885ZM29.1643 31.6972C29.3803 31.5533 29.5812 31.9014 29.3671 32.0441C29.1936 32.1597 29.02 32.2755 28.8465 32.3911C28.6307 32.535 28.4298 32.187 28.6438 32.0443C28.8173 31.9286 28.9908 31.8129 29.1643 31.6972ZM19.5686 40.7737C19.5317 41.029 19.1447 40.9198 19.1812 40.667C19.2377 40.2763 19.3067 39.8907 19.4127 39.5101C19.482 39.2611 19.8694 39.3675 19.8 39.6169C19.694 39.9975 19.625 40.383 19.5686 40.7737ZM18.1603 45.3749C17.9018 45.3694 17.9017 44.9678 18.1603 44.9732C18.3943 44.9782 18.6243 45.0398 18.85 45.0961C19.101 45.1588 18.994 45.5461 18.7432 45.4834C18.5524 45.4358 18.3581 45.3791 18.1603 45.3749ZM17.6404 54.6435C17.5516 54.6868 17.4605 54.7257 17.3707 54.7667C17.1909 54.8489 17.0112 54.9312 16.8315 55.0137C16.4573 55.1855 16.0832 55.3579 15.7095 55.5309C14.9614 55.8772 14.2075 56.2113 13.4576 56.5538C12.6929 56.9031 11.9301 57.2571 11.1684 57.6129C10.8095 57.7805 10.4479 57.9419 10.0869 58.1051C9.77836 58.2446 9.39692 58.4884 9.05816 58.5113C9.04074 58.5126 9.03491 58.4905 9.04485 58.4792C9.17284 58.3337 9.37699 58.249 9.54519 58.1544C9.717 58.0577 9.89203 57.9668 10.0663 57.8745C10.4295 57.6821 10.7931 57.4912 11.1599 57.3055C11.8934 56.9343 12.6284 56.5658 13.3635 56.1977C14.1132 55.8223 14.862 55.4444 15.6183 55.0823C15.9744 54.9118 16.3308 54.7418 16.6874 54.5724C16.8807 54.4806 17.074 54.389 17.2673 54.2975C17.3508 54.258 17.4334 54.2153 17.5188 54.18C17.6322 54.1331 17.7184 54.1426 17.8354 54.1137C18.0262 54.0666 18.1088 54.3092 17.9623 54.4149C17.8417 54.5019 17.7782 54.5763 17.6404 54.6435ZM14.9589 58.7622C14.9177 58.6621 15.004 58.5403 15.0992 58.5152C15.2132 58.4851 15.3046 58.5544 15.3463 58.6555C15.4564 58.9233 15.6132 59.1691 15.8151 59.3767C15.9956 59.5621 15.7117 59.8463 15.5311 59.6607C15.2781 59.4005 15.0963 59.0964 14.9589 58.7622ZM12.9861 52.3148C12.803 52.1318 13.0871 51.8478 13.2702 52.0308L13.7907 52.5514C13.9738 52.7345 13.6897 53.0185 13.5067 52.8354L12.9861 52.3148ZM7.64537 51.4661C7.27111 51.5759 6.83459 51.6768 6.57943 51.9961C6.56698 52.0117 6.54604 51.9917 6.55352 51.9761C6.88019 51.2989 7.81699 51.0614 8.46559 50.8241C8.92435 50.6563 9.39506 50.5171 9.86974 50.3928C9.82229 49.8513 9.95314 49.2709 9.99863 48.732C10.0472 48.1567 10.0867 47.5799 10.107 47.0028C10.1277 46.4141 10.1327 45.8215 10.1134 45.2326C10.0941 44.6459 10.0179 44.0664 9.98457 43.4817C9.98136 43.4251 10.0601 43.4224 10.0771 43.4692C10.2742 44.0118 10.3584 44.6128 10.4225 45.185C10.4886 45.7744 10.5106 46.3621 10.5021 46.9549C10.4934 47.5644 10.4579 48.1725 10.4093 48.7801C10.3862 49.0681 10.3595 49.3557 10.3342 49.6435C10.3149 49.8631 10.306 50.081 10.2612 50.2936C10.5475 50.2234 10.8345 50.1569 11.1205 50.0923C12.0326 49.8865 12.9485 49.6955 13.8568 49.4729C14.3027 49.3637 14.7421 49.2328 15.186 49.1166C15.6039 49.0072 16.0451 48.8746 16.4742 48.8258C16.6273 48.8083 16.6468 49.0178 16.5454 49.0889C16.1967 49.3338 15.7335 49.5043 15.3306 49.6413C14.9264 49.7789 14.5061 49.8778 14.0917 49.9797C13.2276 50.1922 12.3552 50.366 11.4842 50.547C10.6144 50.7278 9.74291 50.9073 8.88288 51.1303C8.4687 51.2378 8.05593 51.3456 7.64537 51.4661ZM5.59448 40.7202C5.37085 40.8515 5.16895 40.5042 5.39178 40.3734C5.68335 40.2022 5.99409 40.0737 6.30735 39.9482C6.54775 39.852 6.65118 40.2407 6.41414 40.3356C6.13262 40.4483 5.85647 40.5665 5.59448 40.7202ZM4.7847 55.6431C4.56047 55.7732 4.35843 55.4259 4.58201 55.2963C4.89602 55.1143 5.2399 54.9929 5.56531 54.8336C5.79682 54.7202 6.00017 55.0668 5.768 55.1805C5.44265 55.3397 5.09871 55.4611 4.7847 55.6431ZM4.42049 47.1722C4.63729 47.3782 4.92665 47.4751 5.19948 47.5833C5.43737 47.6775 5.33304 48.0659 5.09269 47.9706C4.75277 47.8358 4.40653 47.7127 4.13645 47.4562C3.94857 47.2777 4.23311 46.9942 4.42049 47.1722ZM6.81903 35.668C7.05737 35.7615 6.95299 36.1498 6.71223 36.0554C6.44522 35.9506 6.16947 35.8709 5.90246 35.7662C5.66417 35.6727 5.7685 35.2844 6.00926 35.3788C6.27627 35.4835 6.55202 35.5633 6.81903 35.668ZM11.0503 31.0986C11.3036 31.0559 11.4114 31.443 11.1571 31.4859C10.8416 31.5392 10.5309 31.6015 10.2316 31.7173C9.98999 31.8108 9.88631 31.4223 10.1249 31.33C10.4242 31.2142 10.7348 31.1518 11.0503 31.0986ZM12.4484 42.2241C12.2162 42.1099 12.4199 41.7637 12.6511 41.8773C12.8947 41.997 13.1471 42.0896 13.4129 42.1462C13.666 42.2001 13.5582 42.5873 13.3061 42.5336C13.007 42.4698 12.7223 42.3588 12.4484 42.2241ZM13.7688 35.9572C14.0189 35.8887 14.1246 36.2763 13.8756 36.3446C13.4376 36.4646 12.9865 36.527 12.5452 36.6338C12.2937 36.6946 12.1873 36.3072 12.4384 36.2465C12.8797 36.1396 13.3308 36.0773 13.7688 35.9572ZM19.3705 33.9906C19.6247 34.0377 19.5164 34.4247 19.2637 34.378C18.9948 34.3282 18.7222 34.3274 18.4495 34.3273C18.1906 34.3272 18.1911 33.9255 18.4495 33.9256C18.7593 33.9257 19.0651 33.9341 19.3705 33.9906ZM37.6396 36.0891C36.9834 36.0263 36.3261 35.9761 35.6679 35.9385C35.6372 35.9369 35.6071 35.935 35.5765 35.9334C35.573 35.9264 35.5685 35.9198 35.5639 35.9128C35.3491 35.5975 35.1909 35.2822 35.0538 34.9257C34.9228 34.5863 34.7958 34.2364 34.5939 33.9301C34.3637 33.5812 34.0529 33.3081 33.7123 33.0715C33.5057 33.2104 33.3139 33.3731 33.1385 33.5455C32.9539 33.7269 32.6698 33.4429 32.8545 33.2615C33.0104 33.1082 33.1768 32.9667 33.3526 32.8388C33.1495 32.7154 32.9423 32.5994 32.7402 32.484C31.9825 32.0518 31.2068 31.6521 30.415 31.2866C30.047 31.1163 29.6744 30.9652 29.2993 30.8121C29.0975 30.7298 28.8982 30.6238 28.6963 30.5284C28.7109 30.3858 28.6682 30.2261 28.5588 30.1322C28.4779 30.0634 28.4152 30.0378 28.3188 29.9892C28.2972 29.9816 28.2841 29.9771 28.2781 29.9746C28.2826 29.9756 28.2957 29.9796 28.3172 29.9866C28.3685 30.0103 28.3725 30.0032 28.3293 29.966C28.3268 29.8847 28.1666 29.713 28.13 29.6292C28.0024 29.3414 27.9628 29.0372 27.7745 28.7751C27.5149 28.4141 27.0791 28.2775 26.6729 28.4C26.6307 27.9657 26.6197 27.5124 26.456 27.1247C26.4515 27.1142 26.4369 27.1096 26.4304 27.1212C26.2597 27.4119 26.2451 27.7357 26.2321 28.0711C26.2195 28.3859 26.2315 28.7078 26.2727 29.0206C26.2466 29.0407 26.22 29.0598 26.1924 29.0783C26.0629 29.1637 25.9233 29.2295 25.7767 29.2782C25.4975 29.3706 25.2048 29.4107 24.9121 29.4248C24.1564 29.4609 23.3777 29.3846 22.6346 29.2551C21.8829 29.124 20.7306 28.9272 20.0619 28.5511C19.6205 28.3032 19.2133 28.0003 18.8006 27.7071C18.9502 27.2251 18.9884 26.707 18.8378 26.2998C18.8197 26.2511 18.7434 26.242 18.7288 26.2998C18.6344 26.6884 18.6068 27.079 18.4813 27.4631C18.4793 27.4686 18.4773 27.4747 18.4752 27.4802C18.4361 27.4536 18.3969 27.4275 18.3578 27.4013C18.2674 27.3416 18.1444 27.3863 18.0901 27.4716C17.223 28.8378 15.8498 28.9162 14.4078 29.1602C12.8297 29.4273 11.2436 29.7155 9.72629 30.2382C8.27525 30.7383 6.88847 31.4663 5.78989 32.5539C5.54121 32.8001 5.30864 33.0624 5.08912 33.3363C5.30151 33.3631 5.51214 33.4048 5.72005 33.4701C5.96623 33.5474 5.86044 33.9351 5.61326 33.8574C5.34604 33.7735 5.07587 33.7319 4.80293 33.7112C4.05647 34.7324 3.47444 35.8903 2.97115 37.03C2.00578 39.2151 1.37741 41.5422 1.08825 43.9115C1.24701 43.8163 1.40864 43.7257 1.57428 43.6414C1.80444 43.5243 2.00743 43.871 1.77702 43.9882C1.52116 44.1184 1.27262 44.2618 1.03182 44.4174C0.926629 45.4544 0.885859 46.4982 0.910562 47.5403C0.969307 50.0246 1.3047 52.5818 2.06337 54.9522C2.43542 56.1155 2.92847 57.2694 3.66303 58.2525C3.99542 58.6978 4.37299 59.0995 4.81784 59.4343C5.03324 59.597 5.26119 59.7422 5.50169 59.8646C5.81148 60.0233 6.21516 60.0755 6.48228 60.3C6.57014 60.3738 6.63793 60.4712 6.68914 60.5811C6.65952 60.79 6.656 60.9994 6.71324 61.2082C6.73132 61.2736 6.78052 61.3267 6.84127 61.3523C6.84228 61.3704 6.84228 61.388 6.84228 61.4051C6.84228 61.4131 6.85433 61.4151 6.85583 61.4071C6.85834 61.3915 6.86085 61.3759 6.86337 61.3599C6.88295 61.3664 6.90353 61.3695 6.92462 61.3695C7.6873 61.3723 8.45093 61.3537 9.21461 61.3278C9.15557 61.1469 9.0916 60.9676 9.03019 60.7867C8.9468 60.541 9.33486 60.4365 9.41751 60.6799C9.48936 60.8914 9.56447 61.101 9.6313 61.3133C10.4496 61.2829 11.2676 61.2463 12.0841 61.2193C13.8209 61.1615 15.5571 61.1425 17.2943 61.1059C19.9921 61.0487 22.7095 60.9316 25.4114 61.0461C25.5049 60.8478 25.6095 60.654 25.7086 60.4584C25.8256 60.2276 26.1721 60.4311 26.0555 60.6612C25.9865 60.7971 25.9151 60.9313 25.8473 61.067C26.3945 61.0954 26.9412 61.1329 27.4867 61.1842C28.4176 61.2715 29.3395 61.4267 30.2694 61.5231C31.2148 61.6215 32.1397 61.6039 33.0776 61.4478C33.2463 61.4197 33.3457 61.3177 33.3869 61.1912C33.3883 61.1907 33.3894 61.1897 33.3903 61.1882C33.4385 61.1319 33.4838 61.0853 33.5304 61.0446C33.5862 61.0085 33.6465 60.9778 33.7173 60.9507C33.8493 60.9005 33.9869 60.8698 34.1265 60.8492C34.2801 60.8262 34.4357 60.8241 34.5894 60.8051C34.7189 60.7885 34.8455 60.7639 34.9719 60.7338C35.1994 60.6796 35.4153 60.6088 35.6302 60.5149C35.8175 60.4331 35.9867 60.3156 36.1464 60.1875C36.4768 59.946 36.7629 59.6377 37.013 59.3174C37.1586 59.1301 37.2957 58.9358 37.4202 58.7335C37.6371 58.383 37.8219 58.019 38.0086 57.6519C38.0764 57.5432 38.1383 57.4318 38.1948 57.3181C37.8298 57.2105 37.4613 57.1229 37.0743 57.1166C36.8156 57.1125 36.8157 56.7108 37.0743 56.715C37.5181 56.722 37.9379 56.8257 38.355 56.9492C38.3753 56.8953 38.3948 56.8409 38.4128 56.7858C38.4625 56.6709 38.5037 56.5528 38.5378 56.4333C38.5579 56.3791 38.578 56.3249 38.5981 56.2707C38.6433 56.0829 38.6885 55.8946 38.7342 55.7063C38.825 55.4051 38.8968 55.0993 38.9496 54.7895C38.9937 54.5856 39.0279 54.3803 39.051 54.1724C39.1213 53.6688 39.1785 53.1662 39.1825 52.6571C39.1765 52.3433 39.1564 52.03 39.1223 51.7182C39.1077 51.5063 39.0831 51.2954 39.05 51.0861C39.0068 50.7748 38.9641 50.4665 38.8923 50.1592C38.8386 49.9514 38.7849 49.7435 38.7311 49.5356C38.5971 49.1023 38.4389 48.6775 38.2566 48.2623C38.2466 48.2362 38.1959 48.1789 38.1653 48.1784C38.1422 48.1779 38.11 48.199 38.1206 48.2272C38.1216 48.2297 38.1226 48.2327 38.1236 48.2352C38.1131 48.2116 38.103 48.1875 38.0925 48.1639C38.0835 48.1418 38.0483 48.0977 38.0212 48.0982C38.0197 48.0982 38.0181 48.0982 38.0162 48.0986C38.0232 48.0936 38.0297 48.0871 38.0363 48.0796C38.2165 47.8662 38.3335 47.5855 38.4625 47.3384C38.5695 47.1346 38.6704 46.9197 38.6995 46.6892C38.7251 46.4869 38.6905 46.2876 38.5634 46.1239C38.4188 45.9376 38.1467 45.8502 38.2978 45.5811C38.4696 45.2748 38.7221 45.0092 38.4706 44.6613C38.3425 44.484 38.1397 44.3867 37.9891 44.2325C37.8158 44.0542 37.7334 43.8158 37.738 43.5722C37.7486 43.5783 37.7626 43.5753 37.7676 43.5602C37.9132 43.1204 37.8078 42.6374 37.6587 42.2091C37.5773 41.9766 37.4051 41.9128 37.2048 41.9013C38.0724 40.2068 38.8842 38.485 39.6078 36.7237C39.6319 36.666 39.6555 36.6083 39.679 36.5505C39.7142 36.4641 39.6399 36.3492 39.5541 36.3301C38.9285 36.193 38.2768 36.1493 37.6396 36.0891Z" fill="black"/>
</g>
<path fill-rule="evenodd" clip-rule="evenodd" d="M23.789 5.81348C26.0369 5.81348 28.7341 6.90325 28.9634 6.92504L28.9696 6.92537C29.0902 6.92537 29.5616 7.28453 30.3839 8.00285L29.4933 9.73979L29.5654 9.8086C29.9102 10.1392 30.2047 10.4406 30.4371 10.6782C32.3345 12.618 32.6756 20.2342 32.2284 22.8902C31.7812 25.5463 30.953 28.1452 27.097 28.1452C23.241 28.1452 18.9511 25.8267 18.2903 25.1047C17.8497 24.6233 17.3549 24.3927 16.8057 24.4129C16.7832 24.3844 16.7608 24.356 16.7386 24.3277L16.6578 24.3162C15.8977 24.2062 15.3532 24.058 15.0241 23.8718C14.3812 23.5081 13.6747 21.5962 13.6747 21.175C13.6747 20.7581 12.6196 17.7248 12.5985 17.4038L12.5982 17.3949C12.5982 17.1266 11.2199 15.8931 11.2199 15.5013C11.2199 15.1096 10.9421 15.1334 11.2199 13.7529L11.3006 13.3474C11.5963 11.8776 12.1749 9.44393 14.3812 8.38641C16.8057 7.2243 21.5183 5.81348 23.789 5.81348Z" fill="white"/>
<path fill-rule="evenodd" clip-rule="evenodd" d="M29.7837 9.18813C29.1926 9.20791 28.5365 9.2353 27.8528 9.27324C26.6237 9.34145 25.3141 9.44331 24.1382 9.59478C22.9471 9.74821 21.9484 9.94606 21.3109 10.188C20.8258 10.3721 20.3476 10.8534 19.9047 11.6287C19.4705 12.3889 19.1261 13.3339 18.8606 14.2806C18.5966 15.2219 18.4188 16.1348 18.307 16.8149C18.2512 17.1541 18.2122 17.4333 18.1872 17.6265C18.1748 17.7231 18.1658 17.798 18.1601 17.8482L18.1538 17.9043L18.1524 17.9175L18.1521 17.9204L18.1521 17.9206L18.152 17.9208L18.152 17.9208L18.1091 18.3413L17.7275 18.522L17.7274 18.522L17.7272 18.5221L17.7271 18.5222L17.727 18.5223L17.7266 18.5224L17.7207 18.5253L17.6924 18.5391C17.6666 18.5519 17.6271 18.5716 17.576 18.598C17.4737 18.6508 17.3253 18.73 17.1461 18.8327C16.7862 19.0391 16.3107 19.3359 15.8394 19.7002C15.749 19.7701 15.6767 19.8297 15.6192 19.8797L15.6178 19.9347L15.6178 19.9348L15.6178 19.9349L15.6178 19.935L15.6178 19.935L15.6178 19.9375L15.6175 19.9491L15.6167 19.9981C15.6162 20.0416 15.6158 20.1054 15.6161 20.1845C15.6169 20.3433 15.621 20.5605 15.6341 20.7956C15.6474 21.0325 15.6693 21.2773 15.7037 21.4943C15.7355 21.6948 15.7722 21.8321 15.8028 21.9102C15.8182 21.9226 15.8558 21.9497 15.9313 21.9861C16.0759 22.0558 16.2745 22.1178 16.4982 22.1681C16.7164 22.2171 16.9307 22.249 17.0927 22.2685C17.1729 22.2781 17.2384 22.2845 17.2828 22.2885C17.3049 22.2904 17.3217 22.2917 17.3323 22.2925L17.3433 22.2933L17.3445 22.2934L17.3447 22.2934L17.3449 22.2934L17.3452 22.2935L17.3452 22.2935L17.8659 22.3266L18.0154 22.8273L18.3284 23.8755L18.3696 24.0134L18.3568 24.1567L18.2727 25.1012C17.8422 24.6387 17.3602 24.4142 16.8268 24.4275L16.85 24.1669L16.7201 23.7321C16.5572 23.7086 16.367 23.676 16.1692 23.6316C15.8919 23.5692 15.5698 23.477 15.2802 23.3374C15.0124 23.2084 14.6463 22.9797 14.4575 22.5771C14.3343 22.3143 14.2654 22.0017 14.2222 21.7293C14.177 21.4445 14.1513 21.1451 14.1365 20.8794C14.123 20.6396 14.118 20.4187 14.1165 20.2483C14.0424 20.1286 13.9919 19.9779 13.9947 19.7934C13.9997 19.4688 14.1804 19.2209 14.3017 19.078C14.4453 18.9089 14.6497 18.724 14.922 18.5135C15.4633 18.095 16.0004 17.7605 16.4 17.5315C16.5148 17.4656 16.619 17.4081 16.7094 17.3593C16.7362 17.1576 16.7747 16.8889 16.8269 16.5715C16.9445 15.8564 17.1329 14.8862 17.4164 13.8756C17.6983 12.8704 18.0824 11.7948 18.6022 10.8847C19.1134 9.9899 19.8146 9.15149 20.7786 8.78562C21.5902 8.47762 22.7361 8.263 23.9465 8.10707C25.1722 7.9492 26.5213 7.84482 27.7697 7.77554C28.5673 7.73128 29.3271 7.70116 29.992 7.68066C30.1123 7.78261 30.2428 7.89508 30.3836 8.01809L29.7837 9.18813Z" fill="white"/>
<path fill-rule="evenodd" clip-rule="evenodd" d="M14.007 8.33204C15.2162 7.0486 22.0809 5.06343 25.5539 5.48424L25.6581 5.49773C25.9353 5.53287 26.2084 5.5861 26.478 5.6584C27.3493 5.86189 28.2494 6.17003 28.9693 6.68472C29.5704 7.10578 31.4664 7.79339 30.9076 8.89489C31.1148 9.28747 31.1921 9.77249 31.0521 10.1592C31.0345 10.2927 30.9933 10.4157 30.9406 10.5433C31.3833 11.1965 31.7338 11.9353 32.0176 12.638C32.5134 14.4064 32.8219 16.2468 32.8671 18.051C33.0174 21.4789 32.6416 25.5735 29.656 27.7902C27.8525 29.1948 25.0273 29.242 23.0005 27.5004C22.8855 27.3643 22.3446 26.997 22.5251 26.9326C22.5788 26.9893 22.634 27.0445 22.6902 27.0988C22.6877 27.0927 22.6872 27.0867 22.6882 27.0802L22.6353 27.0323C22.5357 26.9401 22.4067 26.8065 22.5537 26.8326C22.5602 26.8402 22.5672 26.8467 22.5742 26.8542C22.6053 26.8729 22.6289 26.8891 22.6472 26.9034L22.6566 26.9109L22.6537 26.9079C22.569 26.8176 22.5182 26.7255 22.6448 26.7843L22.6616 26.7925C22.7179 26.8517 22.775 26.9085 22.8333 26.9637C22.8323 26.9572 22.8333 26.9506 22.8369 26.9436L22.7826 26.8911C22.7295 26.8392 22.7376 26.839 22.7636 26.797C22.6509 26.6391 22.8612 26.7329 22.876 26.7945C23.0076 26.7634 23.1231 27.0104 23.2079 27.0405C26.9233 29.8969 32.3151 27.3624 32.2278 19.403L32.2265 19.2472C32.2009 16.7022 31.9867 14.0863 30.934 11.7824C30.8317 11.5605 30.7171 11.3446 30.5912 11.1357C30.5043 10.9791 30.4114 10.8264 30.3115 10.6778C30.0318 10.6552 29.7556 10.604 29.4836 10.5247C29.3901 10.5011 29.2977 10.475 29.2054 10.4443C27.8558 10.5179 26.5362 10.598 25.1828 10.6739L24.7601 10.7003C23.6136 10.774 22.4279 10.892 21.5027 11.6012C20.595 12.2468 20.5908 13.5198 19.8138 14.2286C18.7056 14.9807 18.6976 15.6589 18.4842 16.7672C18.5 17.6027 19.0793 18.8166 18.0162 19.1682C18.1956 19.4239 17.9456 19.3011 17.9259 19.2114C17.9239 19.2119 17.9219 19.2124 17.9204 19.2124C18.0802 19.5095 17.8453 19.3224 17.8245 19.2269C17.8119 19.2234 17.7994 19.2144 17.7868 19.2018C17.9478 19.4621 17.6876 19.2799 17.703 19.2325C17.3918 18.7542 16.7515 18.68 16.3001 18.8067C16.2945 18.8238 16.2745 18.8253 16.262 18.8162C14.3426 19.2322 14.8378 23.2055 16.8047 22.8214C16.8889 22.8043 16.8869 22.8447 16.9036 22.8485C16.8582 22.7292 16.9863 22.7778 16.9849 22.8028L16.9927 22.8025C16.9989 22.8019 16.9964 22.8012 17.001 22.8028C16.9571 22.5589 17.2043 22.9124 17.1848 22.9269C17.1923 22.9223 17.2009 22.9198 17.2084 22.9188L17.1999 22.8957C17.1589 22.7864 17.1624 22.8318 17.1627 22.7692C17.1318 22.6918 17.1296 22.7257 17.1368 22.6753C17.2452 22.5913 17.2771 22.846 17.3133 22.8646C17.2513 22.7782 17.3006 22.7077 17.359 22.7546C17.802 23.6864 18.3743 24.5619 19.1138 25.2516C19.1947 25.3153 19.2765 25.3781 19.3613 25.4373C19.6759 25.7113 20.1584 25.8875 20.4529 26.1302C20.4529 26.1342 20.4509 26.1393 20.4479 26.1443L20.4546 26.1504L20.4615 26.1568L20.5639 26.206C20.594 26.2316 20.6211 26.2603 20.6452 26.2919C20.6708 26.3215 20.6934 26.3542 20.7125 26.3888C20.722 26.431 20.701 26.4485 20.6608 26.4305C20.6432 26.4244 20.6256 26.4174 20.6081 26.4109C20.6091 26.4124 20.6095 26.4134 20.6106 26.4144C20.6163 26.4231 20.6553 26.5135 20.6104 26.4988L20.6051 26.4967C20.5804 26.4877 20.5559 26.4777 20.5318 26.4681C20.5604 26.5038 20.5864 26.5424 20.6095 26.5751C20.6342 26.6007 20.6492 26.6308 20.6553 26.6649C20.6542 26.684 20.6437 26.6921 20.6246 26.6895C20.5955 26.68 20.5669 26.67 20.5382 26.6594L20.5464 26.675C20.5666 26.7148 20.5954 26.7816 20.5443 26.7593C20.5006 26.7458 20.4584 26.7302 20.4163 26.7131C20.4127 26.7202 20.4057 26.7227 20.3917 26.7162C20.2576 26.6685 20.1281 26.6102 20.0041 26.5414C19.8951 26.4621 19.7851 26.3843 19.6757 26.3054C19.5727 26.2437 19.4733 26.1749 19.3784 26.0976C18.7435 25.6875 18.1876 25.1665 17.7466 24.5863C17.0091 25.225 15.5345 24.6148 14.6224 24.1148C13.8156 23.668 13.4984 22.8417 13.4165 21.9509C13.246 20.7516 12.2659 20.3411 12.3341 17.7096C12.3326 17.7101 12.331 17.7101 12.329 17.7101C12.2934 17.6996 12.2588 17.6855 12.2261 17.6674C12.1925 17.6514 12.1609 17.6323 12.1312 17.6092L12.0945 17.5585C12.0755 17.5479 12.0584 17.5369 12.0454 17.5259L12.0386 17.5346C12.0172 17.5604 12.0316 17.5215 12.0328 17.5138L11.9692 17.4272C11.8182 17.2211 11.6526 16.9898 11.5176 16.8049L11.5134 16.8124C11.5103 16.818 11.5087 16.8221 11.5102 16.8239C11.1891 16.3626 10.8871 15.8054 10.8032 15.2659C10.7042 14.8504 10.7429 14.4222 10.8293 14.0373C11.1998 12.6895 12.4134 9.63934 14.007 8.33204ZM22.7207 26.9724L22.7006 26.9545L22.7183 26.9766C22.7276 26.9881 22.737 26.9984 22.7525 27.0089C22.7515 27.0054 22.7515 27.0019 22.752 26.9978C22.7417 26.99 22.7312 26.9814 22.7207 26.9724ZM25.5386 6.16149C23.1833 5.959 20.8668 6.47786 18.6194 7.10593L18.4643 7.15049C17.1864 7.51514 15.8351 7.84326 14.7552 8.62376C13.2463 9.77942 12.4672 11.6179 11.7873 13.3153C11.1935 14.5765 11.4971 15.9985 12.3918 16.8792C12.4849 16.0041 12.6436 15.1546 12.8916 14.3119C12.9434 14.1803 12.9042 14.1371 13.0158 14.12C13.1843 16.3908 12.3544 18.0686 13.9967 20.7599C14.7093 22.0298 13.8844 22.959 15.8968 23.6272L15.9512 23.648C16.3705 23.8062 16.8283 23.9311 17.239 23.8427L17.2022 23.7828C17.1647 23.7212 17.1533 23.6913 17.2079 23.6649C17.2064 23.6619 17.2044 23.6589 17.2023 23.6554C17.1582 23.5721 17.1155 23.4877 17.0748 23.4024C17.0583 23.4079 17.0417 23.4119 17.0246 23.4164C17.0357 23.437 17.0371 23.4576 17.0061 23.4646C16.8954 23.5026 16.7818 23.5178 16.6655 23.5107L16.6405 23.5088C16.5091 23.5008 16.4263 23.4768 16.3523 23.4546C16.3277 23.4506 16.3031 23.4465 16.279 23.4415C16.0407 23.3887 15.7885 23.2543 15.6253 23.1212C13.7647 22.0644 13.957 18.4669 16.2504 18.1269C16.2975 15.8618 17.3748 12.0405 19.1627 9.88215C20.7789 7.89683 25.191 7.03634 28.2606 7.33975C28.3053 7.35457 28.35 7.36953 28.3948 7.38464C28.8683 7.42672 29.3197 7.6377 29.7936 7.7357C29.4533 7.48069 29.0673 7.31083 28.6697 7.16648C27.8775 6.68191 26.9693 6.41972 26.0919 6.2348C25.9102 6.19011 25.7259 6.16551 25.5386 6.16149ZM16.1454 19.9464C16.2688 19.8795 16.2546 19.9441 16.283 19.9254C17.17 19.853 18.1264 20.6296 18.6223 21.277C18.5831 21.3177 18.4772 21.1972 18.4586 21.1781C18.4561 21.1806 18.4531 21.1826 18.45 21.1836L18.4638 21.2031C18.6648 21.4915 18.2664 21.1521 18.2291 21.0822C18.2226 21.0857 18.2161 21.0877 18.2085 21.0862C18.2401 21.1172 18.3366 21.198 18.3531 21.2554L18.3787 21.2767C18.6198 21.4832 18.5998 21.6385 18.3261 21.3453C18.3326 21.3588 18.3351 21.3714 18.3305 21.3814L18.34 21.3877C18.4746 21.4818 18.5853 21.744 18.3039 21.4748C18.3332 21.6714 18.0251 21.2914 18.0152 21.2941C17.4821 20.8756 16.6972 20.4686 16.0285 20.4139L16.0054 20.4112C15.8827 20.3955 15.8247 20.3591 15.8678 20.2788C15.7167 20.2429 15.7521 20.1685 15.8236 20.1709C15.717 20.1008 15.813 20.0338 15.8748 20.0599C15.8323 19.9422 16.0028 20.0206 16.0184 20.0042C16.1069 19.8677 16.1308 19.9815 16.1454 19.9464ZM14.2862 12.6485C14.7122 12.4925 15.9706 12.9596 15.8699 13.5783C15.81 13.7203 15.6125 13.8017 15.4736 13.7215L15.2924 13.5999C14.9771 13.3887 14.6927 13.2035 14.3542 13.0193C14.1699 12.9279 14.0906 12.7338 14.2862 12.6485ZM16.71 11.7291L16.5455 11.6221C15.6576 11.041 14.4024 10.1605 16.6285 11.0714C16.8822 11.1802 17.2193 11.2446 17.3577 11.4862C17.5751 11.9315 17.0029 11.9615 16.71 11.7291ZM16.8098 9.12182C16.7386 8.85144 17.6251 9.16871 17.8832 9.25236L17.9225 9.26721C18.1735 9.36075 18.4613 9.44753 18.6115 9.66418C18.7874 9.96352 18.4313 10.0255 18.2108 9.89032C17.7585 9.59479 17.2627 9.37181 16.8098 9.12182ZM19.0642 7.86232C18.5652 7.31738 19.9007 7.83942 20.1008 7.98432L20.1065 7.9886C20.2557 8.09369 20.2255 8.32003 20.0852 8.38651C19.6862 8.39409 19.3926 8.0615 19.0642 7.86232ZM21.335 7.26527C20.5417 6.69515 21.5867 6.96633 21.9496 7.18976C22.197 7.40792 21.9422 7.7762 21.335 7.26527Z" fill="black"/>
<path fill-rule="evenodd" clip-rule="evenodd" d="M28.2687 24.614C27.8988 24.7212 27.5018 24.7307 27.1248 24.6201C26.7828 24.5197 26.4317 24.2989 26.18 24.0067C25.9564 23.747 25.8116 23.4316 25.8173 23.0948C25.8179 23.0563 25.8317 23.0242 25.8529 22.9993C25.8756 22.9725 25.9074 22.9541 25.9415 22.9461C25.9766 22.9379 26.0136 22.9408 26.0451 22.9551C26.0737 22.9681 26.0982 22.9901 26.1135 23.0223C26.1522 23.0731 26.1907 23.1232 26.2294 23.1718C26.5404 23.5559 26.8415 23.8428 27.3092 23.9458C27.5629 24.0016 27.8163 23.9769 28.0488 23.8916C28.2977 23.8004 28.5227 23.64 28.699 23.4347C28.7787 23.342 28.8728 23.3041 28.9647 23.3035C29.069 23.3028 29.172 23.3512 29.2496 23.4286C29.3259 23.5047 29.377 23.6081 29.3816 23.7163C29.3857 23.8112 29.3547 23.9104 29.2723 23.9989C29.001 24.2903 28.6492 24.5038 28.2687 24.614ZM28.2572 19.8044C28.6364 20.0349 29.2141 20.5723 28.8062 21.1436C28.3261 21.6474 27.6349 21.0698 27.2942 20.8085C26.9784 20.6061 26.6235 21.1268 26.9165 21.3632C29.378 23.1855 30.3769 19.8647 28.449 19.5334C28.2367 19.4969 28.1579 19.7331 28.2572 19.8044ZM24.7105 18.7903C24.5886 18.7124 24.4453 18.6856 24.2864 18.7579C24.1623 18.8144 23.9445 19.0026 23.793 19.25C23.6893 19.4193 23.6158 19.6178 23.6311 19.8247C23.6347 19.8727 23.6169 19.9081 23.5889 19.9343C23.5668 19.955 23.5349 19.9702 23.4973 19.9749C23.4655 19.979 23.4298 19.9753 23.4009 19.9663C23.3457 19.9491 23.3165 19.9133 23.3055 19.8841C23.1994 19.6023 23.2451 19.2879 23.3641 19.0042C23.5245 18.6213 23.816 18.3007 24.0069 18.1973C24.3337 18.0203 24.7191 18.0121 25.0463 18.1924C25.3249 18.3459 25.499 18.5937 25.6723 18.8462C25.7091 18.8999 25.7456 18.9532 25.7834 19.0056C25.8591 19.1105 25.8666 19.2145 25.8373 19.3037C25.8048 19.4026 25.722 19.486 25.6185 19.5296C25.5228 19.57 25.4117 19.5757 25.3134 19.5342C25.2304 19.4992 25.1542 19.4309 25.106 19.3151C25.0248 19.12 24.8895 18.9048 24.7105 18.7903ZM30.8996 19.2243C30.8161 19.2678 30.7508 19.2809 30.6582 19.2532C30.607 19.2378 30.5564 19.2083 30.5168 19.1687C30.4776 19.1295 30.4492 19.0806 30.4382 19.0265C30.4112 18.8928 30.338 18.7677 30.2338 18.6861C30.1447 18.6164 30.0323 18.5794 29.9075 18.6003C29.773 18.6228 29.6447 18.7091 29.5564 18.8108C29.5269 18.8449 29.5038 18.8836 29.4805 18.922C29.437 18.9938 29.3947 19.0606 29.3347 19.1133C29.312 19.1334 29.2777 19.1473 29.2445 19.1473C29.231 19.1473 29.2173 19.1451 29.2042 19.141C29.0703 19.0066 29.0445 18.9046 29.0489 18.8034C29.0534 18.6974 29.0952 18.59 29.1628 18.4897C29.3213 18.2547 29.6224 18.0619 29.8255 18.0183C30.1037 17.9585 30.3799 18.0302 30.6014 18.1856C30.8293 18.3455 30.9982 18.5937 31.0509 18.8734C31.0635 18.9408 31.0582 19.0135 31.0325 19.0765C31.0074 19.1382 30.9637 19.1909 30.8996 19.2243ZM25.324 16.284C25.1571 16.4467 24.9595 16.4718 24.7596 16.4943C24.6485 16.5068 24.5599 16.517 24.4726 16.5366C24.2328 16.5908 23.9957 16.6723 23.7795 16.7897C23.5534 16.9125 23.307 17.0605 23.1298 17.2502C23.0876 17.2953 23.0479 17.3426 23.0081 17.3901C22.9718 17.4334 22.9369 17.475 22.9001 17.5152C22.8578 17.5613 22.8176 17.6097 22.7776 17.6579C22.7529 17.6986 22.748 17.7086 22.7431 17.7191C22.7356 17.7347 22.7269 17.7522 22.7169 17.771C22.7033 17.7968 22.6874 17.825 22.6706 17.8505C22.6428 17.8972 22.6279 17.9101 22.615 17.9158C22.5936 17.9254 22.5734 17.9301 22.5537 17.9275C22.5352 17.9251 22.5178 17.9163 22.5007 17.9018C22.415 17.8293 22.3897 17.7105 22.3923 17.5843C22.3962 17.3929 22.4668 17.181 22.5319 17.0507C22.6832 16.7479 22.8931 16.4332 23.1455 16.2072C23.4335 15.9493 23.7486 15.7541 24.1105 15.6195C24.3354 15.5359 24.5958 15.4591 24.8409 15.4688C25.0172 15.4758 25.1856 15.5282 25.3246 15.6591C25.41 15.7395 25.451 15.8538 25.451 15.968C25.451 16.0846 25.4084 16.2018 25.324 16.284ZM31.2391 17.7735C31.2285 17.7909 31.2138 17.8028 31.1974 17.81C31.1803 17.8176 31.1612 17.8198 31.1428 17.8167C31.1245 17.8136 31.1071 17.8053 31.0934 17.7926C31.0801 17.7805 31.0701 17.7644 31.0656 17.7447C30.9547 17.2579 30.7395 16.8957 30.2802 16.6621C30.0542 16.5472 29.7944 16.4742 29.5484 16.416C29.4769 16.3991 29.4014 16.3881 29.3253 16.377C29.0869 16.3422 28.8468 16.3024 28.6914 16.1097C28.5978 15.9936 28.5585 15.8452 28.5807 15.7094C28.6016 15.5816 28.6763 15.4644 28.8121 15.3942C29.1501 15.2194 29.5702 15.3909 29.9116 15.537C29.9369 15.5478 29.9617 15.5584 29.9861 15.5687C30.3199 15.7096 30.6243 15.8956 30.8746 16.1616C31.0732 16.3726 31.2572 16.6846 31.3313 17.0055C31.3929 17.2725 31.3784 17.5451 31.2391 17.7735Z" fill="black"/>
<path fill-rule="evenodd" clip-rule="evenodd" d="M34.5415 16.3814C34.5002 16.3745 34.4588 16.3681 34.4175 16.362C34.3852 16.3437 34.3473 16.3296 34.3032 16.3211C34.2025 16.2955 34.1026 16.2783 34.0027 16.269C32.5702 15.9466 29.256 16.4044 29.1192 17.6269C28.663 17.7791 28.2683 17.6428 27.7395 17.6563C27.3371 15.9741 20.3789 16.2115 20.0443 17.2257C20.043 17.2254 20.0418 17.2251 20.0405 17.2247C19.7189 17.1252 19.2449 17.1492 18.8769 17.1334C18.091 17.1169 17.3043 17.187 16.5355 17.3527C15.0957 17.5815 13.1308 17.8494 14.1321 19.6473C14.1323 19.6476 14.1324 19.6479 14.1327 19.6482L14.1329 19.6481C14.3054 19.825 14.5983 19.6825 14.6092 19.4431C14.2725 18.5913 15.0329 18.4891 15.6179 18.2443C17.0737 17.7213 18.5557 17.6488 20.0613 17.8106C20.1746 17.9439 20.3464 18.0602 20.5281 18.1211C21.5347 18.2882 21.0042 19.0349 21.6405 19.1435C21.5236 21.7464 24.6839 23.1673 26.5149 21.4562C27.246 20.7414 27.4203 19.6825 27.5898 18.7281C27.6794 18.708 27.7364 18.659 27.7697 18.5941C27.9853 18.3789 28.1207 18.1802 28.5469 18.1211C28.9731 18.062 29.3013 18.1806 29.3456 18.2169C29.3568 18.2394 29.3688 18.262 29.3828 18.2846C29.4023 18.3183 29.4288 18.3452 29.4589 18.3663C29.038 20.9583 31.0502 22.5975 33.0817 21.2532C33.9643 20.4229 34.1509 19.1517 34.1877 18.017C34.3074 17.9448 34.3831 17.8049 34.3417 17.629C34.2846 17.3865 34.4185 17.1765 34.6317 17.071C34.9087 16.9341 34.8597 16.4341 34.5415 16.3814ZM25.8128 17.6111C25.5606 17.5556 25.453 17.9444 25.7059 18C25.885 18.0394 26.0368 18.1297 26.1394 18.2827L26.1502 18.2994C26.2878 18.5184 26.6359 18.3162 26.4973 18.0958C26.3414 17.8478 26.0991 17.674 25.8128 17.6111ZM33.1979 17.3701C33.109 17.3074 32.9745 17.3539 32.9229 17.4424C32.8661 17.5398 32.9033 17.6483 32.9865 17.7121L32.995 17.7183C33.0714 17.7721 33.1457 17.8686 33.1551 17.9674L33.1559 17.9798C33.1659 18.2385 33.5679 18.2398 33.5579 17.9798C33.5481 17.7254 33.4008 17.5129 33.1979 17.3701Z" fill="black"/>
</svg>
