<svg width="28" height="28" viewBox="0 0 28 28" fill="none" xmlns="http://www.w3.org/2000/svg">
<ellipse cx="14" cy="14" rx="14" ry="14" fill="#B5BFFF"/>
<path fill-rule="evenodd" clip-rule="evenodd" d="M19.3272 7.85725C19.0255 6.76236 17.8723 6.28461 16.8337 6.20879C14.0215 5.91491 11.1592 7.49086 9.91246 10.0463C8.91451 11.9867 8.88326 14.0251 11.0284 15.133C11.1456 15.198 11.2679 15.2674 11.3929 15.3304C11.5014 15.4318 11.6132 15.5293 11.7352 15.6112C12.9033 16.3834 14.337 16.7174 15.7264 16.6449C17.7778 16.6033 18.5102 15.204 18.9583 13.4094C19.431 11.6228 19.6953 9.68418 19.3272 7.85725Z" fill="#FFFEFD"/>
<mask id="mask0_2009_14413" style="mask-type:alpha" maskUnits="userSpaceOnUse" x="0" y="0" width="28" height="28">
<ellipse cx="14" cy="14" rx="14" ry="14" fill="#4F7EFF"/>
</mask>
<g mask="url(#mask0_2009_14413)">
<path fill-rule="evenodd" clip-rule="evenodd" d="M24.6641 17.1082C24.3723 16.3031 24.5915 15.2839 23.99 14.6177C23.812 14.5094 23.7177 14.5697 23.6444 14.7585C23.6002 15.007 23.4966 15.8627 23.8692 15.8623C23.916 16.3967 23.8867 16.9349 23.772 17.4594C23.4971 17.4152 23.2966 17.5567 23.0961 17.6619C22.9465 17.7404 22.7969 17.7987 22.6163 17.7449C21.8707 17.6132 21.6582 18.3974 21.6492 19.0375C21.6382 19.3498 21.6089 20.0778 21.4716 20.3809C20.8499 19.0914 19.5443 18.5043 18.3002 18.2144C18.1052 18.1604 17.9388 18.0866 17.8137 17.9604C16.7656 17.5459 17.2691 16.1879 16.7869 15.4074C16.0321 14.4796 15.1257 14.2126 13.9837 14.3716C12.9845 14.4822 12.3054 15.4987 12.367 16.4582C12.3854 16.654 12.2681 16.86 12.1991 17.0614C11.5094 17.888 10.4363 18.2577 9.51326 18.7572C6.43469 20.2641 5.36779 21.4158 4.17143 24.6224C3.61176 25.8289 2.94198 26.9998 2.71953 28.3286C2.45814 29.8944 2.45732 31.4972 2.54832 33.0784C2.37843 33.0988 2.56331 34.3143 2.71232 34.7354C2.76338 34.8797 2.88572 34.9838 3.03815 34.9814C3.34477 35.1306 4.06468 35.7321 4.38539 35.7121C5.42159 35.6482 6.42882 35.7471 7.42714 35.696C8.5072 35.6407 9.57684 35.4389 10.6615 35.465C12.5531 35.5107 11.1988 35.6231 13.1558 35.7121C14.3912 35.7692 18.8982 35.0935 20.1301 35.2038C21.1321 35.4149 21.5893 35.059 21.4364 34.0106C21.3799 33.6087 21.1994 32.715 21.7931 32.677C22.0739 32.7097 22.3064 32.9907 22.5168 33.1549C24.3751 34.5406 26.2736 33.5429 26.4232 31.2649C26.7049 29.3542 27.0998 28.9029 26.2413 26.9949C23.5253 19.8922 27.6173 20.8572 24.8545 17.5304C24.6387 17.7185 24.6936 17.2164 24.6641 17.1082Z" fill="white"/>
<path fill-rule="evenodd" clip-rule="evenodd" d="M11.6228 18.6239C13.393 19.5281 14.7928 19.9802 15.8224 19.9802C16.8519 19.9802 18.6653 20.1907 21.2625 20.6118L22.5449 23.4346L25.3748 23.9883L25.3874 24.0621C25.5252 24.8542 25.7887 25.8128 26.2407 26.9949C27.0992 28.9029 26.7043 29.3542 26.4226 31.2649C26.273 33.5429 24.3745 34.5406 22.5162 33.1549C22.3058 32.9907 22.0733 32.7097 21.7925 32.677C21.2107 32.7142 21.3724 33.5733 21.4323 33.9859L21.4358 34.0106C21.5887 35.059 21.1315 35.4149 20.1295 35.2038C18.8976 35.0935 14.3906 35.7692 13.1552 35.7121C11.1982 35.6232 12.5525 35.5107 10.6609 35.465C9.57625 35.4389 8.50661 35.6407 7.42655 35.696C6.48074 35.7444 5.52694 35.6582 4.54808 35.7034L3.03756 34.9814C2.4789 30.9751 2.56378 28.3482 3.29219 27.1007C4.01694 25.8595 4.98742 23.8192 6.20364 20.9796C6.22227 20.9596 6.24108 20.9398 6.26002 20.9202L11.6228 18.6239Z" fill="white"/>
<path fill-rule="evenodd" clip-rule="evenodd" d="M23.6312 14.5645C23.7794 14.4186 24.015 14.4549 24.1595 14.5846C24.3066 14.7163 24.3952 14.9234 24.4707 15.1019C24.8096 15.9045 24.7306 16.7832 24.902 17.6229C25.2157 17.7926 25.4989 18.0142 25.6994 18.3122C26.0041 18.7649 26.1486 19.2922 25.9959 19.8287C25.917 20.1063 25.7829 20.3636 25.6873 20.6352C25.5852 20.9245 25.5226 21.2251 25.4927 21.5305C25.4632 21.8302 25.4593 22.1316 25.4678 22.4325C25.4723 22.5883 25.4805 22.7439 25.4887 22.8994C25.4961 23.0388 25.5207 23.1842 25.4874 23.3208L25.4833 23.3365C25.4963 23.3345 25.5091 23.3319 25.5218 23.3291C25.631 23.3048 25.7272 23.2668 25.8411 23.2818C25.93 23.2934 25.9761 23.3676 25.9384 23.4515C25.922 23.488 25.9003 23.5186 25.874 23.5447C26.1031 25.2417 26.5033 26.9114 26.7667 28.603C26.886 29.3705 26.9587 30.1402 26.9177 30.9172L26.9134 30.9943C26.8716 31.7077 26.7689 32.494 26.4069 33.1179C26.2377 33.41 26.0052 33.6692 25.7235 33.8559C25.5945 33.9414 25.4562 34.0083 25.306 34.0417C24.5275 34.3522 23.7044 34.276 22.9704 33.8655C22.6403 33.6811 22.311 33.4661 22.0415 33.1992C21.9105 33.0694 21.7841 32.9043 21.7066 32.7238C21.7068 32.7643 21.6995 32.8058 21.7077 32.8457L21.724 32.9246C21.8463 33.511 22.3122 35.6783 22.3184 35.8602C22.3218 35.9584 21.4968 35.956 21.4072 35.959L21.4048 35.9591C20.0686 36.0149 18.7316 35.9851 17.3962 35.9298L17.2908 35.9254C15.9957 35.8705 14.5864 35.7967 13.29 35.7588L13.2927 35.7371C13.3082 35.6204 13.3837 35.1018 13.3921 35.0621L13.3924 35.0607C13.4292 34.9124 13.5001 34.4511 13.4627 34.2981C13.3667 33.9039 12.9336 33.9939 12.6289 34.0357L12.5647 34.0441C12.5154 34.0509 12.3954 34.0686 12.3965 34.0698C12.3641 34.036 12.4411 33.9402 12.4601 33.9145L12.4753 33.8934C12.5572 33.7787 12.6312 33.6595 12.6231 33.5116C12.6034 33.1505 12.0882 33.1709 11.8349 33.1959C11.8171 33.1976 11.8098 33.2256 11.8304 33.2298L11.8803 33.2402C12.041 33.2747 12.3978 33.3628 12.3897 33.4959C12.3851 33.5715 12.3047 33.6273 12.2556 33.6749C12.2014 33.7275 12.1476 33.784 12.1076 33.8485C12.0307 33.9727 12.0132 34.1402 12.0893 34.2695C12.1771 34.4186 12.3329 34.436 12.4889 34.4224L12.4977 34.4216C12.532 34.4184 12.5663 34.4151 12.6007 34.4118L12.8066 34.3916C12.8576 34.3866 13.0215 34.3436 13.0693 34.3733C13.1371 34.4153 13.0556 34.6016 13.0403 34.663L13.0395 34.6673C13.0263 34.7562 13.0184 35.6872 13.0171 35.7487C12.0067 35.7252 10.9963 35.5002 9.98593 35.5531C9.18328 35.5951 8.38282 35.6677 7.58167 35.7307L7.56145 35.5584C7.3394 33.6829 6.99124 31.2081 7.15834 29.353C7.17141 29.2077 6.94503 29.2086 6.93205 29.353C6.75928 31.2713 7.13746 33.8481 7.35744 35.748C7.0164 35.7739 6.67521 35.7975 6.33363 35.8155L6.24652 35.8199C5.08417 35.8781 3.88447 35.8816 2.74695 35.6146C2.71188 35.6064 2.7 35.5712 2.70735 35.5421C2.69604 35.5486 2.67906 35.5449 2.67425 35.529C2.54174 35.0915 2.47444 33.9777 2.41438 33.4956L2.41035 33.4641C2.34868 32.9958 2.31332 32.5221 2.28787 32.051C2.23639 31.1085 2.24261 30.1648 2.31219 29.2234C2.53367 26.2207 3.41563 23.1872 5.26668 20.7741C5.71416 20.1907 6.2236 19.657 6.83486 19.2443C7.43452 18.8392 8.10717 18.5539 8.78971 18.3221C9.24088 18.1689 9.69911 18.0377 10.1573 17.9068C10.1747 17.8981 10.192 17.8896 10.2095 17.8811L10.2357 17.8686C10.3986 17.7912 10.559 17.7065 10.7259 17.6377L10.7628 17.6226C11.0046 17.5255 11.2864 17.4395 11.5482 17.4425C11.9722 17.2286 12.3283 16.9054 12.2938 16.3869C12.2797 16.1739 12.6134 16.1742 12.6253 16.3869C12.6564 16.9529 12.3082 17.3544 11.8644 17.6238L11.8665 17.626L11.8687 17.6283C11.938 17.7071 12.0121 17.7802 12.0921 17.8482C12.5713 18.2567 13.1775 18.5958 13.7833 18.819C14.4942 19.0811 15.2044 19.1595 15.9396 18.9477C16.324 18.8369 16.6869 18.666 17.0204 18.4451C17.1222 18.3776 17.2198 18.3054 17.3134 18.2281C17.2249 18.1068 17.1542 17.9762 17.0948 17.8377C16.9755 17.5589 16.8767 17.1813 16.9986 16.8869C17.0286 16.8144 17.1477 16.7696 17.1893 16.862C17.3038 17.1147 17.3516 17.3878 17.4851 17.6349C17.5361 17.7289 17.5946 17.8181 17.6602 17.9023C17.6602 17.9068 18.1615 17.9926 18.1615 17.9926C18.7674 17.9924 19.3379 18.2255 19.8739 18.5167C20.1908 18.6889 20.5021 18.872 20.8126 19.0554L21.4195 19.4139C21.4642 19.4403 21.5142 19.4658 21.5643 19.493C21.5057 19.2035 21.4772 18.9083 21.4964 18.6156C21.5255 18.1742 21.6969 17.6915 22.1509 17.5343C22.3656 17.4598 22.614 17.4827 22.8225 17.5654C22.9186 17.6037 23.0233 17.6544 23.1127 17.7221C23.156 17.5272 23.3384 17.381 23.5217 17.3164C23.5811 17.2954 23.6419 17.2821 23.7036 17.2756C23.7018 17.2443 23.7016 17.2127 23.702 17.1801L23.7024 17.1555C23.7053 17.011 23.7041 16.8665 23.701 16.7223C23.6954 16.449 23.6824 16.1812 23.6546 15.9087C23.6315 15.6831 23.5913 15.4601 23.5614 15.2354L23.5491 15.1388C23.5239 14.9485 23.4816 14.7115 23.6312 14.5645ZM5.40514 33.0124L5.35456 32.9824C5.18892 32.8845 5.0183 32.7942 4.81764 32.8395C4.62648 32.8827 4.49087 33.0381 4.41962 33.2133C4.38596 33.296 4.36839 33.3795 4.35541 33.4676C4.34811 33.517 4.34319 33.5668 4.33454 33.6159L4.33164 33.6311C4.32772 33.6507 4.32172 33.678 4.31626 33.7016C4.2641 33.6786 4.21158 33.6422 4.16889 33.6205L4.13447 33.6032C4.05368 33.5629 3.96963 33.5246 3.88159 33.5059C3.69089 33.4655 3.47933 33.5239 3.37032 33.695C3.27708 33.8413 3.27899 34.0138 3.31466 34.1778L3.3172 34.1892C3.33267 34.2573 3.41264 34.5298 3.52895 34.49C3.64206 34.4514 3.65717 34.3008 3.66574 34.2004L3.66638 34.1908C3.67023 34.1152 3.65526 33.9562 3.74081 33.9275C3.8477 33.8916 4.05337 34.0555 4.14646 34.0983C4.31293 34.1749 4.4958 34.1975 4.63126 34.0485C4.75271 33.915 4.76296 33.7195 4.79439 33.5501L4.80251 33.5075C4.81918 33.4214 4.85145 33.2839 4.94653 33.2874C5.02424 33.2903 5.10955 33.3709 5.17359 33.4092C5.24427 33.4515 5.31768 33.4867 5.39439 33.5167C5.57341 33.5868 5.77246 33.6092 5.96291 33.5885C6.07326 33.5765 6.1451 33.5238 6.18411 33.4199C6.19732 33.3893 6.20739 33.3579 6.21435 33.3253C6.27618 33.0926 5.93833 32.9265 5.81376 33.1347C5.67004 33.1292 5.53624 33.0905 5.40514 33.0124ZM26.1981 31.4565C26.0951 31.3829 25.9552 31.3988 25.8631 31.4817L25.8576 31.4868C25.8321 31.5115 25.7745 31.5758 25.7373 31.6322L25.7256 31.6232C25.7237 31.6217 25.7219 31.6203 25.7202 31.6188L25.7151 31.6147C25.639 31.5502 25.5594 31.4911 25.4614 31.4648C25.2061 31.3961 24.9741 31.5673 24.8626 31.7868C24.8097 31.8909 24.7871 31.9984 24.7608 32.1107L24.7585 32.121C24.7479 32.1734 24.7341 32.2794 24.6883 32.3053C24.6714 32.3148 24.6332 32.296 24.5955 32.2742C24.5093 32.2244 24.4319 32.1609 24.3474 32.1084C24.1493 31.9852 23.9241 31.9344 23.7015 32.0231C23.4812 32.111 23.3234 32.3183 23.3197 32.56C23.3169 32.7381 23.436 33.0489 23.6601 33.0272C23.705 33.0228 23.7628 32.9952 23.7701 32.9433C23.7894 32.8058 23.6811 32.6369 23.8053 32.5233C23.9254 32.4135 24.0498 32.5059 24.1585 32.582L24.2363 32.6368C24.3629 32.7248 24.4931 32.8053 24.6533 32.815C24.8559 32.8271 25.043 32.715 25.145 32.5422C25.2372 32.3861 25.2385 32.2094 25.3106 32.0491C25.3264 32.014 25.367 31.9818 25.3535 31.9656C25.4081 31.9941 25.4785 32.0762 25.5126 32.0992C25.682 32.2137 25.9085 32.2128 26.0571 32.061C26.1162 32.0006 26.1539 31.9261 26.1977 31.8549C26.2136 31.8292 26.2333 31.8054 26.2478 31.779C26.2531 31.7693 26.2618 31.7331 26.2689 31.7009L26.2799 31.6497L26.281 31.6414C26.2904 31.5639 26.2631 31.5029 26.1981 31.4565ZM19.6721 30.7802C19.4774 30.6779 19.2375 30.7168 19.0621 30.8408C18.8655 30.9799 18.769 31.1935 18.7034 31.4193C18.6557 31.5837 18.6328 31.8104 18.4956 31.9295C18.3359 32.068 18.0681 31.9209 17.8995 31.8663C17.6956 31.8003 17.4505 31.7732 17.2514 31.8709C17.0564 31.9667 16.9624 32.162 16.9423 32.3713C16.9235 32.5666 16.9514 32.8238 17.0627 32.9873C17.0736 33.0033 17.0945 32.9992 17.1014 32.9822C17.1746 32.8018 17.1605 32.5955 17.2199 32.4089C17.2832 32.2097 17.4318 32.1676 17.6204 32.2212C17.8171 32.2771 17.9973 32.3817 18.1996 32.4189C18.4153 32.4586 18.6289 32.4177 18.799 32.2749C18.9421 32.1548 19.0287 31.9798 19.0872 31.8055C19.1443 31.6355 19.1536 31.408 19.2751 31.2669C19.3058 31.2313 19.3592 31.1883 19.4088 31.1838C19.4825 31.177 19.5092 31.2318 19.5687 31.2739C19.7258 31.3849 19.9765 31.3871 20.0727 31.1919C20.1042 31.1279 20.1198 31.0372 20.0727 30.9746C19.9901 30.8649 19.9223 30.8658 19.8134 30.8895C19.8099 30.8866 19.806 30.8828 19.8017 30.8777L19.7984 30.8737C19.7695 30.8371 19.7136 30.8021 19.6721 30.7802ZM11.963 29.6279C11.9566 29.4811 11.7802 29.3402 11.641 29.4428C11.6186 29.4591 11.5965 29.4759 11.5748 29.4933L11.5659 29.5029C11.54 29.5028 11.5159 29.496 11.4903 29.4878L11.4456 29.4735C11.3281 29.4362 11.2152 29.4061 11.0899 29.4336C10.8742 29.4811 10.7374 29.6674 10.6671 29.8652C10.6016 30.0496 10.6231 30.2377 10.5924 30.4267C10.5633 30.6059 10.4713 30.6758 10.2987 30.6375L10.2898 30.6354C9.94639 30.5531 9.55511 30.3227 9.25403 30.6385C8.92877 30.9796 9.14153 31.5214 9.49757 31.7406C9.51313 31.7502 9.53033 31.7344 9.52679 31.7181C9.4795 31.4977 9.34149 31.2876 9.38774 31.0537C9.41979 30.8916 9.53225 30.8149 9.69275 30.8407C10.0303 30.8951 10.346 31.1645 10.6923 30.969C10.8652 30.8713 10.9605 30.6877 11.0036 30.4997C11.0424 30.3305 11.0314 30.1397 11.1058 29.9801C11.1871 29.8055 11.3241 29.9321 11.4718 29.9559C11.6807 29.9897 11.9742 29.8799 11.963 29.6279ZM23.2882 24.4086C23.2888 24.2627 23.0625 24.2626 23.0619 24.4086C23.0535 26.2563 22.1905 27.9642 22.0354 29.7935C22.0231 29.9388 22.2495 29.938 22.2617 29.7935C22.4168 27.9636 23.2798 26.2593 23.2882 24.4086ZM4.60232 27.4331C4.48318 27.298 4.30865 27.3399 4.16688 27.4076C3.95395 27.5093 3.75017 27.6236 3.55483 27.7557C3.50677 27.7882 3.53707 27.8588 3.59364 27.848C3.73691 27.8204 3.87636 27.7895 4.01536 27.7447C4.11982 27.7111 4.22855 27.6623 4.33748 27.645C4.33066 27.6701 4.32237 27.6947 4.31261 27.7188C4.29474 27.7683 4.27398 27.8168 4.25635 27.8665C4.22129 27.9654 4.18971 28.0658 4.15908 28.1662L4.14383 28.2164C4.08016 28.427 4.0183 28.7334 4.31213 28.7982C4.42115 28.8222 4.52921 28.7747 4.63062 28.7373L4.65151 28.7297L5.02144 28.5984C5.06551 28.5828 5.14714 28.5718 5.18369 28.5444L5.17784 28.5726C5.17027 28.6099 5.16284 28.6465 5.1468 28.6837L5.13785 28.7042C5.04596 28.9129 4.93011 29.1216 5.03728 29.3522C5.12909 29.5498 5.34613 29.6436 5.55528 29.5875C5.75405 29.5342 5.89788 29.3101 5.79498 29.1151C5.75664 29.0424 5.64444 29.0068 5.57314 29.0522L5.554 29.065C5.53154 29.0797 5.49289 29.1049 5.49195 29.1095C5.48663 29.1109 5.48106 29.1123 5.4754 29.1137C5.48739 29.0783 5.49548 29.024 5.50601 28.9999L5.54472 28.9119C5.61674 28.7464 5.67916 28.5781 5.62421 28.3925C5.46686 27.8612 4.93324 28.1633 4.53961 28.3149C4.54535 28.2925 4.55104 28.2703 4.55585 28.2485C4.57282 28.1716 4.59138 28.0951 4.60975 28.0185L4.6474 27.8605C4.6813 27.7148 4.70768 27.5527 4.60232 27.4331ZM24.7417 26.84C24.742 26.8275 24.7266 26.8178 24.7158 26.8251C24.4641 26.9946 24.2957 27.3484 24.3903 27.6498C24.4362 27.7961 24.5338 27.9245 24.6709 27.9955C24.8414 28.0838 25.0295 28.0502 25.2086 28.0124L25.2847 27.9961C25.3383 27.9849 25.3911 27.9766 25.4457 27.9917C25.4644 27.9968 25.4862 28.0132 25.5039 28.0167C25.4966 28.0292 25.4888 28.0509 25.4848 28.059L25.4719 28.0851C25.4588 28.1116 25.4461 28.1392 25.4382 28.167C25.4114 28.2604 25.418 28.3606 25.4613 28.4477C25.5421 28.61 25.7114 28.7015 25.8877 28.717C25.9927 28.7263 26.2573 28.6342 26.3199 28.7458C26.4441 28.9673 26.7977 28.8183 26.7289 28.5731C26.6825 28.4072 26.5506 28.3001 26.3873 28.2553C26.3002 28.2314 26.2101 28.2346 26.1216 28.2444C26.087 28.2482 26.0524 28.2536 26.0177 28.2573L25.9916 28.2597C25.9984 28.2591 25.9197 28.2572 25.8881 28.2551L25.8948 28.237C25.8958 28.2344 25.8967 28.2322 25.8975 28.2304C25.9327 28.1551 25.9588 28.08 25.9567 27.9957C25.9528 27.8439 25.8546 27.7114 25.7257 27.6382C25.6068 27.5708 25.4652 27.5439 25.3301 27.5589C25.1815 27.5755 24.9704 27.6933 24.8243 27.6312C24.7142 27.5844 24.6769 27.4212 24.6752 27.3143C24.6726 27.1532 24.7372 27.0005 24.7417 26.84ZM14.4914 25.7835C14.0865 25.6016 13.7388 25.9124 13.5012 26.2098C13.489 26.2252 13.5044 26.251 13.5237 26.239L13.5553 26.2193C13.7493 26.0975 13.9644 25.9535 14.2048 25.995C14.4224 26.0326 14.4763 26.1752 14.433 26.3696L14.4203 26.4242C14.3743 26.6244 14.339 26.8316 14.4536 27.0177C14.5619 27.1935 14.7731 27.2703 14.9709 27.275C15.1991 27.2804 15.396 27.1741 15.6046 27.0999L15.6211 27.0942C15.7097 27.0635 16.0329 26.9835 16.0374 27.1658C16.0395 27.2491 15.9504 27.3471 15.9161 27.422C15.8713 27.52 15.8415 27.6229 15.842 27.7318C15.8433 28.0032 16.0695 28.2237 16.337 28.092C16.441 28.0408 16.4678 27.8939 16.4136 27.7995C16.3372 27.6664 16.3063 27.6734 16.3598 27.5337L16.3752 27.4943C16.4411 27.326 16.4936 27.1527 16.4196 26.976C16.2717 26.6231 15.8285 26.5803 15.5118 26.6972L15.5003 26.7016C15.3032 26.778 14.7129 27.0844 14.7536 26.6511C14.7696 26.4805 14.8213 26.3168 14.7851 26.1442C14.7515 25.984 14.6399 25.8503 14.4914 25.7835ZM12.5405 24.3342C12.4665 24.2039 12.2184 24.2505 12.239 24.416L12.2456 24.4675C12.254 24.538 12.2558 24.6042 12.2072 24.6669C12.1482 24.743 12.0472 24.766 11.9555 24.7544C11.7614 24.7297 11.6376 24.5495 11.424 24.5916C11.2506 24.6258 11.1309 24.7679 11.0615 24.9228C10.9881 25.0869 10.9897 25.2648 10.935 25.4337C10.8721 25.628 10.7378 25.6191 10.5701 25.5511L10.534 25.5362C10.3736 25.4695 10.2126 25.3952 10.0339 25.4272C9.73704 25.4802 9.48139 25.9374 9.75953 26.1581C9.80974 26.198 9.89748 26.1772 9.89536 26.1018L9.89508 26.0875C9.89367 25.9504 9.92822 25.7734 10.0851 25.7411C10.2515 25.7068 10.4396 25.8589 10.5941 25.9027C10.9943 26.0161 11.2223 25.7144 11.2903 25.3576L11.2927 25.3439C11.3144 25.219 11.3316 24.9879 11.462 24.9294C11.5316 24.8982 11.6058 24.975 11.6639 25.0059C11.7542 25.0539 11.8511 25.0844 11.9533 25.0922C12.3312 25.121 12.7607 24.7229 12.5405 24.3342ZM21.9986 23.8414C21.874 23.7873 21.6883 23.8174 21.6579 23.9802L21.6394 24.0826C21.6032 24.2805 21.5456 24.5279 21.3514 24.5991C21.23 24.6437 21.0905 24.5656 20.9816 24.518C20.8507 24.4607 20.7232 24.4116 20.5799 24.398C20.2892 24.3704 20.0727 24.5389 19.9699 24.8021L19.9609 24.8256C19.878 25.0468 19.7659 25.4698 19.9475 25.6492C19.974 25.6754 20.0274 25.6882 20.0599 25.6637C20.1672 25.5831 20.1944 25.4506 20.2312 25.3264L20.2344 25.3158C20.2735 25.1867 20.3055 25.0446 20.3761 24.9284C20.5073 24.7123 20.8496 24.959 21.0142 25.016C21.2846 25.1096 21.565 25.0549 21.7717 24.8547C21.9022 24.7283 21.9793 24.5683 22.0324 24.3989C22.0663 24.4164 22.1014 24.4316 22.1393 24.4419C22.2836 24.481 22.4547 24.4604 22.5645 24.3509C22.7707 24.1455 22.6589 23.777 22.3446 23.8366C22.2827 23.8483 22.242 23.9075 22.2347 23.968L22.2305 23.9775C22.1514 23.9513 22.0649 23.8701 21.9986 23.8414ZM7.43362 22.0061C7.13995 21.7035 6.63032 21.8675 6.42946 22.1885C6.3878 22.255 6.45662 22.3394 6.52977 22.3192C6.7046 22.2709 6.95131 22.081 7.13608 22.2019C7.27304 22.2915 7.19853 22.5257 7.186 22.6567L7.1842 22.6762C7.16834 22.8546 7.16475 23.0986 7.30345 23.2321C7.38329 23.309 7.50573 23.2986 7.61102 23.2876L7.64449 23.2842C7.76861 23.2717 7.89191 23.2497 8.0108 23.2115C8.12009 23.1764 8.22366 23.1286 8.32635 23.0781L8.35201 23.0654C8.39747 23.0428 8.54905 22.9532 8.59445 23.0095C8.61813 23.0388 8.55946 23.1674 8.54727 23.1961C8.50122 23.3039 8.44267 23.4054 8.40044 23.5152C8.32602 23.7085 8.3198 23.9267 8.42431 24.1112C8.52558 24.29 8.74499 24.4348 8.93946 24.2975C9.05079 24.2188 9.05048 24.0758 8.93946 23.9971C8.88071 23.9554 8.82148 23.928 8.79721 23.8581C8.76553 23.767 8.80629 23.6704 8.84576 23.5861L8.893 23.4858C8.99766 23.2618 9.10222 23.0042 8.95601 22.7752C8.80501 22.5388 8.49814 22.535 8.26599 22.6335C8.1335 22.6897 8.01261 22.7651 7.87454 22.8086C7.77902 22.8387 7.68313 22.8588 7.58529 22.8698C7.56348 22.7519 7.59434 22.6199 7.59465 22.5028C7.59516 22.3249 7.56207 22.1384 7.43362 22.0061ZM22.5769 17.7969C22.0814 17.7241 21.8415 18.168 21.8073 18.5955C21.7764 18.9836 21.8392 19.3729 21.9374 19.7502C21.9742 19.8902 22.0154 20.0284 22.0587 20.1644C22.1283 20.3829 22.2038 20.601 22.2958 20.8112C22.3238 20.8746 22.3521 20.9384 22.3837 20.9996C22.4923 21.0887 22.5851 21.2087 22.6695 21.3241L22.725 21.4003L22.7399 21.4208C22.8833 21.6174 23.0057 21.8214 23.1059 22.0432C23.2012 22.2545 23.2722 22.4747 23.3274 22.6996L23.341 22.7557C23.3834 22.9287 23.446 23.1353 23.3704 23.2963C23.5189 23.3421 23.6665 23.3838 23.8243 23.4059C24.0421 23.4365 24.2687 23.4385 24.4885 23.4305C24.7009 23.4227 24.913 23.4061 25.1244 23.3836L25.2768 23.3668C25.2926 23.365 25.3083 23.3631 25.3241 23.3611C25.3181 23.3538 25.313 23.3455 25.3094 23.3365C25.2551 23.2062 25.2621 23.0551 25.2561 22.9149L25.2553 22.8994C25.2474 22.7439 25.2426 22.5883 25.2406 22.4325C25.237 22.1401 25.2449 21.8469 25.2768 21.556C25.3045 21.3013 25.3478 21.0466 25.4154 20.7993C25.4836 20.5486 25.5877 20.3131 25.6839 20.0723C25.7789 19.8344 25.8573 19.5899 25.8488 19.3304C25.8434 19.1655 25.8072 19.0051 25.7458 18.8536C25.743 18.8559 25.7393 18.8576 25.7351 18.8573C25.5424 18.8502 25.36 18.7944 25.1739 18.7473C24.9764 18.6972 24.7742 18.6561 24.5722 18.6318L24.5293 18.6267C24.361 18.6078 24.1776 18.5986 24.0221 18.6709C23.8538 18.7494 23.7477 18.9239 23.6838 19.0913L23.6766 19.1106C23.5631 19.428 23.5891 19.8516 23.9403 20.0018C24.0492 20.0485 24.2979 20.0771 24.3539 19.9293C24.379 19.8618 24.3273 19.7621 24.3078 19.6984C24.2848 19.6225 24.2699 19.5477 24.2715 19.4683C24.2729 19.3988 24.326 19.3463 24.3935 19.3407L24.3997 19.3403C24.5224 19.3349 24.7756 19.1933 24.8002 19.3972C24.805 19.4369 24.7748 19.4785 24.7428 19.4978C24.6783 19.536 24.611 19.5616 24.5408 19.5771C24.5504 19.6196 24.564 19.6613 24.5774 19.7026C24.5852 19.6987 24.594 19.6961 24.6033 19.6953C24.7072 19.6868 24.8098 19.7032 24.9136 19.7043L24.9704 19.7047C25.051 19.7055 25.1212 19.7099 25.1993 19.7516C25.2715 19.7902 25.2587 19.8868 25.1993 19.9281C25.0435 20.0364 24.7796 19.9729 24.6172 19.863C24.6243 19.9188 24.6209 19.9757 24.5971 20.0355C24.527 20.2129 24.3259 20.3012 24.146 20.3089C23.9861 20.3157 23.8334 20.2653 23.7058 20.1769C23.6798 20.2701 23.6379 20.3596 23.6198 20.4562C23.5961 20.5831 23.6244 20.7316 23.5803 20.8508C23.5361 20.971 23.3655 21.0514 23.2668 20.9336C23.1223 20.7613 23.1673 20.4885 23.2943 20.314C23.3619 20.2216 23.4846 20.1157 23.6097 20.099C23.5228 20.0171 23.4532 19.9159 23.4094 19.8043C23.4063 19.8057 23.4026 19.806 23.3986 19.8049C22.9922 19.6936 22.771 19.3247 22.7574 18.9374C22.7274 18.959 22.6963 18.9783 22.6638 18.9955C22.586 19.0375 22.4861 19.0006 22.4621 18.9136C22.44 18.8326 22.5042 18.7326 22.5945 18.7394C22.6459 18.7437 22.6977 18.7439 22.7489 18.7354C22.756 18.7343 22.7628 18.7329 22.7698 18.7315C22.7744 18.7017 22.7803 18.672 22.7877 18.6425C22.6341 18.6601 22.4734 18.6349 22.3249 18.602C22.197 18.574 22.2267 18.3703 22.3554 18.3751L22.3761 18.376C22.545 18.3841 22.7943 18.4114 22.939 18.3043C22.9644 18.2674 22.9927 18.2326 23.0233 18.1997C23.0272 18.1915 23.0306 18.1828 23.0337 18.1737C23.1115 17.9493 22.743 17.8212 22.5769 17.7969ZM18.1283 20.9534C17.9354 20.9017 17.7323 20.9721 17.5996 21.118C17.4881 21.2406 17.4304 21.3912 17.3788 21.5452L17.3493 21.6337C17.3064 21.7591 17.2572 21.8586 17.1039 21.8108C16.9074 21.7495 16.7371 21.6428 16.5234 21.6512C16.3292 21.6589 16.1392 21.7425 16.004 21.8828C15.8657 22.0262 15.7996 22.226 15.829 22.4229L15.8309 22.435C15.8462 22.5257 15.9787 22.8495 16.1191 22.7004C16.1818 22.634 16.1694 22.5604 16.1843 22.4759C16.1984 22.3955 16.2287 22.3166 16.2783 22.2513C16.3662 22.1357 16.5076 22.0906 16.6458 22.1315C16.8281 22.1855 16.9892 22.2968 17.1856 22.2994C17.3922 22.3021 17.5677 22.1948 17.6816 22.0263C17.7736 21.8903 17.8064 21.7311 17.8712 21.5833L17.8774 21.5692C17.9318 21.4475 17.9688 21.4035 18.0934 21.4617L18.1369 21.4826C18.3233 21.5713 18.533 21.6525 18.7257 21.5275C18.9048 21.4113 18.9812 21.1778 18.8305 21.0078C18.7474 20.9139 18.5551 20.9299 18.5011 21.0503C18.4916 21.071 18.4828 21.092 18.4741 21.1131C18.4577 21.108 18.4416 21.1019 18.4264 21.0933C18.3254 21.0477 18.2376 20.9826 18.1283 20.9534ZM12.496 19.5788C12.2759 19.46 12.0922 19.6936 12.1274 19.9046L12.1291 19.9139C12.1304 19.9202 12.1333 19.9341 12.137 19.95C12.1258 19.9487 12.1147 19.9467 12.1036 19.9439L12.0525 19.9376C11.9721 19.9282 11.8942 19.9234 11.8137 19.9492C11.6238 20.0102 11.5305 20.1951 11.5259 20.3845C11.5213 20.5733 11.6189 20.7256 11.6475 20.9059C11.6768 21.0904 11.4862 21.0377 11.3618 21.0242L11.3569 21.0237C11.1838 21.0062 11.0018 21.0059 10.8579 21.1189C10.7093 21.2355 10.6435 21.4372 10.6645 21.6218C10.6835 21.7886 10.7876 22.0452 10.9764 22.0716C10.995 22.0742 11.0162 22.0701 11.0258 22.0514C11.1021 21.9028 10.9959 21.7387 11.0079 21.5819C11.0211 21.4094 11.1309 21.3807 11.2823 21.3919C11.4291 21.4027 11.5757 21.4339 11.7207 21.3901C11.8781 21.3424 11.9924 21.2072 12.0247 21.0476C12.0603 20.8718 11.9948 20.7082 11.9524 20.541C11.9382 20.4855 11.9313 20.4297 11.941 20.373C11.9431 20.3607 11.9538 20.3494 11.9576 20.3445C11.9818 20.34 12.0179 20.3516 12.0386 20.3538L12.0679 20.3567C12.2273 20.3711 12.3809 20.3614 12.4948 20.2295C12.5531 20.1619 12.5747 20.0793 12.5689 19.9922L12.5659 19.957C12.5628 19.9231 12.5569 19.8784 12.5393 19.8598L12.5391 19.8589C12.545 19.8509 12.5506 19.8428 12.5557 19.8343L12.5606 19.8258C12.6095 19.7443 12.5812 19.6247 12.496 19.5788ZM23.7712 17.511C23.552 17.511 23.3449 17.5827 23.1791 17.7779C23.2383 17.8343 23.2855 17.8997 23.3115 17.9765C23.3927 17.932 23.4787 17.8972 23.5667 17.8725C23.8351 17.7975 24.2022 17.7986 24.428 17.983C24.5462 18.0793 24.4164 18.2521 24.2891 18.2224C24.1751 18.1958 24.0761 18.1465 23.9564 18.1408C23.8526 18.1357 23.7508 18.1493 23.6512 18.1793C23.4993 18.2253 23.3613 18.3122 23.2598 18.432C23.2258 18.4723 23.1961 18.5159 23.1712 18.563C22.9817 18.9233 23.1245 19.44 23.3862 19.7366C23.2835 19.395 23.3859 18.9921 23.5904 18.7091C23.8366 18.3684 24.2049 18.3298 24.5928 18.3829L24.6056 18.3847C24.981 18.4377 25.4457 18.5303 25.7263 18.8066C25.6983 18.7428 25.6661 18.6811 25.6298 18.6213C25.4171 18.2706 25.0644 17.9969 24.6984 17.8017C24.637 17.7686 24.5751 17.738 24.5134 17.7096C24.2789 17.6017 24.0175 17.511 23.7712 17.511ZM23.8911 14.8344L23.8902 14.8384C23.8901 14.8392 23.8899 14.8399 23.8897 14.8407C23.8767 14.9559 23.9073 15.0881 23.9229 15.2044L23.925 15.2209C23.9579 15.4855 24.0011 15.7503 24.0153 16.0169C24.029 16.2733 24.0237 16.5392 23.993 16.7945L23.9884 16.8308C23.9703 16.9699 23.9596 17.1331 23.9126 17.2759C24.0931 17.2932 24.2735 17.3513 24.4376 17.413C24.4964 17.4354 24.555 17.4589 24.6132 17.4839C24.5403 17.0954 24.5012 16.7014 24.422 16.3141L24.4064 16.237C24.3203 15.8086 24.2395 15.3775 24.017 14.9942C23.9873 14.9432 23.9553 14.9005 23.9191 14.8548C23.9112 14.8444 23.9019 14.8376 23.8911 14.8344Z" fill="#252121"/>
</g>
<path fill-rule="evenodd" clip-rule="evenodd" d="M20.6681 8.29736C20.4908 7.80327 20.3035 7.31297 20.1064 6.82648C19.9145 6.35299 19.7412 5.86928 19.5028 5.41823C18.0794 2.72432 15.4909 2.72432 14.1529 3.07632C13.459 2.77639 12.1593 2.86099 11.4368 3.13164C10.2671 3.56978 8.84126 5.29336 8.35376 6.06774C7.27742 7.77751 6.6057 10.0532 7.32067 12.0289C7.41411 12.2871 7.53329 12.5263 7.66747 12.7567C7.58295 12.8717 7.48566 12.9805 7.37789 13.0875C7.05763 13.4053 6.73736 13.7128 6.4607 14.0713C6.18577 14.4276 5.95785 14.8065 5.78817 15.2242C5.46823 16.0121 5.45283 16.9041 5.87581 17.6559C6.24381 18.31 6.89571 18.797 7.63017 18.8435C7.66788 18.8488 7.70564 18.8536 7.74356 18.8574C7.84088 19.0182 7.95954 19.1663 8.09497 19.2954C8.50989 19.6913 9.49896 19.8944 10.0631 19.9074C10.092 19.9307 10.1212 19.9541 10.1504 19.9771C10.4956 20.2497 10.8578 20.5246 11.2541 20.7185C11.5225 20.85 11.8744 20.9599 12.1545 20.865C12.2815 20.9501 12.4899 20.9322 12.6159 20.8625C12.823 20.7481 12.9914 20.542 13.0938 20.331C13.3422 19.8187 13.2825 19.2582 13.2187 18.711C13.1484 18.1065 13.0808 17.5018 13.0122 16.8973C12.9584 16.4246 12.9022 15.9441 12.7589 15.4888C12.6848 15.2529 12.5878 15.0262 12.4624 14.813C12.4656 14.7951 12.4651 14.7772 12.4599 14.7604C12.4188 14.6264 12.334 14.5562 12.2334 14.4651C12.2204 14.4534 12.2075 14.4415 12.1948 14.4293C12.1445 14.3718 12.0907 14.3184 12.0331 14.2731C12.0109 14.2506 11.989 14.2278 11.9672 14.205C11.7852 14.0139 11.6133 13.8129 11.4606 13.5976C11.3125 13.3888 11.1787 13.1707 11.0513 12.9487C10.9219 12.7228 10.8362 12.4735 10.707 12.2493C10.6959 12.23 10.6678 12.2262 10.6521 12.2422C10.6121 12.2837 10.5864 12.3298 10.5913 12.3784L10.5713 12.3813C10.5637 12.3081 10.4964 12.2485 10.405 12.2645C10.2683 12.2883 10.1558 12.2973 10.0374 12.2517C10.0582 12.1131 10.0774 11.9743 10.0963 11.8352C10.1309 11.5792 10.1631 11.3224 10.1907 11.0656C10.2574 11.0816 10.3237 11.1046 10.3885 11.1339C10.481 11.1754 10.5683 11.2313 10.6429 11.2999C10.7164 11.3677 10.7672 11.4591 10.857 11.5062C10.9602 11.5602 11.0849 11.471 11.0546 11.3538C10.9932 11.1171 10.6459 10.9815 10.431 10.9368C10.3572 10.9213 10.2818 10.9148 10.2064 10.9164C10.2234 10.7515 10.2385 10.5867 10.251 10.4215C10.2569 10.3434 10.2623 10.2653 10.2674 10.1869C10.4345 10.1362 10.6134 10.1211 10.7873 10.1449C10.8446 10.1907 10.9019 10.236 10.9573 10.2819C11.1332 10.4278 11.3084 10.5745 11.4814 10.7239C11.4971 10.7372 11.5125 10.7505 11.5282 10.764C11.6309 10.8527 11.759 10.7648 11.7417 10.6393C11.6006 9.61042 12.2288 8.79199 12.9643 8.15797C13.7785 7.45589 15.2587 7.37413 16.227 6.15802C16.6729 6.24907 17.6685 6.5195 18.0794 7.1763C18.6546 8.09669 18.5795 8.92135 18.6233 9.96539C18.667 11.0103 18.7784 12.1001 18.5419 13.1303C18.3238 14.0803 17.7331 14.8919 16.8168 15.2651C16.7941 15.2743 16.7711 15.2832 16.7481 15.2919C16.2743 15.4712 15.7572 15.5219 15.2587 15.4275C14.707 15.3228 14.2464 15.0696 13.7874 14.758C13.7609 14.7403 13.7223 14.7767 13.7423 14.8033C14.3472 15.6076 15.5355 15.8763 16.4781 15.664C16.5221 15.654 16.5659 15.6431 16.6094 15.6312C16.3986 16.2394 16.441 16.9071 16.7157 17.4993C16.8808 17.8557 17.1328 18.164 17.4396 18.4072C17.7777 18.6752 18.1972 18.8916 18.4319 19.2677C18.6468 19.6124 18.583 19.9996 18.2151 20.1987C18.1224 20.2491 18.0867 20.4121 18.1786 20.4837C18.2137 20.5108 18.2489 20.5385 18.2848 20.5656C18.4908 20.7215 19.0566 21.0144 19.1482 21.0252C19.9618 21.122 20.5089 20.5227 20.8595 19.8158C21.2712 18.9859 21.1642 17.9747 20.7106 17.1845C20.3467 16.5505 19.6302 15.9257 19.9151 15.1233C20.0167 14.8366 20.2246 14.5923 20.4265 14.3715C20.6568 14.1202 20.9044 13.8848 21.1252 13.6244C21.3447 13.366 21.5394 13.0848 21.648 12.7605C21.8067 12.2864 21.7278 11.7739 21.6086 11.3007C21.3531 10.2848 21.0214 9.28256 20.6681 8.29736Z" fill="#252121"/>
<path fill-rule="evenodd" clip-rule="evenodd" d="M16.3408 13.158C16.3857 13.0798 16.4893 13.0073 16.5841 13.0184C17.0086 13.0682 17.0078 13.5829 16.8439 13.8833C16.6986 14.1498 16.3978 14.3062 16.0967 14.2833C15.7805 14.2593 15.511 14.0734 15.3924 13.7775C15.314 13.5818 15.2777 13.2205 15.4864 13.089C15.4902 13.0865 15.4966 13.0872 15.4997 13.0907C15.5998 13.2071 15.6037 13.3818 15.6913 13.5113C15.7727 13.6318 15.8993 13.7314 16.0475 13.7467C16.1582 13.7582 16.2702 13.7183 16.3135 13.6189C16.3369 13.5651 16.3343 13.5359 16.3255 13.4989L16.3175 13.4668C16.2897 13.3541 16.2773 13.2684 16.3408 13.158ZM16.4543 10.9008C16.6757 11.0354 17.013 11.3492 16.7748 11.6828C16.4945 11.977 16.0908 11.6397 15.8919 11.4872C15.7075 11.3689 15.5002 11.673 15.6714 11.811C17.1087 12.8752 17.692 10.936 16.5662 10.7426C16.4423 10.7213 16.3962 10.8592 16.4543 10.9008ZM14.1162 9.978C14.2521 9.77411 14.5623 9.80413 14.6372 10.0461C14.6777 10.1771 14.6217 10.2949 14.6246 10.4258C14.6271 10.5364 14.6198 10.6596 14.5859 10.7667C14.5087 11.0108 14.2891 11.1833 14.0293 11.1761C13.7703 11.169 13.5422 11.0051 13.4338 10.7743C13.3249 10.5426 13.348 10.3028 13.4274 10.0672C13.4313 10.0558 13.4461 10.0504 13.455 10.0599C13.549 10.1597 13.6177 10.2651 13.6889 10.3768L13.7618 10.4914C13.8175 10.5776 13.8985 10.6878 14.0025 10.6809L14.0181 10.6794C14.047 10.6769 14.0426 10.6826 14.0649 10.6432C14.0752 10.625 14.0733 10.5911 14.0783 10.5696L14.08 10.5623L14.0791 10.5584C14.0769 10.548 14.0747 10.5283 14.0729 10.4942L14.0726 10.4867C14.065 10.3273 14.02 10.1225 14.1162 9.978ZM17.561 10.1137C17.5367 9.85296 17.9033 9.79506 18.0251 9.98801C18.0887 10.0886 18.1072 10.215 18.1213 10.3348L18.1279 10.3916C18.1423 10.5146 18.148 10.6426 18.0946 10.7573C18.0105 10.938 17.8277 11.0335 17.6304 11.0184C17.442 11.0039 17.2701 10.8947 17.1796 10.7289C17.0988 10.5809 17.0185 10.2921 17.1166 10.1378C17.1225 10.1284 17.1343 10.1272 17.1425 10.1344C17.2352 10.2167 17.2503 10.3668 17.3054 10.4741C17.3622 10.5847 17.4485 10.6924 17.5791 10.7092C17.7042 10.7253 17.7519 10.657 17.72 10.5378C17.6789 10.384 17.5765 10.2793 17.561 10.1137ZM14.2153 8.42768L14.2752 8.40472C14.4806 8.32712 14.7627 8.23743 14.9297 8.40446C15.0327 8.50746 15.0523 8.65919 14.9788 8.78488C14.8897 8.93714 14.7299 8.94089 14.5755 8.96332C14.4 8.98883 14.2215 9.03732 14.058 9.10646C13.8739 9.18436 13.7031 9.28146 13.5357 9.38992C13.3766 9.49297 13.2181 9.66141 13.0277 9.69317C13.0199 9.69446 13.0111 9.69111 13.009 9.68258C12.9658 9.4964 13.086 9.31319 13.1932 9.16794C13.323 8.99208 13.4802 8.84774 13.656 8.71833C13.8256 8.5934 14.0194 8.50312 14.2153 8.42768ZM17.9467 9.08962L17.965 9.08641C18.0895 9.06567 18.2024 9.07044 18.2963 9.1691C18.368 9.24436 18.3956 9.34191 18.3614 9.44142C18.3299 9.53322 18.2594 9.62648 18.1571 9.64572C17.8118 9.71069 17.4292 9.69996 17.0822 9.65076C16.9234 9.62824 16.7631 9.60069 16.6085 9.55723L16.5373 9.5366C16.4082 9.49972 16.2603 9.46118 16.1665 9.36621C16.1328 9.33209 16.1523 9.28324 16.1926 9.26744C16.3563 9.20335 16.5806 9.23744 16.7551 9.23243C16.9581 9.22662 17.1614 9.21141 17.3635 9.19044C17.5609 9.16992 17.752 9.12533 17.9467 9.08962Z" fill="#252121"/>
</svg>
