<svg width="28" height="28" viewBox="0 0 28 28" fill="none" xmlns="http://www.w3.org/2000/svg">
<path d="M28 14C28 21.732 21.732 28 14 28C6.26801 28 0 21.732 0 14C0 6.26801 6.26801 0 14 0C21.732 0 28 6.26801 28 14Z" fill="#E2C1FF"/>
<mask id="mask0_2009_14425" style="mask-type:alpha" maskUnits="userSpaceOnUse" x="0" y="0" width="28" height="28">
<path d="M28 14C28 21.732 21.732 28 14 28C6.26801 28 0 21.732 0 14C0 6.26801 6.26801 0 14 0C21.732 0 28 6.26801 28 14Z" fill="#E2C1FF"/>
</mask>
<g mask="url(#mask0_2009_14425)">
<path fill-rule="evenodd" clip-rule="evenodd" d="M9.83458 20.4066C11.2927 20.0855 12.1576 20.0855 12.6469 19.5879C13.1363 19.0904 13.2251 18.2364 13.4281 17.577C13.5399 17.2136 14.6358 16.8836 15.6988 16.9353C16.5651 16.9774 17.4382 17.3432 17.5056 17.577C17.6558 18.0976 17.8973 20.3264 18.6916 20.6688C19.4858 21.0113 21.1814 20.6991 21.6662 21.5168C22.151 22.3345 23.7431 25.668 23.7431 26.4447C23.7431 27.2214 8.17773 26.9839 8.17773 26.9839C8.17773 26.9839 8.37644 20.7278 9.83458 20.4066Z" fill="white"/>
<path fill-rule="evenodd" clip-rule="evenodd" d="M3.12633 38.4993C3.13102 38.5154 3.14859 38.5151 3.12633 38.4993V38.4993ZM3.03993 38.4349C3.04139 38.4361 3.04315 38.4372 3.04491 38.4384C3.02734 38.4369 3.0165 38.4191 3.03993 38.4349ZM26.0755 36.3756C25.9777 35.9577 25.8801 35.5394 25.7823 35.1215C25.5782 34.2475 25.3737 33.3732 25.1696 32.499C24.7698 30.7891 24.3703 29.0792 23.9705 27.3693C23.7675 26.5003 23.5356 25.6381 23.3262 24.7705C23.1428 24.0102 22.9914 23.2317 22.6765 22.5121C22.3552 21.7775 21.7908 21.1636 21.0434 20.8523C20.414 20.5905 19.7061 20.4455 19.0207 20.4124C19.1068 20.3069 19.127 20.1508 19.0014 20.0234C18.8456 19.8656 18.8139 19.631 18.7724 19.4221C18.7205 19.1612 18.64 18.8815 18.4847 18.6618C18.4191 18.569 18.3237 18.5256 18.2112 18.5505C18.1421 18.5657 18.0741 18.5836 18.007 18.6038C17.9854 18.5821 17.964 18.559 17.9452 18.5309C17.9028 18.4659 17.8752 18.3707 17.8143 18.3209C17.773 18.2869 17.7261 18.2787 17.6778 18.3033C17.5481 18.3692 17.5373 18.5687 17.565 18.6911C17.5706 18.7148 17.5773 18.7385 17.5856 18.7617C17.5768 18.7658 17.5677 18.7699 17.5586 18.774H17.5583C17.3891 18.7418 17.1729 18.8097 17.0077 18.8261C16.8158 18.8451 16.6232 18.8577 16.4304 18.8639C16.0359 18.8765 15.6408 18.8648 15.248 18.8252C14.8652 18.7872 14.4851 18.7259 14.107 18.6568C13.8715 18.6138 13.5844 18.578 13.3777 18.4366C13.3744 18.366 13.3727 18.2951 13.3712 18.2245C13.3683 18.1018 13.3747 18.0054 13.3094 17.8977C13.3085 17.8965 13.3071 17.8962 13.3056 17.8968C13.2248 17.939 13.1668 18.011 13.1243 18.0965C13.0467 18.0757 12.9632 18.0787 12.8909 18.1088C12.7886 18.1513 12.7125 18.2002 12.6332 18.2787C12.5151 18.395 12.4806 18.5309 12.446 18.687C12.4211 18.7989 12.4056 18.8788 12.3611 18.9538C12.3514 18.9699 12.3411 18.9869 12.33 19.0024C12.3259 19.0065 12.3183 19.0144 12.3054 19.0279C12.2925 19.0408 12.2796 19.0534 12.2665 19.066C12.2588 19.0736 12.2214 19.1041 12.2272 19.1C12.0649 19.2206 11.9182 19.266 11.7179 19.3237C11.2867 19.4479 10.8451 19.529 10.4154 19.6608C9.94591 19.8049 9.48667 19.9801 9.03767 20.179C7.29118 20.9525 5.72805 22.177 4.66223 23.7718C3.42098 25.6293 2.96407 27.8854 2.73767 30.0727C2.48989 32.47 2.50717 34.8945 2.45298 37.3017C2.44625 37.6028 2.43951 37.9039 2.43278 38.205C2.42604 38.4993 2.40788 38.8162 2.66913 39.0145C2.90198 39.1908 3.18549 39.1355 3.44324 39.0561C3.71913 38.9715 4.00001 38.9041 4.28441 38.8558C4.82098 38.7653 5.37453 38.7544 5.91579 38.8072C6.20662 38.8356 6.56248 38.9433 6.80148 38.7155C6.88729 38.6335 6.93679 38.5295 6.97721 38.4202C7.02759 38.2855 7.08646 38.1534 7.14503 38.021C7.19336 37.9121 7.24139 37.8025 7.28943 37.6933C7.36734 38.0345 7.44524 38.3757 7.52315 38.7172C7.55391 38.8517 7.6942 38.8619 7.77884 38.7966C7.91708 38.8707 8.09867 38.8692 8.25566 38.8874C8.50813 38.9164 8.76262 38.9264 9.01629 38.9351C9.51332 38.9521 10.0103 38.9615 10.5077 38.9679C11.5216 38.9808 12.5356 38.9761 13.5493 38.9718C15.5576 38.963 17.5657 38.922 19.5731 38.8698C20.1384 38.8552 20.7037 38.842 21.2689 38.8282C21.5513 38.8215 21.8339 38.8148 22.1165 38.8069C22.2012 38.8045 22.2867 38.7966 22.367 38.7779H22.3672C22.403 38.8092 22.4469 38.8332 22.4993 38.8476C22.6871 38.8991 22.8736 38.7843 22.9299 38.603C22.956 38.5198 22.9741 38.4437 22.9676 38.3628C22.9773 38.3019 22.987 38.241 22.9967 38.1801C23.3101 38.3784 23.6861 38.4323 24.0572 38.4077C24.4769 38.3798 24.8966 38.3031 25.3131 38.246C25.7041 38.1924 26.3379 38.2097 26.3567 37.6696C26.3634 37.4719 26.2799 37.2502 26.2354 37.0598C26.1821 36.8316 26.1288 36.6038 26.0755 36.3756Z" fill="black"/>
<path fill-rule="evenodd" clip-rule="evenodd" d="M20.089 9.3805C19.7873 8.29137 18.634 7.81613 17.5954 7.74071C14.7833 7.44838 11.9209 9.01603 10.6742 11.558C9.67623 13.4882 9.64498 15.5159 11.7901 16.618C11.9073 16.6826 12.0296 16.7516 12.1546 16.8143C12.2631 16.9152 12.3749 17.0122 12.4969 17.0936C13.6651 17.8617 15.0988 18.194 16.4882 18.1219C18.5396 18.0806 19.2719 16.6886 19.7201 14.9034C20.1927 13.1262 20.457 11.1978 20.089 9.3805Z" fill="white"/>
<path fill-rule="evenodd" clip-rule="evenodd" d="M21.4345 19.6464C21.3387 19.3567 21.2186 19.0759 21.1064 18.792C21.0827 18.6506 21.0669 18.5079 21.0628 18.3641C21.0473 17.8504 21.1434 17.3323 21.2511 16.832C21.4702 15.8154 21.7025 14.8094 21.819 13.774C22.0273 11.9221 21.9034 9.99635 21.061 8.30581C20.3312 6.84137 19.0943 5.64376 17.4966 5.19506C17.0243 5.06235 16.5382 4.98916 16.0488 4.95993C15.9882 4.95029 15.9276 4.94086 15.8674 4.93178C15.1866 4.82915 14.4975 4.77801 13.8094 4.82227C12.6683 4.8957 11.5379 5.22361 10.5875 5.87218C9.63066 6.52523 8.95081 7.44091 8.63447 8.55778C8.30538 9.71966 8.33329 10.978 7.765 12.0673C7.59712 12.3891 7.40115 12.6951 7.21426 13.0061C6.71837 13.5594 6.17999 14.1745 6.06201 14.9353C5.91645 15.8755 6.45741 16.6701 6.96938 17.4038C7.43214 18.0663 8.06009 18.9812 7.58385 19.7969C7.35921 20.1818 6.99925 20.4697 6.72891 20.8206C6.44862 21.1849 6.22984 21.6032 6.11678 22.0501C5.90444 22.8895 6.09979 23.7644 6.6677 24.4205C6.96352 24.762 7.34339 24.9878 7.75461 25.1638C8.17548 25.3436 8.5867 25.5144 8.93465 25.8205C9.09368 25.9602 9.23925 26.1133 9.37691 26.2738C9.50519 26.4745 9.65456 26.6619 9.82297 26.8335C10.0084 27.0225 10.3716 26.7638 10.2014 26.5415C10.1888 26.5251 10.1765 26.509 10.1639 26.4926C10.0394 26.3304 9.91435 26.1681 9.78343 26.0111C9.39302 25.3925 9.24276 24.6351 9.43695 23.9126C9.48733 23.7248 9.5582 23.5468 9.64639 23.3787C9.66511 23.4276 9.68561 23.4759 9.70728 23.5236C9.79163 23.7087 9.90999 23.9281 10.0605 24.1156C10.0664 24.2441 10.0857 24.3715 10.1232 24.4963C10.3551 25.2698 11.1307 25.6515 11.8301 25.9484C11.8987 25.9777 11.9663 26.0059 12.0328 26.0337C12.2156 26.1101 12.4089 25.8497 12.2949 25.6927C12.2651 25.6515 12.2361 25.6093 12.2085 25.5665C11.8805 25.0587 11.7244 24.4512 11.8128 23.8461C11.906 23.2061 12.2832 22.6766 12.6578 22.1684C13.0257 21.6688 13.4208 21.1589 13.5854 20.5494C13.7676 19.876 13.6018 19.2047 13.3206 18.585C13.0632 18.0179 12.7202 17.4951 12.4327 16.9436C12.5311 17.0418 12.6327 17.1368 12.7374 17.2284C12.8551 17.3315 12.976 17.4494 13.1156 17.522C13.2187 17.5757 13.322 17.4472 13.2404 17.3603C13.133 17.2461 12.9956 17.1579 12.8764 17.056C12.7619 16.9582 12.6507 16.8565 12.5423 16.752C12.4089 16.6234 12.2819 16.4888 12.1595 16.35C12.0615 16.1004 11.9808 15.8442 11.9151 15.5841C11.8257 15.232 11.7431 14.8574 11.7496 14.4925C11.756 14.1182 11.9505 13.856 12.2094 13.6047C12.3191 13.4983 12.4298 13.3932 12.5403 13.2878C12.7757 13.115 12.9977 12.922 13.2133 12.7295C13.5976 12.3865 13.9693 12.024 14.3242 11.6508C14.4194 11.5507 14.5139 11.4495 14.6071 11.3471C14.9329 11.0127 15.2437 10.6636 15.5366 10.3024C15.8277 10.1964 16.1075 10.0561 16.3699 9.89091C16.2557 10.0066 16.1403 10.1208 16.0254 10.2359C15.7698 10.4925 15.5041 10.7502 15.2077 10.9593C15.1772 10.981 15.1957 11.027 15.2332 11.0197C15.6101 10.9444 15.9628 10.8191 16.292 10.6193C16.6267 10.4161 16.9217 10.1399 17.197 9.8628C17.3528 9.7925 17.5031 9.702 17.6404 9.61296C17.6477 9.60828 17.6551 9.6033 17.6624 9.59858C17.5271 10.0274 17.3285 10.513 16.9053 10.6659C16.8915 10.6709 16.8924 10.6937 16.9088 10.6928C17.2654 10.6719 17.5519 10.5115 17.7781 10.2777C17.9601 10.1468 18.1337 10.008 18.2994 9.857C18.4599 9.71067 18.6119 9.55374 18.7563 9.39125C18.5545 9.79101 18.3285 10.1819 18.1055 10.5684C18.0938 10.5889 18.1184 10.6167 18.1395 10.6023C18.6102 10.2837 18.9672 9.87246 19.2592 9.38624C19.3023 9.31466 19.3435 9.24191 19.3836 9.1686C19.3533 9.28332 19.3202 9.39731 19.2848 9.51072C19.2207 9.716 19.1576 9.92175 19.0934 10.1269C19.0588 10.2375 19.0166 10.3457 18.9702 10.4519C18.9371 10.5279 18.8937 10.6038 18.8869 10.6872C18.8865 10.6928 18.8925 10.6964 18.8974 10.6952C19.0851 10.6483 19.2598 10.4342 19.3936 10.3016C19.468 10.2278 19.5378 10.1468 19.602 10.0613C19.6139 10.5535 19.6221 11.0459 19.6113 11.5396C19.5911 12.4464 19.5325 13.3528 19.4575 14.2567C19.3913 15.0557 19.3424 15.8942 18.8966 16.5887C18.5516 17.1261 17.9922 17.498 17.3844 17.6782C17.3308 17.6943 17.2769 17.7087 17.2228 17.7215C16.3429 17.9304 15.4666 17.6937 14.6887 17.2755C14.455 17.1498 14.2552 17.4907 14.4808 17.631C15.3249 18.1565 16.3948 18.3354 17.3502 18.1C17.32 19.2284 17.8762 20.2989 18.4295 21.2561C18.739 21.7918 19.0489 22.324 19.2677 22.9048C19.4534 23.398 19.5796 23.9097 19.6221 24.436C19.6725 25.0563 19.623 25.6802 19.5363 26.2952C19.5316 26.3286 19.5269 26.3623 19.5219 26.3957C19.5026 26.5278 19.6212 26.6385 19.7498 26.5708C20.3183 26.2721 20.5634 25.6353 20.7125 25.0466C20.8519 24.4951 20.9465 23.9328 20.9992 23.3666C21.0766 23.5802 21.1392 23.7989 21.1879 24.0221C21.1946 24.0541 21.201 24.086 21.2075 24.1179C21.2444 24.3045 21.5267 24.2913 21.5718 24.1179C21.58 24.0866 21.588 24.0552 21.5953 24.0236C21.8281 23.082 21.8908 22.0999 21.7678 21.1372C21.7031 20.6308 21.595 20.1311 21.4345 19.6464Z" fill="#A87F63"/>
<path fill-rule="evenodd" clip-rule="evenodd" d="M15.4883 16.5101C15.4883 16.5101 15.9033 16.8304 16.6771 16.8304C17.451 16.8304 17.9005 16.5438 17.9005 16.5438C17.9005 16.5438 17.2222 16.1318 16.6771 16.0984C16.1321 16.065 15.4883 16.5101 15.4883 16.5101Z" fill="#FF6C6C"/>
<path fill-rule="evenodd" clip-rule="evenodd" d="M14.5666 15.6956C14.5697 15.3729 14.8493 15.3172 15.115 15.3602C15.5647 15.433 16.0161 15.4842 16.4719 15.4934L16.5505 15.4948C16.5631 15.4763 16.5843 15.4623 16.613 15.4593C16.8657 15.432 17.1238 15.4364 17.3778 15.4289C17.5995 15.4224 17.8272 15.4002 18.0488 15.4176L18.0665 15.4192C18.3373 15.4454 18.6231 15.5836 18.5904 15.9015C18.5603 16.1958 18.279 16.4563 18.0543 16.6199C18.0089 16.6527 17.9624 16.6834 17.9146 16.7114C17.8996 16.7305 17.8777 16.7438 17.8525 16.7466C17.6312 16.8661 17.3871 16.9368 17.1344 16.9603C16.5986 17.0102 15.9758 16.9562 15.4612 16.724C15.2939 16.6486 15.1379 16.5543 14.9999 16.4386C14.7872 16.26 14.5642 15.9892 14.5666 15.6956ZM16.7068 16.2769C16.492 16.2704 16.2776 16.3004 16.0731 16.3667C15.9344 16.4114 15.8081 16.4974 15.6753 16.5572C16.1229 16.7279 16.643 16.7652 17.1022 16.7341C17.3037 16.7204 17.499 16.674 17.681 16.5941C17.6527 16.5736 17.624 16.5528 17.5939 16.5346C17.5031 16.4797 17.4082 16.4329 17.3091 16.3957C17.1162 16.3233 16.9127 16.2834 16.7068 16.2769ZM16.7495 13.5135C16.6916 13.4719 16.7375 13.3341 16.8614 13.3554C17.986 13.5486 17.4033 15.4858 15.9674 14.4228C15.7965 14.2849 16.0035 13.9811 16.1877 14.0992L16.2532 14.1496C16.4659 14.3127 16.8177 14.5591 17.0697 14.2947C17.3077 13.9614 16.9707 13.6479 16.7495 13.5135ZM17.5108 12.0473C17.7499 11.8434 18.0497 11.9937 18.2257 12.2003L18.2568 12.2372C18.292 12.2794 18.331 12.3284 18.3544 12.3809C18.5494 12.2149 18.8139 12.098 19.067 12.1739C19.3124 12.2477 19.4524 12.482 19.4102 12.7336C19.3624 13.0196 19.146 13.2119 18.9134 13.3606L18.8474 13.4025C18.568 13.5806 18.3064 13.7601 18.0764 14.005C18.0389 14.0448 17.9578 14.0396 17.9332 13.9866L17.9134 13.9439L17.8934 13.9013C17.7302 13.5534 17.5554 13.2078 17.4118 12.8516C17.3055 12.5877 17.271 12.2518 17.5108 12.0473ZM14.8221 12.19C14.9973 11.9861 15.294 11.8497 15.528 12.0474C15.7773 12.2579 15.7283 12.6062 15.6173 12.8748C15.4837 13.1987 15.3275 13.5155 15.1775 13.8332L15.1455 13.9013C15.132 13.9297 15.1188 13.9581 15.1057 13.9866C15.0811 14.0396 14.9997 14.0448 14.9624 14.005C14.7396 13.7678 14.4874 13.5922 14.2181 13.4197L14.1368 13.368C13.9004 13.218 13.677 13.0244 13.6283 12.7336C13.5868 12.4826 13.7259 12.2468 13.9716 12.1738C14.2252 12.0986 14.4891 12.2146 14.6845 12.3809C14.7078 12.3271 14.7479 12.2764 14.7857 12.2321L14.8221 12.19ZM15.1062 10.7697C15.1918 10.8807 15.1004 11.0622 14.9755 11.0909C14.8208 11.1265 14.6645 11.1049 14.5126 11.149C14.3734 11.1894 14.2401 11.2705 14.1208 11.3513C13.9848 11.4434 13.8595 11.5462 13.7443 11.6633C13.6759 11.733 13.5896 11.898 13.484 11.9011C13.379 11.9042 13.5199 11.5758 13.5316 11.5474C13.6144 11.3452 13.7307 11.1591 13.8761 10.9961C14.1632 10.6744 14.7711 10.3349 15.1062 10.7697ZM18.3119 10.6808L18.3836 10.7007C18.5609 10.75 18.7502 10.8105 18.9023 10.9168L18.9142 10.9253L18.9327 10.9387C19.1236 11.0811 19.3938 11.3652 19.2585 11.6131C19.2492 11.6301 19.2294 11.6318 19.2134 11.6249C19.0335 11.5461 18.9001 11.3887 18.7087 11.3228L18.6734 11.3108C18.488 11.2484 18.2587 11.1827 18.0591 11.1887C17.9188 11.2343 17.7294 11.1965 17.6929 11.0257L17.6912 11.0174L17.688 10.9997C17.667 10.883 17.6983 10.7342 17.8189 10.678C17.9842 10.601 18.1455 10.6352 18.3119 10.6808Z" fill="black"/>
</g>
</svg>
