<svg width="48" height="48" viewBox="0 0 48 48" fill="none" xmlns="http://www.w3.org/2000/svg">
<mask id="mask0_3272_92621" style="mask-type:alpha" maskUnits="userSpaceOnUse" x="0" y="0" width="48" height="48">
<circle cx="24" cy="24" r="24" fill="#FFF04F"/>
</mask>
<g mask="url(#mask0_3272_92621)">
<circle cx="23.0605" cy="26.6433" r="36.2458" fill="#A3F1C5"/>
<path fill-rule="evenodd" clip-rule="evenodd" d="M13.931 35.3321C16.5891 34.7458 18.1657 34.7458 19.0578 33.8375C19.9498 32.9293 20.1117 31.3703 20.4818 30.1665C20.6857 29.5033 22.6834 28.9008 24.6213 28.9951C26.2005 29.072 27.792 29.7398 27.915 30.1665C28.1887 31.117 28.629 35.1857 30.0769 35.8108C31.5248 36.4359 34.6158 35.866 35.4996 37.3587C36.3833 38.8515 39.2857 44.9367 39.2857 46.3546C39.2857 47.7725 10.9106 47.339 10.9106 47.339C10.9106 47.339 11.2729 35.9183 13.931 35.3321Z" fill="white"/>
<path fill-rule="evenodd" clip-rule="evenodd" d="M1.70281 68.3607C1.71136 68.3901 1.74339 68.3896 1.70281 68.3607V68.3607ZM1.54531 68.2431C1.54798 68.2452 1.55118 68.2474 1.55438 68.2495C1.52235 68.2468 1.50259 68.2142 1.54531 68.2431ZM43.5382 64.4838C43.3599 63.7209 43.1821 62.9574 43.0037 62.1944C42.6316 60.5989 42.2589 59.003 41.8868 57.407C41.158 54.2856 40.4297 51.1642 39.7009 48.0428C39.3309 46.4564 38.908 44.8824 38.5263 43.2987C38.192 41.9107 37.916 40.4895 37.342 39.1758C36.7563 37.8349 35.7275 36.7142 34.3649 36.1459C33.2175 35.6679 31.927 35.4032 30.6776 35.3428C30.8346 35.1503 30.8714 34.8653 30.6424 34.6328C30.3583 34.3446 30.3007 33.9163 30.2249 33.5351C30.1304 33.0587 29.9835 32.5481 29.7006 32.1471C29.581 31.9776 29.4069 31.8985 29.2019 31.9439C29.0759 31.9717 28.9519 32.0043 28.8297 32.0412C28.7902 32.0017 28.7512 31.9594 28.7171 31.9081C28.6397 31.7894 28.5895 31.6156 28.4784 31.5247C28.4031 31.4627 28.3176 31.4477 28.2296 31.4927C27.993 31.613 27.9733 31.9771 28.024 32.2006C28.0342 32.2439 28.0464 32.2872 28.0614 32.3294C28.0454 32.3369 28.0289 32.3444 28.0123 32.3519H28.0118C27.7032 32.2931 27.3091 32.4171 27.008 32.447C26.6582 32.4818 26.307 32.5048 25.9556 32.516C25.2364 32.539 24.5162 32.5176 23.8002 32.4454C23.1024 32.3759 22.4093 32.2642 21.72 32.138C21.2908 32.0594 20.7675 31.9942 20.3906 31.7359C20.3847 31.6071 20.3815 31.4777 20.3788 31.3488C20.3734 31.1248 20.3852 30.9489 20.2662 30.7521C20.2645 30.75 20.2619 30.7495 20.2592 30.7505C20.1119 30.8275 20.0062 30.9591 19.9287 31.1152C19.7872 31.0772 19.635 31.0826 19.5032 31.1376C19.3168 31.2152 19.178 31.3045 19.0334 31.4477C18.8182 31.66 18.7552 31.9081 18.6922 32.1931C18.6468 32.3973 18.6185 32.5433 18.5373 32.6802C18.5197 32.7096 18.501 32.7406 18.4807 32.7689C18.4733 32.7764 18.4594 32.7908 18.4358 32.8154C18.4124 32.839 18.3889 32.8619 18.3649 32.8849C18.351 32.8988 18.2827 32.9544 18.2933 32.947C17.9975 33.1672 17.7301 33.2501 17.3648 33.3554C16.5789 33.5821 15.7738 33.7302 14.9905 33.9708C14.1346 34.2339 13.2974 34.5536 12.4789 34.9167C9.29517 36.3287 6.44563 38.5642 4.5027 41.4755C2.23994 44.8663 1.40702 48.9849 0.994301 52.9778C0.542604 57.354 0.574106 61.78 0.47533 66.1745C0.46305 66.7241 0.45077 67.2737 0.43849 67.8234C0.42621 68.3607 0.393107 68.9392 0.869364 69.3012C1.29383 69.6231 1.81067 69.522 2.28052 69.3771C2.78347 69.2226 3.2955 69.0996 3.81394 69.0114C4.79208 68.8462 5.80119 68.8264 6.78788 68.9227C7.31806 68.9745 7.96677 69.1713 8.40245 68.7553C8.55889 68.6056 8.64913 68.4158 8.72281 68.2164C8.81464 67.9704 8.92196 67.7293 9.02874 67.4876C9.11684 67.2887 9.2044 67.0887 9.29197 66.8893C9.43399 67.5122 9.57601 68.1351 9.71803 68.7585C9.7741 69.0039 10.0298 69.0226 10.1841 68.9034C10.4362 69.0387 10.7672 69.036 11.0534 69.0692C11.5136 69.1221 11.9775 69.1403 12.44 69.1563C13.346 69.1873 14.2521 69.2044 15.1587 69.2162C17.0071 69.2397 18.8556 69.2312 20.7035 69.2231C24.3645 69.2071 28.0251 69.1323 31.6846 69.0371C32.7151 69.0104 33.7455 68.9863 34.776 68.9612C35.2907 68.9489 35.8059 68.9366 36.3212 68.9221C36.4755 68.9179 36.6313 68.9034 36.7777 68.8692H36.7782C36.8433 68.9264 36.9234 68.9703 37.019 68.9964C37.3612 69.0906 37.7013 68.881 37.8038 68.55C37.8514 68.3982 37.8845 68.2591 37.8727 68.1116C37.8904 68.0004 37.908 67.8891 37.9256 67.7779C38.4969 68.1399 39.1825 68.2383 39.8589 68.1934C40.624 68.1426 41.3892 68.0025 42.1484 67.8982C42.8612 67.8004 44.0166 67.8319 44.0507 66.846C44.063 66.4851 43.9108 66.0804 43.8297 65.7328C43.7325 65.3163 43.6354 64.9004 43.5382 64.4838Z" fill="black"/>
<path fill-rule="evenodd" clip-rule="evenodd" d="M16.1329 10.5398C16.4099 10.2421 16.7642 10.0203 17.1515 9.94943C16.7975 10.1265 16.4514 10.3111 16.1329 10.5398ZM15.5903 13.1065C15.5413 12.8796 15.5084 12.6506 15.4981 12.4216C15.56 12.5158 15.6588 12.5788 15.7699 12.6113C15.6982 12.7722 15.6372 12.9379 15.5903 13.1065ZM34.1264 16.6633C33.8066 15.3305 32.3149 12.7668 31.9623 12.2733C31.5794 11.0515 33.6676 10.0717 32.5319 9.1163C32.0177 8.68521 31.3382 8.53265 30.7008 8.37977C26.2871 7.31829 21.545 7.85363 17.4515 9.80559C16.8288 9.67438 16.1801 9.93081 15.7273 10.3812C13.6001 12.5224 16.4991 16.3856 17.133 18.7995C18.2207 21.491 15.9802 21.9438 16.2205 24.2211C16.4072 25.3976 17.5971 25.7085 18.6013 25.8863C18.7622 25.924 18.9773 25.9297 19.0293 26.1001C19.192 27.0945 19.7497 28.0422 20.4986 28.6854C20.4331 28.8797 20.4831 29.1155 20.714 29.2862C22.8061 30.8431 25.4441 31.6223 28.0536 31.4823C31.1633 31.3153 32.7714 29.5304 33.1595 29.0708C35.3051 26.1691 35.0487 22.3405 34.6111 18.8823C34.3062 16.4733 34.6928 19.0244 34.1264 16.6633Z" fill="white"/>
<path fill-rule="evenodd" clip-rule="evenodd" d="M24.5378 5.57315C24.6356 5.26718 24.9123 5.08317 25.229 5.12115C25.5094 5.15431 25.8096 5.433 25.7754 5.74058C25.769 5.79996 25.7605 5.85559 25.7503 5.90801L25.7517 5.90848L25.753 5.90854L25.7461 5.92887C25.7252 6.02676 25.6964 6.11449 25.6536 6.1974C25.5992 6.35627 25.5468 6.51567 25.495 6.67561C25.5698 6.6724 25.6462 6.67668 25.7236 6.69112C25.8037 6.48572 25.8844 6.28084 25.9645 6.0749C26.0505 5.85505 26.1109 5.57262 26.2807 5.40251C26.4981 5.18534 26.8752 5.14041 27.1402 5.29553C27.4201 5.45921 27.52 5.75021 27.4591 6.06206C27.4281 6.22114 27.322 6.33184 27.1907 6.40139L27.1765 6.40869L27.0756 6.64833C27.1065 6.63496 27.1386 6.62265 27.1733 6.61249C27.2278 6.59644 27.2812 6.58628 27.3335 6.582C27.4778 6.32043 27.6364 6.06634 27.8004 5.81707C27.9889 5.53036 28.3575 5.4084 28.6668 5.58973C28.9435 5.75181 29.092 6.17761 28.8938 6.45737C28.7432 6.66973 28.6006 6.88637 28.4601 7.10515C28.4841 7.10943 28.5081 7.11478 28.5311 7.12173C28.5418 7.10729 28.553 7.09284 28.5648 7.0784C28.7181 6.88797 28.8965 6.74515 29.0797 6.58682C29.2511 6.43811 29.3302 6.20435 29.5556 6.09148C29.8392 5.94973 30.1811 6.01767 30.3499 6.3001C30.712 6.90509 30.1042 7.34693 29.7153 7.71335C30.0534 7.50205 30.4054 7.30895 30.7665 7.14206C30.9695 7.04845 31.1757 6.95805 31.3851 6.87995C31.6954 6.76441 31.9465 6.80137 32.2013 7.01635C32.315 7.11264 32.3716 7.32291 32.3193 7.46301C32.2178 7.73153 32.0576 7.89468 31.7766 7.97224C31.579 8.02681 31.3765 8.06371 31.1789 8.12095C30.8477 8.21617 30.5262 8.33224 30.2142 8.4772C30.2367 8.49111 30.258 8.50609 30.2778 8.52321C30.5107 8.44778 30.7478 8.38252 30.9861 8.32689C31.3812 8.23412 31.7833 8.17143 32.1872 8.13223L32.3214 8.11972C32.8056 8.07318 33.3879 7.9873 33.6851 8.45153C33.7829 8.60451 33.7936 8.85699 33.6851 9.00837C33.4779 9.29937 33.2717 9.35714 32.9288 9.36249C33.2663 9.39833 33.6034 9.44273 33.9388 9.49461C34.17 9.52992 34.4013 9.56994 34.6315 9.61434L34.7465 9.6369C35.0269 9.69307 35.3399 9.7257 35.5808 9.88831C36.1064 10.2435 35.8596 10.9351 35.2774 11.009C34.9959 11.0443 34.6834 10.925 34.4073 10.8693C34.1391 10.8153 33.8699 10.7677 33.5997 10.726C33.4597 10.7041 33.3198 10.6848 33.1793 10.6671C33.465 10.7083 33.7487 10.7666 34.0248 10.849L34.1015 10.8722C34.6354 11.0351 35.3561 11.2947 35.5226 11.8659C35.6235 12.213 35.3474 12.5158 35.013 12.5361C34.7021 12.5549 34.4431 12.3692 34.1792 12.2323C33.9869 12.1328 33.7914 12.0585 33.5842 11.9948C33.37 11.929 33.1515 11.8744 32.9314 11.83C33.1174 11.9327 33.2985 12.0454 33.4724 12.1716L33.5523 12.2307C34.0144 12.5755 34.7191 13.1094 34.5563 13.7557C34.505 13.9595 34.278 14.1543 34.0601 14.1334C33.4928 14.0804 33.1798 13.4754 32.752 13.1513C32.6403 13.0668 32.518 12.9833 32.3898 12.902C33.0383 13.6766 33.5543 14.572 33.9469 15.4969C34.8097 17.5316 35.0744 19.4159 35.0807 21.6037L35.0809 21.6714C35.0819 22.8782 35.0547 24.1069 34.9372 25.3083C34.8282 26.4182 34.6284 27.5138 34.1258 28.5189C33.2834 30.2044 31.642 31.5171 29.8318 32.0167C27.8175 32.573 25.566 32.1381 23.9161 30.8543C23.4952 30.5269 24.0533 29.8161 24.4833 30.1183C26.2006 31.3245 28.4216 31.7064 30.3926 30.8901C31.9561 30.2429 33.2151 28.8505 33.7487 27.2474C34.0883 26.2275 34.1872 25.14 34.3084 24.0771L34.3165 24.0063C34.4447 22.8948 34.5189 21.7757 34.5179 20.6567C34.5163 18.5785 34.2182 16.8679 33.3053 14.9828C32.8759 14.0949 32.3188 13.2738 31.6532 12.5533C31.4513 12.5944 31.2366 12.5367 31.0325 12.5147C30.9284 12.5035 30.8242 12.4928 30.7201 12.4832C30.8265 12.5521 30.9308 12.6237 31.0334 12.697L31.1679 12.7942C31.5889 13.0961 32.123 13.44 32.0148 14.0237C31.9855 14.1815 31.8284 14.3265 31.6762 14.3623C31.1244 14.4939 30.7452 13.9569 30.3723 13.6381C30.0481 13.361 29.7089 13.1128 29.3633 12.864C29.2848 12.8079 29.2057 12.7517 29.1262 12.6961C29.2009 12.7834 29.2737 12.872 29.3446 12.9615L29.4495 13.0947C29.7669 13.4924 30.2245 14.0094 29.9418 14.525C29.8617 14.6704 29.6908 14.7673 29.5252 14.7641C28.9558 14.7523 28.7293 14.105 28.4622 13.6964C28.2325 13.346 27.9831 13.016 27.7251 12.6859C27.654 12.5955 27.5825 12.5051 27.5098 12.4147C26.3139 12.4768 25.1222 12.6351 23.9513 12.8881C23.1469 13.062 22.3558 13.2872 21.5706 13.5338L21.5054 13.5545C21.0804 13.6916 20.6426 13.8669 20.3362 14.1676C20.2925 14.3748 20.326 14.5933 20.3679 14.8002L20.4005 14.9586C20.5348 15.6209 20.6264 16.2709 20.5579 16.9508C20.4868 17.6521 20.2758 18.2827 20.0184 18.9343C19.8966 19.2413 19.7705 19.1857 19.7273 19.5152C19.6941 19.7662 19.7146 20.0253 19.7373 20.2783L19.7562 20.4929C19.8037 21.0549 19.8275 21.6677 19.4597 22.1314C19.4025 22.2026 19.2802 22.1742 19.2396 22.1031C19.2236 22.0747 19.2065 22.0475 19.1878 22.0212C19.0104 21.764 18.7386 21.6174 18.4277 21.5607C18.3881 21.5537 18.4036 21.5008 18.4368 21.4965C18.6996 21.4655 18.9485 21.5313 19.16 21.6671C19.0597 21.3198 18.2831 21.4887 18.0278 21.5562L18.0191 21.5585C17.7007 21.6441 17.3994 21.7832 17.134 21.9801C16.5998 22.3759 16.2911 22.9932 16.3066 23.6581C16.3221 24.3118 16.6591 24.9157 17.2381 25.2286C17.5175 25.3794 17.8353 25.4522 18.1515 25.449C18.4816 25.4458 18.7754 25.3008 19.106 25.3211C19.2973 25.3329 19.4436 25.5383 19.3331 25.7175C19.2593 25.8373 19.1632 25.9315 19.0521 26.0037C19.3229 26.629 19.6685 27.2254 20.067 27.7759C20.2876 28.0813 20.5376 28.3632 20.8127 28.6205C21.0274 28.8216 21.4926 29.0543 21.4665 29.3897C21.4574 29.5106 21.3949 29.5844 21.2848 29.6293C20.9427 29.7694 20.5268 29.2871 20.298 29.0546L20.2796 29.0361C19.9943 28.7515 19.7342 28.437 19.5077 28.1032C19.106 27.5105 18.8566 26.8424 18.7535 26.1406C18.2049 26.3059 17.4785 26.1508 17.0309 25.9481C15.6239 25.3115 15.164 23.4142 16.0192 22.1507C16.1848 21.9062 16.392 21.6971 16.6281 21.5281C16.5763 21.4997 16.5277 21.4633 16.4844 21.4173C16.2451 21.1627 16.0759 20.8305 15.9079 20.5243L15.8878 20.4876C15.7387 20.218 15.5981 19.9442 15.4662 19.6662L15.4172 19.5617C15.1229 18.9278 14.8649 18.6507 14.655 17.9842C14.4531 17.3413 14.2939 16.686 14.1908 16.0195L14.1634 15.8431C14.1038 15.4563 14.0474 15.0428 14.0909 14.6501C13.7913 14.748 13.49 14.8085 13.1935 14.6614C12.998 14.5645 12.8901 14.2821 12.9569 14.0794C13.0055 13.9301 13.0867 13.813 13.1898 13.721C13.1284 13.6899 13.0707 13.6504 13.0199 13.6065L12.9756 13.568C12.7961 13.4118 12.7833 13.1149 12.8923 12.9191C12.903 12.9004 12.9137 12.8812 12.9238 12.8624C13.0274 12.6768 13.2416 12.5554 13.4531 12.5586C13.4873 12.5591 13.5215 12.5591 13.5562 12.5586C13.4574 12.5367 13.3607 12.503 13.2689 12.4463C12.8544 12.1911 12.9067 11.4995 13.4083 11.3775C13.6187 11.3267 13.8511 11.3476 14.0829 11.4021C14.0744 11.3973 14.0658 11.3925 14.0573 11.3871C13.8821 11.2796 13.7352 11.0694 13.7517 10.8538C13.7699 10.6153 13.8468 10.4452 14.0573 10.32C14.2399 10.2119 14.4985 10.2018 14.6801 10.32C14.8377 10.4232 14.992 10.5372 15.1405 10.6597C14.9915 10.4762 14.8622 10.2767 14.8099 10.0648C14.7453 9.80112 14.8531 9.51387 15.0903 9.37479C15.2794 9.26406 15.4792 9.27637 15.6576 9.36195C15.648 9.22341 15.6816 9.08219 15.7735 8.95702C15.9615 8.70032 16.3034 8.55263 16.6009 8.73985C16.6399 8.76445 16.6922 8.80671 16.743 8.8586C16.6442 8.54353 16.7334 8.21296 17.0704 8.07067C17.2761 7.98348 17.5543 8.02734 17.7327 8.17765C17.6195 7.5641 18.5238 7.11317 18.8753 7.74705C18.9551 7.89064 19.034 8.04184 19.1046 8.19652L19.1306 8.25468L19.1333 8.25361L19.1153 8.21108L19.097 8.16856C18.9992 7.94122 18.8748 7.70479 18.8406 7.45819C18.7904 7.09338 18.9527 6.74729 19.3491 6.6938C19.5537 6.66598 19.7812 6.75906 19.9185 6.92173C19.8442 6.35573 20.4756 5.94438 20.9302 6.36697C21.1454 6.56702 21.2603 6.85962 21.397 7.11638C21.4745 7.26134 21.5535 7.40577 21.631 7.55127C21.6507 7.52773 21.6721 7.50419 21.6945 7.48119C21.5797 7.13671 21.4905 6.78366 21.4152 6.42848C21.3436 6.09362 21.5108 5.74593 21.8558 5.6513C22.1694 5.56459 22.562 5.75829 22.632 6.09261C22.6811 6.32792 22.7393 6.56066 22.8034 6.79222C22.8472 6.78152 22.8905 6.77404 22.9332 6.76869C22.9368 6.72518 22.9408 6.68144 22.9453 6.63793L22.9621 6.48319C22.9995 6.12965 23.0372 5.72605 23.2217 5.42552C23.5363 4.912 24.3428 5.12489 24.3514 5.73202C24.3562 6.04602 24.2285 6.35734 24.1842 6.66812C24.165 6.80346 24.1538 6.94039 24.1473 7.07733C24.2333 6.62265 24.3514 6.17386 24.4881 5.73202C24.5042 5.67906 24.5213 5.62611 24.5378 5.57315ZM17.5789 23.1066C18.2867 22.9969 18.9335 23.3922 19.3528 23.9459C19.4292 24.047 19.379 24.1898 19.3101 24.2749C19.2604 24.3374 19.1936 24.3449 19.1183 24.3546C19.0318 24.3658 18.9223 24.2957 18.8844 24.2203C18.6146 23.6811 18.1334 23.3404 17.5789 23.1307C17.5688 23.1269 17.5656 23.1087 17.5789 23.1066ZM18.56 13.4458L18.5815 13.4228C18.7247 13.274 18.4983 13.0468 18.3548 13.1958C18.2037 13.3528 18.1033 13.5434 18.0067 13.7366C17.9147 13.9209 18.191 14.0836 18.2835 13.8987L18.3255 13.8146C18.3916 13.6839 18.462 13.5548 18.56 13.4458ZM16.5724 13.1405C16.7754 13.1063 16.6893 12.7969 16.4872 12.831C16.2254 12.8752 15.9646 12.9254 15.7027 12.9697C15.4997 13.0039 15.5858 13.3133 15.7879 13.2792C16.0498 13.235 16.3106 13.1847 16.5724 13.1405ZM28.6638 11.0286C28.4678 10.9631 28.3836 11.2729 28.5787 11.3381C28.8481 11.4281 29.1154 11.5204 29.3711 11.6454C29.5557 11.7357 29.7184 11.459 29.5328 11.3683C29.2522 11.2311 28.9597 11.1274 28.6638 11.0286ZM16.5263 10.6126C16.3348 10.5359 16.2516 10.8462 16.4411 10.9221L17.1333 11.1994C17.3248 11.2761 17.408 10.9658 17.2185 10.8899L16.5263 10.6126ZM31.0811 9.85907L31.0558 9.84311C30.8822 9.73046 30.7214 10.0082 30.894 10.1202C30.9954 10.186 31.1186 10.2306 31.2114 10.3089L31.2308 10.3262C31.3807 10.468 31.6078 10.2415 31.4574 10.0993C31.3475 9.99532 31.2083 9.93744 31.0811 9.85907Z" fill="black"/>
<path fill-rule="evenodd" clip-rule="evenodd" d="M29.2006 27.9149C28.8411 27.7682 28.5203 27.5237 28.2858 27.2112C28.2043 27.1026 28.1831 26.9879 28.2002 26.883C28.2195 26.765 28.2893 26.6581 28.3845 26.5864C28.4799 26.5145 28.5994 26.479 28.7149 26.4971C28.8152 26.5128 28.9151 26.5677 28.9941 26.6817L29.0107 26.7044C29.1501 26.893 29.3317 27.0477 29.5387 27.1475C29.7383 27.2436 29.9614 27.2885 30.1923 27.2624C30.6321 27.2127 30.9352 26.9749 31.2574 26.652C31.2973 26.6112 31.3373 26.5692 31.3775 26.5264C31.4028 26.4877 31.438 26.4628 31.4771 26.4497C31.5205 26.4352 31.5695 26.4361 31.6145 26.4518C31.6579 26.4669 31.6966 26.4955 31.7226 26.5337C31.7473 26.57 31.7613 26.6147 31.7568 26.6663C31.7273 27.0009 31.5523 27.2996 31.3037 27.5341C31.0276 27.7946 30.6617 27.9748 30.3171 28.038C29.9376 28.1076 29.5508 28.0577 29.2006 27.9149ZM30.4962 22.7521C30.9 22.9975 31.5153 23.5698 31.0809 24.1782C30.5695 24.7147 29.8333 24.0996 29.4705 23.8214C29.1341 23.6058 28.7561 24.1603 29.0682 24.412C31.6899 26.3526 32.7538 22.8163 30.7004 22.4635C30.4744 22.4247 30.3904 22.6762 30.4962 22.7521ZM25.7982 20.4947C25.8428 19.9409 26.6863 19.8152 26.7702 20.3631C26.8453 20.854 26.7568 21.3048 26.5357 21.7468C26.3244 22.1689 25.7934 21.972 25.7532 21.5875C25.6994 21.0722 25.7704 20.8391 25.7982 20.4947ZM32.2188 20.2495C32.3364 20.0955 32.5062 19.9904 32.7097 20.0498C33.3452 20.2355 33.1579 21.1377 32.9347 21.5768C32.8134 21.8153 32.4214 21.8757 32.2442 21.6658C31.9554 21.3234 31.8171 20.6396 32.1842 20.3023C32.1942 20.2849 32.2053 20.2673 32.2188 20.2495ZM26.5268 18.0717L26.6272 18.0542C26.9377 18.0005 27.3239 17.9489 27.5436 18.1985C27.6602 18.3309 27.7003 18.5769 27.5436 18.7037C27.2681 18.9266 26.9635 18.8402 26.6333 18.8591C26.3612 18.8747 26.0997 18.9197 25.8377 18.9946C25.2627 19.1589 24.7942 19.4589 24.3031 19.7883C24.2386 19.8315 24.1729 19.7491 24.2036 19.6888C24.4871 19.1337 25.0365 18.6776 25.5867 18.3997C25.8804 18.2513 26.2018 18.1282 26.5268 18.0717ZM31.6395 17.8231L31.7163 17.8388C32.5525 18.0135 33.639 18.3626 34.035 19.1839C34.0501 19.3 34.0342 19.3249 34.0212 19.3411L34.0169 19.3466C34.0062 19.3604 33.9977 19.3796 33.9473 19.3954C33.9334 19.3921 33.9192 19.3885 33.905 19.3848C33.7235 19.3372 33.5798 19.2717 33.4408 19.2037L33.2901 19.1295C33.1152 19.0437 32.9387 18.9611 32.7517 18.9001C32.3527 18.77 31.9422 18.6783 31.5254 18.6294C31.435 18.6188 31.348 18.5883 31.2794 18.536C31.2143 18.4864 31.1645 18.4178 31.1418 18.3265C31.1124 18.2084 31.1209 18.119 31.1842 18.0124C31.2319 17.9324 31.3001 17.8769 31.3784 17.8451C31.4582 17.8126 31.5491 17.805 31.6395 17.8231Z" fill="black"/>
<path fill-rule="evenodd" clip-rule="evenodd" d="M34.1009 23.2575C33.2992 23.6443 32.1807 23.0738 31.6416 22.4763C31.4454 22.2587 31.294 21.6362 31.3695 21.2414C31.5739 20.1722 32.3421 19.5304 33.1531 19.3113C34.2773 19.0075 35.4086 19.7772 35.2767 20.6855C35.1516 21.5463 34.9622 22.795 34.1009 23.2575ZM28.644 21.2036C28.5797 22.3689 27.6456 23.3887 26.5291 23.6909C24.7302 24.1937 23.8412 22.927 23.4385 21.5624C23.3985 21.4268 23.3045 21.013 23.5569 20.658C24.5496 19.2616 26.9648 19.4996 28.1712 19.883C28.5243 20.2212 28.6686 20.7094 28.644 21.2036ZM34.972 19.1939C34.9714 19.1946 34.9708 19.1952 34.9703 19.1959C34.9662 19.1934 34.9621 19.1908 34.9579 19.1883C34.9625 19.1903 34.9674 19.1919 34.972 19.1939ZM36.477 19.3286C36.3725 18.1422 32.6565 18.5965 32.222 18.6937C31.0363 19.0431 30.0122 19.9934 28.6865 19.5757C27.3129 18.0419 22.6873 18.4817 21.7177 19.263C21.5341 19.1909 21.3109 19.2296 21.0744 19.2977C19.86 19.2537 14.3158 19.6731 15.4498 21.2257C15.622 21.3453 15.7939 21.2237 15.7987 20.9773C21.7103 18.8397 21.1373 20.8419 21.8383 20.6081C21.9454 20.6389 22.0571 20.6585 22.1548 20.679C22.6974 20.8539 22.8817 20.7998 22.9532 21.41C23.4443 26.1218 29.708 24.4956 29.1943 20.6308C29.7029 20.6027 30.1479 20.3824 30.6858 20.5975C31.0592 24.2383 33.984 24.3852 34.8642 23.1232C35.528 22.2472 35.2648 20.9252 36.1771 20.2361C36.5373 20.538 36.5605 19.519 36.477 19.3286Z" fill="black"/>
</g>
</svg>
