<svg xmlns="http://www.w3.org/2000/svg" width="19" height="18" viewBox="0 0 19 18" fill="none">
<path d="M12.5 16.74C12.245 16.74 11.99 16.665 11.7725 16.5225L8.57749 14.3925H5.75C3.17 14.3925 1.4375 12.66 1.4375 10.08V5.57996C1.4375 2.99996 3.17 1.26746 5.75 1.26746H13.25C15.83 1.26746 17.5625 2.99996 17.5625 5.57996V10.08C17.5625 12.465 16.0775 14.13 13.8125 14.3625V15.4275C13.8125 15.915 13.55 16.3574 13.1225 16.5824C12.9275 16.6874 12.71 16.74 12.5 16.74ZM5.75 2.38495C3.815 2.38495 2.5625 3.63745 2.5625 5.57245V10.0724C2.5625 12.0074 3.815 13.2599 5.75 13.2599H8.75C8.8625 13.2599 8.96751 13.29 9.06501 13.3575L12.4025 15.5775C12.485 15.63 12.56 15.6075 12.5975 15.585C12.635 15.5625 12.695 15.5175 12.695 15.42V13.8224C12.695 13.5149 12.95 13.2599 13.2575 13.2599C15.1925 13.2599 16.445 12.0074 16.445 10.0724V5.57245C16.445 3.63745 15.1925 2.38495 13.2575 2.38495H5.75Z" fill="#5E6167"/>
</svg>