<svg xmlns="http://www.w3.org/2000/svg" width="19" height="18" viewBox="0 0 19 18" fill="none">
<path d="M9.5 16.2375C9.2675 16.2375 9.0425 16.2075 8.855 16.14C5.99 15.1575 1.4375 11.67 1.4375 6.5175C1.4375 3.8925 3.56 1.7625 6.17 1.7625C7.4375 1.7625 8.6225 2.2575 9.5 3.1425C10.3775 2.2575 11.5625 1.7625 12.83 1.7625C15.44 1.7625 17.5625 3.9 17.5625 6.5175C17.5625 11.6775 13.01 15.1575 10.145 16.14C9.9575 16.2075 9.7325 16.2375 9.5 16.2375ZM6.17 2.8875C4.1825 2.8875 2.5625 4.515 2.5625 6.5175C2.5625 11.64 7.49 14.49 9.2225 15.0825C9.3575 15.1275 9.65 15.1275 9.785 15.0825C11.51 14.49 16.445 11.6475 16.445 6.5175C16.445 4.515 14.825 2.8875 12.8375 2.8875C11.6975 2.8875 10.64 3.42 9.9575 4.3425C9.7475 4.6275 9.2675 4.6275 9.0575 4.3425C8.36 3.4125 7.31 2.8875 6.17 2.8875Z" fill="#86898F"/>
</svg>