<svg width="147" height="92" viewBox="0 0 147 92" fill="none" xmlns="http://www.w3.org/2000/svg">
<g filter="url(#filter0_d_2265_81397)">
<rect x="16.9453" y="1" width="131.744" height="53.881" rx="8" transform="rotate(15 16.9453 1)" fill="white"/>
<rect x="17.2989" y="1.61237" width="130.744" height="52.881" rx="7.5" transform="rotate(15 17.2989 1.61237)" stroke="#3F3F3F"/>
</g>
<path d="M80.6094 43.3818L80.8423 42.5125C80.451 42.3846 80.1166 42.1944 79.8392 41.9418C79.5632 41.6838 79.3596 41.4135 79.2282 41.131L79.7915 40.0914C79.8612 40.4321 80.014 40.7635 80.2498 41.0855C80.4856 41.4075 80.8128 41.6246 81.2314 41.7368C81.6124 41.8388 81.9586 41.8022 82.2702 41.6269C82.5871 41.453 82.793 41.1889 82.8879 40.8348C82.9569 40.5772 82.952 40.3487 82.8732 40.1493C82.7943 39.9498 82.69 39.781 82.5603 39.6427C82.4306 39.5044 82.3258 39.4016 82.2461 39.3342L81.4814 38.6462C81.3621 38.5337 81.2157 38.3823 81.0424 38.1921C80.8744 38.0033 80.7442 37.77 80.6519 37.4921C80.5595 37.2143 80.5637 36.8876 80.6643 36.512C80.7966 36.0183 81.061 35.6434 81.4574 35.3872C81.8539 35.1311 82.311 35.0351 82.8288 35.099L83.0035 34.447L83.6796 34.6282L83.5049 35.2802C83.8007 35.3997 84.0501 35.5528 84.2532 35.7395C84.4577 35.9208 84.6131 36.0919 84.7196 36.2527L84.1563 37.2923C84.0826 37.031 83.9408 36.7659 83.7311 36.4968C83.5213 36.2278 83.2501 36.0488 82.9174 35.9596C82.5954 35.8733 82.3119 35.9009 82.067 36.0423C81.8235 36.1784 81.6643 36.3859 81.5896 36.665C81.5321 36.8796 81.5329 37.0697 81.5921 37.2351C81.6567 37.4019 81.7399 37.5421 81.8418 37.6557C81.949 37.7707 82.0371 37.8604 82.1061 37.9249L82.8868 38.6173C82.9798 38.6997 83.0938 38.8108 83.2289 38.9505C83.3694 39.0916 83.4985 39.2643 83.6164 39.4684C83.7357 39.6672 83.8181 39.8963 83.8636 40.1558C83.9105 40.41 83.8908 40.698 83.8046 41.02C83.6622 41.5512 83.3824 41.9623 82.9651 42.2531C82.5493 42.5385 82.0721 42.6666 81.5336 42.6373L81.2855 43.563L80.6094 43.3818ZM85.0582 43.5386L89.1222 39.9947C89.311 39.8267 89.4497 39.6741 89.5382 39.5368C89.6322 39.4009 89.6964 39.2686 89.7309 39.1398C89.8243 38.791 89.78 38.4627 89.5979 38.1551C89.4157 37.8475 89.1476 37.6462 88.7934 37.5513C88.4392 37.4564 88.1064 37.4967 87.7948 37.672C87.4886 37.8488 87.2888 38.1116 87.1953 38.4604C87.0918 38.8467 87.1685 39.2153 87.4254 39.5659L86.3226 39.2704C86.2386 38.8971 86.2397 38.5494 86.326 38.2274C86.431 37.8357 86.6217 37.5101 86.8983 37.2506C87.1749 36.9911 87.4986 36.8133 87.8695 36.7171C88.2457 36.6224 88.6297 36.6275 89.0214 36.7325C89.4132 36.8374 89.7456 37.0243 90.0187 37.293C90.2918 37.5617 90.4832 37.8776 90.593 38.2406C90.7028 38.6036 90.7052 38.981 90.6002 39.3727C90.5384 39.6035 90.4397 39.8215 90.3042 40.0267C90.1701 40.2266 89.9732 40.4355 89.7135 40.6535L86.8075 43.1274L89.5443 43.8607L89.3243 44.6817L85.0582 43.5386ZM92.3552 45.4938L94.6744 43.0526C94.5007 43.1211 94.3304 43.1559 94.1632 43.1572C93.9975 43.153 93.8369 43.1301 93.6813 43.0884C93.2627 42.9763 92.9036 42.7708 92.6041 42.472C92.3114 42.1692 92.1051 41.812 91.9854 41.4003C91.8656 40.9886 91.8662 40.5574 91.9869 40.1066C92.1092 39.6505 92.3285 39.2721 92.6448 38.9715C92.968 38.667 93.3427 38.4597 93.7691 38.3497C94.2022 38.2357 94.6442 38.2391 95.0949 38.3598C95.5511 38.4821 95.9355 38.7001 96.2483 39.014C96.5625 39.3225 96.7807 39.6886 96.9029 40.1125C97.032 40.5324 97.0354 40.9705 96.9132 41.4266C96.8571 41.6359 96.7763 41.8299 96.6709 42.0087C96.5708 42.189 96.4515 42.3554 96.3128 42.5081L93.3533 45.7613L92.3552 45.4938ZM94.0208 42.3684C94.316 42.4475 94.603 42.4497 94.8819 42.3748C95.1622 42.2947 95.4044 42.1525 95.6087 41.9484C95.8183 41.7458 95.9626 41.4969 96.0417 41.2017C96.1208 40.9066 96.1202 40.6188 96.04 40.3385C95.9652 40.0597 95.8257 39.8181 95.6217 39.6139C95.419 39.4043 95.1701 39.26 94.8749 39.1809C94.5798 39.1018 94.2921 39.1024 94.0118 39.1825C93.7329 39.2574 93.4887 39.3961 93.2791 39.5987C93.0749 39.8028 92.9332 40.0525 92.8541 40.3476C92.775 40.6428 92.7729 40.9298 92.8477 41.2086C92.9279 41.4889 93.0693 41.7339 93.272 41.9435C93.4761 42.1477 93.7257 42.2894 94.0208 42.3684ZM99.8373 47.4987L100.359 45.5507L96.8819 44.619L101.014 40.0493L101.98 40.3081L98.4172 44.2021L100.59 44.7844L101.026 43.1585L101.964 42.9438L101.412 45.0044L102.498 45.2956L102.291 46.0684L101.229 45.7837L100.707 47.7316L99.8373 47.4987ZM105.193 49.0372C104.769 48.9236 104.427 48.7197 104.166 48.4256C103.907 48.1261 103.717 47.7705 103.598 47.3588C103.485 46.9432 103.434 46.501 103.444 46.0322C103.462 45.5595 103.531 45.0951 103.654 44.6389C103.776 44.1828 103.947 43.7484 104.167 43.3357C104.393 42.919 104.659 42.5617 104.963 42.2636C105.274 41.9616 105.616 41.7483 105.989 41.6239C106.363 41.4941 106.762 41.4859 107.186 41.5995C107.61 41.7131 107.951 41.9197 108.21 42.2192C108.471 42.5133 108.657 42.8681 108.77 43.2838C108.89 43.6954 108.941 44.1376 108.924 44.6104C108.913 45.0792 108.847 45.5416 108.725 45.9977C108.603 46.4539 108.428 46.8903 108.201 47.3069C107.982 47.7196 107.716 48.077 107.405 48.379C107.101 48.6771 106.762 48.8911 106.388 49.0209C106.015 49.1453 105.617 49.1508 105.193 49.0372ZM105.413 48.2161C105.697 48.2923 105.964 48.2719 106.214 48.1548C106.464 48.0377 106.692 47.8542 106.897 47.6043C107.102 47.3544 107.282 47.0691 107.437 46.7483C107.593 46.4221 107.717 46.0899 107.807 45.7519C107.898 45.4138 107.956 45.0671 107.982 44.7118C108.01 44.3511 107.997 44.0113 107.945 43.6923C107.892 43.3734 107.787 43.1008 107.629 42.8744C107.471 42.6481 107.25 42.4968 106.966 42.4206C106.687 42.3458 106.419 42.3662 106.164 42.4819C105.914 42.599 105.687 42.7825 105.482 43.0324C105.277 43.2823 105.096 43.5703 104.94 43.8965C104.785 44.2173 104.662 44.5468 104.571 44.8848C104.481 45.2229 104.422 45.5723 104.394 45.933C104.368 46.2883 104.381 46.6254 104.434 46.9444C104.486 47.2633 104.591 47.5359 104.749 47.7623C104.913 47.9901 105.134 48.1414 105.413 48.2161ZM109.294 50.1361C109.117 50.0887 108.983 49.9894 108.891 49.8383C108.806 49.6832 108.787 49.5171 108.835 49.34C108.882 49.163 108.981 49.0312 109.13 48.9448C109.287 48.8544 109.454 48.833 109.631 48.8804C109.813 48.9293 109.947 49.0313 110.032 49.1863C110.118 49.336 110.138 49.4994 110.09 49.6765C110.043 49.8536 109.943 49.988 109.792 50.0798C109.643 50.1663 109.477 50.185 109.294 50.1361ZM112.628 50.926L114.948 48.4847C114.774 48.5532 114.603 48.5881 114.436 48.5893C114.271 48.5852 114.11 48.5623 113.954 48.5206C113.536 48.4084 113.177 48.2029 112.877 47.9041C112.585 47.6014 112.378 47.2442 112.259 46.8325C112.139 46.4208 112.139 45.9896 112.26 45.5388C112.382 45.0827 112.602 44.7043 112.918 44.4037C113.241 44.0992 113.616 43.8919 114.042 43.7818C114.475 43.6678 114.917 43.6712 115.368 43.792C115.824 43.9142 116.209 44.1323 116.521 44.4461C116.836 44.7546 117.054 45.1208 117.176 45.5447C117.305 45.9646 117.309 46.4026 117.186 46.8588C117.13 47.0681 117.049 47.2621 116.944 47.4409C116.844 47.6211 116.725 47.7876 116.586 47.9402L113.626 51.1934L112.628 50.926ZM114.294 47.8006C114.589 47.8797 114.876 47.8818 115.155 47.807C115.435 47.7268 115.678 47.5847 115.882 47.3806C116.091 47.1779 116.236 46.929 116.315 46.6339C116.394 46.3387 116.393 46.051 116.313 45.7707C116.238 45.4918 116.099 45.2503 115.895 45.0461C115.692 44.8365 115.443 44.6921 115.148 44.6131C114.853 44.534 114.565 44.5345 114.285 44.6147C114.006 44.6895 113.762 44.8283 113.552 45.0309C113.348 45.235 113.206 45.4846 113.127 45.7798C113.048 46.0749 113.046 46.3619 113.121 46.6408C113.201 46.9211 113.342 47.166 113.545 47.3756C113.749 47.5799 113.999 47.7215 114.294 47.8006ZM118.662 52.5426L120.981 50.1013C120.807 50.1698 120.637 50.2047 120.47 50.2059C120.304 50.2018 120.143 50.1789 119.988 50.1372C119.569 50.025 119.21 49.8195 118.91 49.5207C118.618 49.218 118.412 48.8608 118.292 48.4491C118.172 48.0374 118.173 47.6062 118.293 47.1554C118.416 46.6993 118.635 46.3209 118.951 46.0203C119.274 45.7158 119.649 45.5085 120.075 45.3984C120.509 45.2844 120.951 45.2878 121.401 45.4086C121.857 45.5308 122.242 45.7489 122.555 46.0627C122.869 46.3712 123.087 46.7374 123.209 47.1613C123.338 47.5812 123.342 48.0192 123.22 48.4754C123.163 48.6847 123.083 48.8787 122.977 49.0575C122.877 49.2378 122.758 49.4042 122.619 49.5568L119.66 52.81L118.662 52.5426ZM120.327 49.4172C120.622 49.4963 120.909 49.4984 121.188 49.4236C121.469 49.3434 121.711 49.2013 121.915 48.9972C122.125 48.7945 122.269 48.5456 122.348 48.2505C122.427 47.9553 122.427 47.6676 122.346 47.3873C122.272 47.1084 122.132 46.8669 121.928 46.6627C121.725 46.4531 121.476 46.3087 121.181 46.2297C120.886 46.1506 120.598 46.1511 120.318 46.2313C120.039 46.3061 119.795 46.4449 119.585 46.6475C119.381 46.8516 119.24 47.1012 119.161 47.3964C119.081 47.6915 119.079 47.9785 119.154 48.2574C119.234 48.5377 119.376 48.7827 119.578 48.9922C119.782 49.1965 120.032 49.3381 120.327 49.4172Z" fill="black"/>
<path d="M91.0588 59.3487L91.3963 58.0891L90.2141 57.7723L90.3756 57.1696L91.5578 57.4864L91.8953 56.2268L92.5522 56.4028L92.2147 57.6624L93.3892 57.9771L93.2277 58.5799L92.0532 58.2651L91.7157 59.5247L91.0588 59.3487ZM95.4218 61.7849C95.123 61.7049 94.869 61.5816 94.6596 61.4151C94.4516 61.2434 94.2753 61.036 94.1306 60.7929L94.7252 60.3974C94.9474 60.8047 95.249 61.0595 95.6303 61.1616C95.8415 61.2182 96.0559 61.2011 96.2735 61.1104C96.4924 61.0144 96.6967 60.829 96.8863 60.554C97.0811 60.2805 97.2427 59.9041 97.3711 59.425C97.1727 59.5265 96.9625 59.5999 96.7405 59.6453C96.5186 59.6908 96.2942 59.6831 96.0676 59.6224C95.7945 59.5492 95.5509 59.4177 95.3368 59.2278C95.1292 59.0341 94.9805 58.7955 94.8909 58.512C94.8077 58.2247 94.8145 57.9007 94.9111 57.5401C94.998 57.2156 95.1495 56.9387 95.3656 56.7094C95.5867 56.4816 95.8494 56.3256 96.1535 56.2414C96.4591 56.1521 96.7844 56.1537 97.1296 56.2462C97.3974 56.318 97.6156 56.4206 97.7842 56.5541C97.9527 56.6876 98.0834 56.8386 98.1763 57.007C98.2654 57.169 98.3277 57.3485 98.3632 57.5458C98.4053 57.7392 98.4089 57.9832 98.3742 58.2776C98.3409 58.5668 98.2642 58.9355 98.1441 59.3837C97.9605 60.0688 97.7257 60.605 97.4398 60.9922C97.1552 61.3742 96.8392 61.6264 96.4917 61.7486C96.1494 61.8722 95.7928 61.8843 95.4218 61.7849ZM96.3367 59.0816C96.5324 59.1341 96.7336 59.1355 96.9401 59.0859C97.1518 59.0377 97.3458 58.9627 97.5222 58.8609L97.5843 58.6291C97.7155 58.1397 97.7195 57.7432 97.5966 57.4397C97.4787 57.1376 97.2601 56.9438 96.9407 56.8582C96.6471 56.7795 96.3696 56.8156 96.1084 56.9664C95.8536 57.1135 95.6814 57.3545 95.5916 57.6893C95.5295 57.9212 95.5246 58.1352 95.577 58.3314C95.6307 58.5225 95.7231 58.6825 95.8542 58.8115C95.9904 58.9419 96.1512 59.0319 96.3367 59.0816ZM99.1743 62.7904C99.0352 62.7531 98.928 62.6692 98.8526 62.5386C98.7771 62.4079 98.7581 62.273 98.7953 62.134C98.8381 61.9743 98.9183 61.8605 99.0359 61.7926C99.1535 61.7247 99.2921 61.7122 99.4518 61.7549C99.5857 61.7908 99.6904 61.8741 99.7658 62.0047C99.8464 62.1368 99.8681 62.2723 99.8308 62.4114C99.7894 62.566 99.7066 62.6791 99.5825 62.7507C99.4598 62.8172 99.3237 62.8304 99.1743 62.7904ZM101.864 63.4116C102.022 62.8192 102.202 62.3041 102.402 61.8663C102.609 61.4247 102.836 61.0385 103.085 60.7076C103.339 60.3781 103.621 60.0866 103.932 59.8331C104.243 59.5796 104.585 59.3428 104.959 59.1227L102.355 58.4249L102.525 57.7912L105.956 58.7106L105.807 59.2669C105.359 59.5169 104.972 59.7749 104.647 60.0411C104.323 60.3022 104.04 60.5963 103.798 60.9234C103.557 61.2453 103.344 61.6273 103.159 62.0692C102.976 62.506 102.804 63.0232 102.644 63.6207L101.864 63.4116ZM106.497 64.6531C106.656 64.0607 106.835 63.5456 107.035 63.1078C107.242 62.6663 107.47 62.28 107.719 61.9491C107.972 61.6196 108.255 61.3281 108.566 61.0746C108.877 60.8211 109.219 60.5843 109.593 60.3642L106.988 59.6664L107.158 59.0328L110.589 59.9521L110.44 60.5085C109.992 60.7584 109.606 61.0164 109.28 61.2826C108.956 61.5437 108.673 61.8378 108.431 62.1649C108.19 62.4869 107.977 62.8688 107.793 63.3107C107.609 63.7475 107.438 64.2647 107.278 64.8623L106.497 64.6531ZM111.542 66.3363L111.157 65.9184L116.07 61.0895L116.455 61.5074L111.542 66.3363ZM111.79 63.8352C111.362 63.7206 111.075 63.4836 110.929 63.124C110.787 62.7659 110.788 62.3189 110.932 61.7832C111.075 61.2474 111.299 60.8656 111.603 60.6379C111.914 60.4064 112.28 60.3472 112.703 60.4604C113.13 60.575 113.418 60.8094 113.566 61.1638C113.715 61.513 113.718 61.9555 113.575 62.4913C113.432 63.0219 113.205 63.4081 112.891 63.65C112.585 63.888 112.218 63.9498 111.79 63.8352ZM111.936 63.3195C112.153 63.3775 112.344 63.3348 112.509 63.1914C112.675 63.048 112.816 62.7573 112.933 62.3194C113.035 61.9382 113.053 61.6339 112.987 61.4063C112.923 61.1737 112.78 61.0277 112.558 60.9683C112.352 60.9131 112.164 60.9565 111.993 61.0985C111.829 61.2368 111.689 61.5223 111.573 61.955C111.47 62.3414 111.45 62.6509 111.515 62.8836C111.58 63.1162 111.72 63.2615 111.936 63.3195ZM114.943 66.966C114.516 66.8514 114.228 66.6143 114.082 66.2548C113.94 65.8967 113.941 65.4497 114.085 64.9139C114.229 64.3782 114.452 63.9964 114.756 63.7687C115.067 63.5371 115.433 63.478 115.856 63.5911C116.283 63.7057 116.571 63.9402 116.719 64.2946C116.868 64.6438 116.871 65.0863 116.728 65.6221C116.586 66.1527 116.358 66.5389 116.045 66.7807C115.738 67.0188 115.371 67.0805 114.943 66.966ZM115.09 66.4503C115.306 66.5083 115.497 66.4656 115.662 66.3221C115.828 66.1787 115.969 65.8881 116.086 65.4502C116.189 65.069 116.207 64.7646 116.141 64.5371C116.076 64.3045 115.933 64.1584 115.711 64.0991C115.505 64.0439 115.317 64.0873 115.146 64.2293C114.982 64.3676 114.842 64.6531 114.726 65.0858C114.623 65.4722 114.603 65.7817 114.668 66.0143C114.733 66.247 114.873 66.3923 115.09 66.4503Z" fill="#21BF73"/>
<path d="M73.2552 32.1434L69.2823 35.2506L67.8173 34.8581L67.3953 30.5732L63.5824 37.478L61.8531 33.6772L59.7575 29.7782L52.4423 39.4992L53.1166 32.5878L44.9209 52.9195L45.4764 28.8719L44.2249 33.5427L42.3936 33.052L40.9335 38.5013L38.6803 33.7257L36.33 38.1022L34.4964 34.6906L27.3849 37.7912L21.8476 46.737L17.8626 35.2397" stroke="#21BF73"/>
<defs>
<filter id="filter0_d_2265_81397" x="0.795898" y="0.795898" width="145.609" height="90.5508" filterUnits="userSpaceOnUse" color-interpolation-filters="sRGB">
<feFlood flood-opacity="0" result="BackgroundImageFix"/>
<feColorMatrix in="SourceAlpha" type="matrix" values="0 0 0 0 0 0 0 0 0 0 0 0 0 0 0 0 0 0 127 0" result="hardAlpha"/>
<feOffset dy="2"/>
<feGaussianBlur stdDeviation="2"/>
<feColorMatrix type="matrix" values="0 0 0 0 0 0 0 0 0 0 0 0 0 0 0 0 0 0 0.075 0"/>
<feBlend mode="normal" in2="BackgroundImageFix" result="effect1_dropShadow_2265_81397"/>
<feBlend mode="normal" in="SourceGraphic" in2="effect1_dropShadow_2265_81397" result="shape"/>
</filter>
</defs>
</svg>
