<svg width="166" height="147" viewBox="0 0 166 147" fill="none" xmlns="http://www.w3.org/2000/svg">
<g filter="url(#filter0_d_2265_81413)">
<rect x="12.1528" y="64.6387" width="131.675" height="54.5211" rx="8" transform="rotate(-15.5451 12.1528 64.6387)" fill="#131417"/>
</g>
<path d="M89.8791 68.8761L89.5977 67.8645C89.1286 67.9681 88.6799 67.9752 88.2514 67.8859C87.8211 67.7903 87.4562 67.6395 87.1568 67.4335L87.1063 66.0549C87.3784 66.356 87.7284 66.5984 88.1562 66.7821C88.5841 66.9658 89.0415 66.9899 89.5286 66.8544C89.972 66.7311 90.2982 66.489 90.5073 66.1281C90.7226 65.7655 90.7729 65.3781 90.6583 64.9659C90.5749 64.6662 90.4345 64.4395 90.237 64.2859C90.0395 64.1323 89.8346 64.0245 89.6223 63.9624C89.4099 63.9004 89.2437 63.8592 89.1237 63.8388L87.9474 63.6008C87.7608 63.5586 87.5239 63.4933 87.237 63.4049C86.9563 63.3148 86.6872 63.1576 86.4296 62.9332C86.1721 62.7088 85.9826 62.3781 85.861 61.941C85.7012 61.3665 85.7445 60.833 85.991 60.3406C86.2375 59.8482 86.6398 59.4806 87.198 59.2379L86.9869 58.4792L87.7737 58.2604L87.9848 59.0191C88.3529 58.9638 88.6943 58.9697 89.009 59.0369C89.3219 59.0978 89.5796 59.1776 89.7819 59.276L89.8323 60.6546C89.6033 60.4357 89.3036 60.2534 88.9334 60.1074C88.5631 59.9615 88.1844 59.9424 87.7973 60.0501C87.4226 60.1543 87.1542 60.3501 86.9919 60.6374C86.8279 60.9185 86.791 61.2214 86.8814 61.5461C86.9509 61.7959 87.0644 61.9863 87.2219 62.1174C87.3857 62.2467 87.5525 62.3383 87.7222 62.392C87.8981 62.444 88.0398 62.4819 88.1474 62.5058L89.3423 62.7385C89.4846 62.7662 89.665 62.8102 89.8836 62.8705C90.1085 62.9291 90.3406 63.0259 90.5801 63.1612C90.8178 63.2901 91.0364 63.4715 91.236 63.7053C91.4338 63.9328 91.5849 64.2339 91.6891 64.6086C91.861 65.2268 91.8236 65.8056 91.5768 66.3452C91.3282 66.8786 90.9247 67.2902 90.3662 67.5801L90.6659 68.6573L89.8791 68.8761ZM94.442 66.3959L96.4242 60.4254C96.5143 60.1447 96.5631 59.9091 96.5707 59.7187C96.5845 59.5264 96.5705 59.3554 96.5288 59.2055C96.4159 58.7997 96.1768 58.4962 95.8114 58.2951C95.446 58.094 95.0572 58.0507 94.6451 58.1654C94.2329 58.28 93.9223 58.5178 93.7133 58.8787C93.5104 59.2379 93.4655 59.6204 93.5784 60.0263C93.7034 60.4759 93.999 60.8007 94.465 61.0007L93.1818 61.3577C92.876 61.0323 92.671 60.6823 92.5668 60.3077C92.44 59.8518 92.4386 59.4116 92.5627 58.9869C92.6867 58.5621 92.9065 58.1915 93.2221 57.875C93.544 57.5567 93.9328 57.3342 94.3887 57.2074C94.8445 57.0806 95.2893 57.0712 95.723 57.1793C96.1567 57.2874 96.5364 57.4913 96.8619 57.7909C97.1875 58.0906 97.4136 58.4683 97.5404 58.9241C97.6151 59.1926 97.6452 59.4702 97.6308 59.7568C97.6146 60.0371 97.5406 60.3638 97.4089 60.7368L95.9559 64.9454L99.1405 64.0596L99.4063 65.015L94.442 66.3959ZM103.583 63.9743C103.046 64.1237 102.517 64.136 101.998 64.0113C101.486 63.8849 101.04 63.6387 100.663 63.2728L100.94 61.8738C101.142 62.3356 101.466 62.6761 101.91 62.8956C102.361 63.1133 102.83 63.1544 103.317 63.0189C103.673 62.9199 103.971 62.7462 104.211 62.4977C104.456 62.2412 104.623 61.9459 104.712 61.6117C104.8 61.2776 104.795 60.9326 104.696 60.5766C104.599 60.2269 104.423 59.9328 104.168 59.6942C103.918 59.4476 103.626 59.28 103.291 59.1913C102.956 59.0963 102.61 59.0984 102.254 59.1974C102.079 59.246 101.92 59.3139 101.776 59.401C101.638 59.4864 101.516 59.5808 101.41 59.6843L102.15 56.1384L99.5457 56.8627L99.2955 55.9635L103.454 54.8067L102.692 58.1975C103.133 58.1623 103.558 58.2258 103.966 58.388C104.381 58.5485 104.741 58.7914 105.047 59.1167C105.357 59.4341 105.577 59.8269 105.708 60.2952C105.857 60.8322 105.861 61.3558 105.721 61.8658C105.578 62.3697 105.321 62.8112 104.949 63.1906C104.575 63.5637 104.12 63.8249 103.583 63.9743ZM109.954 62.081L110.836 58.253C110.703 58.4247 110.552 58.5608 110.385 58.6611C110.216 58.7552 110.041 58.8274 109.86 58.8778C109.373 59.0133 108.89 59.0197 108.412 58.8971C107.938 58.7665 107.519 58.5298 107.155 58.1872C106.791 57.8445 106.535 57.4109 106.389 56.8864C106.242 56.3556 106.238 55.8455 106.377 55.3559C106.522 54.8583 106.775 54.4278 107.138 54.0644C107.506 53.6931 107.952 53.4344 108.477 53.2885C109.007 53.1409 109.523 53.132 110.023 53.2619C110.522 53.3856 110.958 53.6241 111.332 53.9775C111.711 54.323 111.974 54.7611 112.122 55.2918C112.19 55.5354 112.223 55.7782 112.224 56.0204C112.23 56.2608 112.209 56.4988 112.16 56.7344L111.115 61.7579L109.954 62.081ZM109.774 57.9531C110.118 57.8575 110.407 57.6895 110.643 57.449C110.877 57.2022 111.036 56.9158 111.12 56.5896C111.211 56.2617 111.208 55.926 111.113 55.5826C111.017 55.2391 110.846 54.9504 110.599 54.7163C110.359 54.4804 110.076 54.3204 109.749 54.2362C109.421 54.1458 109.086 54.1484 108.742 54.2439C108.399 54.3394 108.11 54.5106 107.876 54.7574C107.64 54.9979 107.477 55.2821 107.387 55.61C107.302 55.9361 107.308 56.2709 107.404 56.6144C107.499 56.9578 107.667 57.2475 107.908 57.4833C108.155 57.7174 108.442 57.8797 108.77 57.9701C109.096 58.0543 109.431 58.0486 109.774 57.9531ZM117.933 59.9825C117.402 60.1301 116.88 60.1407 116.367 60.0143C115.853 59.8816 115.401 59.6372 115.013 59.281C114.631 58.9231 114.365 58.4756 114.216 57.9386C114.061 57.3829 114.063 56.8473 114.223 56.3321C114.387 55.8088 114.665 55.3683 115.056 55.0104C114.826 54.886 114.627 54.7261 114.459 54.5308C114.29 54.3355 114.166 54.0974 114.088 53.8164C113.986 53.448 113.982 53.0958 114.077 52.76C114.176 52.4161 114.353 52.1182 114.605 51.8662C114.856 51.608 115.163 51.4285 115.525 51.3278C115.887 51.227 116.243 51.2224 116.591 51.3138C116.938 51.3991 117.239 51.5641 117.496 51.8089C117.757 52.0458 117.938 52.3485 118.041 52.7169C118.119 52.9979 118.137 53.2687 118.095 53.5292C118.052 53.7836 117.963 54.0202 117.829 54.2392C118.349 54.3434 118.811 54.5781 119.215 54.9433C119.624 55.3005 119.906 55.757 120.06 56.3128C120.21 56.8498 120.21 57.3711 120.062 57.8766C119.919 58.3804 119.662 58.822 119.29 59.2014C118.916 59.5745 118.464 59.8348 117.933 59.9825ZM117.667 59.0271C118.023 58.9281 118.321 58.7543 118.561 58.5058C118.806 58.2493 118.973 57.954 119.062 57.6199C119.15 57.2857 119.145 56.9407 119.046 56.5848C118.947 56.2289 118.773 55.9307 118.525 55.6904C118.275 55.4438 117.979 55.277 117.639 55.1901C117.305 55.1014 116.96 55.1065 116.604 55.2055C116.248 55.3045 115.95 55.4783 115.71 55.7268C115.469 55.9753 115.302 56.2706 115.209 56.6127C115.121 56.9469 115.126 57.2919 115.225 57.6478C115.324 58.0038 115.497 58.3019 115.746 58.5422C116.001 58.7809 116.296 58.9476 116.632 59.0426C116.966 59.1313 117.311 59.1261 117.667 59.0271ZM116.375 54.3813C116.674 54.2979 116.899 54.1245 117.047 53.8611C117.201 53.5898 117.236 53.3042 117.152 53.0045C117.069 52.7047 116.892 52.4814 116.623 52.3344C116.358 52.1794 116.075 52.1436 115.775 52.227C115.476 52.3103 115.249 52.4877 115.096 52.7591C114.947 53.0225 114.914 53.304 114.998 53.6038C115.081 53.9035 115.255 54.1308 115.521 54.2858C115.79 54.4328 116.075 54.4646 116.375 54.3813ZM122.705 58.6549C122.499 58.7122 122.305 58.6922 122.123 58.5947C121.946 58.4893 121.829 58.3336 121.771 58.1275C121.714 57.9215 121.735 57.7306 121.834 57.555C121.938 57.3715 122.093 57.251 122.299 57.1937C122.511 57.1346 122.706 57.1578 122.883 57.2632C123.059 57.3624 123.175 57.515 123.233 57.7211C123.29 57.9271 123.27 58.1211 123.173 58.3029C123.073 58.4785 122.918 58.5958 122.705 58.6549ZM127.538 57.3104C126.989 57.4633 126.455 57.4774 125.936 57.3527C125.421 57.22 124.973 56.9747 124.591 56.6168C124.208 56.2588 123.943 55.8114 123.793 55.2744C123.726 55.0308 123.691 54.7849 123.689 54.5365C123.685 54.2818 123.708 54.0367 123.757 53.8011L124.816 48.8645L125.977 48.5414L125.129 52.2388C125.265 52.0528 125.418 51.9127 125.587 51.8186C125.754 51.7183 125.931 51.6421 126.119 51.59C126.631 51.4476 127.13 51.4399 127.616 51.5671C128.108 51.6925 128.538 51.9327 128.906 52.2879C129.281 52.6413 129.542 53.0865 129.692 53.6235C129.841 54.1605 129.845 54.6841 129.705 55.1941C129.562 55.698 129.302 56.1404 128.924 56.5215C128.55 56.8946 128.088 57.1576 127.538 57.3104ZM127.282 56.3524C127.644 56.2517 127.946 56.0771 128.186 55.8286C128.431 55.5721 128.597 55.2768 128.686 54.9426C128.779 54.6005 128.776 54.2515 128.677 53.8955C128.58 53.5459 128.404 53.2517 128.149 53.0131C127.899 52.7665 127.603 52.5966 127.261 52.5034C126.925 52.4085 126.576 52.4114 126.214 52.5121C125.858 52.6111 125.557 52.7889 125.313 53.0454C125.068 53.3019 124.899 53.6012 124.806 53.9433C124.717 54.2774 124.721 54.6193 124.818 54.969C124.917 55.325 125.092 55.6262 125.342 55.8728C125.597 56.1114 125.895 56.2773 126.238 56.3705C126.578 56.4575 126.926 56.4514 127.282 56.3524ZM134.194 55.4591C133.657 55.6085 133.129 55.6208 132.61 55.4961C132.097 55.3697 131.652 55.1235 131.274 54.7576L131.551 53.3586C131.753 53.8203 132.077 54.1609 132.521 54.3804C132.972 54.5981 133.441 54.6392 133.928 54.5037C134.278 54.4065 134.573 54.2336 134.813 53.9851C135.058 53.7286 135.225 53.4333 135.313 53.0991C135.408 52.7632 135.407 52.4205 135.31 52.0708C135.213 51.7211 135.037 51.427 134.782 51.1883C134.527 50.9497 134.229 50.787 133.889 50.7C133.553 50.6051 133.204 50.608 132.842 50.7087C132.53 50.7956 132.256 50.949 132.021 51.1691C131.791 51.3811 131.622 51.6301 131.513 51.9161L130.244 47.3545L134.047 46.2967L134.312 47.2521L131.428 48.0546L132.006 50.134C132.115 50.043 132.233 49.9699 132.359 49.9147C132.489 49.8515 132.617 49.8026 132.742 49.7678C133.248 49.6271 133.747 49.6195 134.239 49.7449C134.731 49.8703 135.165 50.1097 135.539 50.4631C135.911 50.8103 136.172 51.2524 136.321 51.7894C136.471 52.3264 136.471 52.8477 136.322 53.3532C136.174 53.8588 135.913 54.3012 135.541 54.6806C135.174 55.052 134.724 55.3115 134.194 55.4591Z" fill="white"/>
<path d="M105.554 78.8214L105.073 77.094L103.452 77.545L103.222 76.7184L104.843 76.2673L104.363 74.5399L105.264 74.2893L105.744 76.0168L107.355 75.5687L107.585 76.3953L105.974 76.8434L106.455 78.5708L105.554 78.8214ZM111.116 78.8841L110.88 78.0363L112.395 77.6147L110.907 72.2629L109.784 73.7283L109.068 73.1627L110.822 70.9734L111.522 70.7789L113.349 77.3494L114.61 76.9986L114.846 77.8464L111.116 78.8841ZM116.877 77.2815C116.82 77.1602 116.773 77.0325 116.736 76.8982C116.608 76.439 116.572 76.0076 116.627 75.6041C116.687 75.1915 116.804 74.8014 116.975 74.434C117.145 74.0594 117.336 73.7057 117.548 73.3727C117.765 73.0307 117.964 72.7088 118.147 72.4068C118.334 72.0959 118.476 71.7977 118.572 71.5123C118.667 71.2268 118.679 70.9534 118.606 70.692C118.524 70.3953 118.346 70.182 118.074 70.0522C117.8 69.9153 117.49 69.895 117.144 69.9913C116.847 70.0738 116.592 70.2095 116.378 70.3984C116.169 70.5783 115.986 70.7966 115.829 71.0534L115.12 70.5543C115.332 70.2214 115.585 69.93 115.881 69.6803C116.184 69.4285 116.562 69.2398 117.014 69.114C117.431 68.998 117.817 68.9781 118.173 69.0541C118.527 69.1231 118.828 69.2717 119.074 69.5001C119.327 69.7265 119.501 70.0093 119.595 70.3484C119.69 70.6875 119.703 71.0225 119.635 71.3535C119.567 71.6844 119.452 72.0095 119.29 72.3287C119.127 72.6479 118.945 72.9649 118.744 73.2798C118.54 73.5877 118.349 73.8996 118.171 74.2157C117.992 74.5317 117.852 74.8486 117.75 75.1662C117.655 75.4818 117.63 75.801 117.674 76.1236L120.938 75.2156L121.179 76.0846L116.877 77.2815ZM123.924 75.4583C123.733 75.5113 123.547 75.4869 123.367 75.3849C123.186 75.2829 123.069 75.1365 123.016 74.9458C122.955 74.7267 122.971 74.536 123.062 74.3734C123.154 74.2109 123.31 74.0991 123.529 74.0382C123.712 73.9871 123.895 74.0125 124.075 74.1145C124.263 74.2146 124.383 74.36 124.436 74.5507C124.495 74.7627 124.476 74.9544 124.379 75.126C124.28 75.2905 124.129 75.4013 123.924 75.4583ZM128.373 74.2207C127.942 74.3406 127.558 74.3978 127.222 74.3925C126.883 74.38 126.562 74.3209 126.259 74.215L126.53 73.2604C126.767 73.3467 127.019 73.4059 127.287 73.438C127.553 73.463 127.838 73.4333 128.141 73.3488C128.615 73.2171 128.959 72.9767 129.174 72.6277C129.387 72.2715 129.435 71.8815 129.317 71.4576C129.195 71.0196 128.944 70.7051 128.563 70.514C128.188 70.314 127.721 70.2916 127.163 70.4468L125.849 70.8124L124.811 67.082L128.478 66.062L128.717 66.9204L125.951 67.6899L126.511 69.7034L127.041 69.556C127.592 69.4027 128.088 69.3674 128.53 69.4501C128.979 69.5308 129.353 69.7122 129.652 69.9943C129.958 70.2745 130.172 70.6336 130.294 71.0716C130.426 71.545 130.433 71.9958 130.316 72.4241C130.205 72.8434 129.984 73.213 129.654 73.5331C129.323 73.8461 128.895 74.0753 128.373 74.2207ZM134.693 72.7822L133.945 72.5564L136.389 63.4047L137.137 63.6305L134.693 72.7822ZM133.239 69.6473C132.652 69.8104 132.147 69.7304 131.722 69.4071C131.304 69.0818 130.993 68.5518 130.789 67.817C130.584 67.0822 130.582 66.4738 130.783 65.9917C130.989 65.5005 131.382 65.1744 131.961 65.0132C132.547 64.8501 133.052 64.9267 133.475 65.2429C133.896 65.5521 134.209 66.074 134.413 66.8088C134.615 67.5365 134.616 68.153 134.414 68.6583C134.217 69.1545 133.825 69.4842 133.239 69.6473ZM133.052 68.9343C133.348 68.8518 133.545 68.6678 133.64 68.3824C133.736 68.097 133.7 67.654 133.533 67.0535C133.388 66.5307 133.197 66.1576 132.959 65.9343C132.72 65.704 132.449 65.6311 132.145 65.7156C131.862 65.7942 131.67 65.9772 131.567 66.2646C131.469 66.5429 131.503 66.9789 131.668 67.5723C131.816 68.1022 132.009 68.4823 132.248 68.7126C132.487 68.943 132.755 69.0169 133.052 68.9343ZM139.16 71.1513C138.574 71.3145 138.068 71.2344 137.643 70.9111C137.226 70.5858 136.915 70.0558 136.71 69.321C136.506 68.5863 136.504 67.9778 136.705 67.4957C136.911 67.0045 137.303 66.6784 137.883 66.5172C138.469 66.3541 138.974 66.4307 139.397 66.7469C139.818 67.0561 140.13 67.578 140.335 68.3128C140.537 69.0405 140.537 69.657 140.335 70.1623C140.138 70.6585 139.747 70.9882 139.16 71.1513ZM138.973 70.4384C139.27 70.3558 139.466 70.1718 139.562 69.8864C139.658 69.601 139.622 69.158 139.455 68.5575C139.31 68.0347 139.118 67.6616 138.881 67.4384C138.642 67.208 138.37 67.1351 138.067 67.2196C137.784 67.2982 137.591 67.4812 137.489 67.7686C137.391 68.047 137.425 68.4829 137.59 69.0763C137.737 69.6062 137.93 69.9863 138.17 70.2167C138.409 70.447 138.677 70.5209 138.973 70.4384Z" fill="#FF54E3"/>
<path d="M70.7575 62.3266L69.2537 66.8583L70.4977 74.691L65.7774 64.8842L66.04 71.4544L59.3927 60.732L61.9518 76.1046L56.7645 70.153L60.2745 88.0593L56.3086 82.7129L60.2497 98.0712L49.6804 77.2393L51.1146 85.5927L52.3679 92.1779L45.6149 80.0156L45.9272 84.8648L42.9386 82.8168L39.0813 88.8259L39.1706 99.0846L30.7422 91.1456" stroke="#FF54E3"/>
<defs>
<filter id="filter0_d_2265_81413" x="10.002" y="29.1992" width="145.772" height="92.1172" filterUnits="userSpaceOnUse" color-interpolation-filters="sRGB">
<feFlood flood-opacity="0" result="BackgroundImageFix"/>
<feColorMatrix in="SourceAlpha" type="matrix" values="0 0 0 0 0 0 0 0 0 0 0 0 0 0 0 0 0 0 127 0" result="hardAlpha"/>
<feOffset dy="2"/>
<feGaussianBlur stdDeviation="2"/>
<feColorMatrix type="matrix" values="0 0 0 0 0 0 0 0 0 0 0 0 0 0 0 0 0 0 0.075 0"/>
<feBlend mode="normal" in2="BackgroundImageFix" result="effect1_dropShadow_2265_81413"/>
<feBlend mode="normal" in="SourceGraphic" in2="effect1_dropShadow_2265_81413" result="shape"/>
</filter>
</defs>
</svg>
