<svg width="955" height="865" viewBox="0 0 955 865" fill="none" xmlns="http://www.w3.org/2000/svg">
<path d="M748.923 0.0928657L773.235 16.0565C754.11 38.0285 720.714 56.1837 694.565 65.9068C742.242 72.3516 789.817 83.3098 833.42 103.898C894.032 132.51 942.211 179.407 953.03 247.877C955.406 262.884 955.591 278.151 953.81 293.26L949.523 316.068C942.127 344.234 928.867 370.59 912.118 394.224C850.206 481.611 741.898 537.237 637.033 550.656C618.771 676.341 529.041 772.187 420.065 828.306C292.548 893.962 143.588 909.406 1.81874 910L0 909.656L0.584596 881.425C37.0337 882.103 73.557 881.017 109.885 878.342C274.621 866.232 466.823 815.453 562.149 668.735C585.097 633.418 601.475 593.588 608.444 551.817C529.941 547.61 456.792 516.352 395.168 468.935C360.417 442.189 301.122 385.309 321.723 336.294C339.817 293.242 409.904 299.473 445.722 311.1C527.89 337.762 626.13 417.153 638.137 507.446C638.611 510.993 638.379 518.339 639.177 521.041C639.288 521.431 638.815 521.821 639.789 521.84C732.526 508.616 828.901 459.128 885.449 383.062C954.626 290.001 936.058 190.198 833.661 135.537C795.672 115.256 735.765 97.1561 692.894 93.9893C692.7 93.9708 690.343 93.7479 690.844 94.4908C710.655 114.02 727.506 136.568 740.145 161.373L715.415 174.68C697.794 141.082 671.598 109.907 639.752 88.9003C626.9 80.4217 612.536 74.2925 599.099 66.8169C599.099 65.7489 599.294 66.1018 599.869 65.9161C603.962 64.5788 608.954 63.7616 613.232 62.8051C651.657 54.2336 667.738 48.2159 695.966 35.1497C709.746 28.7698 734.076 14.4406 748.487 0L748.941 0.0835791L748.923 0.0928657ZM611.385 523.558C610.383 481.406 586.257 443.461 557.732 414.162C516.124 371.416 441.351 324.779 379.672 331.029C352.391 333.787 338.62 346.287 349.477 374.555C366.616 419.14 434.327 465.786 475.768 486.932C517.859 508.412 564.061 521.106 611.376 523.558H611.385Z" fill="#00ECC9"/>
</svg>
