<svg xmlns="http://www.w3.org/2000/svg" width="19" height="18" viewBox="0 0 19 18" fill="none">
<path d="M17 6.5175C17 7.41 16.8575 8.235 16.61 9H2.39C2.1425 8.235 2 7.41 2 6.5175C2 4.2 3.8675 2.325 6.17 2.325C7.5275 2.325 8.7425 2.985 9.5 3.9975C10.2575 2.985 11.4725 2.325 12.83 2.325C15.1325 2.325 17 4.2 17 6.5175Z" fill="#454954"/>
<path d="M16.6101 9C15.4251 12.75 11.7726 14.9925 9.96514 15.6075C9.71014 15.6975 9.29014 15.6975 9.03514 15.6075C7.22764 14.9925 3.57514 12.75 2.39014 9H16.6101Z" fill="#454954"/>
</svg>