<svg width="36" height="37" viewBox="0 0 36 37" fill="none" xmlns="http://www.w3.org/2000/svg">
<path d="M33 13.5354C33 15.3204 32.715 16.9704 32.22 18.5004H3.78C3.285 16.9704 3 15.3204 3 13.5354C3 8.90039 6.735 5.15039 11.34 5.15039C14.055 5.15039 16.485 6.47039 18 8.49539C19.515 6.47039 21.945 5.15039 24.66 5.15039C29.265 5.15039 33 8.90039 33 13.5354Z" fill="#F60007"/>
<path d="M32.2193 18.5C29.8493 26 22.5443 30.485 18.9293 31.715C18.4193 31.895 17.5793 31.895 17.0693 31.715C13.4543 30.485 6.1493 26 3.7793 18.5H32.2193Z" fill="#F60007"/>
</svg>
