<svg xmlns="http://www.w3.org/2000/svg" width="19" height="18" viewBox="0 0 19 18" fill="none">
<path d="M11.1652 16.221C10.2802 16.221 9.02766 15.5985 8.03766 12.621L7.49766 11.001L5.87766 10.461C2.90766 9.47103 2.28516 8.21853 2.28516 7.33353C2.28516 6.45603 2.90766 5.19603 5.87766 4.19853L12.2452 2.07603C13.8352 1.54353 15.1627 1.70103 15.9802 2.51103C16.7977 3.32103 16.9552 4.65603 16.4227 6.24603L14.3002 12.6135C13.3027 15.5985 12.0502 16.221 11.1652 16.221ZM6.23016 5.27103C4.14516 5.96853 3.40266 6.79353 3.40266 7.33353C3.40266 7.87353 4.14516 8.69853 6.23016 9.38853L8.12016 10.0185C8.28516 10.071 8.42016 10.206 8.47266 10.371L9.10266 12.261C9.79266 14.346 10.6252 15.0885 11.1652 15.0885C11.7052 15.0885 12.5302 14.346 13.2277 12.261L15.3502 5.89353C15.7327 4.73853 15.6652 3.79353 15.1777 3.30603C14.6902 2.81853 13.7452 2.75853 12.5977 3.14103L6.23016 5.27103Z" fill="#5E6167"/>
<path d="M8.08406 10.8C7.94156 10.8 7.79906 10.7475 7.68656 10.635C7.46906 10.4175 7.46906 10.0575 7.68656 9.84L10.3716 7.1475C10.5891 6.93 10.9491 6.93 11.1666 7.1475C11.3841 7.365 11.3841 7.725 11.1666 7.9425L8.48156 10.635C8.37656 10.7475 8.22656 10.8 8.08406 10.8Z" fill="#5E6167"/>
</svg>