<svg width="28" height="28" viewBox="0 0 28 28" fill="none" xmlns="http://www.w3.org/2000/svg">
<ellipse cx="14" cy="14" rx="14" ry="14" fill="#E2C1FF"/>
<mask id="mask0_2009_14395" style="mask-type:alpha" maskUnits="userSpaceOnUse" x="0" y="0" width="28" height="28">
<ellipse cx="14" cy="14" rx="14" ry="14" fill="#E2C1FF"/>
</mask>
<g mask="url(#mask0_2009_14395)">
<path fill-rule="evenodd" clip-rule="evenodd" d="M22.7585 25.908C22.7585 25.7011 22.4722 25.3338 22.4717 25.1464C22.7124 25.1033 22.9136 24.7771 22.8603 24.5728C22.7664 24.501 22.5201 24.3596 22.4183 24.2935C21.7977 24.3124 22.0335 23.4488 21.9633 23.0098C21.8926 22.5804 21.8401 22.1313 21.7366 21.6994C21.5528 21.3538 21.4665 20.9664 21.2909 20.6226C21.2124 20.5086 21.0856 20.4041 21.0476 20.2718C20.6633 19.8519 20.1342 19.6002 19.6988 19.2445C19.8678 19.1904 19.8565 18.9624 19.8456 18.816C19.8849 18.625 19.8429 18.3855 19.6687 18.2779C19.6099 18.0861 19.3527 18.0191 19.2022 18.1413C19.1034 17.6983 18.7169 17.4295 18.3119 17.2651C18.3123 17.2638 18.3126 17.2626 18.313 17.2613C17.9046 17.0991 17.4151 17.0183 17.0076 17.1094C17.2227 14.712 15.387 14.624 14.4554 14.8255C13.9789 14.9286 13.2639 15.2494 13.1015 15.6954C13.0098 15.9472 12.7467 16.7593 12.7092 17.0183C11.9978 16.6122 11.1731 16.0768 10.5561 16.8943C10.4325 17.0368 10.2958 17.1426 10.1109 17.1915C9.53365 17.3414 8.76747 17.3464 8.43936 17.935C8.24326 18.2997 8.41963 18.5399 8.36694 18.9047C5.76844 20.7301 3.59693 27.4545 4.0845 30.5829C4.2018 31.7024 4.77445 33.684 6.18791 33.437C6.90884 34.2257 19.0093 34.2257 20.2571 33.437C21.2842 33.7057 22.3278 33.2897 22.7585 32.3057C23.3055 30.9565 22.7258 29.4993 22.6231 28.1152C22.5607 27.7658 22.4679 27.4884 22.4183 27.1306C22.3976 26.9815 22.4689 26.7335 22.4183 26.5961C22.4422 26.5067 22.7585 26.115 22.7585 25.908Z" fill="white"/>
<path fill-rule="evenodd" clip-rule="evenodd" d="M12.5354 16.8533L12.5781 16.8716L12.7247 16.9351L12.6939 17.0056C12.6075 17.204 12.5103 17.3948 12.4038 17.5744L12.3837 17.6079L12.3529 17.6589L12.3545 17.6606C12.3678 17.6754 12.3813 17.6906 12.3952 17.7064L14.0078 19.4397C14.688 20.1702 15.0471 20.5545 15.0852 20.5927C15.2437 20.7521 15.3996 20.7719 15.5423 20.6375L15.5584 20.6223L15.5848 20.5968L15.6028 20.5791C15.696 20.4871 15.7885 20.3854 15.9216 20.2319L17.4111 18.1183L17.317 17.9081C17.1443 17.5198 17.05 17.2928 17.0341 17.227L17.027 17.1948L17.0121 17.1254L17.0801 17.1051C17.3253 17.0321 17.5968 17.0512 17.9047 17.1423L17.9225 17.1477L17.9738 17.1635C18.1825 17.2284 18.3006 17.272 18.4216 17.3367C18.5863 17.4246 18.7078 17.5338 18.7837 17.6762C18.8709 17.84 18.9377 17.9223 19.0502 17.9889L19.059 17.994L19.0699 18.0002L19.0814 18.0064C19.0914 18.0117 19.1024 18.0173 19.1157 18.0238L19.1629 18.0466C19.312 18.1181 19.3804 18.1638 19.4391 18.2541C19.5038 18.3537 19.5148 18.4469 19.4948 18.5818L19.493 18.5935L19.4899 18.6126L19.4777 18.6827L19.4748 18.7005C19.4669 18.7506 19.4656 18.7948 19.4713 18.8319L19.4727 18.8403L19.5053 19.0139L19.4405 18.9728L19.6197 19.1189C19.8705 19.3242 20.02 19.4516 20.1763 19.5953L20.2195 19.6353L20.2279 19.6432C20.5096 19.9059 20.7383 20.1592 20.9297 20.4297C21.1374 20.7229 21.3133 21.0435 21.4553 21.3851L21.4714 21.4242L21.4727 21.4293C21.6855 22.2635 21.8565 23.1086 21.9851 23.9618L21.9974 24.0444L22.0599 24.4678L21.8543 24.0924C21.8223 24.034 21.7337 23.9761 21.6232 23.933L21.6128 23.929L21.6052 23.9262L21.5894 23.9205C21.4682 23.8783 21.3459 23.8743 21.2313 23.9098L21.2195 23.9136L21.1847 23.9253L21.1538 23.9056C21.0969 23.8692 21.0331 23.8384 20.9629 23.8131L20.9453 23.8068L20.8713 23.7815L20.8981 23.708C20.9184 23.6524 20.8812 23.5434 20.8276 23.4966C20.7441 23.4241 20.6241 23.4038 20.4378 23.4175L20.4125 23.4196L20.3925 23.4214L20.3625 23.4244L20.2679 23.4345L20.2679 23.4349C20.2667 23.4513 20.266 23.4663 20.2657 23.4805L20.2655 23.4909L20.2656 23.5012C20.266 23.5364 20.269 23.5689 20.2749 23.5993L20.2775 23.6121L20.2989 23.7074L20.2013 23.7056L20.1588 23.705C20.0164 23.7033 19.8669 23.7055 19.6908 23.7113L19.517 23.7178L19.0737 23.7365L18.6848 23.7502L18.569 23.7541L18.5634 23.6807C18.5561 23.5839 18.4734 23.5197 18.3269 23.4911L18.3174 23.4893L18.1643 23.4616L18.2901 23.3475L18.3003 23.3379L18.3108 23.3277C18.4119 23.227 18.4459 23.1347 18.4042 23.0456C18.3555 22.9411 18.2053 22.9105 18.0673 22.9673L18.0578 22.9713L18.048 22.9757C18.0221 22.9877 17.9963 23.0028 17.9552 23.0293L17.9028 23.0634L17.8837 23.0756C17.8382 23.1043 17.8081 23.1205 17.7701 23.1362C17.6695 23.1778 17.5755 23.1807 17.4214 23.1615L17.4076 23.1597L17.3749 23.1554L17.2914 23.1437L17.2707 23.141L17.2498 23.1384C17.0922 23.1197 16.9925 23.1298 16.9083 23.1836C16.8544 23.2181 16.8239 23.2621 16.7768 23.365L16.7544 23.4146L16.7446 23.4359C16.6879 23.5565 16.6449 23.6144 16.5603 23.6646C16.5063 23.6968 16.4551 23.716 16.3648 23.7423L16.3005 23.7609L16.2776 23.7678C16.2638 23.772 16.2523 23.7759 16.2402 23.7802C16.1418 23.8152 16.0528 23.8655 15.9692 23.9329L15.9562 23.9435L15.9421 23.9552C15.8607 24.024 15.7911 24.0984 15.6722 24.2381L15.5856 24.3403L15.5549 24.3761L15.5294 24.4052C15.5267 24.4083 15.524 24.4114 15.5213 24.4144L15.4971 24.4414C15.3086 24.6484 15.12 24.8392 14.9279 25.0162L14.8876 25.053L14.8461 25.0904L14.8119 25.1207C14.7002 25.2192 14.5795 25.3188 14.3921 25.4693L14.1597 25.6555L14.0866 25.7145C13.8671 25.8923 13.7334 26.007 13.5971 26.1366L13.5633 26.169L13.5609 26.1828C13.5596 26.1906 13.5582 26.1996 13.5567 26.2096C13.5567 26.2096 13.4237 27.0304 13.5444 27.7035C13.6652 28.3766 13.708 28.103 13.8302 28.2682L13.8585 28.3062C13.9255 28.3954 13.9772 28.4585 14.0332 28.5171L14.0994 28.5855L14.1755 28.6472L14.2236 28.6763C14.2583 28.6973 14.293 28.7137 14.3277 28.7256C14.3756 28.7421 14.4396 28.7096 14.471 28.6524L14.474 28.6468L14.4945 28.6057L14.5404 28.6043C14.5512 28.604 14.5621 28.6024 14.5729 28.5994C14.6816 28.5694 14.7356 28.44 14.6825 28.3394L14.6795 28.3341L14.652 28.2852L14.6379 28.2606C14.6176 28.2259 14.5989 28.1965 14.5799 28.1706L14.5728 28.1611L14.4671 28.022L14.7332 28.0468L14.7549 28.049L14.7848 28.0521L14.8806 28.0631C14.9804 28.0742 15.0767 28.0844 15.1706 28.0936L15.2506 28.1012L15.3905 28.114L15.4192 28.1169L15.4813 28.1235L15.6302 28.1396L15.6832 28.145L15.7127 28.1479C15.7412 28.1506 15.7667 28.1527 15.7923 28.1547L15.8204 28.1567C16.0348 28.1713 16.2021 28.1616 16.354 28.1188C16.601 28.0488 16.8495 27.9044 17.1184 27.6909C17.3933 27.4726 17.5921 27.267 17.7117 27.0537C17.7139 27.0497 17.7143 27.0465 17.7127 27.0426L17.7115 27.0402L17.6661 26.9568L17.7572 26.9299C17.83 26.9084 17.8917 26.881 17.9436 26.846C18.1034 26.7385 18.1569 26.5232 18.041 26.4108L18.0359 26.4059L18.0289 26.3996L17.931 26.2529L18.0726 26.232C18.1199 26.2247 18.1615 26.2164 18.2003 26.2063C18.459 26.1391 18.5919 25.9327 18.4774 25.7342L18.4735 25.7277L18.4273 25.6513L18.5099 25.6171C18.5276 25.6098 18.5459 25.6029 18.5661 25.5958L18.5785 25.5915L18.5909 25.5873L18.6373 25.5719C18.7355 25.5396 18.8315 25.5149 18.9273 25.4981C19.003 25.4851 19.0788 25.4767 19.1546 25.4729L19.183 25.4717L19.2148 25.4706L19.2149 25.4697L19.2335 25.4699L19.2984 25.4677L19.2971 25.471C19.3933 25.4734 19.49 25.4828 19.5868 25.4991L19.6096 25.503C19.6432 25.5089 19.6752 25.515 19.7093 25.5219L19.8569 25.5532C19.8838 25.5588 19.9072 25.5634 19.9304 25.5675L19.9529 25.5715L20.1907 25.6117L19.9734 25.7162L19.9678 25.719L19.9622 25.7219L19.9382 25.7352C19.7905 25.8187 19.7031 25.9139 19.6826 26.0313C19.6506 26.2146 19.7548 26.299 20.0005 26.3275L20.021 26.3297L20.0426 26.3317L20.0568 26.3328L20.672 26.3745L20.0896 26.4863C19.9485 26.5134 19.806 26.55 19.662 26.5956C19.6508 26.5991 19.6388 26.6035 19.6257 26.6087L19.6157 26.6128L19.5564 26.6373L19.4996 26.6784C19.3999 26.7523 19.3721 26.8257 19.4219 26.8986L19.4253 26.9035L19.4561 26.9457L19.4281 26.9899C19.3476 27.1166 19.3582 27.2782 19.4544 27.4095C19.5346 27.519 19.6645 27.5887 19.8417 27.6287L19.8555 27.6317L19.8944 27.64L19.9512 27.649L19.9923 27.6546L20.0239 27.6583L20.0453 27.6605L20.078 27.6636L20.1674 27.6711C20.2945 27.6819 20.3597 27.6907 20.438 27.7103C20.5431 27.7365 20.6357 27.7792 20.7588 27.852L20.7732 27.8605L20.8035 27.8788L20.8624 27.915L20.9193 27.9504L20.9385 27.9622L20.9622 27.9765C21.1375 28.0812 21.2531 28.1205 21.3747 28.1021C21.452 28.0905 21.5168 28.0623 21.5743 28.0173L21.5833 28.0101L21.6715 27.9375L21.6689 27.9227L21.6881 27.8963C21.7249 27.8458 21.8815 27.5508 21.8816 27.5506C21.9826 27.3731 22.08 27.2506 22.2031 27.1694L22.2137 27.1626L22.2379 27.1478L22.2655 27.1419L22.2795 27.1441C22.32 27.1504 22.332 27.1684 22.3434 27.1989C22.3464 27.2067 22.3487 27.2153 22.351 27.2257L22.3531 27.236L22.3553 27.2478L22.3587 27.2682L22.3622 27.2921L22.3662 27.3215L22.3705 27.3555C22.3739 27.3829 22.3776 27.4148 22.3818 27.4522L22.4282 27.8796L22.4409 27.9931L22.4527 28.0944C22.4537 28.1026 22.4546 28.1107 22.4556 28.1188L22.4656 28.2008L22.4766 28.2866C22.5047 28.5027 22.5326 28.6764 22.5614 28.8083L22.5667 28.832L22.5703 28.8474L22.5795 28.8868C22.745 29.5955 22.8289 30.1807 22.833 30.767C22.8368 31.3972 22.6994 31.9598 22.4014 32.4234C22.1172 32.8658 21.7025 33.1869 21.2352 33.2977C20.9889 33.3559 20.7446 33.3431 20.5477 33.2452C20.5117 33.2273 20.4862 33.2089 20.4396 33.17L20.4241 33.1569C20.3626 33.1048 20.3354 33.0867 20.3027 33.079C20.2986 33.0781 20.2947 33.0773 20.2909 33.0768L20.2853 33.0763L20.2157 33.0709L20.2144 33.0011C20.2118 32.8523 20.1408 32.7941 20.1475 33.0263C20.1475 33.0263 20.1603 33.3609 20.1638 33.4031L20.1662 33.4308L20.1672 33.4406L20.1261 33.5842C18.3313 34.2698 7.92661 34.2817 6.3213 33.611L6.27536 33.5905L5.9915 33.4542C5.9915 33.4542 6.56034 33.3217 6.1714 33.3708C5.75417 33.4236 5.26844 33.1678 5.00517 32.7372L4.90919 32.5789L4.87982 32.5297L4.86354 32.502C4.82441 32.435 4.79654 32.3838 4.76703 32.3249C4.64798 32.0871 4.54913 31.8312 4.46785 31.5559C4.31661 31.0437 4.23737 30.4888 4.21372 29.8613C4.17091 28.7261 4.28802 27.528 4.54663 26.2797C4.79746 25.0689 5.17757 23.892 5.6791 22.7791C5.92981 22.2228 6.20615 21.6908 6.50911 21.1836L6.54167 21.1293L6.57713 21.0707L6.61353 21.011L6.65011 20.9514L6.68346 20.8977L6.71707 20.844L6.75098 20.7904C7.06048 20.3039 7.33565 19.9449 7.65372 19.6352C7.93636 19.3599 8.23413 19.0807 8.54702 18.7975L8.5403 18.6789L8.54002 18.6767C8.5334 18.6377 8.4156 18.3043 8.53462 18.0445L8.54818 18.0153C8.65588 17.7873 8.67154 17.8459 8.7746 17.774L8.77882 17.771C9.0048 17.6091 9.29278 17.4981 9.63422 17.4241C9.7218 17.4051 9.80423 17.3966 9.92035 17.392L9.93639 17.3914L9.95743 17.3907L10.0477 17.3879C10.2179 17.3825 10.3454 17.3225 10.4438 17.1983L10.4511 17.1889L10.4585 17.1791L10.4654 17.1697C10.4894 17.1361 10.5123 17.0978 10.5494 17.0319L10.5747 16.9869L10.5869 16.9656L10.5994 16.9442C10.6419 16.8722 10.672 16.8298 10.7146 16.7834C10.8434 16.6434 11.0431 16.5612 11.2536 16.5475C11.627 16.5232 11.9946 16.6233 12.5354 16.8533ZM17.4355 24.0563L17.4051 24.206C17.4022 24.2201 17.4006 24.234 17.4004 24.2475L17.4005 24.2576L17.4026 24.3259L17.335 24.3359C17.2804 24.344 17.2262 24.3525 17.1725 24.3613L17.1191 24.3702L16.6147 24.4558L17.0758 24.224L17.0852 24.2195L17.0877 24.2182L17.1054 24.2097L17.1609 24.1839L17.2973 24.1213L17.4355 24.0563Z" fill="#1D1D1D"/>
<path fill-rule="evenodd" clip-rule="evenodd" d="M17.039 16.3346C17.0676 16.457 17.0415 16.5951 17.0463 16.7207C17.0508 16.8408 17.065 16.9601 17.0858 17.0784C17.3052 16.963 17.5645 16.9482 17.8146 16.9853C18.138 17.0334 18.5122 17.1398 18.7657 17.3559C18.8283 17.4093 18.8801 17.4725 18.9235 17.5422C18.9756 17.6258 19.0089 17.7203 19.0915 17.7802C19.2193 17.8729 19.3777 17.9088 19.5005 18.0115C19.6258 18.1162 19.7035 18.2728 19.7199 18.4344C19.7287 18.5204 19.7145 18.6008 19.6982 18.6847C19.6836 18.7601 19.6908 18.7911 19.7106 18.8637C19.7262 18.9208 19.6965 18.9855 19.6479 19.0169C19.752 19.0884 19.8546 19.162 19.9554 19.2386C20.5429 19.6846 21.0396 20.2405 21.384 20.8947L21.3923 20.9109L21.4019 20.9305C21.4859 21.1029 21.7054 21.6071 21.7327 21.7205C21.7522 21.7797 21.7711 21.8391 21.7887 21.8989C21.8351 22.0574 21.8744 22.2178 21.907 22.3795L21.9157 22.4237C21.9422 22.5595 21.9877 22.7204 21.9804 22.8652C22.0566 23.2605 22.1242 23.6575 22.1819 24.0561C22.1894 24.1083 22.1686 24.1508 22.1364 24.1789C22.2135 24.1913 22.2901 24.2066 22.3659 24.2219L22.41 24.2312L22.432 24.2361C22.5899 24.2717 22.7457 24.3235 22.8491 24.4562C22.9606 24.5997 22.9628 24.784 22.8509 24.9285C22.7558 25.0513 22.617 25.1096 22.472 25.1464C22.4434 25.1536 22.4145 25.1602 22.3856 25.1661C22.3662 25.1702 22.3534 25.1436 22.3718 25.1334L22.4025 25.1164L22.4445 25.0934C22.5538 25.0331 22.6672 24.9651 22.7276 24.8564C22.8097 24.7089 22.7448 24.5723 22.6039 24.4974C22.486 24.4346 22.3401 24.4185 22.2092 24.397L22.1551 24.3881C22.0182 24.3663 21.8785 24.352 21.7404 24.3677C21.6194 24.3815 21.497 24.4227 21.3993 24.4966L21.3902 24.5037L21.3809 24.5116C21.2952 24.5858 21.1721 24.7526 21.3336 24.8007C21.4571 24.8372 21.6076 24.8281 21.7373 24.8352L21.7541 24.8362C21.8628 24.8436 21.9763 24.8436 22.0862 24.8567C22.1256 24.8612 22.1645 24.8676 22.2026 24.8766C22.3117 24.9024 22.2742 25.0477 22.178 25.0579C22.1545 25.0605 22.1305 25.0617 22.1064 25.0623C22.0435 25.1096 21.9566 25.1311 21.8822 25.1604C21.8112 25.1886 21.7398 25.2165 21.668 25.2438C21.7299 25.2467 21.7917 25.2518 21.8534 25.2594C21.8733 25.2617 21.8735 25.2886 21.8534 25.2906C21.7051 25.3057 21.5568 25.3221 21.409 25.3428C21.1802 25.3745 20.9529 25.417 20.7308 25.4816C20.5684 25.5291 20.408 25.5857 20.2525 25.6516L20.2054 25.6719L20.186 25.6804C20.0448 25.7416 19.8622 25.8132 19.781 25.9481C19.7386 26.0184 19.72 26.1271 19.7798 26.1944C19.8438 26.2668 19.9778 26.2586 20.0674 26.2621L20.0745 26.2624C20.2642 26.2716 20.4542 26.2729 20.6441 26.2662C21.0422 26.2522 21.4405 26.2087 21.8314 26.1322C21.9035 26.1182 21.9347 26.2263 21.862 26.2432C21.401 26.3504 20.9348 26.4092 20.4617 26.4119L20.4099 26.412C20.2256 26.4472 20.0449 26.4998 19.8657 26.5591L19.8299 26.5711C19.724 26.6068 19.5433 26.6424 19.4809 26.7475C19.4395 26.8173 19.4541 26.8651 19.495 26.8976C19.5671 26.9547 19.7204 26.9654 19.7951 26.9682C20.0942 26.9794 20.3936 26.9815 20.6929 26.9751C20.8425 26.9718 20.9921 26.9664 21.1416 26.9587C21.2879 26.9511 21.444 26.9293 21.5898 26.9434C21.6524 26.9495 21.6734 27.0416 21.6054 27.0587C21.4257 27.1043 21.2241 27.1003 21.0384 27.1061L21.0171 27.1068C20.8177 27.1139 20.6181 27.117 20.4186 27.1165C20.2475 27.1158 20.0764 27.1124 19.9054 27.1061L19.7542 27.1001L19.7275 27.0988C19.6469 27.0945 19.5646 27.0852 19.4932 27.0521C19.4272 27.1625 19.4766 27.3106 19.5617 27.3981C19.6427 27.4814 19.7596 27.5224 19.8715 27.5479C19.882 27.5502 19.8925 27.5525 19.903 27.5546C20.1489 27.6047 20.3995 27.6004 20.6296 27.7134C20.8231 27.8085 21.0003 27.967 21.217 28.0046C21.4108 28.0384 21.5517 27.953 21.6549 27.795C21.6606 27.7863 21.6662 27.7776 21.6716 27.7689C21.7529 27.6379 21.8114 27.4937 21.8971 27.3653C21.9408 27.2999 21.9901 27.237 22.0505 27.1858C22.0775 27.1625 22.2672 27.0618 22.2969 27.0316C22.4245 26.9007 22.3115 26.6253 22.3447 26.4611C22.3835 26.27 22.5515 26.2028 22.6523 26.0547C22.8437 25.7729 22.3186 25.509 22.4756 25.2009C22.4776 25.197 22.4802 25.1942 22.4835 25.1924C22.4973 25.185 22.5193 25.1942 22.518 25.2124C22.5006 25.442 22.7195 25.6001 22.7985 25.799C22.8885 26.0253 22.7448 26.1624 22.5981 26.3135C22.4099 26.5076 22.5423 26.725 22.5004 26.9587C22.4949 26.9894 22.4861 27.0164 22.4747 27.0405C22.5069 27.0605 22.5317 27.0935 22.5371 27.1397C22.6016 27.6869 22.671 28.2325 22.7843 28.7722L22.8085 28.8868L22.8409 29.0398C22.9216 29.4224 22.997 29.8065 23.0113 30.1976C23.0563 30.5277 23.0741 30.8605 23.0475 31.1928C22.9667 32.2042 22.4014 33.2624 21.3745 33.5728C21.1368 33.6447 20.8847 33.6634 20.6408 33.613C20.5572 33.5959 20.4401 33.558 20.335 33.5007C20.3413 33.5681 20.3462 33.6355 20.3483 33.7028C20.3829 33.7414 20.3986 33.7996 20.3789 33.8495C20.2951 33.8219 20.219 33.7783 20.1505 33.7185L20.1391 33.7084C20.0985 33.5574 20.0866 33.3921 20.0807 33.233L20.0791 33.1877C20.0776 33.1437 20.0766 33.1005 20.075 33.0583C20.0664 32.7957 20.0725 32.5326 20.086 32.2702L20.096 32.077C20.1188 31.6265 20.1374 31.1771 20.1249 30.7253C20.1106 30.2054 20.0661 29.6878 20.0104 29.1708C19.9815 28.904 19.9488 28.6378 19.9152 28.3716C19.8884 28.1573 19.8434 27.9267 19.8427 27.7057C19.6706 27.6689 19.5016 27.5983 19.3958 27.4538C19.2835 27.3006 19.2669 27.1048 19.3666 26.9477C19.2703 26.8158 19.3493 26.6915 19.4684 26.6076C19.2854 26.5051 19.1834 26.2253 19.1563 26.0307C19.1378 25.8972 19.132 25.6975 19.1889 25.5474C19.1072 25.5502 19.0254 25.5586 18.9436 25.5727C18.8489 25.5893 18.7562 25.6136 18.6646 25.6438L18.6183 25.6591C18.5949 25.667 18.5686 25.6762 18.5424 25.687C18.7078 25.9606 18.4954 26.2087 18.2229 26.2795C18.171 26.2931 18.1181 26.3025 18.0646 26.3102C17.9442 26.3268 17.8212 26.3319 17.7018 26.343C17.4733 26.3639 17.2435 26.3938 17.0142 26.4036C16.9638 26.4059 16.9313 26.3823 16.916 26.3496C16.9155 26.3491 16.9152 26.3488 16.9152 26.3483C16.9099 26.3396 16.9063 26.3304 16.905 26.3207C16.9058 26.3215 16.9068 26.322 16.9075 26.3225C16.8965 26.2611 16.9334 26.1864 17.0142 26.1775C17.3452 26.1401 17.6809 26.1384 18.013 26.111L18.0342 26.1092C18.1385 26.1002 18.2613 26.0837 18.3438 26.0177C18.4205 25.9563 18.4274 25.8765 18.3967 25.8044C18.3962 25.8062 18.3957 25.8082 18.3954 25.81C18.3931 25.8243 18.3735 25.8238 18.3671 25.8138C18.3479 25.7847 18.343 25.756 18.3479 25.7284C18.3249 25.7018 18.297 25.6783 18.2668 25.6601C18.1331 25.5788 17.9573 25.5566 17.8051 25.5325C17.6387 25.5062 17.471 25.4942 17.303 25.4863C16.9725 25.4706 16.6409 25.4975 16.3157 25.5568C16.3022 25.5592 16.2966 25.5402 16.3099 25.5359C16.4366 25.4939 16.5662 25.4586 16.6974 25.4308C16.6943 25.4302 16.6913 25.4298 16.6882 25.429C16.6767 25.4261 16.6685 25.4121 16.6724 25.4009C16.6728 25.399 16.6736 25.3973 16.6744 25.3957C16.6187 25.3702 16.5954 25.2842 16.6629 25.2495C16.8733 25.1408 17.1202 25.0917 17.3511 25.0469C17.5728 25.0042 17.7967 24.9743 18.0209 24.9477C18.4 24.9032 18.8134 24.9042 19.1782 24.7845L19.1932 24.7795C19.3418 24.7282 19.5191 24.6244 19.5295 24.449C19.5448 24.1838 19.1509 24.2529 18.9867 24.2593C18.5376 24.2764 18.0889 24.3076 17.6418 24.3557C17.5505 24.3654 17.4592 24.3754 17.368 24.3856C17.2281 24.4012 17.088 24.4176 16.9485 24.4349C16.8705 24.4447 16.7907 24.4575 16.7105 24.4698C16.6854 24.4759 16.6609 24.4802 16.6363 24.4825C16.6345 24.4828 16.633 24.4823 16.6317 24.4815C16.5149 24.4979 16.3975 24.5104 16.2835 24.5068C16.2705 24.5066 16.2623 24.4861 16.2761 24.48C16.4234 24.4176 16.5872 24.3808 16.7516 24.3518C16.8534 24.2759 16.9763 24.2151 17.0773 24.1562C17.2159 24.0754 17.3746 23.9565 17.5319 23.9082C17.6026 23.8524 17.6829 23.8077 17.7568 23.7772C17.7356 23.7443 17.7279 23.6985 17.7317 23.6599C17.7458 23.5215 17.8565 23.4443 17.9844 23.4172C18.024 23.409 18.0697 23.4029 18.1186 23.4006C18.1196 23.3747 18.1311 23.3494 18.1566 23.3305L18.1642 23.3248L18.1695 23.3205C18.2554 23.2508 18.4257 23.0546 18.2205 23.0402C18.1117 23.0325 18.0196 23.1124 17.9329 23.1663C17.753 23.2786 17.5789 23.2842 17.3734 23.2563L17.281 23.243L17.2656 23.241C17.117 23.2215 16.9662 23.2188 16.8833 23.3704C16.7943 23.5325 16.7631 23.6803 16.5836 23.7696C16.4121 23.8547 16.2217 23.8716 16.0642 23.9887C15.8954 24.114 15.7686 24.29 15.6306 24.4459C15.3261 24.7896 14.9777 25.0932 14.6187 25.3786L14.5549 25.4292C14.2243 25.6905 13.8831 25.9478 13.513 26.1491C13.5105 26.1504 13.5079 26.1509 13.5056 26.1509C13.4957 26.1499 13.4882 26.1371 13.4972 26.1284C13.9295 25.7082 14.4352 25.3676 14.8792 24.9587C15.0761 24.7774 15.2635 24.5866 15.4437 24.3887C15.6012 24.2151 15.7408 24.0199 15.9243 23.8721C16.0135 23.8002 16.1099 23.7453 16.2178 23.7069C16.3185 23.6708 16.4315 23.6529 16.5243 23.5977C16.7061 23.4898 16.6885 23.2341 16.8702 23.118C17.0261 23.0184 17.2159 23.0548 17.3887 23.0784L17.4094 23.0812C17.5214 23.096 17.6372 23.1085 17.744 23.0643C17.8499 23.0206 17.935 22.9387 18.0416 22.8952C18.1902 22.8341 18.4008 22.8487 18.477 23.0121C18.5498 23.1681 18.4504 23.3093 18.3343 23.4128C18.4926 23.4415 18.6314 23.5179 18.6432 23.6739C18.7592 23.6701 18.875 23.666 18.9911 23.6619C19.3953 23.6478 19.8015 23.6207 20.2059 23.6279C20.1967 23.5867 20.1926 23.5443 20.1921 23.5011C20.1919 23.477 20.1929 23.453 20.1947 23.4284C20.1977 23.3865 20.2254 23.3612 20.2663 23.3568L20.3576 23.3471L20.3882 23.344C20.5593 23.3278 20.7507 23.3244 20.8811 23.4376C20.9512 23.4988 21.0077 23.6394 20.9734 23.7333C21.0531 23.7606 21.1291 23.7956 21.1984 23.8399C21.3357 23.7938 21.4798 23.799 21.6179 23.847L21.6343 23.8529C21.7324 23.8889 21.8715 23.9572 21.9248 24.0546C21.7954 23.177 21.6209 22.3068 21.4017 21.4472C21.2617 21.104 21.0848 20.7758 20.8704 20.473C20.3302 19.7099 19.552 19.1852 18.8531 18.5819C18.7914 18.6498 18.725 18.7144 18.6628 18.7766L18.6365 18.8031C18.5099 18.9313 18.378 19.0539 18.243 19.1732C17.9611 19.4226 17.6643 19.6527 17.3696 19.8865C16.7756 20.3579 16.2386 20.8584 15.7918 21.4738C15.7838 21.4849 15.7615 21.4784 15.7677 21.4637C16.0742 20.7349 16.7095 20.1809 17.2867 19.6668C17.5902 19.3965 17.9008 19.1327 18.1926 18.8496C18.3287 18.7176 18.4604 18.5811 18.5848 18.438L18.6157 18.402C18.697 18.3069 18.8874 18.0163 19.0132 18.2259C19.0395 18.2698 19.0384 18.3259 19.0132 18.3698C18.9774 18.4322 18.932 18.4917 18.8824 18.5489C19.0588 18.6448 19.2316 18.7462 19.4006 18.8535C19.3909 18.8018 19.3933 18.7446 19.4023 18.6875L19.4053 18.6693L19.4176 18.5985C19.4352 18.494 19.4443 18.3968 19.378 18.2949C19.2951 18.1674 19.1389 18.1276 19.0144 18.0539C18.8709 17.969 18.796 17.8554 18.7192 17.7113C18.5722 17.4352 18.2399 17.3246 17.9543 17.2358L17.9184 17.2246C17.6545 17.1428 17.3691 17.099 17.1052 17.1777C17.13 17.2929 17.1624 17.4065 17.2028 17.5171C17.2459 17.6349 17.3443 17.7659 17.3342 17.8931C17.3273 17.9811 17.2217 18.0753 17.1341 18.008C17.01 17.9127 16.9852 17.7576 16.9519 17.6099C16.9198 17.467 16.8993 17.3206 16.8905 17.1744C16.8821 17.0335 16.8887 16.8927 16.906 16.7528L16.9194 16.65L16.9226 16.6261C16.9371 16.5222 16.9587 16.4132 17.0171 16.3318C17.0227 16.3239 17.0365 16.3238 17.039 16.3346ZM13.4387 15.7505C13.4406 15.7588 13.4419 15.767 13.4431 15.7752C13.4516 15.8102 13.4548 15.8439 13.4538 15.8777C13.4543 15.8899 13.4534 15.9022 13.4511 15.9143C13.4465 15.9541 13.4369 15.9949 13.424 16.0396C13.3964 16.1347 13.3648 16.2286 13.3295 16.3211C13.2597 16.504 13.1773 16.6785 13.0755 16.8458C12.8915 17.148 12.6576 17.3989 12.3818 17.6157C12.4342 17.6589 12.4853 17.7038 12.5366 17.7479C12.7843 17.9612 13.0254 18.1841 13.2589 18.413C13.6735 18.8194 14.0798 19.2334 14.4766 19.6573C14.6723 19.8663 14.8643 20.0781 15.0554 20.2913L15.0616 20.2985L15.0684 20.3066C15.1362 20.3886 15.2718 20.5843 15.373 20.5529C15.4241 20.537 15.4778 20.4608 15.5127 20.4244L15.5768 20.3575C15.5981 20.3351 15.6193 20.3126 15.6401 20.2898C16.0133 19.8809 16.3664 19.4562 16.6979 19.0123C16.8597 18.7958 17.016 18.5751 17.1667 18.3506C17.2442 18.2352 17.3202 18.1188 17.3947 18.0014C17.4668 17.8879 17.525 17.7658 17.6312 17.6811C17.7091 17.6189 17.8171 17.6759 17.7975 17.7779C17.7665 17.9384 17.6554 18.0742 17.5679 18.2099C17.4801 18.3463 17.3901 18.4814 17.2982 18.615C17.1212 18.8723 16.9365 19.1241 16.7453 19.3709C16.5806 19.5834 16.4087 19.7905 16.2323 19.9933L16.184 20.0485C15.9942 20.265 15.8079 20.4948 15.5981 20.6924C15.4103 20.8693 15.2052 20.8178 15.0341 20.6458C14.8177 20.4284 14.6167 20.1933 14.4085 19.968C13.9924 19.5177 13.572 19.0709 13.1472 18.6288L13.0075 18.4832C12.8447 18.3132 12.6826 18.1422 12.5247 17.968L12.5043 17.9453C12.3242 17.7426 12.1411 17.4887 11.885 17.3857C11.8665 17.3783 11.8733 17.352 11.8933 17.3557C12.0572 17.386 12.194 17.4686 12.3213 17.5673C12.4358 17.3778 12.5379 17.1782 12.6269 16.9739L12.5698 16.9491C12.1612 16.7725 11.7006 16.5944 11.2619 16.6231C11.0851 16.6346 10.8964 16.7016 10.7744 16.8343C10.6638 16.9546 10.6086 17.1168 10.5072 17.2449C10.391 17.3916 10.2394 17.4576 10.0534 17.4636L9.96301 17.4663C9.85899 17.4697 9.75924 17.4752 9.65374 17.4981C9.36787 17.56 9.06649 17.6606 8.82674 17.8324C8.73977 17.8947 8.64998 17.9804 8.60793 18.0747C8.56623 18.1683 8.55424 18.2777 8.55018 18.3786C8.54821 18.4278 8.56296 18.4928 8.55064 18.5399C8.55204 18.5345 8.55268 18.5374 8.55286 18.543C8.59118 18.5732 8.61728 18.6235 8.62012 18.6735C8.8591 18.5489 9.10649 18.4397 9.35869 18.3413C9.6395 18.2317 9.92902 18.1439 10.2186 18.0608C10.502 17.9794 10.7987 17.9458 11.0876 17.8878C11.1244 17.8804 11.1371 17.9301 11.1029 17.9432C10.7992 18.0599 10.5054 18.1982 10.1992 18.308C9.89315 18.4177 9.58939 18.5365 9.29222 18.6685C8.71783 18.9237 8.16299 19.2485 7.71047 19.6891C7.2685 20.1195 6.92759 20.6423 6.61054 21.168C6.29123 21.6974 6.00626 22.2461 5.75227 22.8097C5.24982 23.9246 4.87304 25.0969 4.62499 26.2943C4.38358 27.4595 4.2487 28.6664 4.29361 29.8574C4.31493 30.423 4.38401 30.9891 4.54466 31.5332C4.62141 31.7931 4.71748 32.0471 4.83886 32.2895C4.96687 32.5451 5.13933 32.7728 5.25621 33.0328C5.26582 33.0542 5.2695 33.0747 5.26897 33.0938C5.76748 33.5259 6.54778 33.2347 7.0873 32.9768C8.32873 32.383 9.54716 31.7332 10.7052 30.9875C11.8483 30.2515 12.9314 29.4301 13.9891 28.5775C13.9073 28.4931 13.8351 28.3985 13.7718 28.3128C13.6409 28.1359 13.5424 27.9354 13.4747 27.7262C13.3954 27.4812 13.3709 27.219 13.3934 26.9631L13.3998 26.8907C13.4213 26.649 13.4462 26.4037 13.4992 26.1675C13.4997 26.1645 13.5021 26.1632 13.5046 26.1632C13.5071 26.1632 13.5097 26.1647 13.5107 26.1675C13.6537 26.625 13.6652 27.1168 13.8257 27.5684C13.8904 27.75 13.9906 27.9254 14.1108 28.076C14.1627 28.1412 14.2235 28.1977 14.2856 28.253C14.2897 28.2248 14.2953 28.197 14.3037 28.1696L14.3104 28.1479C14.3188 28.1217 14.3291 28.0924 14.3434 28.0665C14.3232 28.0607 14.3035 28.0543 14.2841 28.0471C14.2687 28.0415 14.2654 28.0167 14.2841 28.0126C14.335 28.0008 14.3874 27.9949 14.4408 27.9924C14.4492 27.9911 14.4574 27.9909 14.4656 27.9914C14.5656 27.9883 14.6673 27.9955 14.7637 27.997C14.9306 27.9996 15.0971 28.0026 15.2637 28.01C15.5828 28.0238 15.943 28.085 16.2569 28.0108C16.5422 27.9433 16.8235 27.753 17.0522 27.574C17.2522 27.4175 17.4063 27.2316 17.5722 27.0462C17.5603 27.0481 17.5485 27.0498 17.5367 27.0515L17.4297 27.0661C17.2947 27.0842 17.1344 27.0983 17.0272 27.0334C16.9863 27.0086 16.9981 26.9523 17.0397 26.937C17.1491 26.8969 17.2849 26.9301 17.4014 26.9245C17.493 26.9201 17.5855 26.9104 17.6758 26.8915C17.7054 26.8853 17.7348 26.8782 17.764 26.8698C17.9777 26.8081 18.2288 26.5913 18.059 26.3545C18.0526 26.3455 18.0597 26.3373 18.0684 26.3358C18.0723 26.335 18.0764 26.3358 18.0797 26.3386C18.273 26.4987 18.1725 26.7856 17.9897 26.9086C17.9268 26.9511 17.8558 26.9807 17.7821 27.0025C17.7962 27.0283 17.7987 27.06 17.7819 27.0902C17.6387 27.3454 17.3964 27.5696 17.1693 27.75C16.9362 27.9351 16.6673 28.1097 16.3781 28.1916C16.0442 28.2857 15.6774 28.2149 15.3386 28.185C15.1551 28.1688 14.972 28.1496 14.7887 28.1284C14.7396 28.1228 14.6888 28.1185 14.6371 28.1136C14.6857 28.1775 14.7243 28.2512 14.7496 28.2954C14.8319 28.4391 14.756 28.6284 14.5965 28.6723C14.5798 28.677 14.5627 28.6795 14.5459 28.68C14.5029 28.7662 14.4006 28.8296 14.306 28.7971C14.2649 28.7831 14.2253 28.7639 14.1872 28.7409C13.5923 29.2636 12.9659 29.7541 12.3217 30.2139C11.1271 31.0665 9.87488 31.8452 8.57646 32.5298C8.284 32.684 7.9893 32.834 7.69211 32.9782L7.43631 33.1016C7.15317 33.2379 6.8634 33.3734 6.56271 33.458C6.50409 33.4745 6.4427 33.4878 6.37981 33.498C6.379 33.5037 6.3788 33.5091 6.37916 33.5142C6.32263 33.5218 6.27329 33.5229 6.23116 33.5177L6.22157 33.5163C5.853 33.5421 5.45876 33.4521 5.22165 33.1828C5.18212 33.2106 5.1245 33.2136 5.07365 33.1737C4.81792 32.973 4.66548 32.6674 4.5317 32.3757C4.39605 32.0797 4.28973 31.7713 4.2116 31.4553C4.05555 30.8242 3.99366 30.1732 3.9904 29.5241C3.9786 27.0226 4.60489 24.4991 5.69273 22.2533C5.96863 21.6838 6.27275 21.1248 6.61036 20.5894C6.94705 20.0555 7.33801 19.5592 7.8387 19.1698C7.98269 19.0578 8.13247 18.9555 8.28696 18.8612C8.18327 18.8098 8.14208 18.679 8.13482 18.5629C8.11872 18.3049 8.14945 18.0077 8.30043 17.7901C8.51224 17.4847 8.89139 17.2965 9.24296 17.2049C9.42649 17.1571 9.61634 17.1293 9.80564 17.1199C9.90325 17.115 10.0047 17.1311 10.1011 17.1205C10.1862 17.1113 10.2388 17.0605 10.2877 16.9937C10.4131 16.8226 10.4947 16.643 10.6745 16.5176C10.8589 16.3889 11.098 16.3396 11.3202 16.353C11.5791 16.3685 11.8153 16.4706 12.0433 16.5878C12.2491 16.6936 12.4489 16.8109 12.6436 16.9359C12.6793 16.8523 12.7129 16.768 12.7442 16.6834C12.8048 16.5194 12.8575 16.3503 12.9003 16.1808C12.9437 16.0089 12.9374 15.7819 13.0684 15.6527C13.1824 15.5403 13.4018 15.5844 13.4387 15.7505ZM22.2709 27.2189L22.27 27.2191C22.0049 27.3762 21.8782 27.7689 21.7534 27.9405C21.7636 27.998 21.7708 28.0566 21.7848 28.111C21.8171 28.2361 21.8592 28.3601 21.9081 28.4793C21.994 28.6898 22.1016 28.8902 22.201 29.0943C22.2811 29.2584 22.3595 29.4255 22.4205 29.5983C22.4138 29.6049 22.4077 29.6127 22.4025 29.6225C22.3364 29.7464 22.2846 29.722 22.1625 29.695L22.1624 29.6947C22.0926 29.481 21.9919 29.2802 21.9014 29.0751L21.8794 29.025L21.8576 28.9749C21.782 28.7994 21.713 28.6222 21.6728 28.434C21.6473 28.3141 21.6368 28.1908 21.6353 28.0683C21.5691 28.1228 21.4895 28.1619 21.3893 28.177C21.1749 28.2094 20.9807 28.0751 20.806 27.9673L20.7666 27.9432C20.6573 27.8766 20.5488 27.8151 20.4227 27.7837C20.2796 27.7479 20.1315 27.7479 19.9861 27.7297C19.9687 27.7274 19.9511 27.7251 19.9334 27.7223C19.9902 27.9103 20.0165 28.1144 20.0503 28.3026C20.0973 28.5665 20.1356 28.8327 20.1725 29.0982C20.244 29.6127 20.2939 30.1313 20.3192 30.6502C20.3437 31.1526 20.3313 31.6531 20.3132 32.1553L20.3041 32.4002C20.2968 32.5997 20.2909 32.7993 20.2944 32.9988C20.3041 32.9995 20.3138 33.0011 20.3235 33.0034C20.4243 33.0269 20.493 33.1297 20.5851 33.1755C20.7793 33.2721 21.0141 33.2708 21.2209 33.222C21.6913 33.1105 22.0824 32.7821 22.3401 32.3809C22.6494 31.8996 22.763 31.3332 22.7593 30.7665C22.7551 30.1287 22.6518 29.5189 22.5081 28.9032L22.4989 28.8639C22.3779 28.351 22.3021 27.2238 22.2709 27.2189ZM9.09878 25.9321C9.10147 26.1036 9.03173 26.2871 8.99341 26.4538C8.95214 26.6334 8.91098 26.813 8.86926 26.9925L8.83174 27.1533C8.80049 27.2874 8.76969 27.4215 8.74208 27.5563C8.71938 27.6672 8.70987 27.8133 8.67267 27.9355C9.11512 27.7565 9.55826 27.5793 10.0007 27.4009C10.5457 27.181 11.0933 26.9672 11.6396 26.7508C12.1839 26.5355 12.7251 26.2905 13.2804 26.1064C13.4126 26.0624 13.5021 26.2734 13.3755 26.3319C12.8115 26.5936 12.2148 26.7984 11.6371 27.0275L10.8013 27.3594C10.0352 27.6635 9.26849 27.9661 8.49796 28.2583C7.97311 28.4573 7.45031 28.6622 6.92213 28.8511C6.67032 28.9412 6.41623 29.0263 6.16567 29.1196C5.95578 29.1979 5.72876 29.314 5.65105 29.5395C5.64696 29.5513 5.63085 29.5465 5.63264 29.5344C5.66408 29.316 5.82619 29.1795 6.00895 29.0761C6.25153 28.9387 6.51797 28.8386 6.77403 28.7284L6.80888 28.7133C7.33176 28.4852 7.85886 28.2663 8.38752 28.0511C8.38228 28.0383 8.37918 28.0246 8.37895 28.0103L8.37744 28.0107C8.36783 27.9129 8.41265 27.8257 8.44488 27.7348L8.53735 27.4739C8.59896 27.3001 8.65424 27.1242 8.71117 26.9489C8.77071 26.7656 8.83081 26.5825 8.89081 26.3994C8.94164 26.2443 8.97579 26.0595 9.06274 25.9208C9.07322 25.9041 9.10211 25.9135 9.09878 25.9321ZM19.281 25.5464L19.2744 25.5797C19.2667 25.6186 19.2595 25.6579 19.2577 25.6972C19.2526 25.8003 19.2644 25.9033 19.2917 26.0028C19.3186 26.1013 19.3561 26.1964 19.4096 26.2836C19.4602 26.3657 19.5336 26.4302 19.5804 26.5143C19.5852 26.5232 19.5883 26.5322 19.5896 26.5409C19.6074 26.5335 19.6251 26.5268 19.6422 26.5214C19.7849 26.4762 19.9306 26.4383 20.0784 26.41L20.0549 26.4084L20.0398 26.4072C19.7929 26.3863 19.56 26.3055 19.6103 26.0171C19.6388 25.8541 19.7666 25.7448 19.9037 25.6674L19.9209 25.6579C19.9283 25.6537 19.936 25.6497 19.9434 25.6461C19.8194 25.6251 19.7294 25.5993 19.5773 25.5737C19.4786 25.5571 19.3797 25.5479 19.281 25.5464ZM8.002 21.9948C8.24476 22.4854 8.4274 23.0071 8.56519 23.5364C8.63172 23.792 8.68817 24.0501 8.73357 24.3103L8.74848 24.3971L8.75695 24.4443C8.79935 24.6762 8.85321 24.9274 8.79093 25.1537C8.77061 25.2276 8.6479 25.2569 8.61354 25.1769C8.5099 24.9355 8.52447 24.658 8.49443 24.3997C8.46286 24.1286 8.41978 23.8588 8.36609 23.5913C8.26297 23.0771 8.11823 22.5751 7.9569 22.0767L7.9389 22.0214C7.9252 21.9845 7.98487 21.9602 8.002 21.9948ZM17.3332 24.1897C17.2608 24.2237 17.1885 24.2549 17.1246 24.2861C17.1198 24.2887 17.1146 24.291 17.1095 24.2936C17.1818 24.2813 17.2545 24.2698 17.3271 24.259C17.3263 24.2355 17.3286 24.2122 17.3332 24.1897ZM20.1641 23.944C20.1532 23.9475 20.1436 23.9532 20.1353 23.961L20.1312 23.9651C20.1212 23.9744 20.1142 23.9854 20.1101 23.998C20.1037 24.0103 20.1007 24.0234 20.1012 24.0375L20.1049 24.0647C20.1097 24.082 20.1185 24.097 20.1312 24.1098L20.1519 24.1258C20.1658 24.1339 20.1808 24.1385 20.1966 24.1395L20.2035 24.1398L20.2242 24.1398C20.236 24.1394 20.2472 24.1364 20.2576 24.1309C20.2685 24.1274 20.2781 24.1217 20.2864 24.1139L20.2905 24.1098C20.3005 24.1005 20.3075 24.0895 20.3117 24.0769C20.3172 24.0664 20.3201 24.0553 20.3205 24.0434L20.3205 24.0375L20.3168 24.0103C20.3126 23.9951 20.3053 23.9817 20.2951 23.97L20.2905 23.9651L20.2698 23.9491C20.2559 23.941 20.241 23.9365 20.2251 23.9354L20.2182 23.9352H20.2035C20.1894 23.9346 20.1763 23.9376 20.1641 23.944ZM19.4989 23.9094C19.4446 23.9194 19.4138 23.9852 19.4275 24.0352C19.4427 24.0905 19.4953 24.1151 19.548 24.1075L19.5533 24.1066C19.6151 24.0953 19.6757 24.0997 19.7346 24.1214C19.7864 24.1405 19.8466 24.1 19.8603 24.0499C19.876 23.9928 19.8409 23.9433 19.7889 23.9241C19.6956 23.8896 19.5955 23.8916 19.4989 23.9094ZM8.72813 20.2767C8.85183 20.458 8.92906 20.699 9.00526 20.9063L9.01287 20.9269C9.09386 21.1446 9.17199 21.3641 9.24485 21.5848C9.39029 22.0253 9.57983 22.4862 9.61485 22.9516C9.62132 23.0374 9.48994 23.0719 9.45185 22.9958C9.34241 22.7769 9.28356 22.5488 9.2188 22.3142C9.15703 22.0905 9.09269 21.8675 9.02831 21.6445C8.96397 21.4216 8.90172 21.1981 8.83834 20.975C8.7767 20.7579 8.69088 20.5165 8.67677 20.2906C8.67493 20.2612 8.71392 20.2558 8.72813 20.2767ZM11.5201 18.8168C11.6852 18.9315 11.8204 19.0992 11.9602 19.2426C12.1019 19.3881 12.2418 19.5349 12.3803 19.6835C12.6119 19.9318 12.8392 20.1842 13.0741 20.4295C13.542 20.9183 14.0714 21.3681 14.7172 21.5979C14.8735 21.6535 14.805 21.9044 14.6484 21.8476C13.9878 21.608 13.4406 21.1651 12.9579 20.664C12.7079 20.4045 12.4785 20.1272 12.2548 19.8449C12.1502 19.7128 12.0463 19.5803 11.9439 19.4466L11.8826 19.3661C11.7538 19.1962 11.5963 19.0268 11.502 18.8349C11.4967 18.8241 11.5084 18.8087 11.5201 18.8168Z" fill="black"/>
</g>
<path fill-rule="evenodd" clip-rule="evenodd" d="M19.6396 10.5445C19.5766 9.99047 19.6582 8.83251 19.6637 8.76216C19.6982 8.31742 19.4898 6.56118 19.0959 6.723C18.4351 6.19987 17.5549 6.08436 16.7319 6.02918C15.0224 5.91454 13.2038 6.1777 11.8838 7.32816C11.231 7.92562 10.5954 8.79459 10.6465 9.69937C10.0534 10.557 9.21721 11.7334 9.95621 12.7361C10.2074 13.0564 10.6067 13.1757 10.9222 13.4183C11.557 13.9303 11.9552 14.665 12.5959 15.1739C14.2935 16.6994 17.176 17.018 18.8439 15.283C20.1336 14.0264 19.9251 12.1464 19.6982 10.5445C19.5457 9.46745 19.7626 11.6253 19.6396 10.5445Z" fill="white"/>
<path fill-rule="evenodd" clip-rule="evenodd" d="M14.4481 3.67988C14.9053 3.58762 15.3748 3.53022 15.8417 3.5475L15.8777 3.5489C16.229 3.56293 16.6739 3.59399 16.9803 3.79827C16.9979 3.78058 17.0263 3.7715 17.052 3.78377C17.4162 3.9576 17.8167 4.08328 18.2002 4.20816C18.5819 4.33243 18.9779 4.41447 19.3779 4.44754C19.5284 4.45999 19.6572 4.62251 19.5619 4.76828C19.5393 4.80302 19.5172 4.8381 19.4952 4.87328C19.532 4.86944 19.5688 4.86549 19.6055 4.86177C19.7266 4.84958 19.8475 4.97878 19.8404 5.09664C19.8359 5.17076 19.8279 5.24402 19.816 5.31639C19.8621 5.31542 19.908 5.32233 19.9523 5.34105C20.1765 5.43574 20.1609 5.70282 20.1441 5.90603C20.1209 6.18802 20.0154 6.48671 19.8196 6.69776C19.9658 6.84962 20.0693 7.03098 20.131 7.24637C20.1758 7.40365 20.2007 7.57118 20.1884 7.7349L20.1845 7.78392C20.1693 7.96159 20.139 8.1583 20.0112 8.28612C19.9456 8.35202 19.8648 8.37603 19.7877 8.36842C19.8343 8.77787 19.8642 9.18967 19.8923 9.60001L19.9055 9.79613C19.9682 10.7445 20.0154 11.699 20.003 12.649C19.9916 13.5367 19.8162 14.3984 19.2717 15.1192C18.7758 15.7755 18.0638 16.2594 17.2584 16.4433C16.8243 16.5426 16.3812 16.5496 15.9419 16.4864C15.7289 16.4556 15.5145 16.4085 15.3124 16.3341C15.0887 16.2515 14.9279 16.1299 14.7773 15.9477C14.7061 15.8613 14.7404 15.6774 14.8822 15.6947C15.0966 15.7207 15.2924 15.752 15.498 15.8155L15.5274 15.8247C15.7321 15.8903 15.9442 15.9393 16.1583 15.96C16.5968 16.0025 17.0419 15.9598 17.4619 15.8268C18.1458 15.61 18.7348 15.1271 19.1124 14.5202C19.5605 13.8009 19.6111 12.9843 19.6047 12.1572C19.5977 11.2496 19.5682 10.3415 19.52 9.43479L19.5118 9.28369C19.4863 8.81712 19.4617 8.35026 19.4401 7.8834C19.4334 7.73695 19.4231 7.58934 19.4046 7.44319C19.2357 7.34419 19.0842 7.20771 18.9855 7.0393C18.7873 7.1213 18.5787 7.18047 18.3868 7.22762C17.9424 7.33693 17.481 7.36346 17.0286 7.29502C16.9066 7.34542 16.7822 7.38974 16.6558 7.42787C16.6217 7.44301 16.5875 7.45789 16.5534 7.47248C16.2488 7.60281 15.9398 7.71323 15.6182 7.79407L15.5392 7.81377C15.37 7.85548 15.1862 7.89656 15.0061 7.90946C14.9765 7.92089 14.9446 7.93055 14.9097 7.93904C14.7457 7.97888 14.5755 7.99147 14.4074 7.97741C14.2437 7.96365 14.1253 7.79817 14.2156 7.64323C14.2814 7.53017 14.348 7.41741 14.415 7.30494C14.1816 7.40218 13.9406 7.48302 13.6975 7.55156C13.452 7.62068 13.2031 7.67896 12.9538 7.73256C12.8205 7.76097 12.6867 7.78616 12.5537 7.81457C12.4586 7.83478 12.3124 7.84532 12.2348 7.908C12.149 7.97683 12.1247 8.13733 12.0921 8.23633C12.0494 8.3649 12.0092 8.49407 11.9726 8.62469C11.8997 8.88536 11.84 9.14984 11.7937 9.41695C11.7474 9.68436 11.7163 9.9544 11.6991 10.2253C11.6818 10.4959 11.6894 10.7683 11.6616 11.0378C11.6466 11.1807 11.4932 11.2542 11.3798 11.1544C11.3666 11.1426 11.3532 11.1308 11.3399 11.1188L11.3201 11.1008C11.2231 11.0129 11.1291 10.9198 11.0515 10.8149C11.0375 10.7956 11.024 10.7754 11.0114 10.7549C11.0093 10.7549 11.0076 10.7543 11.0055 10.7528L10.984 10.7366C10.7472 10.5603 10.3514 10.3304 10.1204 10.6234C10.0468 10.7167 10.0092 10.8355 9.97788 10.9501L9.923 11.1553C9.8875 11.2892 9.85409 11.4239 9.83455 11.5609C9.79032 11.8678 9.81258 12.2216 10.0238 12.4677C10.1081 12.5661 10.2244 12.6364 10.3541 12.6548C10.4265 12.6648 10.498 12.6525 10.5697 12.6434C10.6427 12.6343 10.7129 12.649 10.7859 12.6419C10.9019 12.6305 10.9525 12.7693 10.9092 12.8566C10.8857 12.9035 10.8582 12.9439 10.8269 12.9782C10.852 12.9998 10.8761 13.0233 10.8992 13.0479C10.9678 13.0698 11.0292 13.117 11.0752 13.1794C11.1124 13.2298 11.1317 13.2845 11.135 13.3422C11.1391 13.3566 11.1426 13.3712 11.1458 13.3862L11.2087 13.4881C11.2225 13.5105 11.2363 13.5326 11.2501 13.5543C11.41 13.8062 11.5875 14.0194 11.808 14.2203C12.0204 14.4136 12.2509 14.5867 12.4504 14.7941L12.4739 14.8187C12.6598 15.0147 12.8559 15.2519 12.7831 15.5368C12.7643 15.61 12.6621 15.6628 12.5953 15.6133C12.3806 15.4539 12.2725 15.2015 12.0904 15.0082C11.9029 14.809 11.6953 14.63 11.5073 14.4315C11.3294 14.244 11.1892 14.0317 11.0834 13.798C11.0412 13.8445 10.9798 13.8776 10.8945 13.8905C10.7481 13.9125 10.6116 13.8267 10.5478 13.6998C10.5067 13.718 10.4649 13.7344 10.4227 13.7473C10.2007 13.8152 10.061 13.5683 10.1447 13.3859C10.1895 13.288 10.2455 13.2031 10.3149 13.1316C10.0979 13.1018 9.87702 12.9896 9.73438 12.8496C9.3765 12.4978 9.3273 11.9692 9.40784 11.4991C9.4506 11.2498 9.52438 10.9977 9.62018 10.7636C9.63685 10.7229 9.65475 10.6819 9.67434 10.6415C9.6635 10.6412 9.65237 10.6365 9.64534 10.6275C9.58062 10.539 9.50186 10.4667 9.4538 10.3677C9.40957 10.2769 9.36039 10.1849 9.32551 10.0903C9.25378 9.8967 9.21864 9.67821 9.19521 9.47348C9.14688 9.05436 9.16559 8.63787 9.22977 8.22139C9.33898 7.51202 9.60282 6.83316 9.99151 6.23749C9.97034 6.22637 9.95006 6.21294 9.93116 6.19707L9.92183 6.18893L9.90666 6.17522C9.79574 6.07485 9.80532 5.88673 9.90666 5.78507L9.93866 5.75298C9.97919 5.71272 10.0141 5.68082 10.0796 5.63698C10.0893 5.63051 10.0991 5.62442 10.1091 5.61874C10.0749 5.55541 10.063 5.48137 10.0868 5.39969C10.17 5.11512 10.5795 5.12519 10.839 5.24929C11.1261 4.99304 11.4445 4.77059 11.7896 4.59047C12.6114 4.16168 13.5407 3.86264 14.4481 3.67988ZM10.1998 11.1749C10.3533 11.1248 10.5571 11.2299 10.6951 11.2932C10.8699 11.3734 11.0187 11.4921 11.1628 11.6174C11.2346 11.6801 11.2474 11.7826 11.2296 11.8702C11.2278 11.879 11.2261 11.888 11.224 11.8971C11.205 11.9906 11.1007 12.0641 11.0084 12.0614C10.8154 12.0562 10.7235 11.8895 10.6142 11.7483C10.6014 11.7712 10.5853 11.7923 10.5653 11.8081L10.5518 11.8186C10.5065 11.8532 10.4565 11.8807 10.3966 11.8781C10.3541 11.876 10.3135 11.8652 10.2759 11.8456C10.1822 11.7961 10.1409 11.6748 10.1664 11.5761C10.1822 11.514 10.2185 11.4654 10.266 11.4317L10.2483 11.4196C10.2105 11.3933 10.1759 11.3655 10.149 11.3246L10.143 11.3149H10.1453C10.116 11.2645 10.1351 11.1959 10.1998 11.1749Z" fill="black"/>
<path fill-rule="evenodd" clip-rule="evenodd" d="M19.7484 12.0536C19.3928 12.421 18.7992 12.5265 18.3261 12.3294C17.1113 11.8219 17.7059 10.2388 18.6427 9.81368C18.7598 9.78451 18.9161 9.7153 19.0586 9.6996C19.0715 9.69328 19.0996 9.71158 19.1336 9.69427C20.1666 9.80961 20.4019 11.4132 19.7484 12.0536ZM15.8302 12.1476C15.4314 12.6766 14.6899 12.8398 14.0841 12.5939C12.8873 12.1226 13.3118 10.7188 14.1306 10.1685C15.8603 9.51854 16.5746 11.1723 15.8302 12.1476ZM13.2358 10.9756C13.2347 10.975 13.2336 10.9748 13.2324 10.9742C13.2388 10.9715 13.2451 10.9687 13.2514 10.9658C13.2493 10.9712 13.2471 10.9765 13.2451 10.9819C13.242 10.9797 13.2393 10.9772 13.2358 10.9756ZM20.5717 10.4038C20.4741 10.404 20.333 10.42 20.2522 10.4878C20.0529 9.8155 19.3171 9.19332 18.6772 9.647C18.1733 9.80905 17.7993 10.1685 17.5868 10.6463C17.2036 10.4183 16.6011 10.5157 16.2688 10.8171C16.0512 10.098 15.5156 9.84622 14.8782 9.80905C14.1824 9.69509 13.4889 10.3708 13.2725 10.9129C13.0926 10.8924 12.8237 10.8352 12.6545 10.9462C11.556 10.6581 9.63534 10.4993 9.41202 10.6593C9.25286 10.7204 9.16552 11.0961 9.38783 11.1163C9.58154 11.0888 9.36522 10.8411 9.56048 10.814C10.6009 10.7495 11.6109 10.9591 12.6403 11.047C12.7322 11.1706 13.0292 11.212 13.1876 11.1623C12.9381 12.0819 13.4767 12.7075 14.2838 12.8949C15.5334 13.1819 16.6207 12.064 16.2939 10.9013C16.6724 10.7129 17.1079 10.721 17.5203 10.8202C16.8312 13.3563 20.9157 13.2425 20.2777 10.5747C20.7023 10.7858 20.7945 10.4464 20.5717 10.4038Z" fill="black"/>
<path fill-rule="evenodd" clip-rule="evenodd" d="M17.3252 13.6C17.4257 13.4227 17.7255 13.4515 17.7713 13.6583C17.8643 14.0775 17.3644 14.4647 16.9847 14.4743C16.6074 14.4839 16.184 14.1628 16.2386 13.7571C16.2521 13.6568 16.3862 13.669 16.4319 13.7319L16.4496 13.756C16.5737 13.9227 16.7374 14.0953 16.9678 14.0546C17.0632 14.0378 17.1499 13.9782 17.2076 13.9014C17.2772 13.8088 17.2695 13.6982 17.3252 13.6ZM14.9259 10.5329C14.977 10.5188 15.0286 10.5242 15.0739 10.5435C15.1751 10.562 15.2596 10.6464 15.2893 10.7427C15.2916 10.751 15.2942 10.7592 15.2971 10.7674L15.3016 10.7796L15.2895 10.7487C15.2951 10.7791 15.3199 10.811 15.3288 10.8416C15.3397 10.8791 15.3424 10.9217 15.3387 10.963C15.3709 10.9633 15.403 10.9644 15.4351 10.9672L15.4661 10.97C15.6396 10.9861 15.8301 11.0156 15.9329 11.1655C15.9907 11.2498 15.9365 11.4014 15.8303 11.4177C15.667 11.4426 15.5263 11.3523 15.3635 11.3342C15.2096 11.317 15.0486 11.3268 14.8967 11.3546C14.5831 11.412 14.2949 11.5391 13.9894 11.6188L13.9477 11.6294L13.9478 11.6292C13.8954 11.6418 13.836 11.569 13.8878 11.5264C14.1326 11.3253 14.4461 11.1623 14.7549 11.0631C14.7099 10.9915 14.696 10.8973 14.7267 10.8204C14.7315 10.8045 14.7374 10.789 14.7436 10.7736L14.7566 10.7419C14.7579 10.7269 14.7607 10.7121 14.7649 10.6976L14.7656 10.6932L14.766 10.6934C14.7889 10.6187 14.849 10.5541 14.9259 10.5329ZM18.0494 10.5444C18.1163 10.4774 18.2104 10.4873 18.2803 10.54L18.2896 10.5473C18.3554 10.5766 18.4099 10.6405 18.4457 10.6998C18.4829 10.7613 18.5076 10.824 18.5086 10.8917C18.6706 10.8922 18.8259 10.9409 18.9449 11.0717C18.9833 11.114 19.0096 11.1791 18.9884 11.2364L18.9758 11.2704C18.9359 11.3786 18.7562 11.4408 18.6952 11.3136L18.6923 11.3074C18.6275 11.1564 18.3784 11.1723 18.2461 11.1877C18.1538 11.1985 18.0627 11.2215 17.9736 11.2471C17.9422 11.2562 17.9111 11.266 17.88 11.276L17.8489 11.2861C17.8324 11.2915 17.746 11.3384 17.7997 11.3273C17.8142 11.3243 17.825 11.3453 17.8103 11.3524C17.7463 11.383 17.678 11.322 17.6823 11.2533C17.6897 11.1339 17.8792 11.0684 17.9705 11.0273L17.9759 11.0248C18.0109 11.0086 18.0475 10.9931 18.0853 10.9787C18.0641 10.9471 18.0465 10.912 18.0319 10.8742C18.0181 10.8386 18.0088 10.804 18.0038 10.7661C17.9988 10.7476 17.9988 10.7291 18.0038 10.7106L18.0045 10.7053C18.0019 10.693 18.0007 10.6804 18.0009 10.6676L18.0004 10.6627H18.0009C18.0027 10.6181 18.0204 10.5734 18.0494 10.5444ZM16.9795 11.8157C17.2367 11.8952 17.6611 12.1117 17.5271 12.4459C17.3399 12.7529 16.8435 12.5273 16.6029 12.4281C16.3868 12.3565 16.2743 12.6594 16.4833 12.7507C18.2101 13.4339 18.2037 11.6309 17.0421 11.6574C16.9142 11.6603 16.9102 11.7893 16.9795 11.8157ZM14.6948 9.46476L14.7387 9.45196C14.9667 9.38591 15.1995 9.27186 15.4019 9.44982C15.4814 9.5197 15.4978 9.66492 15.4409 9.75208C15.3113 9.95069 15.1192 9.92034 14.9099 9.93727C14.7506 9.95016 14.5936 9.99696 14.4449 10.0555C14.3234 10.1033 14.2106 10.1706 14.1042 10.2457C13.9996 10.3195 13.9282 10.435 13.8209 10.5014C13.7816 10.5258 13.7362 10.5007 13.7221 10.4612C13.6721 10.3211 13.7566 10.1465 13.8281 10.0271C13.9154 9.88139 14.0481 9.76224 14.1907 9.67209C14.3468 9.57336 14.5195 9.51635 14.6948 9.46476ZM18.0173 9.31396C18.4027 9.31385 18.7735 9.52821 18.9891 9.84245C19.0624 9.94921 19.0087 10.1074 18.9035 10.1688C18.7856 10.2378 18.6594 10.1882 18.5817 10.0893L18.5771 10.0833C18.4535 9.91866 18.2941 9.789 18.1052 9.70459C18.013 9.66338 17.9111 9.62996 17.8114 9.613L17.7792 9.60748C17.734 9.59991 17.6816 9.59269 17.6408 9.59976C17.6189 9.60263 17.5988 9.60987 17.5803 9.62088C17.5892 9.64033 17.5662 9.66376 17.545 9.6521C17.4492 9.5995 17.461 9.50566 17.5401 9.43273C17.652 9.32955 17.8727 9.31399 18.0173 9.31396Z" fill="black"/>
</svg>
