<svg width="28" height="28" viewBox="0 0 28 28" fill="none" xmlns="http://www.w3.org/2000/svg">
<ellipse cx="14" cy="14" rx="14" ry="14" fill="#FBFF8A"/>
<mask id="mask0_2009_14403" style="mask-type:alpha" maskUnits="userSpaceOnUse" x="0" y="0" width="28" height="28">
<ellipse cx="14" cy="14" rx="14" ry="14" fill="#F9FF58"/>
</mask>
<g mask="url(#mask0_2009_14403)">
<path fill-rule="evenodd" clip-rule="evenodd" d="M11.1886 14.5095C12.8064 13.7364 13.9082 14.501 14.2078 15.5949C14.445 16.4604 14.3261 18.2484 14.8557 18.997C17.4834 21.9305 17.7654 26.7421 18.0434 31.0456C18.1576 33.1225 18.1765 35.2128 18.0974 37.3022C18.0902 37.4939 17.9387 37.6684 17.7933 37.6493C13.6487 37.0942 9.47573 36.8232 5.29632 36.7696C5.0505 36.7548 4.80354 36.7076 4.57964 36.5767C4.24114 36.7224 4.07042 36.1895 4.10372 35.8313C4.09261 35.5914 3.92292 35.4138 3.8016 35.2525C3.51308 34.8898 3.28785 34.4808 3.14984 33.9813C2.94976 33.3033 2.9667 32.5738 2.79373 31.8956C2.72101 31.5058 2.71087 31.1033 2.69153 30.7029C2.5968 30.2957 2.58799 29.8654 2.60431 29.4411C2.169 29.0269 2.45906 28.106 2.54267 27.5187C2.66291 26.8386 2.78782 26.1588 2.92953 25.4848C3.80745 20.8398 6.50406 18.3396 10.0171 17.6359C10.7499 17.104 10.9219 14.6369 11.1886 14.5095Z" fill="white"/>
<path fill-rule="evenodd" clip-rule="evenodd" d="M12.7471 21.9024L12.7696 21.9432L12.7925 21.9838C12.9535 22.2672 13.1366 22.5282 13.3242 22.7832L13.3779 22.8559L13.4296 22.9254L13.6932 23.2788L13.8109 23.4349C14.0467 23.7466 14.2852 24.0549 14.5212 24.366C15.1412 25.1833 15.7599 26.0018 16.3744 26.8262C16.6987 27.2609 17.0219 27.6974 17.343 28.1368C17.2643 28.1261 17.1839 28.1335 17.1036 28.1288C16.9742 28.1213 16.8454 28.1021 16.7188 28.0707C16.6743 28.0596 16.63 28.0469 16.586 28.033L16.553 28.0223L16.5202 28.0111L16.5198 28.0027L16.5195 28.0006C16.5182 27.9955 16.5128 27.9964 16.5102 28.0004L16.5094 28.0021L16.5089 28.0038L16.5085 28.0069L16.4758 27.995C16.3342 27.9427 16.1955 27.878 16.0598 27.8065C15.655 27.5931 15.2656 27.3273 14.8907 27.039C14.1614 26.4786 13.4853 25.8061 12.8749 25.0435C12.5414 24.6267 12.2261 24.1808 11.9186 23.731C11.9502 23.6401 11.98 23.5497 12.0109 23.4657C12.0815 23.2743 12.1503 23.0813 12.2183 22.8882L12.259 22.7723L12.3045 22.6421L12.3143 22.6134L12.3575 22.4844C12.4176 22.3059 12.4859 22.1266 12.6077 22.0113C12.6371 21.9837 12.6679 21.9595 12.6995 21.9364L12.7153 21.925L12.7471 21.9024ZM8.92303 18.585C9.05689 18.3298 9.27348 18.4038 9.46081 18.5057L9.46741 18.5093L9.49354 18.5239L9.51948 18.5388L9.59768 18.5848L9.63293 18.6058C9.81946 18.7194 9.99393 18.8599 10.1734 18.9899L10.2093 19.0157L10.1667 19.0365L10.1382 19.0507L10.1096 19.0651C9.89525 19.174 9.67946 19.307 9.52709 19.5323C9.49862 19.4848 9.45222 19.4535 9.40674 19.4275L9.39822 19.4227L9.35915 19.4011L9.22221 19.3232L8.9635 19.1767L8.95868 19.1741C8.91475 19.1512 8.81717 19.1215 8.78903 19.0743C8.77504 19.0512 8.77637 19.0228 8.78109 18.9941L8.78215 18.988L8.78689 18.9635L8.79037 18.9466L8.79432 18.9288C8.82176 18.8099 8.87019 18.6855 8.92303 18.585Z" fill="white"/>
<path fill-rule="evenodd" clip-rule="evenodd" d="M10.5509 16.5682L10.5704 16.5128C10.6886 16.1767 10.8058 16.1592 10.727 16.4876L10.7151 16.5371C10.6471 16.818 10.5689 17.1077 10.4334 17.3482C10.1998 17.7628 9.6551 17.8846 9.28857 18.0124C9.28897 18.0233 9.28821 18.0341 9.28657 18.0441C9.501 18.103 9.71471 18.2564 9.88609 18.4236C10.0429 18.577 10.1824 18.7465 10.2799 18.9657L10.8509 18.6902C11.0394 18.5995 11.2305 18.4892 11.4303 18.4614C11.712 18.4223 12.1263 18.6478 12.0614 19.1061C12.0529 19.1679 12.0199 19.212 11.9819 19.2322C12.0099 19.2311 12.0381 19.2321 12.0658 19.2353C12.2509 19.2565 12.4982 19.4911 12.3813 19.7695C12.3513 19.8413 12.2831 19.788 12.2818 19.7261C12.2733 19.319 11.9489 19.3919 11.7238 19.4427C11.5201 19.4884 11.3179 19.5479 11.1188 19.6239C10.9058 19.7053 10.6978 19.8132 10.5029 19.9569C10.3017 20.1055 10.1106 20.2894 10.0997 20.6132C10.0997 20.62 10.0913 20.6229 10.0894 20.6162C10.0106 20.3344 10.2216 20.0576 10.3877 19.9099C10.6282 19.6964 10.9026 19.5498 11.1772 19.4398C11.3183 19.3833 11.4628 19.3412 11.6073 19.3051L11.6407 19.2968C11.7255 19.2761 11.8137 19.2517 11.9015 19.2393C11.8702 19.2267 11.8445 19.1943 11.8359 19.1382L11.8348 19.1304C11.7553 18.4711 11.0496 18.9477 10.7676 19.086C10.5659 19.1848 10.3622 19.2787 10.1622 19.3844L10.1364 19.3982C9.98118 19.4817 9.81853 19.5817 9.70629 19.7514C9.41846 20.1858 9.60596 20.8125 9.65357 21.2956C9.66717 21.4341 9.67926 21.5809 9.67085 21.7216C9.66395 21.8368 9.62956 21.9434 9.60012 22.0527L9.5829 22.117C9.59408 22.1182 9.60446 22.1343 9.59963 22.1497C9.48144 22.5341 9.3017 22.8938 9.12696 23.2396C8.94867 23.5925 8.76605 23.9434 8.57273 24.2826C7.88514 25.4891 7.11544 26.6198 6.28496 27.6615C5.88685 28.1608 5.46173 28.623 5.07154 29.1333C4.89002 29.3708 4.71821 29.621 4.57021 29.8963C4.49029 30.045 4.41697 30.2 4.35307 30.3616L4.34044 30.3935C4.28809 30.5255 4.23758 30.6416 4.15015 30.744C4.10667 30.7951 4.02872 30.7668 4.02146 30.689C3.988 30.3231 4.20984 29.946 4.37168 29.6605C4.54635 29.3524 4.74527 29.0676 4.95436 28.7987C5.01349 28.7225 5.07347 28.6476 5.13409 28.5735C4.88095 28.6455 4.61924 28.6511 4.36355 28.692C4.10169 28.7337 3.84067 28.7869 3.58374 28.8728C3.34771 28.9516 3.12057 29.0616 2.90082 29.2039C2.79546 29.2723 2.69173 29.3482 2.5936 29.4344C2.58433 29.4424 2.57526 29.4511 2.56622 29.4594C2.68137 29.9646 2.76063 30.4857 2.84544 31.0015C2.90331 31.354 2.95926 31.7073 3.01468 32.0609L3.13902 32.8564C3.22875 33.4299 3.29346 34.0515 3.4852 34.5808C3.56796 34.8091 3.68679 35.0187 3.82759 35.1899C3.89582 35.2732 3.97189 35.3381 4.0511 35.4015C4.10095 35.4414 4.14397 35.4917 4.1896 35.5381C4.22497 35.4924 4.27561 35.466 4.33434 35.4827L4.3409 35.4847C4.52575 35.5465 4.72598 35.4723 4.90094 35.3757C5.08328 35.2747 5.26632 35.1539 5.42553 34.9969C5.73871 34.6876 6.00798 34.2937 6.27019 33.9138C7.20501 32.5582 8.02512 31.0591 8.7185 29.4796C9.07084 28.6763 9.40453 27.8577 9.72206 27.0309C9.88084 26.6179 10.0378 26.2038 10.1916 25.7876L10.2119 25.7319C10.3504 25.3498 10.4773 24.9334 10.6801 24.6021C10.6817 24.5991 10.6838 24.5968 10.686 24.5951C10.6871 24.5853 10.6901 24.5762 10.6944 24.5685C10.758 24.4557 10.8665 24.429 10.9622 24.3813C11.0701 24.3272 11.1777 24.2736 11.2853 24.2199C11.37 24.1775 11.4921 24.1452 11.5595 24.0585C11.6358 23.9609 11.6717 23.78 11.7142 23.6556C11.8105 23.3745 11.9127 23.0972 12.015 22.8196C12.1049 22.5758 12.1862 22.3131 12.3041 22.0883C12.4047 21.8965 12.5361 21.8008 12.6875 21.6968L12.7203 21.6743C12.7836 21.6304 12.8516 21.5773 12.8816 21.4889C12.9307 21.3446 12.8542 21.198 12.7675 21.1215C12.5746 20.9519 12.3182 21.1142 12.13 21.2387C11.9408 21.364 11.7541 21.5173 11.5547 21.6107C11.5503 21.6125 11.5479 21.604 11.5512 21.6005C11.7185 21.4252 11.9178 21.2852 12.1056 21.1463L12.1523 21.1116C12.277 21.0186 12.4179 20.9292 12.5614 20.9117C12.5329 20.8967 12.5455 20.8472 12.5739 20.8446C12.8557 20.8194 13.1347 20.8964 13.4166 20.8301C13.6682 20.771 13.8958 20.6029 14.0847 20.374C14.2629 20.1583 14.4098 19.9045 14.5484 19.6453C14.629 19.4944 14.708 19.3423 14.7894 19.1921C14.8016 19.1695 14.8139 19.1444 14.8266 19.1174C14.703 19.0702 14.583 18.9376 14.5039 18.8356C14.381 18.6774 14.2977 18.4694 14.2446 18.2549C14.1199 17.7512 14.1718 17.1888 14.326 16.6932C14.3354 16.6629 14.3701 16.6638 14.3746 16.6966C14.4359 17.1346 14.4115 17.6031 14.5264 18.0247C14.5724 18.1936 14.6423 18.3475 14.7321 18.4805C14.7777 18.5477 14.8245 18.6047 14.8827 18.6533C14.9451 18.7056 15.0141 18.7262 15.061 18.8055C15.0637 18.81 15.0662 18.8145 15.0685 18.8193C15.0994 18.816 15.1253 18.8236 15.1451 18.8424L15.1493 18.8466L15.1504 18.8448C15.062 18.7537 14.9731 18.6634 14.878 18.5825C14.8527 18.561 14.8754 18.5153 14.9016 18.5233L14.9665 18.5432C15.1835 18.6103 15.404 18.6848 15.5964 18.8277C15.8097 18.9866 16.0114 19.167 16.2018 19.3686C16.5769 19.7651 16.9113 20.2259 17.1965 20.7351C17.7227 21.6748 18.0636 22.7843 18.242 23.935C18.465 25.373 18.4857 26.8685 18.5196 28.3402C18.5357 29.0447 18.5451 29.75 18.5479 30.4557L18.5485 30.6481C18.5492 31.0111 18.5521 31.3736 18.5534 31.7357C18.5935 31.8356 18.5888 31.9506 18.5542 32.0483C18.5542 32.3417 18.5521 32.6352 18.5461 32.9294C18.5303 33.6885 18.5012 34.4491 18.4586 35.2082C18.4152 35.978 18.3404 36.7444 18.2799 37.5131C18.2546 37.8365 17.8819 37.8093 17.8985 37.4865C17.9429 36.6357 17.9558 35.7824 17.9821 34.931C18.0076 34.1 18.0355 33.2694 18.0547 32.4386C18.0564 32.3595 18.0584 32.2802 18.0606 32.2012C18.0044 32.2247 17.9362 32.2313 17.8781 32.2422L17.8637 32.245C17.7466 32.2691 17.6299 32.2842 17.5122 32.2901L17.4741 32.2917C17.3676 32.2939 16.8238 32.2714 16.5083 32.1721C16.496 32.7156 16.4839 33.2592 16.4744 33.8026C16.4636 34.4223 16.4266 35.0411 16.4071 35.6608C16.3975 35.9705 16.3903 36.2782 16.3989 36.5874C16.4028 36.7281 16.407 36.869 16.4139 37.0094L16.4177 37.0796C16.4243 37.2003 16.4358 37.3041 16.3898 37.4081C16.4139 37.5474 16.3495 37.7163 16.2125 37.6928C15.3342 37.5441 14.4502 37.4453 13.5639 37.3783C12.0336 37.2619 10.498 37.2359 8.96387 37.1845L8.54928 37.1704C7.11231 37.122 5.66802 37.0766 4.25583 36.7686C4.23601 37.0086 3.89479 36.9821 3.93172 36.7153L3.94071 36.651C3.98159 36.3609 4.02929 36.0607 4.11765 35.7848C4.06044 35.783 4.00336 35.7759 3.95121 35.7488C3.87706 35.7106 3.80777 35.6457 3.74548 35.582C3.60684 35.4406 3.49323 35.2704 3.39846 35.0765C3.21232 34.6959 3.10201 34.2527 3.02113 33.812C2.93521 33.3424 2.8597 32.8682 2.79141 32.3929L2.71812 31.8782C2.62518 31.2236 2.53542 30.5593 2.49942 29.8916C2.48949 29.9063 2.47638 29.9187 2.4596 29.9271C2.00193 30.1549 1.66288 29.5986 1.6259 29.0575C1.60417 28.7384 1.637 28.4156 1.663 28.096L1.66575 28.0617C1.6952 27.6935 1.72208 27.325 1.76205 26.9577C1.89515 25.7298 2.19654 24.552 2.61585 23.4287C3.01081 22.3715 3.47302 21.3103 4.03755 20.3861C4.3057 19.9472 4.60888 19.5288 4.96157 19.2056C5.33355 18.8652 5.74249 18.6152 6.1663 18.4179C6.59934 18.2162 7.04441 18.0639 7.4893 17.9218C7.98006 17.7651 8.47458 17.6354 8.97389 17.5549C9.01022 17.5491 9.04433 17.5654 9.06123 17.6098C9.07587 17.6489 9.0893 17.6888 9.10222 17.7292C9.1732 17.6785 9.27727 17.6722 9.34629 17.6498C9.56295 17.5787 9.94559 17.5537 10.1262 17.3697C10.3322 17.1601 10.4444 16.8692 10.5509 16.5682ZM2.48611 29.5401C2.45394 29.5737 2.42173 29.6073 2.38878 29.6387C2.43029 29.6193 2.46551 29.6366 2.48989 29.6711C2.48826 29.6274 2.48706 29.5837 2.48611 29.5401ZM12.7317 21.894C12.6837 21.9277 12.6363 21.9615 12.5922 22.003C12.4341 22.1527 12.3662 22.4103 12.289 22.6338L12.2841 22.648C12.1895 22.9184 12.0943 23.1893 11.9955 23.4573C11.9645 23.5414 11.9347 23.6317 11.9032 23.7226C12.2106 24.1725 12.5259 24.6183 12.8594 25.0351C13.4698 25.7977 14.1459 26.4702 14.8752 27.0306C15.2501 27.3189 15.6395 27.5847 16.0443 27.7981C16.1905 27.8751 16.34 27.9443 16.493 27.9985L16.4935 27.9954C16.4947 27.9881 16.504 27.9854 16.5043 27.9944L16.5047 28.0027C16.5703 28.0256 16.6366 28.0456 16.7033 28.0623C16.8299 28.0937 16.9587 28.1129 17.0881 28.1204C17.1684 28.1251 17.2488 28.1177 17.3275 28.1284C17.0064 27.689 16.6832 27.2525 16.3589 26.8178C15.7444 25.9934 15.1257 25.175 14.5057 24.3576C14.2305 23.9947 13.9516 23.6356 13.6778 23.2704L13.4142 22.9171C13.1812 22.6045 12.9502 22.2873 12.7541 21.9348L12.7317 21.894ZM9.58297 23.9719C9.56492 23.9376 9.59873 23.8979 9.6218 23.9276C9.75962 24.1044 9.92334 24.1892 10.0965 24.2912C10.1369 24.315 10.1275 24.4025 10.078 24.3981C9.86994 24.3787 9.69452 24.1884 9.58297 23.9719ZM11.9622 20.0201L11.9777 20.0132C12.196 19.9192 12.4731 19.8843 12.6213 20.148C12.7287 20.3394 12.7352 20.688 12.5674 20.8367C12.5271 20.8725 12.4496 20.834 12.4789 20.7585C12.563 20.5427 12.5976 20.2548 12.3873 20.1548C12.2048 20.0681 11.9753 20.1965 11.7975 20.2846L11.7466 20.3096C11.3998 20.4809 11.0524 20.6937 10.8195 21.0916C10.8133 21.1017 10.7995 21.0939 10.8039 21.0815C11.0083 20.4992 11.5297 20.2143 11.9622 20.0201ZM9.5822 18.5764L9.50401 18.5304C9.30504 18.4149 9.05567 18.2942 8.90756 18.5766C8.85207 18.6822 8.80146 18.8141 8.77489 18.9382L8.77142 18.9551C8.76381 18.9935 8.75457 19.0346 8.77356 19.0659C8.80278 19.1149 8.90689 19.145 8.94803 19.1684L9.20674 19.3149L9.33591 19.3883C9.39468 19.4218 9.47121 19.4565 9.51162 19.5239C9.68769 19.2635 9.94844 19.1265 10.1939 19.0073C9.99037 18.8624 9.79465 18.7007 9.5822 18.5764Z" fill="black"/>
<path fill-rule="evenodd" clip-rule="evenodd" d="M8.91326 18.5817C9.04713 18.3265 9.26372 18.4005 9.45104 18.5024L9.45764 18.506L9.48377 18.5206L9.50971 18.5355L9.58791 18.5815L9.62317 18.6025C9.80969 18.7161 9.98417 18.8566 10.1636 18.9866L10.1996 19.0124L10.157 19.0332L10.1284 19.0474L10.0999 19.0618C9.88548 19.1707 9.6697 19.3037 9.51733 19.529C9.48886 19.4815 9.44245 19.4502 9.39697 19.4242L9.38846 19.4194L9.34938 19.3978L9.21245 19.3199L8.95374 19.1734L8.94891 19.1708C8.90499 19.1479 8.8074 19.1182 8.77927 19.071C8.76528 19.0479 8.76661 19.0195 8.77132 18.9908L8.77238 18.9847L8.77713 18.9602L8.7806 18.9433L8.78456 18.9255C8.812 18.8066 8.86042 18.6822 8.91326 18.5817Z" fill="#D08B5B"/>
<path fill-rule="evenodd" clip-rule="evenodd" d="M12.7489 21.8642L12.7714 21.9051L12.7942 21.9457C12.9552 22.2291 13.1383 22.4901 13.326 22.7451L13.3797 22.8177L13.4314 22.8873L13.695 23.2406L13.8126 23.3968C14.0484 23.7085 14.287 24.0167 14.5229 24.3279C15.1429 25.1452 15.7616 25.9637 16.3762 26.7881C16.7004 27.2228 17.0237 27.6593 17.3447 28.0987C17.2661 28.0879 17.1857 28.0953 17.1054 28.0907C16.976 28.0831 16.8471 28.064 16.7206 28.0326C16.6761 28.0214 16.6318 28.0088 16.5878 27.9949L16.5548 27.9841L16.5219 27.973L16.5216 27.9646L16.5213 27.9624C16.5199 27.9574 16.5146 27.9583 16.512 27.9623L16.5112 27.9639L16.5107 27.9657L16.5102 27.9688L16.4775 27.9569C16.3359 27.9046 16.2472 27.4871 16.1114 27.4156C15.7067 27.2022 15.6299 26.4963 15.0266 26.3014C14.2973 25.7411 14.5669 25.4954 13.9565 24.7329C13.623 24.3161 13.3404 24.3765 13.0329 23.9266C13.0644 23.8357 12.5785 23.3247 12.6095 23.2406C12.6801 23.0492 12.1521 23.0432 12.2201 22.85L12.2608 22.7341L12.3063 22.604L12.3161 22.5753L12.3592 22.4462C12.4194 22.2678 12.4877 22.0885 12.6095 21.9732C12.6388 21.9456 12.6697 21.9213 12.7012 21.8983L12.7171 21.8868L12.7489 21.8642Z" fill="#E6E6E6"/>
</g>
<path fill-rule="evenodd" clip-rule="evenodd" d="M18.6664 9.56711C18.9444 9.32752 18.5299 8.53921 18.389 8.30465C18.2665 7.99867 18.144 7.69267 18.0215 7.38666C18.0364 7.13572 17.8322 6.91245 17.6304 6.9888C17.4548 6.83772 17.1608 6.91005 17.0716 7.14659C15.1305 6.13209 11.7718 6.55414 11.5981 9.68463C11.2226 10.5759 10.8505 11.4749 10.5173 12.3902C10.0551 12.42 9.83107 13.0939 10.1063 13.5294C10.1429 14.2365 10.5165 14.2925 11.0152 14.261C11.2155 14.3243 11.4232 14.3586 11.5734 14.5443C11.6876 14.6843 11.7652 14.8618 11.8401 15.034C12.1857 15.8288 12.6247 16.5162 13.2199 17.066C14.1455 17.8972 15.3985 18.494 16.5526 18.0894C19.0339 16.9201 19.5212 12.247 18.6664 9.56711Z" fill="white"/>
<path fill-rule="evenodd" clip-rule="evenodd" d="M13.4891 5.01309C15.1102 4.56128 16.9314 5.16761 18.0566 6.66143C18.1357 6.76639 18.1272 6.90302 18.0575 6.99156C18.09 7.02323 18.1218 7.05577 18.154 7.08832C18.1878 7.12262 18.1829 7.19152 18.154 7.22641C18.1255 7.26072 18.0661 7.26775 18.039 7.22641L17.9988 7.16578C17.9788 7.13549 17.9591 7.10509 17.94 7.07395C17.9168 7.08421 17.8941 7.09506 17.8714 7.10562C18.2151 7.37975 18.5017 7.7439 18.6982 8.18222C18.9107 8.65632 19.0463 9.16237 19.1345 9.68895C19.2918 10.6283 19.3146 11.5917 19.2935 12.5469L19.2924 12.598C19.2652 13.7494 19.1717 14.9198 18.7671 15.9785C18.4426 16.827 17.866 17.6072 17.143 17.9787C16.7267 18.1924 16.2791 18.2836 15.8268 18.2455C15.5884 18.2256 15.3506 18.1804 15.1185 18.1115L15.0628 18.0949C14.8513 18.0314 14.632 17.9577 14.4515 17.8125C14.2663 17.6632 14.3911 17.3668 14.5954 17.4029C14.8414 17.4466 15.0758 17.5697 15.3198 17.6336C15.5585 17.6964 15.8002 17.7292 16.0448 17.7207C16.4775 17.706 16.8716 17.5465 17.2293 17.2569C18.5968 16.1489 18.7629 13.9212 18.7986 12.121C18.8159 11.2414 18.789 10.3504 18.6205 9.49104C18.4585 8.66482 18.1797 7.85121 17.7851 7.14549C17.6981 7.18449 17.6111 7.21703 17.5185 7.22729C17.3535 7.34636 17.1572 7.34951 16.9663 7.34956L16.9397 7.34955C16.7411 7.34926 16.5425 7.33519 16.3448 7.31378C15.6453 7.23931 14.9255 7.0505 14.2223 7.17071L14.1936 7.17574C13.9041 7.228 13.5453 7.33766 13.3327 7.58763C13.1031 7.85737 13.257 8.36782 13.4388 8.52995C13.5563 8.63491 13.5929 8.87123 13.4388 8.96652C13.1343 9.15504 12.3974 9.05037 12.3146 9.15475C12.2152 9.27951 12.2221 9.46966 12.2193 9.63158L12.2191 9.64233C12.2088 10.1032 12.2183 10.5627 12.2508 11.0224C12.2821 11.4669 12.3532 11.9122 12.3691 12.3579C12.3745 12.5048 12.2266 12.5493 12.1458 12.4687C12.1299 12.4529 12.1135 12.4379 12.0972 12.4244C11.9503 12.2995 11.7834 12.2468 11.6043 12.2133C11.5949 12.2115 11.5876 12.2059 11.5823 12.1985L11.5802 12.1952L11.5611 12.2139C11.5982 12.2693 11.63 12.3321 11.6552 12.4025C11.6603 12.4165 11.6493 12.4344 11.6364 12.425C11.3886 12.2482 11.1189 12.1732 10.8337 12.2447C10.5772 12.3089 10.3451 12.5042 10.2698 12.8167C10.2007 13.1044 10.2515 13.436 10.4067 13.6726C10.6361 14.0232 11.0087 13.9916 11.3429 14.0077C11.4084 14.0109 11.4814 14.049 11.512 14.1241C11.5479 14.2126 11.5455 14.273 11.512 14.3613C11.5073 14.3739 11.5012 14.3853 11.4942 14.3956C11.5225 14.4237 11.5492 14.4544 11.5753 14.4858L11.6626 14.5913C11.7223 14.6636 11.7817 14.7366 11.8389 14.8113C12.007 15.0312 12.1651 15.2652 12.3139 15.5042L12.3276 15.5265C12.5019 15.8126 12.6827 16.2257 12.9848 16.316C13.0884 16.3471 13.1847 16.4084 13.2154 16.5429C13.2462 16.6775 13.1737 16.808 13.0762 16.8643C12.9071 16.9619 12.6926 16.8458 12.5531 16.7227C12.2522 16.4567 12.0556 16.0228 11.8709 15.6409L11.8202 15.5365C11.7251 15.3394 11.6321 15.14 11.5528 14.933C11.5076 14.8149 11.459 14.6976 11.4169 14.5777C11.4047 14.5428 11.3925 14.5073 11.383 14.4709C11.3695 14.4745 11.3559 14.4768 11.3429 14.4777C10.9395 14.5093 10.4751 14.4325 10.1836 14.0652C9.78166 13.5588 9.73451 12.6534 10.1912 12.1702C10.2393 12.1192 10.2935 12.0744 10.3522 12.036C10.2706 11.8703 10.2166 11.6783 10.1767 11.498C10.1186 11.2347 10.0861 10.9664 10.07 10.6949C10.0375 10.1411 10.0915 9.57724 10.2024 9.03923C10.6046 7.0892 11.8394 5.47282 13.4891 5.01309ZM10.5677 13.1049C10.4878 12.5494 11.4143 12.9602 11.6163 12.9989L11.6222 13C11.8539 13.0386 11.7248 13.5263 11.4967 13.381L11.4898 13.3764C11.3664 13.2916 11.2307 13.2308 11.1013 13.1589L11.0737 13.1433C10.9708 13.0841 10.6309 12.8182 10.5941 13.1049C10.5921 13.1208 10.5699 13.1205 10.5677 13.1049Z" fill="black"/>
<path fill-rule="evenodd" clip-rule="evenodd" d="M14.6594 13.2518C15.4367 13.2518 16.0667 12.7004 16.0667 12.0204C16.0667 11.3403 15.4367 10.7889 14.6594 10.7889C13.8822 10.7889 13.041 11.3179 13.041 11.998C13.041 12.2866 13.2684 12.7908 13.4583 13.0007C13.7161 13.2856 14.212 13.2518 14.6594 13.2518Z" fill="white"/>
<path fill-rule="evenodd" clip-rule="evenodd" d="M18.0104 13.0161C18.6054 13.0161 19.0877 12.5175 19.0877 11.9025C19.0877 11.2875 18.6054 10.7889 18.0104 10.7889C17.4154 10.7889 16.7715 11.2673 16.7715 11.8823C16.7715 12.1432 16.9455 12.5993 17.091 12.7891C17.2883 13.0466 17.6679 13.0161 18.0104 13.0161Z" fill="white"/>
<path fill-rule="evenodd" clip-rule="evenodd" d="M14.6399 14.0167C14.646 14.011 14.6558 14.009 14.6632 14.0137C14.7901 14.0939 14.8051 14.3637 14.8065 14.5195C14.859 14.5332 14.9108 14.5487 14.9598 14.5595C15.0639 14.5826 15.1686 14.6027 15.2731 14.6238L15.3514 14.64C15.6131 14.6951 15.8797 14.736 16.1464 14.7564C16.4052 14.7762 16.6715 14.7835 16.9296 14.7501C17.0405 14.7358 17.1506 14.7119 17.2577 14.6799C17.3843 14.6422 17.4852 14.5796 17.6029 14.5247C17.8977 14.3874 18.1447 14.7898 17.861 14.9663C17.6175 15.1178 17.2853 15.1725 17.0042 15.1959C16.7168 15.2199 16.4306 15.1936 16.1467 15.1481C15.8399 15.099 15.5393 15.0235 15.2482 14.914C15.1252 14.8677 15.0061 14.8116 14.8898 14.7502L14.8581 14.7334C14.8388 14.723 14.8187 14.7125 14.7984 14.7018C14.7766 14.8961 14.7139 15.0838 14.638 15.2642L14.6362 15.261C14.5947 15.4033 14.4448 15.4914 14.2957 15.4285C14.1207 15.3548 14.1074 15.1612 14.2092 15.0238L14.2141 15.0174C14.3338 14.8634 14.4089 14.6723 14.4741 14.4901C14.5075 14.3967 14.5385 14.3011 14.5653 14.2056C14.5848 14.1365 14.5855 14.0669 14.6399 14.0167ZM19.1501 12.4695C19.0464 12.783 18.8201 13.0244 18.5049 13.1306C18.1926 13.2358 17.8452 13.1975 17.5259 13.1406C17.456 13.1281 17.3852 13.1144 17.3145 13.0984C17.3724 13.1342 17.4235 13.1846 17.4723 13.2379C17.5446 13.3168 17.6102 13.3998 17.6301 13.4985C17.6498 13.5964 17.6187 13.6709 17.562 13.7271C17.4748 13.8136 17.3341 13.8602 17.2149 13.8859C16.9481 13.9436 16.6808 13.9346 16.4152 13.8755C16.3474 13.8604 16.3015 13.824 16.2756 13.7766C16.2443 13.719 16.2417 13.6474 16.2597 13.5821C16.2777 13.5169 16.3165 13.4568 16.3729 13.4235C16.4193 13.3962 16.4774 13.3886 16.5433 13.4106C16.6755 13.4546 16.8068 13.4837 16.9465 13.4871C17.0056 13.4884 17.0651 13.4867 17.1241 13.4813C17.1575 13.4782 17.1908 13.474 17.2239 13.4687C17.2044 13.4427 17.1855 13.4162 17.167 13.3895C17.1451 13.3579 17.1238 13.3259 17.1034 13.2934C17.0446 13.1992 16.9956 13.1023 16.9526 13.0001C16.9388 12.9674 16.926 12.9345 16.9137 12.9015C16.9119 12.8967 16.9102 12.892 16.9084 12.8872C16.9046 12.884 16.9009 12.8808 16.8971 12.8776C16.8129 12.8048 16.7424 12.7151 16.6924 12.604C16.5573 12.303 16.5793 11.9294 16.6613 11.6168C16.727 11.3663 16.8721 11.1346 17.0638 10.9772C17.0972 10.9221 17.1193 10.8887 17.1464 10.8606C17.2566 10.746 17.4103 10.6687 17.5603 10.6217C17.8953 10.5166 18.2601 10.592 18.5441 10.792C18.8063 10.9767 19.0116 11.2537 19.1225 11.5618C19.2276 11.8535 19.2481 12.1735 19.1501 12.4695ZM14.5869 10.5641C14.9853 10.5607 15.3907 10.6783 15.714 10.9137C16.0233 11.139 16.2661 11.4716 16.2658 11.8677C16.2655 12.2534 16.0593 12.6326 15.8307 12.9312C15.574 13.2665 15.2386 13.4281 14.8169 13.4318C14.5977 13.4338 14.3768 13.4144 14.1592 13.3877L14.0424 13.373C13.8816 13.3522 13.7192 13.3277 13.5668 13.2724C12.8413 13.0093 12.8188 12.0597 13.0875 11.4527C13.295 10.9841 13.8201 10.527 14.3436 10.5819C14.4225 10.5708 14.5035 10.5648 14.5869 10.5641ZM15.2598 11.0107C14.7608 10.7867 14.1546 10.8538 13.6707 11.0927C13.4789 11.3019 13.3388 11.5655 13.2821 11.8075C13.2216 12.0659 13.2304 12.3441 13.3215 12.5945C13.4326 12.9002 13.7063 12.9759 14.0016 13.0228L14.1162 13.0408L14.1643 13.0481C14.4544 13.0914 14.7716 13.1251 15.0503 13.0709C15.3611 13.0105 15.5584 12.7595 15.7137 12.5021L15.7209 12.49C15.8822 12.2204 16.0172 11.8925 15.882 11.5835C15.7669 11.3209 15.5157 11.1255 15.2598 11.0107ZM18.2046 11.0887C18.0334 10.9938 17.8381 10.9766 17.6532 11.0401C17.5737 11.0674 17.5049 11.1117 17.4383 11.1613L17.4117 11.1814C17.3298 11.2443 17.2532 11.2762 17.1917 11.3612L17.1838 11.3726C17.1528 11.4189 17.0985 11.4374 17.0491 11.4312C16.9915 11.5901 16.9677 11.7618 16.9672 11.9309L16.9672 11.9533L16.9675 11.9762C16.9712 12.176 17.0061 12.4205 17.1634 12.5545C17.3068 12.6766 17.524 12.706 17.7179 12.723L17.8673 12.7354L17.907 12.7384C18.1114 12.7526 18.3353 12.7478 18.5066 12.6268C18.6558 12.5214 18.7262 12.3426 18.7444 12.166C18.7875 11.7488 18.5764 11.2946 18.2046 11.0887ZM14.4776 11.1272C14.7524 10.987 15.0824 11.0221 15.3151 11.1979C15.2945 11.202 15.2741 11.2071 15.2538 11.2173C15.201 11.2438 15.1682 11.2968 15.1558 11.3532C15.1417 11.417 15.1747 11.4773 15.2377 11.4974C15.2924 11.5149 15.3574 11.5229 15.4083 11.4896C15.4349 11.4722 15.4535 11.4493 15.4658 11.4204L15.4675 11.4161L15.4696 11.413L15.4704 11.4115C15.4706 11.411 15.4697 11.412 15.4682 11.4144C15.4697 11.4108 15.4711 11.4072 15.4726 11.4035C15.4747 11.3992 15.4768 11.3948 15.4784 11.3902C15.4814 11.3877 15.4841 11.3848 15.4868 11.382C15.5291 11.447 15.5623 11.5205 15.5834 11.6023C15.7187 12.1269 15.1639 12.6714 14.6684 12.7259C14.4811 12.7465 14.3103 12.7019 14.1685 12.614C14.1698 12.6122 14.1713 12.6107 14.1724 12.6089C14.2294 12.6191 14.2973 12.5936 14.318 12.5301C14.3708 12.3681 14.3167 12.1786 14.1402 12.1257C14.0266 12.0917 13.9104 12.1293 13.8292 12.2069C13.7678 12.0567 13.7458 11.8875 13.7749 11.7181C13.8159 11.479 13.9601 11.2636 14.1845 11.1642C14.2937 11.1157 14.3879 11.1055 14.4776 11.1272ZM17.371 11.4509L17.3794 11.4378C17.4643 11.3071 17.6266 11.1468 17.7948 11.1909C17.8184 11.1971 17.8416 11.2071 17.8625 11.22C17.9549 11.2074 18.0516 11.2284 18.1311 11.2773L18.1289 11.2828C18.1286 11.2837 18.1283 11.2846 18.128 11.2856C18.1208 11.3174 18.125 11.3468 18.1398 11.376C18.1559 11.4076 18.1789 11.4376 18.21 11.4557C18.2313 11.4682 18.2564 11.4747 18.2809 11.4742C18.317 11.4736 18.3487 11.4577 18.3747 11.4335C18.3889 11.4204 18.3988 11.4011 18.4042 11.3813C18.4171 11.3936 18.4295 11.4073 18.4414 11.4229C18.6364 11.6793 18.6094 12.0914 18.3807 12.3199C18.3714 12.3291 18.3616 12.3375 18.3519 12.346C18.259 12.4738 18.1159 12.5606 17.9439 12.5782C17.7847 12.5944 17.6255 12.5474 17.5034 12.4508C17.5132 12.4456 17.5224 12.4388 17.5303 12.4299C17.5512 12.4063 17.5683 12.383 17.581 12.3542C17.5842 12.3469 17.5872 12.3396 17.5901 12.3322L17.5944 12.3211C17.5951 12.3191 17.6016 12.3003 17.5999 12.3036L17.5995 12.3044L17.6018 12.299C17.6236 12.2444 17.6148 12.1821 17.563 12.1479L17.5572 12.1443C17.5403 12.1345 17.5193 12.1298 17.498 12.1297C17.4451 12.0649 17.3663 12.05 17.2923 12.069L17.2897 12.0481C17.2893 12.0446 17.289 12.0411 17.2887 12.0376C17.2314 11.8475 17.2591 11.6316 17.371 11.4509ZM14.8262 9.53784L14.8452 9.53488C14.9892 9.51408 15.087 9.53803 15.1806 9.66101C15.2252 9.71962 15.2114 9.80814 15.1806 9.86804C15.0809 10.0616 14.8069 10.0216 14.6223 10.06C14.442 10.0975 14.2623 10.1485 14.0936 10.2228C13.9215 10.2987 13.76 10.3883 13.6025 10.4908C13.46 10.5834 13.3308 10.7227 13.1681 10.7766C13.1608 10.7791 13.1519 10.7725 13.1524 10.7647C13.164 10.5796 13.3186 10.4097 13.4383 10.2779C13.5768 10.1255 13.7453 9.99015 13.9207 9.88255C14.1017 9.77155 14.2974 9.68016 14.5 9.61642C14.6067 9.58285 14.7158 9.55617 14.8262 9.53784ZM17.0186 9.78916C17.1998 9.5242 17.6502 9.57501 17.916 9.64582C18.2493 9.73454 18.6103 9.914 18.844 10.1738C19.0533 10.4065 18.7402 10.7088 18.5048 10.513L18.442 10.4609L18.4018 10.4279C18.2211 10.2803 18.0422 10.1467 17.822 10.0483C17.5638 9.93303 17.3021 9.87686 17.0293 9.8154C17.0185 9.813 17.0122 9.79846 17.0186 9.78916Z" fill="black"/>
<path fill-rule="evenodd" clip-rule="evenodd" d="M20.3417 13.8608C19.9708 14.2135 19.3727 14.2945 18.9077 14.0778C17.7137 13.5199 18.3739 11.9611 19.3285 11.5747C19.4468 11.5503 19.606 11.4876 19.7492 11.4778C19.7623 11.472 19.7896 11.4915 19.8244 11.4756C20.8528 11.6336 21.0218 13.2473 20.3417 13.8608ZM16.4189 13.7927C15.9981 14.3053 15.2497 14.4379 14.654 14.1669C13.4764 13.646 13.9591 12.2595 14.8008 11.7429C16.5577 11.1644 17.2037 12.848 16.4189 13.7927ZM13.8725 12.5131C13.8714 12.5126 13.8703 12.5122 13.8691 12.5117C13.8756 12.5091 13.882 12.5066 13.8884 12.504C13.8862 12.5093 13.8837 12.5145 13.8815 12.5198C13.8785 12.5175 13.8759 12.5149 13.8725 12.5131ZM21.2335 12.2447C21.1358 12.2408 20.994 12.2511 20.9104 12.3155C20.7388 11.6348 20.0286 10.9821 19.3698 11.4094C18.8591 11.5506 18.4703 11.8946 18.2379 12.3638C17.8641 12.1199 17.2574 12.1924 16.9126 12.4801C16.7247 11.7519 16.1994 11.4779 15.5634 11.4143C14.8722 11.2716 14.1506 11.9187 13.9118 12.452C13.7327 12.424 13.4661 12.3556 13.2922 12.4597C12.2054 12.1261 10.291 11.8878 10.061 12.0387C9.89932 12.0932 9.79642 12.4653 10.0179 12.4947C10.2128 12.4752 10.0067 12.2185 10.2031 12.1995C11.2464 12.1781 12.248 12.4294 13.2739 12.5599C13.3607 12.6874 13.656 12.741 13.8165 12.6979C13.529 13.6073 14.0418 14.2553 14.8412 14.4761C16.0793 14.8149 17.2129 13.7418 16.9342 12.5653C17.3206 12.3926 17.7558 12.4187 18.1642 12.535C17.37 15.0431 21.46 15.0982 20.9323 12.4034C21.3482 12.6322 21.4545 12.2965 21.2335 12.2447Z" fill="black"/>
</svg>
