<svg width="28" height="28" viewBox="0 0 28 28" fill="none" xmlns="http://www.w3.org/2000/svg">
<ellipse cx="14" cy="14" rx="14" ry="14" fill="#C1F0FF"/>
<mask id="mask0_2009_14438" style="mask-type:alpha" maskUnits="userSpaceOnUse" x="0" y="0" width="28" height="28">
<ellipse cx="14" cy="14" rx="14" ry="14" fill="#C1F0FF"/>
</mask>
<g mask="url(#mask0_2009_14438)">
<path fill-rule="evenodd" clip-rule="evenodd" d="M20.3007 20.8705C20.0454 19.8805 19.8106 19.4608 19.3572 19.1167C18.933 18.7949 18.3138 18.5245 17.4103 18.3271C16.4692 18.1626 16.4426 17.6736 16.2066 16.8877C16.1378 16.6514 15.7967 16.5885 15.6495 16.7588C15.6287 16.7364 15.6071 16.7159 15.5847 16.6974C15.6047 16.5847 15.4406 16.2617 15.4461 16.1539C15.5033 15.0289 15.1353 14.4639 14.2166 14.2539C14.0168 14.2082 12.6598 14.1813 12.465 14.2352C11.6134 14.4706 10.7751 15.218 10.9034 16.1183C10.6361 16.4676 10.3744 16.6808 9.96203 16.7933C9.31979 16.8749 9.64241 25.9719 10.7578 31.4221C11.2364 33.7605 22.6798 29.7804 22.1627 28.6092C22.236 28.3945 22.1024 28.1586 22.1627 27.9369C22.2064 27.7765 22.3181 27.7101 22.3744 27.5513C22.4535 27.3277 22.3675 27.0278 22.2783 26.7997C22.2418 26.686 22.3456 26.5636 22.3744 26.4476C22.5111 25.9004 22.198 25.9486 21.9722 25.5828C21.9756 25.5817 22.0343 25.3205 22.034 25.3219C22.0686 25.1354 21.982 24.8965 21.9065 24.7409C21.8554 24.6357 21.7461 24.5699 21.6374 24.582C21.7468 24.2105 21.8852 23.9015 22.034 23.5437C22.2972 22.9129 22.5475 22.2531 22.9254 21.6822C23.0802 21.4484 22.9552 21.2333 22.7048 21.2174C21.8941 21.1659 21.0923 21.0492 20.3007 20.8705Z" fill="white"/>
<path fill-rule="evenodd" clip-rule="evenodd" d="M19.034 20.9469L17.1836 24.0781C17.1836 24.0781 17.6226 24.1219 17.8002 24.2073C17.9779 24.2926 18.7936 25.3294 18.7936 25.3294L18.9232 25.9004L18.6161 26.3607L18.7358 26.6497C18.7358 26.6497 18.8213 26.4539 19.034 26.3019C19.2468 26.1499 19.716 25.9004 19.716 25.9004C19.716 25.9004 19.56 25.817 19.56 25.7191C19.56 25.6211 19.4227 25.2034 19.716 25.0456C20.0092 24.8878 21.5246 24.5185 21.5246 24.5185L23.0603 21.2795L19.034 20.9469Z" fill="#FF8DAC"/>
<path fill-rule="evenodd" clip-rule="evenodd" d="M10.7797 16.8146L16.6554 17.8457L19.3564 19.1167L19.7973 19.4563L17.184 24.0782L13.1489 24.8143L12.1208 27.4842L12.3307 30.4938L18.895 29.7112L21.7266 29.3748L22.3922 32.0617L22.272 33.167L22.0971 33.7275L15.0775 35.6224C15.0775 35.6224 11.503 35.276 10.8693 35.276C10.2357 35.276 5.58999 35.7373 5.58999 35.7373L4.5151 35.6224C4.5151 35.6224 2.1369 33.1162 1.76804 32.2243C1.39919 31.3323 0.601562 25.9102 0.601562 25.9102L0.689389 25.0771L2.7441 19.79C2.7441 19.79 3.01848 19.5409 3.36439 19.1167C3.71031 18.6925 10.7797 16.8146 10.7797 16.8146Z" fill="#9DDADB"/>
<path fill-rule="evenodd" clip-rule="evenodd" d="M21.4145 24.4518C20.8835 24.4788 20.3519 24.605 19.8716 24.8337C19.6751 24.9275 19.497 25.0628 19.4449 25.2854C19.4185 25.399 19.425 25.5165 19.439 25.6313C19.4496 25.7183 19.4522 25.8293 19.5278 25.8881C19.5407 25.8981 19.5544 25.9057 19.5688 25.9113C19.3916 25.9912 19.2228 26.0873 19.0729 26.1863C18.9358 26.2768 18.795 26.4162 18.7317 26.5735C18.7264 26.5556 18.7212 26.539 18.7159 26.5231C18.6081 26.2045 18.442 25.9435 18.1805 25.768C18.1508 25.6598 17.832 25.194 17.536 25.2116C17.2117 25.2306 16.9509 25.2543 16.6577 25.4034C16.5509 25.4011 16.4442 25.4025 16.3388 25.4072C16.3207 25.4078 16.3215 25.4324 16.3388 25.4344C16.4243 25.4453 16.5099 25.4573 16.5954 25.4714C16.7986 25.5039 17.0013 25.5452 17.1996 25.5964C17.4374 25.658 17.6835 25.7197 17.9058 25.8272C18.3369 26.0361 18.6037 26.582 18.5489 27.057C18.5399 27.135 18.5097 27.3704 18.4016 27.3461C18.3102 27.3256 18.2739 27.135 18.242 27.0644C18.1565 26.8769 18.0024 26.7545 17.8176 26.6716C17.6006 26.5741 17.3683 26.5082 17.1433 26.4315C17.016 26.3878 16.8886 26.3442 16.7609 26.3008C16.6302 26.256 16.5061 26.1942 16.3669 26.2255C16.2829 26.2446 16.2732 26.3447 16.3204 26.4022C16.3921 26.4897 16.4987 26.5155 16.6021 26.5515C16.7386 26.599 16.8748 26.6464 17.011 26.6939C17.2215 26.7671 17.4421 26.8289 17.6474 26.9185L17.641 26.9332C17.6243 26.9285 17.6046 26.9452 17.6079 26.9657C17.6386 27.1552 17.6814 27.3742 17.6339 27.5641C17.5965 27.7146 17.4643 27.8813 17.2927 27.837C17.3197 27.8124 17.3297 27.7699 17.3115 27.7307C17.2435 27.5854 16.3532 27.0119 16.2738 27.2249C16.2712 27.2325 16.2793 27.238 16.2858 27.2369C16.3535 27.2228 16.4668 27.3382 16.521 27.3748C16.5992 27.4276 16.6785 27.4791 16.7559 27.5333C16.8405 27.5925 16.9231 27.6546 17.0037 27.7187C17.0669 27.7691 17.1147 27.8215 17.1873 27.847C17.1492 27.8651 17.119 27.8988 17.1062 27.9419C17.0734 28.054 17.0101 28.1492 16.9003 28.1987C16.7852 28.2503 16.6554 28.2178 16.5342 28.2304C16.369 28.247 16.2249 28.3256 16.1045 28.4377C15.8517 28.6738 15.7249 29.0897 15.3714 29.2013C15.1602 29.2678 14.9259 29.2259 14.7121 29.1957C14.4734 29.162 14.2409 29.1354 14.0004 29.1705C13.7702 29.2042 13.5526 29.2839 13.3423 29.3811C13.1452 29.4722 12.9273 29.5753 12.7524 29.7112C12.7164 29.6002 12.6801 29.4903 12.6525 29.377C12.5875 29.109 12.5524 28.836 12.5439 28.5607C12.536 28.2986 12.5506 28.0353 12.5731 27.7743C12.5843 27.644 12.6019 27.5142 12.613 27.3839C12.6159 27.3511 12.6218 27.316 12.6262 27.2808C12.9384 27.0966 13.2664 26.9554 13.5971 26.8102C13.598 26.8099 13.5989 26.8093 13.5997 26.809C13.61 26.8043 13.6199 26.7999 13.6302 26.7955C13.6299 26.7949 13.6296 26.7944 13.629 26.7937C13.6668 26.7706 13.6932 26.7398 13.709 26.7053C14.1855 26.3893 14.5838 25.9579 14.8808 25.4547C15.0053 25.2438 15.1251 25.025 15.2879 24.8402C15.4613 24.6431 15.6672 24.5259 15.922 24.465C16.2199 24.3936 16.5268 24.3508 16.832 24.3265C16.9987 24.3133 17.1849 24.2928 17.3666 24.2937C17.4931 24.2945 17.6169 24.3054 17.7306 24.3367C17.899 24.383 17.9974 24.511 18.1032 24.6404C18.2042 24.7646 18.3047 24.8891 18.399 25.0186C18.4883 25.1413 18.5727 25.2681 18.6459 25.4011C18.6898 25.4807 18.7305 25.5628 18.7648 25.6474C18.7768 25.6773 18.7926 25.7112 18.7999 25.7423C18.8073 25.7736 18.7938 25.8067 18.8289 25.8067C18.684 25.8088 18.5876 26.1703 18.7317 26.1618C18.9343 26.15 19.0362 25.9071 18.9965 25.6916C18.9256 25.3071 18.5431 24.8428 18.4675 24.7444C18.3002 24.5271 18.1278 24.2436 17.8601 24.1425C17.8563 24.1411 17.8522 24.1396 17.8484 24.1384C17.9263 24.0646 17.9878 23.9762 18.0466 23.8862C18.1073 23.7937 18.1796 23.6877 18.1995 23.5778C18.2121 23.5079 18.1251 23.468 18.0838 23.5292C18.0238 23.6186 17.9948 23.7316 17.95 23.8298C17.9043 23.9293 17.8486 24.0233 17.8047 24.1238C17.699 24.0913 17.5848 24.0764 17.4685 24.0714C17.6152 23.8728 17.8659 23.4897 17.8961 23.4405C18.0349 23.2126 18.167 22.9777 18.2932 22.7425C18.4297 22.4877 18.5466 22.2224 18.6772 21.9646C18.7513 21.8185 18.826 21.6711 18.9083 21.5294C18.9367 21.4808 18.9672 21.4321 19.0017 21.3879C19.0085 21.3792 19.017 21.3718 19.0249 21.3636C19.034 21.3586 19.0433 21.3531 19.0486 21.3502C19.096 21.3229 19.1127 21.2597 19.1461 21.2195C19.1994 21.1548 19.2621 21.1472 19.3424 21.1463C19.5134 21.1445 19.685 21.1513 19.8558 21.156C20.1068 21.163 20.3575 21.1729 20.6082 21.1861C20.6841 21.1902 20.7596 21.1943 20.8355 21.199C21.2001 21.2207 21.5645 21.2491 21.928 21.284C22.2496 21.3147 22.5711 21.3648 22.893 21.3888C22.4572 22.4242 21.974 23.4408 21.4268 24.422C21.4213 24.4319 21.4171 24.4419 21.4145 24.4518ZM18.9965 27.1191C18.9262 27.1514 18.8579 27.1915 18.7944 27.2372C18.8049 27.166 18.8076 27.091 18.8046 27.0157C18.8571 27.072 18.9241 27.1042 18.9965 27.1191ZM21.9971 25.3381C21.9921 25.3387 21.9874 25.3413 21.9851 25.3463C21.8878 25.5469 21.9285 25.771 22.0873 25.9283C22.1705 26.0103 22.3518 26.1028 22.3459 26.2375C22.3409 26.3465 22.2223 26.4379 22.1717 26.5278C22.1245 26.6116 22.1069 26.7035 22.1447 26.7944C22.193 26.9106 22.3281 26.9569 22.3743 27.0711C22.4329 27.2161 22.3377 27.391 22.2709 27.5172C22.2089 27.634 22.1286 27.7509 22.0753 27.8745C21.7183 28.0593 20.9081 28.395 20.8106 28.4137C20.6917 28.4368 20.5725 28.4588 20.453 28.4793C20.2236 28.5191 19.9937 28.556 19.7632 28.5886C19.632 28.607 19.5005 28.6252 19.369 28.6395C19.2542 28.6518 19.1248 28.6685 19.0322 28.5821C18.8456 28.4075 18.9502 28.115 19.0682 27.9386C19.0706 27.9351 19.0706 27.9319 19.0697 27.929C19.181 27.9029 19.292 27.8724 19.4027 27.8511C19.6156 27.8101 19.83 27.7755 20.0447 27.7448C20.4858 27.6818 20.9298 27.6402 21.3732 27.5983C21.483 27.5878 21.4842 27.415 21.3732 27.4252C20.7362 27.4835 20.096 27.5388 19.4674 27.6616C19.3099 27.692 19.1534 27.7266 18.9979 27.7655C18.9244 27.7837 18.8456 27.8121 18.7686 27.813C18.7639 27.813 18.7592 27.813 18.7545 27.8127C18.6037 27.808 18.5817 27.6789 18.6646 27.5714C18.6749 27.5582 18.6854 27.545 18.6963 27.5324C18.8427 27.3578 19.0251 27.2413 19.2132 27.1206C19.4238 27.0919 19.6338 27.028 19.84 26.9812C20.349 26.8652 20.8581 26.7492 21.3674 26.6335C21.4672 26.6107 21.4248 26.4572 21.3249 26.4798C20.9383 26.5674 20.5517 26.6549 20.1651 26.7425L19.5992 26.8708C19.4862 26.8962 19.345 26.9475 19.212 26.966C19.1464 26.975 19.0829 26.9762 19.0255 26.9628C18.8401 26.9188 18.8307 26.6871 18.9107 26.5495C19.0003 26.3949 19.1696 26.2982 19.3198 26.2106C19.5802 26.0586 19.8573 25.9493 20.1279 25.8234C20.1759 25.8129 20.224 25.8023 20.272 25.7918C20.5514 25.7303 20.8707 25.7001 21.1337 25.5874C21.2125 25.5539 21.1694 25.4298 21.0915 25.4315C20.8873 25.4359 20.6738 25.5086 20.4744 25.5516C20.2585 25.5985 20.0424 25.645 19.8265 25.6916C19.8048 25.6963 19.6766 25.7373 19.6572 25.7282C19.6449 25.7224 19.6405 25.6796 19.6364 25.6515C19.6232 25.5589 19.6136 25.4617 19.6279 25.3688C19.6596 25.1606 19.8332 25.0628 20.009 24.9828C20.4003 24.805 20.8294 24.6938 21.2564 24.6492C21.3548 24.639 21.4532 24.6326 21.5522 24.6293C21.6684 24.6258 21.7642 24.6053 21.8231 24.7198C21.9157 24.9002 21.9666 25.1322 21.9971 25.3381ZM21.4537 31.8796C21.3684 31.5847 21.3916 31.2698 21.3332 30.9691C21.3031 30.8139 21.2619 30.66 21.217 30.5085C21.1807 30.3861 21.1203 30.256 21.1134 30.1283C21.113 30.1197 21.123 30.1148 21.1299 30.1187C21.2502 30.1876 21.3426 30.3366 21.4112 30.4534C21.4933 30.5933 21.556 30.7397 21.6066 30.8937C21.7074 31.2004 21.7902 31.5704 21.6602 31.8796C21.6215 31.9716 21.4856 31.99 21.4537 31.8796ZM18.1262 34.1118C17.9992 34.0232 17.9066 33.8992 17.7989 33.7898C17.6929 33.6823 17.8585 33.5166 17.9645 33.6242C18.0565 33.7175 18.1363 33.834 18.2445 33.9095C18.2966 33.9458 18.3207 34.0114 18.2865 34.0698C18.2564 34.1213 18.1782 34.1481 18.1262 34.1118ZM17.4177 30.7042C17.6496 30.6039 17.8777 30.4947 18.1205 30.4225C18.2655 30.3793 18.327 30.6055 18.1828 30.6484C17.9592 30.7149 17.7495 30.8142 17.536 30.9065C17.3988 30.9658 17.2797 30.7639 17.4177 30.7042ZM14.9683 30.634C14.9115 30.4941 15.1383 30.4338 15.1942 30.5717C15.2586 30.7305 15.3323 30.8853 15.3967 31.0441C15.4533 31.184 15.2266 31.2444 15.1707 31.1064C15.1064 30.9476 15.0326 30.7928 14.9683 30.634ZM12.5506 33.4287C12.5129 33.4791 12.4499 33.5064 12.3904 33.4708C12.3405 33.4409 12.3101 33.3615 12.3483 33.3105C12.46 33.1616 12.5731 33.0146 12.704 32.8819C12.8101 32.7743 12.9757 32.9401 12.8697 33.0476C12.7528 33.1661 12.6504 33.2958 12.5506 33.4287ZM12.205 17.7478C12.3125 17.8213 12.4067 17.9105 12.4986 18.0023C12.6054 18.1091 12.4397 18.2747 12.3329 18.168C12.2555 18.0906 12.1774 18.012 12.0867 17.9501C12.0343 17.9143 12.0108 17.8478 12.0447 17.7898C12.075 17.7379 12.1527 17.7121 12.205 17.7478ZM15.7223 21.5183C15.6615 21.6401 15.6067 21.7595 15.6033 21.8978C15.5996 22.0486 15.3653 22.0487 15.369 21.8978C15.3735 21.7167 15.4402 21.5597 15.5199 21.4001C15.5874 21.265 15.7894 21.3838 15.7223 21.5183ZM17.0128 18.4901C17.1387 18.4061 17.2559 18.6092 17.1311 18.6924C17.0299 18.7599 16.9286 18.8274 16.8274 18.8949C16.7015 18.9788 16.5843 18.7758 16.7091 18.6925C16.8103 18.6251 16.9116 18.5576 17.0128 18.4901ZM11.4153 23.7847C11.3938 23.9336 11.168 23.8699 11.1893 23.7224C11.2223 23.4945 11.2625 23.2696 11.3243 23.0476C11.3648 22.9023 11.5907 22.9644 11.5502 23.1099C11.4884 23.3319 11.4482 23.5568 11.4153 23.7847ZM10.5938 26.4687C10.4429 26.4655 10.4429 26.2312 10.5938 26.2344C10.7302 26.2373 10.8644 26.2732 10.9961 26.3061C11.1425 26.3427 11.0801 26.5686 10.9338 26.532C10.8225 26.5042 10.7092 26.4712 10.5938 26.4687ZM10.2905 31.8754C10.2387 31.9006 10.1855 31.9233 10.1332 31.9473C10.0283 31.9952 9.92345 32.0432 9.81866 32.0914C9.60034 32.1916 9.38214 32.2921 9.16414 32.393C8.72774 32.595 8.28797 32.7899 7.85052 32.9897C7.40442 33.1935 6.9595 33.4 6.51513 33.6075C6.30578 33.7053 6.09484 33.7994 5.88431 33.8946C5.7043 33.976 5.4818 34.1183 5.28419 34.1316C5.27402 34.1323 5.27063 34.1195 5.27642 34.1129C5.35108 34.028 5.47017 33.9786 5.56829 33.9234C5.66851 33.867 5.77061 33.814 5.87224 33.7602C6.08412 33.6479 6.29626 33.5366 6.51018 33.4282C6.93809 33.2117 7.36682 32.9967 7.79563 32.782C8.23297 32.563 8.66975 32.3426 9.11093 32.1314C9.31864 32.0319 9.52656 31.9328 9.7346 31.8339C9.8473 31.7804 9.96006 31.7269 10.0728 31.6736C10.1215 31.6505 10.1697 31.6256 10.2195 31.605C10.2857 31.5776 10.336 31.5832 10.4042 31.5664C10.5155 31.5389 10.5637 31.6804 10.4783 31.742C10.4079 31.7928 10.3709 31.8362 10.2905 31.8754ZM8.72628 34.278C8.70223 34.2196 8.75258 34.1485 8.80811 34.1339C8.87463 34.1164 8.92796 34.1568 8.95224 34.2157C9.01647 34.372 9.10797 34.5153 9.22574 34.6364C9.331 34.7446 9.1654 34.9103 9.06005 34.8021C8.91247 34.6503 8.80644 34.4729 8.72628 34.278ZM7.5755 30.517C7.46868 30.4102 7.6344 30.2446 7.74118 30.3513L8.04485 30.655C8.15166 30.7618 7.98592 30.9275 7.87916 30.8207L7.5755 30.517ZM4.46006 30.0219C4.24174 30.086 3.98711 30.1448 3.83826 30.3311C3.831 30.3402 3.81879 30.3285 3.82315 30.3194C4.0137 29.9244 4.56017 29.7858 4.93852 29.6474C5.20613 29.5495 5.48071 29.4683 5.75761 29.3958C5.72993 29.0799 5.80626 28.7414 5.83279 28.4271C5.86111 28.0915 5.88416 27.755 5.896 27.4184C5.90809 27.0749 5.91102 26.7292 5.89972 26.3857C5.88847 26.0435 5.84404 25.7054 5.82459 25.3643C5.82272 25.3314 5.86864 25.3298 5.87854 25.357C5.99353 25.6736 6.04265 26.0242 6.08008 26.3579C6.11862 26.7017 6.13142 27.0446 6.1265 27.3904C6.1214 27.7459 6.10073 28.1007 6.07234 28.4551C6.0589 28.6231 6.04329 28.7908 6.02856 28.9587C6.01731 29.0868 6.0121 29.2139 5.98597 29.338C6.15298 29.297 6.32036 29.2582 6.48722 29.2205C7.01928 29.1005 7.55356 28.989 8.08339 28.8592C8.34348 28.7955 8.59984 28.7192 8.85875 28.6514C9.10255 28.5876 9.35988 28.5102 9.61018 28.4817C9.69951 28.4715 9.71088 28.5937 9.65174 28.6352C9.4483 28.778 9.17811 28.8775 8.94313 28.9575C8.7073 29.0377 8.46215 29.0954 8.22043 29.1548C7.71635 29.2788 7.20749 29.3802 6.69939 29.4858C6.19199 29.5912 5.68363 29.6959 5.18194 29.8261C4.94034 29.8887 4.69955 29.9516 4.46006 30.0219ZM3.26371 23.7535C3.13326 23.8301 3.01549 23.6275 3.14547 23.5512C3.31555 23.4513 3.49682 23.3763 3.67955 23.3032C3.81978 23.2471 3.88012 23.4737 3.74184 23.5291C3.57762 23.5949 3.41654 23.6638 3.26371 23.7535ZM2.79134 32.4585C2.66054 32.5344 2.54268 32.3318 2.6731 32.2562C2.85627 32.1501 3.05687 32.0792 3.24669 31.9863C3.38174 31.9202 3.50036 32.1223 3.36493 32.1886C3.17514 32.2815 2.97451 32.3524 2.79134 32.4585ZM2.57888 27.5171C2.70535 27.6373 2.87414 27.6938 3.03329 27.757C3.17206 27.8119 3.1112 28.0385 2.971 27.9829C2.77271 27.9043 2.57074 27.8325 2.41319 27.6828C2.3036 27.5787 2.46957 27.4133 2.57888 27.5171ZM3.97803 20.8064C4.11706 20.8609 4.05617 21.0874 3.91573 21.0323C3.75997 20.9712 3.59912 20.9247 3.44336 20.8636C3.30436 20.8091 3.36522 20.5826 3.50566 20.6377C3.66142 20.6988 3.82227 20.7453 3.97803 20.8064ZM6.44627 18.1409C6.59401 18.116 6.65692 18.3418 6.50857 18.3668C6.32452 18.3979 6.14328 18.4342 5.96872 18.5018C5.82775 18.5563 5.76727 18.3297 5.90642 18.2759C6.08101 18.2083 6.26225 18.1719 6.44627 18.1409ZM7.26182 24.6307C7.12636 24.5641 7.24521 24.3622 7.38005 24.4284C7.52216 24.4983 7.6694 24.5523 7.82445 24.5853C7.9721 24.6168 7.90921 24.8426 7.76215 24.8113C7.58765 24.7741 7.42162 24.7093 7.26182 24.6307ZM8.03208 20.9751C8.17794 20.9351 8.23962 21.1612 8.09438 21.201C7.83883 21.271 7.57573 21.3074 7.31831 21.3697C7.17161 21.4052 7.10954 21.1792 7.25602 21.1438C7.51343 21.0815 7.77656 21.0451 8.03208 20.9751ZM11.2997 19.8279C11.448 19.8553 11.3848 20.0811 11.2374 20.0539C11.0805 20.0248 10.9215 20.0244 10.7625 20.0243C10.6114 20.0242 10.6117 19.7899 10.7625 19.79C10.9432 19.79 11.1216 19.7949 11.2997 19.8279ZM21.9567 21.052C21.5739 21.0154 21.1905 20.9861 20.8065 20.9641C20.7886 20.9632 20.7711 20.9621 20.7532 20.9612C20.7512 20.9571 20.7485 20.9533 20.7459 20.9492C20.6205 20.7652 20.5283 20.5813 20.4483 20.3734C20.3719 20.1754 20.2978 19.9713 20.18 19.7926C20.0457 19.589 19.8644 19.4298 19.6657 19.2917C19.5452 19.3728 19.4334 19.4677 19.331 19.5682C19.2233 19.6741 19.0576 19.5084 19.1653 19.4026C19.2563 19.3132 19.3534 19.2306 19.4559 19.156C19.3375 19.084 19.2166 19.0164 19.0987 18.9491C18.6567 18.6969 18.2042 18.4637 17.7423 18.2505C17.5276 18.1512 17.3103 18.0631 17.0915 17.9737C16.9738 17.9257 16.8575 17.8639 16.7398 17.8083C16.7483 17.7251 16.7234 17.6319 16.6595 17.5772C16.6124 17.537 16.5758 17.5221 16.5195 17.4937C16.5069 17.4893 16.4993 17.4867 16.4958 17.4852C16.4984 17.4858 16.5061 17.4881 16.5186 17.4922C16.5485 17.506 16.5509 17.5019 16.5257 17.4802C16.5242 17.4328 16.4308 17.3326 16.4094 17.2837C16.335 17.1159 16.3119 16.9384 16.202 16.7855C16.0506 16.5749 15.7964 16.4953 15.5594 16.5667C15.5348 16.3134 15.5284 16.0489 15.4329 15.8228C15.4303 15.8167 15.4218 15.814 15.418 15.8207C15.3184 15.9903 15.3099 16.1792 15.3023 16.3749C15.295 16.5585 15.302 16.7462 15.326 16.9287C15.3108 16.9404 15.2953 16.9516 15.2792 16.9624C15.2036 17.0122 15.1222 17.0506 15.0366 17.079C14.8738 17.1329 14.703 17.1563 14.5323 17.1645C14.0915 17.1856 13.6372 17.1411 13.2038 17.0655C12.7653 16.9891 12.0931 16.8742 11.703 16.6549C11.4455 16.5102 11.208 16.3336 10.9672 16.1625C11.0546 15.8814 11.0768 15.5791 10.9889 15.3416C10.9784 15.3132 10.9339 15.3079 10.9254 15.3416C10.8703 15.5683 10.8542 15.7961 10.781 16.0202C10.7798 16.0234 10.7787 16.0269 10.7775 16.0301C10.7546 16.0146 10.7318 15.9994 10.7089 15.9842C10.6562 15.9493 10.5845 15.9754 10.5528 16.0252C10.047 16.8221 9.24598 16.8678 8.40481 17.0102C7.48423 17.166 6.55903 17.3341 5.67393 17.639C4.82749 17.9307 4.01854 18.3554 3.3777 18.9898C3.23263 19.1334 3.09697 19.2865 2.96892 19.4462C3.09281 19.4618 3.21567 19.4861 3.33696 19.5243C3.48056 19.5694 3.41885 19.7955 3.27466 19.7502C3.11879 19.7012 2.96118 19.677 2.80197 19.6649C2.36654 20.2606 2.02702 20.936 1.73343 21.6009C1.1703 22.8755 0.803752 24.233 0.635078 25.615C0.727689 25.5595 0.821969 25.5067 0.918593 25.4575C1.05285 25.3892 1.17127 25.5914 1.03686 25.6598C0.887605 25.7357 0.742626 25.8194 0.602158 25.9102C0.540798 26.5151 0.517016 27.124 0.531426 27.7319C0.565693 29.1811 0.761342 30.6727 1.20389 32.0555C1.42092 32.7341 1.70854 33.4072 2.13703 33.9806C2.33092 34.2404 2.55117 34.4747 2.81067 34.6701C2.93632 34.765 3.06929 34.8496 3.20958 34.9211C3.39029 35.0136 3.62577 35.0441 3.78159 35.175C3.83284 35.2181 3.87238 35.2749 3.90226 35.339C3.88498 35.4609 3.88293 35.583 3.91632 35.7048C3.92686 35.7429 3.95556 35.7739 3.991 35.7889C3.99159 35.7994 3.99159 35.8097 3.99159 35.8196C3.99159 35.8243 3.99862 35.8255 3.9995 35.8208C4.00096 35.8117 4.00243 35.8027 4.00389 35.7933C4.01531 35.7971 4.02732 35.7989 4.03962 35.7989C4.48452 35.8005 4.92997 35.7897 5.37545 35.7746C5.34101 35.6691 5.30369 35.5644 5.26787 35.4589C5.21922 35.3156 5.4456 35.2546 5.49381 35.3967C5.53572 35.52 5.57953 35.6423 5.61852 35.7661C6.09583 35.7484 6.57301 35.727 7.04933 35.7113C8.06242 35.6776 9.07522 35.6665 10.0886 35.6451C11.6623 35.6117 13.2475 35.5434 14.8236 35.6103C14.8781 35.4946 14.9391 35.3815 14.997 35.2674C15.0652 35.1328 15.2673 35.2515 15.1993 35.3857C15.1591 35.465 15.1174 35.5433 15.0779 35.6224C15.3971 35.639 15.716 35.6609 16.0342 35.6908C16.5772 35.7417 17.115 35.8322 17.6574 35.8885C18.2089 35.9459 18.7484 35.9357 19.2955 35.8446C19.3939 35.8282 19.4519 35.7687 19.4759 35.6949C19.4768 35.6946 19.4774 35.694 19.4779 35.6931C19.5061 35.6603 19.5325 35.6331 19.5597 35.6093C19.5922 35.5883 19.6273 35.5704 19.6686 35.5546C19.7457 35.5253 19.8259 35.5074 19.9073 35.4954C19.997 35.482 20.0878 35.4808 20.1774 35.4697C20.2529 35.46 20.3268 35.4456 20.4005 35.4281C20.5332 35.3964 20.6592 35.3551 20.7845 35.3003C20.8938 35.2526 20.9925 35.1841 21.0856 35.1094C21.2784 34.9685 21.4453 34.7887 21.5912 34.6018C21.6761 34.4926 21.756 34.3792 21.8287 34.2612C21.9552 34.0568 22.063 33.8444 22.1719 33.6303C22.2115 33.5669 22.2476 33.5019 22.2806 33.4356C22.0676 33.3728 21.8526 33.3217 21.6269 33.3181C21.476 33.3156 21.476 33.0813 21.6269 33.0838C21.8858 33.0879 22.1307 33.1484 22.374 33.2204C22.3858 33.1889 22.3972 33.1572 22.4077 33.1251C22.4367 33.058 22.4607 32.9892 22.4807 32.9195C22.4923 32.8878 22.5041 32.8562 22.5158 32.8246C22.5422 32.715 22.5685 32.6052 22.5952 32.4954C22.6482 32.3196 22.69 32.1413 22.7208 31.9606C22.7466 31.8416 22.7665 31.7219 22.78 31.6006C22.821 31.3068 22.8544 31.0137 22.8567 30.7167C22.8532 30.5336 22.8415 30.3509 22.8216 30.169C22.8131 30.0454 22.7987 29.9224 22.7794 29.8002C22.7542 29.6186 22.7293 29.4388 22.6874 29.2596C22.6561 29.1383 22.6248 29.017 22.5934 28.8958C22.5152 28.6431 22.423 28.3952 22.3166 28.153C22.3108 28.1378 22.2812 28.1044 22.2633 28.1041C22.2499 28.1038 22.2311 28.1161 22.2372 28.1326C22.2378 28.134 22.2384 28.1357 22.239 28.1372C22.2329 28.1234 22.227 28.1094 22.2209 28.0956C22.2156 28.0827 22.1951 28.057 22.1793 28.0573C22.1784 28.0573 22.1775 28.0573 22.1763 28.0575C22.1804 28.0546 22.1842 28.0508 22.1881 28.0464C22.2932 27.922 22.3614 27.7582 22.4367 27.6141C22.4991 27.4952 22.558 27.3698 22.575 27.2354C22.5899 27.1174 22.5697 27.0011 22.4956 26.9056C22.4112 26.797 22.2525 26.746 22.3407 26.589C22.4408 26.4103 22.5881 26.2554 22.4414 26.0524C22.3667 25.9491 22.2484 25.8923 22.1605 25.8023C22.0595 25.6983 22.0114 25.5592 22.0141 25.4172C22.0202 25.4207 22.0284 25.419 22.0314 25.4101C22.1163 25.1536 22.0548 24.8718 21.9678 24.622C21.9204 24.4864 21.8199 24.4492 21.703 24.4425C22.2091 23.454 22.6827 22.4496 23.1048 21.4222C23.1189 21.3885 23.1326 21.3549 23.1464 21.3211C23.1669 21.2708 23.1235 21.2037 23.0735 21.1926C22.7085 21.1126 22.3284 21.0871 21.9567 21.052Z" fill="black"/>
</g>
<path fill-rule="evenodd" clip-rule="evenodd" d="M13.8766 3.39136C15.1879 3.39136 16.7613 4.02706 16.895 4.03977L16.8986 4.03996C16.969 4.03996 17.244 4.24947 17.7236 4.66849L17.2042 5.6817L17.2462 5.72185C17.4474 5.91472 17.6191 6.09052 17.7547 6.22911C18.8615 7.36066 19.0605 11.8034 18.7996 13.3528C18.5388 14.9021 18.0556 16.4182 15.8063 16.4182C13.557 16.4182 11.0545 15.0657 10.6691 14.6446C10.4121 14.3638 10.1234 14.2293 9.80307 14.241C9.7899 14.2244 9.77684 14.2078 9.76389 14.1913L9.71676 14.1846C9.27341 14.1204 8.95574 14.034 8.76376 13.9254C8.38878 13.7132 7.97662 12.5979 7.97662 12.3523C7.97662 12.109 7.36118 10.3396 7.34888 10.1524L7.34869 10.1472C7.34869 9.99067 6.54468 9.27112 6.54468 9.0426C6.54468 8.81408 6.38262 8.82795 6.54468 8.0227L6.59177 7.78614C6.76422 6.92878 7.10177 5.50912 8.38878 4.89223C9.80307 4.21434 12.5521 3.39136 13.8766 3.39136Z" fill="white"/>
<path fill-rule="evenodd" clip-rule="evenodd" d="M17.2111 5.678C16.9153 5.68883 16.5958 5.70292 16.2653 5.72126C15.5524 5.76082 14.7967 5.81972 14.1211 5.90674C13.4303 5.99573 12.8784 6.10764 12.5427 6.23503C12.3595 6.30456 12.1271 6.5109 11.883 6.93826C11.6475 7.35047 11.4549 7.8745 11.3035 8.4146C11.1535 8.94924 11.052 9.46983 10.988 9.85926C10.9561 10.0531 10.9338 10.2124 10.9197 10.322C10.9126 10.3768 10.9076 10.419 10.9044 10.4469L10.9009 10.4776L10.9002 10.4844L10.9001 10.4852L10.9001 10.4855L10.9001 10.4856L10.9001 10.4856L10.8572 10.9059L10.4759 11.0865L10.4759 11.0865L10.4756 11.0867L10.4753 11.0868L10.4752 11.0869L10.475 11.0869L10.4736 11.0876L10.4594 11.0946C10.4459 11.1012 10.4246 11.1119 10.3966 11.1263C10.3404 11.1553 10.2579 11.1993 10.1579 11.2567C9.95619 11.3723 9.69165 11.5376 9.43133 11.7389L9.42236 11.7458L9.42244 11.7727C9.42286 11.8616 9.42515 11.9827 9.43245 12.1132C9.43984 12.2453 9.45183 12.3768 9.46966 12.4892C9.47419 12.5177 9.47884 12.5434 9.48351 12.5663C9.53658 12.5862 9.60724 12.6071 9.693 12.6263C9.80688 12.6519 9.92082 12.669 10.0086 12.6795C10.0517 12.6847 10.0866 12.6881 10.1097 12.6901L10.1345 12.6922L10.138 12.6925L10.1383 12.6925L10.1385 12.6925L10.1388 12.6925L10.1391 12.6925L10.1393 12.6925L10.1394 12.6926L10.6595 12.7257L10.809 13.2263L10.9915 13.8378L11.0327 13.9757L11.0199 14.119L10.9521 14.8803C10.8204 14.7903 10.724 14.7125 10.6697 14.6531C10.4127 14.3723 10.1241 14.2378 9.80371 14.2496L9.76453 14.1999L9.7174 14.1932C9.64503 14.1827 9.57601 14.1716 9.51035 14.16L9.51309 14.1292L9.51034 14.1199C9.46298 14.111 9.41395 14.101 9.36402 14.0898C9.19107 14.0509 8.97751 13.9908 8.77833 13.8949C8.7299 13.8715 8.67279 13.8416 8.61218 13.8037C8.28601 13.4375 7.97726 12.5735 7.97726 12.3608C7.97726 12.32 7.95995 12.2363 7.93109 12.1244C7.9272 12.0402 7.92496 11.9614 7.92372 11.892C7.87806 11.7935 7.84961 11.677 7.85167 11.5412C7.85627 11.2384 8.02348 11.0224 8.10497 10.9264C8.20881 10.8041 8.34712 10.6811 8.51389 10.5521C8.84426 10.2967 9.17042 10.0938 9.41173 9.95543L9.45964 9.92817C9.47284 9.83652 9.48882 9.73159 9.50785 9.61587C9.57764 9.19144 9.6898 8.61351 9.85918 8.00955C10.027 7.41103 10.2594 6.75635 10.5805 6.19429C10.8929 5.64739 11.3484 5.08391 12.0105 4.83263C12.5202 4.6392 13.2193 4.51051 13.9294 4.41904C14.6547 4.32561 15.45 4.2642 16.1822 4.22356C16.5112 4.2053 16.8292 4.19115 17.1245 4.18018C17.2642 4.28418 17.4642 4.44981 17.7243 4.67707L17.2111 5.678ZM9.40053 12.5274C9.4008 12.5273 9.40407 12.5291 9.40952 12.5332C9.40298 12.5295 9.40025 12.5275 9.40053 12.5274Z" fill="white"/>
<path fill-rule="evenodd" clip-rule="evenodd" d="M8.17063 4.86027C8.87599 4.1116 12.8804 2.95358 14.9063 3.19906L14.9671 3.20693C15.1288 3.22743 15.2881 3.25847 15.4454 3.30065C15.9536 3.41936 16.4787 3.5991 16.8986 3.89934C17.2492 4.14496 18.3553 4.54606 18.0293 5.1886C18.1502 5.41761 18.1953 5.70054 18.1136 5.92609C18.1033 6.004 18.0793 6.07575 18.0486 6.15015C18.3068 6.53122 18.5113 6.96218 18.6768 7.37207C18.966 8.40365 19.146 9.4772 19.1723 10.5297C19.26 12.5293 19.0408 14.9178 17.2992 16.2108C16.2471 17.0302 14.5991 17.0577 13.4168 16.0418C13.3497 15.9624 13.0342 15.7481 13.1395 15.7106C13.1708 15.7437 13.203 15.7759 13.2358 15.8075C13.2344 15.804 13.2341 15.8005 13.2347 15.7967L13.2038 15.7687C13.1457 15.715 13.0705 15.637 13.1562 15.6523C13.16 15.6567 13.1641 15.6605 13.1682 15.6649C13.1863 15.6758 13.2 15.6852 13.2107 15.6935L13.2162 15.6979L13.2145 15.6962C13.1651 15.6435 13.1355 15.5898 13.2093 15.6241L13.2191 15.6289C13.252 15.6634 13.2853 15.6965 13.3193 15.7287C13.3187 15.7249 13.3193 15.7211 13.3214 15.717L13.2897 15.6864C13.2588 15.6561 13.2635 15.656 13.2786 15.6315C13.2129 15.5394 13.3356 15.5941 13.3442 15.63C13.421 15.6119 13.4883 15.756 13.5378 15.7735C15.7051 17.4398 18.8503 15.9613 18.7994 11.3183L18.7986 11.2275C18.7837 9.74284 18.6588 8.21692 18.0447 6.87299C17.985 6.74354 17.9182 6.6176 17.8447 6.49575C17.794 6.40437 17.7399 6.31534 17.6816 6.22864C17.5184 6.21546 17.3573 6.18559 17.1986 6.13931C17.1441 6.12555 17.0902 6.11032 17.0363 6.09245C16.2491 6.13539 15.4793 6.1821 14.6899 6.22639L14.4433 6.24174C13.7745 6.28474 13.0828 6.3536 12.5431 6.76726C12.0136 7.14385 12.0112 7.88647 11.5579 8.29994C10.9115 8.73865 10.9068 9.13426 10.7823 9.78078C10.7915 10.2681 11.1295 10.9763 10.5093 11.1814C10.614 11.3305 10.4681 11.2589 10.4566 11.2065C10.4555 11.2068 10.4543 11.2071 10.4534 11.2071C10.5466 11.3804 10.4096 11.2713 10.3975 11.2156C10.3902 11.2136 10.3828 11.2083 10.3755 11.201C10.4694 11.3528 10.3176 11.2465 10.3266 11.2189C10.1451 10.9399 9.77155 10.8966 9.50825 10.9705C9.50503 10.9804 9.49334 10.9813 9.48602 10.976C8.3664 11.2187 8.65527 13.5365 9.80263 13.3124C9.85175 13.3024 9.85057 13.326 9.86033 13.3282C9.83382 13.2586 9.90854 13.287 9.90775 13.3016L9.9123 13.3013C9.91591 13.301 9.91443 13.3006 9.91712 13.3016C9.89149 13.1593 10.0357 13.3654 10.0243 13.3739C10.0287 13.3713 10.0337 13.3698 10.0381 13.3692L10.0331 13.3557C10.0092 13.292 10.0113 13.3185 10.0114 13.2819C9.99344 13.2368 9.99213 13.2566 9.99634 13.2271C10.0595 13.1782 10.0782 13.3267 10.0993 13.3376C10.0632 13.2872 10.0919 13.2461 10.126 13.2734C10.3844 13.817 10.7182 14.3277 11.1496 14.73C11.1968 14.7672 11.2445 14.8038 11.294 14.8383C11.4775 14.9982 11.7589 15.101 11.9307 15.2425C11.9307 15.2449 11.9296 15.2478 11.9278 15.2507L11.9317 15.2543L11.9357 15.2581L11.9955 15.2868C12.013 15.3017 12.0289 15.3184 12.0429 15.3368C12.0579 15.3541 12.071 15.3732 12.0822 15.3934C12.0877 15.418 12.0754 15.4282 12.052 15.4177C12.0417 15.4142 12.0315 15.4101 12.0212 15.4063C12.0218 15.4071 12.0221 15.4077 12.0227 15.4083C12.0261 15.4134 12.0488 15.4661 12.0226 15.4576L12.0195 15.4563C12.0051 15.4511 11.9908 15.4452 11.9767 15.4396C11.9934 15.4604 12.0086 15.483 12.0221 15.502C12.0365 15.517 12.0452 15.5345 12.0488 15.5545C12.0482 15.5656 12.042 15.5703 12.0309 15.5688C12.0139 15.5632 11.9972 15.5574 11.9805 15.5512L11.9853 15.5603C11.9971 15.5835 12.0139 15.6225 11.984 15.6095C11.9585 15.6016 11.934 15.5925 11.9094 15.5826C11.9073 15.5867 11.9032 15.5881 11.895 15.5843C11.8168 15.5565 11.7412 15.5225 11.6689 15.4824C11.6053 15.4361 11.5412 15.3907 11.4774 15.3448C11.4173 15.3087 11.3593 15.2686 11.304 15.2235C10.9336 14.9843 10.6093 14.6804 10.3521 14.3419C9.92186 14.7145 9.06168 14.3585 8.5296 14.0669C8.05896 13.8062 7.87397 13.3242 7.82614 12.8046C7.72671 12.105 7.15499 11.8655 7.19477 10.3305C7.19389 10.3308 7.19298 10.3308 7.19181 10.3308C7.17101 10.3247 7.15083 10.3165 7.13179 10.3059C7.11217 10.2965 7.09372 10.2854 7.07641 10.2719L7.05503 10.2424C7.04393 10.2362 7.03397 10.2298 7.02636 10.2233L7.02241 10.2284C7.00991 10.2435 7.01831 10.2208 7.01903 10.2163L6.98189 10.1658C6.89382 10.0455 6.7972 9.91063 6.7185 9.80274L6.71602 9.80713C6.71424 9.81043 6.7133 9.81283 6.71414 9.81387C6.52684 9.54477 6.3507 9.21972 6.30175 8.90504C6.24397 8.66265 6.26655 8.41288 6.31695 8.18835C6.53308 7.40209 7.24104 5.62286 8.17063 4.86027ZM13.2536 15.7338L13.2419 15.7233L13.2522 15.7363C13.2576 15.743 13.2631 15.749 13.2722 15.7551C13.2716 15.753 13.2716 15.751 13.2718 15.7486C13.2659 15.7441 13.2597 15.7391 13.2536 15.7338ZM14.8974 3.59412C13.5235 3.476 12.1722 3.77867 10.8612 4.14504L10.7707 4.17104C10.0253 4.38375 9.23704 4.57515 8.60706 5.03044C7.72691 5.70458 7.27241 6.77701 6.87578 7.76718C6.52944 8.50285 6.70649 9.3324 7.22842 9.84609C7.28272 9.33562 7.3753 8.84008 7.51999 8.34853C7.55018 8.27173 7.52734 8.24657 7.59242 8.23656C7.69071 9.56123 7.2066 10.5399 8.16463 12.1099C8.58032 12.8506 8.09911 13.3927 9.273 13.7825L9.30477 13.7946C9.54933 13.8869 9.81641 13.9597 10.0559 13.9081L10.0345 13.8732C10.0126 13.8373 10.006 13.8198 10.0378 13.8045C10.0369 13.8027 10.0358 13.8009 10.0346 13.7989C10.0088 13.7503 9.98393 13.7011 9.96017 13.6513C9.95054 13.6545 9.94087 13.6568 9.93088 13.6595C9.93736 13.6715 9.93821 13.6835 9.92008 13.6876C9.85554 13.7097 9.78926 13.7186 9.72142 13.7145L9.70685 13.7134C9.63021 13.7087 9.58191 13.6947 9.53871 13.6817C9.52439 13.6794 9.51003 13.6771 9.49595 13.6741C9.35697 13.6433 9.20986 13.5649 9.11464 13.4873C8.02926 12.8708 8.14143 10.7723 9.47928 10.5739C9.50672 9.25264 10.1352 7.02354 11.1781 5.7645C12.1209 4.6064 14.6946 4.10445 16.4852 4.28144C16.5113 4.29008 16.5374 4.29881 16.5635 4.30762C16.8397 4.33217 17.103 4.45524 17.3795 4.51241C17.181 4.36365 16.9558 4.26457 16.7239 4.18037C16.2617 3.8977 15.732 3.74475 15.2202 3.63688C15.1141 3.61082 15.0066 3.59647 14.8974 3.59412ZM9.41805 11.6353C9.48998 11.5963 9.48175 11.634 9.4983 11.623C10.0157 11.5808 10.5736 12.0338 10.8629 12.4115C10.84 12.4352 10.7782 12.3649 10.7674 12.3538C10.7659 12.3552 10.7642 12.3564 10.7624 12.357L10.7705 12.3684C10.8877 12.5366 10.6553 12.3386 10.6335 12.2978C10.6297 12.2999 10.6259 12.3011 10.6215 12.3002C10.6399 12.3183 10.6962 12.3654 10.7059 12.3989L10.7208 12.4113C10.8614 12.5318 10.8498 12.6224 10.6901 12.4513C10.6939 12.4592 10.6953 12.4665 10.6927 12.4724L10.6982 12.4761C10.7767 12.5309 10.8413 12.6839 10.6772 12.5269C10.6942 12.6416 10.5145 12.4199 10.5088 12.4214C10.1978 12.1773 9.7399 11.9399 9.34981 11.908L9.33638 11.9065C9.2648 11.8973 9.23095 11.876 9.25608 11.8292C9.16792 11.8083 9.18857 11.7648 9.23031 11.7663C9.16813 11.7254 9.2241 11.6863 9.26018 11.7015C9.23537 11.6328 9.33487 11.6786 9.34395 11.669C9.39558 11.5894 9.4095 11.6558 9.41805 11.6353ZM8.33349 7.37822C8.58201 7.28719 9.31607 7.55969 9.25734 7.92059C9.22237 8.00345 9.10715 8.05092 9.02617 8.00415L8.92047 7.93316C8.73653 7.80997 8.57063 7.70195 8.37315 7.59452C8.26566 7.54118 8.21938 7.42795 8.33349 7.37822ZM9.7474 6.84191L9.65142 6.77945C9.13348 6.44047 8.40129 5.92685 9.69981 6.45826C9.8478 6.52172 10.0444 6.55927 10.1252 6.70021C10.252 6.95997 9.91821 6.97743 9.7474 6.84191ZM9.8056 5.32098C9.76404 5.16326 10.2812 5.34833 10.4317 5.39713L10.4547 5.40579C10.6011 5.46035 10.769 5.51097 10.8566 5.63735C10.9592 5.81197 10.7515 5.84814 10.6228 5.76927C10.359 5.59688 10.0698 5.4668 9.8056 5.32098ZM11.1207 4.58627C10.8296 4.26839 11.6086 4.57291 11.7253 4.65744L11.7286 4.65993C11.8157 4.72123 11.7981 4.85327 11.7163 4.89205C11.4835 4.89647 11.3122 4.70246 11.1207 4.58627ZM12.4453 4.23799C11.9825 3.90542 12.5921 4.06361 12.8038 4.19394C12.9481 4.3212 12.7995 4.53604 12.4453 4.23799Z" fill="black"/>
<path fill-rule="evenodd" clip-rule="evenodd" d="M16.4905 14.3582C16.2747 14.4207 16.0431 14.4263 15.8232 14.3618C15.6237 14.3032 15.4189 14.1744 15.2721 14.0039C15.1417 13.8525 15.0572 13.6684 15.0605 13.472C15.0609 13.4496 15.0689 13.4308 15.0813 13.4163C15.0946 13.4007 15.1131 13.3899 15.133 13.3852C15.1534 13.3804 15.175 13.3822 15.1934 13.3905C15.2101 13.3981 15.2244 13.4109 15.2333 13.4297C15.2559 13.4594 15.2783 13.4886 15.3009 13.5169C15.4823 13.741 15.658 13.9084 15.9308 13.9684C16.0788 14.001 16.2266 13.9865 16.3623 13.9368C16.5074 13.8836 16.6387 13.79 16.7415 13.6703C16.788 13.6162 16.8429 13.5941 16.8965 13.5937C16.9574 13.5933 17.0175 13.6216 17.0627 13.6667C17.1072 13.7111 17.137 13.7714 17.1397 13.8345C17.1421 13.8899 17.124 13.9478 17.076 13.9994C16.9177 14.1694 16.7125 14.2939 16.4905 14.3582ZM16.4838 11.5526C16.705 11.687 17.042 12.0005 16.8041 12.3338C16.524 12.6277 16.1208 12.2907 15.9221 12.1383C15.7378 12.0202 15.5308 12.324 15.7018 12.4619C17.1376 13.5249 17.7203 11.5878 16.5957 11.3945C16.4719 11.3732 16.4259 11.511 16.4838 11.5526ZM14.4149 10.9611C14.3438 10.9156 14.2602 10.9 14.1675 10.9422C14.0951 10.9751 13.9681 11.0849 13.8797 11.2292C13.8192 11.3279 13.7763 11.4438 13.7853 11.5644C13.7873 11.5924 13.777 11.6131 13.7606 11.6284C13.7477 11.6405 13.7291 11.6493 13.7072 11.6521C13.6887 11.6544 13.6679 11.6523 13.6509 11.647C13.6188 11.637 13.6018 11.6161 13.5953 11.5991C13.5335 11.4347 13.5601 11.2513 13.6295 11.0858C13.7231 10.8625 13.8931 10.6754 14.0045 10.6151C14.1951 10.5119 14.4199 10.5071 14.6108 10.6123C14.7733 10.7018 14.8749 10.8463 14.9759 10.9937C14.9974 11.025 15.0187 11.0561 15.0408 11.0866C15.0849 11.1478 15.0893 11.2085 15.0722 11.2605C15.0533 11.3182 15.005 11.3669 14.9446 11.3923C14.8887 11.4159 14.8239 11.4192 14.7666 11.395C14.7182 11.3746 14.6737 11.3347 14.6456 11.2672C14.5982 11.1534 14.5193 11.0278 14.4149 10.9611ZM18.0252 11.2142C17.9765 11.2396 17.9384 11.2473 17.8844 11.2311C17.8546 11.2221 17.825 11.2049 17.8019 11.1818C17.779 11.1589 17.7625 11.1304 17.7561 11.0988C17.7403 11.0208 17.6976 10.9479 17.6368 10.9003C17.5849 10.8596 17.5193 10.838 17.4465 10.8502C17.368 10.8633 17.2932 10.9137 17.2417 10.973C17.2245 10.9929 17.211 11.0154 17.1974 11.0379C17.172 11.0798 17.1474 11.1187 17.1124 11.1495C17.0991 11.1612 17.0791 11.1693 17.0597 11.1693C17.0519 11.1693 17.0439 11.168 17.0363 11.1656C16.9581 11.0872 16.9431 11.0277 16.9456 10.9687C16.9483 10.9068 16.9726 10.8442 17.0121 10.7857C17.1046 10.6486 17.2801 10.5362 17.3986 10.5107C17.5609 10.4758 17.7221 10.5177 17.8513 10.6083C17.9842 10.7016 18.0827 10.8464 18.1135 11.0095C18.1208 11.0488 18.1177 11.0912 18.1027 11.128C18.0881 11.164 18.0626 11.1947 18.0252 11.2142ZM14.7728 9.49904C14.6754 9.59392 14.5601 9.60862 14.4435 9.62169C14.3787 9.62902 14.327 9.63493 14.2761 9.64641C14.1362 9.67799 13.998 9.72555 13.8718 9.79405C13.7399 9.86565 13.5962 9.95201 13.4928 10.0626C13.4682 10.089 13.4451 10.1166 13.4218 10.1443C13.4007 10.1695 13.3803 10.1938 13.3588 10.2172C13.3341 10.2442 13.3107 10.2724 13.2874 10.3005C13.273 10.3242 13.2701 10.3301 13.2672 10.3362C13.2629 10.3453 13.2578 10.3555 13.252 10.3665C13.244 10.3815 13.2347 10.3979 13.225 10.4128C13.2088 10.4401 13.2001 10.4476 13.1925 10.4509C13.1801 10.4565 13.1682 10.4592 13.1568 10.4578C13.146 10.4564 13.1358 10.4512 13.1258 10.4427C13.0758 10.4005 13.0611 10.3312 13.0626 10.2576C13.0649 10.1459 13.1061 10.0223 13.1441 9.94626C13.2323 9.76966 13.3548 9.58607 13.502 9.45426C13.67 9.30381 13.8538 9.18991 14.0649 9.11142C14.1961 9.06263 14.348 9.01784 14.4909 9.0235C14.5938 9.02757 14.692 9.05815 14.7732 9.13452C14.823 9.18141 14.8469 9.24809 14.8469 9.31473C14.8469 9.3827 14.822 9.45106 14.7728 9.49904ZM18.2232 10.3679C18.2171 10.378 18.2085 10.385 18.1989 10.3892C18.1889 10.3936 18.1778 10.3949 18.1671 10.3931C18.1564 10.3913 18.1463 10.3865 18.1382 10.3791C18.1305 10.372 18.1247 10.3626 18.122 10.3511C18.0574 10.0671 17.9318 9.85586 17.6639 9.71961C17.5321 9.65259 17.3805 9.61001 17.237 9.57605C17.1953 9.56619 17.1512 9.55979 17.1069 9.55331C16.9678 9.53301 16.8278 9.50976 16.7371 9.39735C16.6825 9.32965 16.6596 9.24306 16.6725 9.16387C16.6847 9.0893 16.7283 9.02093 16.8075 8.97996C17.0047 8.87801 17.2497 8.97805 17.4488 9.06327C17.4636 9.0696 17.4781 9.0758 17.4923 9.08179C17.687 9.16399 17.8646 9.27248 18.0106 9.42765C18.1265 9.55075 18.2338 9.73272 18.277 9.91993C18.313 10.0757 18.3045 10.2347 18.2232 10.3679Z" fill="black"/>
<path fill-rule="evenodd" clip-rule="evenodd" d="M20.149 9.55546C20.1249 9.55145 20.1008 9.54767 20.0766 9.54413C20.0578 9.53344 20.0357 9.52521 20.01 9.52026C19.9512 9.50535 19.8929 9.4953 19.8347 9.48989C18.999 9.30182 17.0658 9.56885 16.986 10.282C16.7199 10.3708 16.4896 10.2913 16.1812 10.2992C15.9464 9.31784 11.8875 9.45635 11.6923 10.048C11.6915 10.0478 11.6908 10.0476 11.69 10.0474C11.5025 9.98932 11.226 10.0033 11.0113 9.99412C10.5529 9.98451 10.094 10.0254 9.64546 10.1221C8.80561 10.2555 7.6594 10.4118 8.2435 11.4605C8.24362 11.4607 8.24371 11.4609 8.24385 11.4611L8.24394 11.461C8.3446 11.5642 8.51545 11.4811 8.5218 11.3414C8.32542 10.8446 8.76897 10.7849 9.11024 10.6421C9.95941 10.3371 10.8239 10.2948 11.7022 10.3891C11.7683 10.4669 11.8685 10.5348 11.9745 10.5703C12.5617 10.6677 12.2522 11.1033 12.6234 11.1667C12.5552 12.685 14.3987 13.5139 15.4668 12.5157C15.8933 12.0988 15.995 11.4811 16.0938 10.9244C16.1461 10.9126 16.1794 10.884 16.1988 10.8462C16.3245 10.7207 16.4035 10.6047 16.6521 10.5703C16.9008 10.5358 17.0922 10.605 17.1181 10.6261C17.1246 10.6393 17.1316 10.6525 17.1397 10.6657C17.1511 10.6853 17.1666 10.701 17.1841 10.7133C16.9386 12.2253 18.1124 13.1815 19.2974 12.3973C19.8123 11.913 19.9211 11.1714 19.9426 10.5096C20.0124 10.4675 20.0566 10.3858 20.0324 10.2832C19.9991 10.1417 20.0772 10.0192 20.2016 9.95774C20.3632 9.87787 20.3346 9.58619 20.149 9.55546ZM15.0572 10.2728C14.9101 10.2404 14.8473 10.4672 14.9949 10.4996C15.0994 10.5226 15.1879 10.5753 15.2478 10.6646L15.2541 10.6743C15.3343 10.802 15.5374 10.6841 15.4565 10.5555C15.3656 10.4108 15.2242 10.3095 15.0572 10.2728ZM19.3652 10.1322C19.3133 10.0956 19.2349 10.1228 19.2048 10.1744C19.1716 10.2312 19.1933 10.2945 19.2419 10.3317L19.2469 10.3353C19.2914 10.3667 19.3348 10.423 19.3402 10.4806L19.3407 10.4878C19.3465 10.6387 19.5811 10.6395 19.5752 10.4878C19.5695 10.3395 19.4836 10.2155 19.3652 10.1322Z" fill="black"/>
</svg>
